<?xml version="1.0" encoding="UTF-8"?>
<svg width="70px" height="70px" viewBox="0 0 70 70" version="1.1" xmlns="http://www.w3.org/2000/svg" xmlns:xlink="http://www.w3.org/1999/xlink">
    <title>water</title>
    <g id="LP_selected" stroke="none" stroke-width="1" fill="none" fill-rule="evenodd">
        <g id="_rituals_green_friday_LP_desktop-Copy" transform="translate(-295.000000, -257.000000)">
            <g id="Group-12" transform="translate(145.000000, 70.000000)">
                <g id="water" transform="translate(19.000000, 187.000000)">
                    <g id="Group-7" transform="translate(0.000000, -0.000000)">
                        <g id="water" transform="translate(131.000000, 0.000000)">
                            <circle id="Oval" fill="#F6F4F2" cx="35" cy="35" r="35"></circle>
                            <g id="noun_Water_1733460" transform="translate(21.000000, 16.370258)" fill-rule="nonzero">
                                <path d="M13.6508473,0.150124291 C13.8278119,-0.0500414303 14.172188,-0.0500414303 14.3491527,0.150124291 C14.9066597,0.781556181 28,15.6957221 28,23.2597117 C28,30.9792848 21.719573,37.2594843 14,37.2594843 C6.28042697,37.2594843 0,30.9792848 0,23.2597117 C0,15.6957221 13.0933402,0.781556181 13.6508473,0.150124291 Z" id="Shape" fill="#2D3227"></path>
                                <path d="M23.4453199,22.6596695 C23.1880615,22.6596695 22.9794797,22.8680238 22.9794797,23.1255097 C22.9794797,28.0768818 18.951372,32.1052169 14,32.1052169 C13.7427415,32.1052169 13.5341597,32.3135712 13.5341597,32.5710572 C13.5341597,32.8285431 13.7427415,33.0368974 14,33.0368974 C19.4649791,33.0368974 23.9111601,28.5904888 23.9111601,23.1255097 C23.9111601,22.8680239 23.7025784,22.6596695 23.4453199,22.6596695 Z" id="Path" fill="#F6F4F2"></path>
                            </g>
                        </g>
                    </g>
                </g>
            </g>
        </g>
    </g>
</svg>