<?xml version="1.0" encoding="UTF-8"?>
<svg width="71px" height="71px" viewBox="0 0 71 71" version="1.1" xmlns="http://www.w3.org/2000/svg" xmlns:xlink="http://www.w3.org/1999/xlink">
    <title>energy</title>
    <g id="LP_selected" stroke="none" stroke-width="1" fill="none" fill-rule="evenodd">
        <g id="_rituals_green_friday_LP_desktop-Copy" transform="translate(-1091.000000, -624.000000)">
            <g id="Group-12" transform="translate(145.000000, 70.000000)">
                <g id="co2-copy" transform="translate(796.750000, 554.308518)">
                    <g id="energy" transform="translate(150.000000, 0.000000)">
                        <circle id="Oval" fill="#F6F4F2" cx="35" cy="35" r="35"></circle>
                        <g id="noun_green-energy_1744404" transform="translate(20.060995, 16.500000)" fill="#2D3227" fill-rule="nonzero">
                            <path d="M21.2298802,22.3570115 L21.2298802,25.9115259 C21.2298802,31.5032089 16.6806202,36.0520061 11.0889372,36.0520061 C5.49725413,36.0520061 0.947994149,31.5032089 0.947994149,25.9115259 L0.947994149,19.0492741 C0.947994149,19.0492741 0,19.0492741 0,19.0492741 L0,25.9115259 C0,32.0258091 4.97465394,37 11.0889371,37 C17.2032203,37 22.1778741,32.0258091 22.1778741,25.9115259 L22.1778741,22.3570115 C22.1778741,22.3570115 21.2298802,22.3570115 21.2298802,22.3570115 Z" id="Path" stroke="#2D3227"></path>
                            <path d="M28.5638724,10.9565511 L28.5638724,15.4965534 C28.5638724,19.2792714 25.4861323,22.3570115 21.7034143,22.3570115 C17.9206963,22.3570115 14.843419,19.2792714 14.843419,15.4965534 L14.843419,10.9565511 L28.5638724,10.9565511 Z M29.8780105,7.23447137 L29.8780105,10.0085572 L13.529281,10.0085572 L13.529281,7.23447137 L29.8780105,7.23447137 Z M25.2806102,0 C25.833761,0 26.2841507,0.450389696 26.2841507,1.00400337 L26.2841507,6.28647742 L24.2766068,6.28647742 L24.2766068,1.00400337 C24.2766068,0.450389696 24.7269965,0 25.2806102,0 Z M18.1266813,0 C18.6802949,0 19.1306846,0.450389696 19.1306846,1.00400337 L19.1306846,6.28647742 L17.1231408,6.28647742 L17.1231408,1.00400337 C17.1231408,0.450389696 17.5735305,0 18.1266813,0 Z" id="Shape"></path>
                        </g>
                    </g>
                </g>
            </g>
        </g>
    </g>
</svg>