<?xml version="1.0" encoding="UTF-8"?>
<svg width="71px" height="70px" viewBox="0 0 71 70" version="1.1" xmlns="http://www.w3.org/2000/svg" xmlns:xlink="http://www.w3.org/1999/xlink">
    <title>waste-icon</title>
    <g id="LP_selected" stroke="none" stroke-width="1" fill="none" fill-rule="evenodd">
        <g id="_rituals_green_friday_LP_desktop-Copy" transform="translate(-1094.000000, -260.000000)">
            <g id="Group-12" transform="translate(145.000000, 70.000000)">
                <g id="waste" transform="translate(830.500000, 190.000000)">
                    <g id="waste-icon" transform="translate(119.000000, 0.000000)">
                        <circle id="Oval" fill="#F6F4F2" cx="35" cy="35" r="35"></circle>
                        <g id="noun_green-bin_1733453" transform="translate(21.903226, 17.838710)" fill="#2D3227" fill-rule="nonzero">
                            <path d="M22.6542969,34.3225806 L3.53925153,34.3225806 L2.23719837,7.29019656 L23.9567911,7.29019656 L22.6542969,34.3225806 Z M9.5954511,0 L16.5980973,0 C17.6589631,0 18.5226342,0.820698381 18.6116392,1.85893395 L7.58190919,1.85893395 C7.67091419,0.820698381 8.5345853,0 9.5954511,0 Z M0,5.60943799 L0,3.53925148 C0,3.11057203 0.34841231,2.76215976 0.777091723,2.76215976 L25.4164567,2.76215976 C25.8451361,2.76215976 26.1935484,3.11057207 26.1935484,3.53925148 L26.1935484,5.60943799 C26.1935484,6.03811745 25.8451361,6.38697075 25.4164567,6.38697075 L0.777091723,6.38697075 C0.34841231,6.38697075 0,6.03811745 0,5.60943799 Z" id="Shape"></path>
                        </g>
                    </g>
                </g>
            </g>
        </g>
    </g>
</svg>