<?xml version="1.0" encoding="UTF-8"?>
<svg width="70px" height="71px" viewBox="0 0 70 71" version="1.1" xmlns="http://www.w3.org/2000/svg" xmlns:xlink="http://www.w3.org/1999/xlink">
    <title>co2</title>
    <g id="LP_selected" stroke="none" stroke-width="1" fill="none" fill-rule="evenodd">
        <g id="_rituals_green_friday_LP_desktop-Copy" transform="translate(-295.000000, -624.000000)">
            <g id="Group-12" transform="translate(145.000000, 70.000000)">
                <g id="co2" transform="translate(0.000000, 554.308518)">
                    <g id="Group-7" transform="translate(0.000000, 0.000000)">
                        <g id="co2" transform="translate(150.000000, 0.000000)">
                            <circle id="Oval" fill="#F6F4F2" cx="35" cy="35" r="35"></circle>
                            <g id="noun_leaf_3821971" transform="translate(18.438801, 16.500000)" fill-rule="nonzero">
                                <path d="M0,17.0045658 C0.217733159,25.9864659 7.56303263,33.2251063 16.5609664,33.2251063 C25.5633153,33.2251063 32.9116356,25.9781005 33.1223976,16.9901587 C32.2891093,16.8821054 30.2502717,16.6762232 27.9114409,16.8702544 C27.7262399,16.8855911 27.5514957,16.7931067 27.4597085,16.6332343 C27.3676889,16.4733619 27.3762867,16.2749157 27.4820162,16.1236411 C29.6737551,12.9833571 29.2538577,8.15906852 29.0891055,6.84523355 C28.1170907,6.72114655 25.2235864,6.4555446 22.5245781,7.22400095 C22.2710596,7.29394514 22.0101051,7.15010647 21.9371401,6.8989116 C20.9465354,3.48605449 17.696804,0.754746368 16.7268805,0 C15.748824,0.761949912 12.4486676,3.53833835 11.4903628,6.98581898 C11.4559717,7.11013836 11.3723175,7.21517079 11.2589196,7.27674952 C11.1457541,7.33832826 11.0119075,7.35110877 10.8892147,7.31253491 C8.10864362,6.43811664 5.04016278,6.71719616 4.03305968,6.8452335 C3.8680751,8.15930086 3.44887482,12.9805686 5.6378252,16.1203878 C5.74309001,16.2711977 5.75192018,16.4691792 5.66036536,16.6288192 C5.56904292,16.7886916 5.39383392,16.8814083 5.21049191,16.8670012 C2.87468208,16.6845887 0.833753058,16.8951183 0,17.0045658 Z" id="Shape" fill="#2D3227"></path>
                                <path d="M16.5609664,37 C16.2981529,37 16.0850672,36.7869143 16.0850672,36.5241008 L16.0850672,9.73037238 C16.0850672,9.46755891 16.2981529,9.25447319 16.5609664,9.25447319 C16.8237799,9.25447319 17.0368656,9.46755891 17.0368656,9.73037238 L17.0368656,36.5241008 C17.0368656,36.7869143 16.8237799,37 16.5609664,37 Z" id="Path" fill="#4D6352"></path>
                                <path d="M16.0850672,33.2251063 L16.0850672,9.66562433 C16.0850672,9.43856771 16.2981529,9.25447319 16.5609664,9.25447319 C16.8237799,9.25447319 17.0368656,9.43856771 17.0368656,9.66562433 L17.0368656,33.2251063 C17.0368656,33.2251063 16.0850672,33.2251063 16.0850672,33.2251063 Z" id="Path" fill="#F6F4F2"></path>
                                <path d="M16.5609664,26.8513569 C13.3316837,26.8513569 10.3289643,25.2412468 8.52830866,22.5445622 C8.38237865,22.3261319 8.4411689,22.0305539 8.65983159,21.8846238 C8.87756475,21.738229 9.1736075,21.7972517 9.31976994,22.0161467 C10.94359,24.4476942 13.650499,25.8995585 16.5609665,25.8995585 C19.4716663,25.8995585 22.1785753,24.4476942 23.8023954,22.0161467 C23.9485578,21.7977164 24.2441358,21.7384614 24.4623337,21.8846238 C24.6809964,22.0305538 24.7397867,22.3261319 24.5938566,22.5445622 C22.7932009,25.2412468 19.7902492,26.8513569 16.5609664,26.8513569 Z" id="Path" fill="#F6F4F2"></path>
                                <path d="M16.5609664,15.5561871 C14.7405591,15.5561871 13.0477243,14.6485395 12.0324882,13.1283576 C11.8865582,12.9099273 11.9453484,12.6143493 12.1640111,12.4684193 C12.3819767,12.3224893 12.677787,12.3808148 12.8239495,12.5999422 C13.6621176,13.8549869 15.059142,14.6043887 16.5609665,14.6043887 C18.0630233,14.6043887 19.4598153,13.8549869 20.2979834,12.5999422 C20.4436811,12.3815119 20.7399562,12.3222569 20.9579218,12.4684193 C21.1765845,12.6143493 21.2353747,12.909695 21.0894447,13.1283576 C20.0744409,14.6485395 18.3816061,15.5561871 16.5609664,15.5561871 Z" id="Path" fill="#F6F4F2"></path>
                            </g>
                        </g>
                    </g>
                </g>
            </g>
        </g>
    </g>
</svg>