<svg xmlns="http://www.w3.org/2000/svg" width="1622" height="72" viewBox="0 0 1622 72"><path fill="#B4B4B4" d="M1.0078267,71.2499387 C3.71692983,71.2075269 6.38779265,71.126761 9.02182762,71.0081172 C9.2976903,70.9956916 9.51124827,70.7619878 9.4988227,70.4861252 C9.48639713,70.2102625 9.25269333,69.9967045 8.97683065,70.0091301 C6.35260643,70.127332 3.6915254,70.207802 0.9921733,70.2500613 C0.716064759,70.2543838 0.495738694,70.4817182 0.49999873,70.7578267 C0.504383828,71.0339352 0.731718158,71.2542613 1.0078267,71.2499387 Z M17.0229553,70.5231688 C19.724495,70.3163569 22.3863198,70.067911 25.0104133,69.7783564 C25.2848898,69.7480694 25.4828444,69.5010099 25.4525574,69.2265335 C25.4222704,68.952057 25.1752109,68.7541024 24.9007344,68.7843894 C22.2877674,69.0727162 19.6370602,69.3201244 16.9466253,69.5260862 C16.6712885,69.5471642 16.465171,69.7874558 16.486249,70.0627926 C16.5073269,70.3381293 16.7476185,70.5442468 17.0229553,70.5231688 Z M32.9568478,68.759802 C35.6322598,68.3680339 38.2679797,67.9315973 40.8668917,67.4509939 C41.1384302,67.4007797 41.317849,67.1399476 41.2676348,66.8684091 C41.2174206,66.5968707 40.9565885,66.4174519 40.68505,66.4676661 C38.0984275,66.9459969 35.4750278,67.3803934 32.8119601,67.7703539 C32.5387315,67.8103635 32.3496702,68.0642932 32.3896799,68.3375218 C32.4296895,68.6107503 32.6836192,68.7998116 32.9568478,68.759802 Z M48.7315995,65.837596 C51.3629276,65.2434552 53.9571726,64.6020212 56.5187636,63.9135565 C56.7854422,63.8418828 56.9435249,63.567594 56.8718511,63.3009154 C56.8001774,63.0342368 56.5258886,62.8761541 56.25921,62.9478278 C53.710629,63.6327959 51.1294872,64.2709901 48.5113492,64.8621526 C48.241988,64.922973 48.0729322,65.1906381 48.1337526,65.4599994 C48.1945731,65.7293606 48.4622382,65.8984164 48.7315995,65.837596 Z M64.2214254,61.6723781 C66.7832349,60.8692558 69.3152805,60.0170616 71.8249006,59.1151898 C72.0847719,59.021801 72.2197326,58.7354269 72.1263437,58.4755556 C72.0329548,58.2156842 71.7465808,58.0807235 71.4867095,58.1741124 C68.9899332,59.0713685 66.4709033,59.9191821 63.9222829,60.7181697 C63.6587855,60.8007756 63.512144,61.0813478 63.5947499,61.3448452 C63.6773558,61.6083426 63.957928,61.7549841 64.2214254,61.6723781 Z M79.3307784,56.2448768 C81.7978878,55.2444567 84.2505693,54.19375 86.7027781,53.0892783 C86.9545607,52.9758758 87.0667399,52.6798347 86.9533373,52.4280521 C86.8399348,52.1762695 86.5438937,52.0640904 86.2921111,52.1774929 C83.8512796,53.2768402 81.4102167,54.3225696 78.9549957,55.318169 C78.6990924,55.4219386 78.5757636,55.713511 78.6795331,55.9694143 C78.7833027,56.2253176 79.0748751,56.3486463 79.3307784,56.2448768 Z M93.9426658,49.6747512 C96.2932295,48.5175305 98.659175,47.3069265 101.076145,46.0279292 C101.320221,45.898771 101.413379,45.5962054 101.284221,45.3521301 C101.155063,45.1080548 100.852497,45.0148961 100.608422,45.1440543 C98.1998292,46.4186183 95.8425293,47.6247986 93.5009756,48.7775836 C93.2532296,48.899553 93.1512675,49.1992665 93.2732369,49.4470125 C93.3952063,49.6947585 93.6949198,49.7967206 93.9426658,49.6747512 Z M108.112522,42.1966999 L109.429785,41.4582803 L111.458595,40.3102648 L112.862414,39.5091663 L115.072495,38.2387479 C115.311674,38.1007334 115.393684,37.7949576 115.25567,37.5557786 C115.117655,37.3165996 114.811879,37.2345896 114.5727,37.3726042 L112.366098,38.6410244 L110.280754,39.8291238 L108.279694,40.957308 C108.060667,41.080089 107.842516,41.2021383 107.625013,41.3235819 C107.383908,41.4582037 107.297587,41.7627904 107.432208,42.0038953 C107.56683,42.2450002 107.871417,42.3313218 108.112522,42.1966999 Z M121.998455,34.2150488 L127.512713,31.0169808 L128.918105,30.2103864 C129.157777,30.0732298 129.240882,29.7677498 129.103725,29.5280778 C128.966569,29.2884058 128.661089,29.2053006 128.421417,29.3424571 L123.13539,32.3962512 L121.495148,33.3509407 C121.256531,33.4899249 121.175763,33.796031 121.314747,34.0346479 C121.453732,34.2732647 121.759838,34.354033 121.998455,34.2150488 Z M135.895592,26.302679 C138.371165,24.9535964 140.702969,23.7300717 142.965978,22.5976774 C143.212928,22.4741051 143.312946,22.1737371 143.189373,21.9267867 C143.065801,21.6798363 142.765433,21.5798186 142.518483,21.7033909 C140.244468,22.8412926 137.902437,24.0701836 135.417076,25.4246001 C135.174602,25.5567386 135.085156,25.8604227 135.217295,26.1028975 C135.349433,26.3453723 135.653118,26.4348175 135.895592,26.302679 Z M150.174112,19.2004286 C152.671842,18.1014009 155.125035,17.1084848 157.562522,16.2146641 C157.821783,16.1195937 157.954885,15.8323514 157.859815,15.5730905 C157.764745,15.3138295 157.477502,15.1807268 157.218241,15.2757972 C154.760499,16.1770454 152.287871,17.1778281 149.771365,18.2851171 C149.518609,18.3963325 149.403867,18.6913899 149.515083,18.9441462 C149.626298,19.1969025 149.921356,19.311644 150.174112,19.2004286 Z M165.143289,13.7431703 C167.709713,13.0127261 170.28303,12.3895994 172.879339,11.873652 C173.150185,11.8198286 173.326117,11.5566318 173.272293,11.2857857 C173.21847,11.0149395 172.955273,10.8390078 172.684427,10.8928313 C170.06131,11.414106 167.461711,12.0435969 164.869545,12.7813678 C164.603951,12.8569601 164.449924,13.1335466 164.525516,13.3991411 C164.601108,13.6647355 164.877695,13.8187627 165.143289,13.7431703 Z M180.748524,10.6485109 C183.355204,10.3533322 185.99815,10.1622009 188.687155,10.0769863 C188.963159,10.0682398 189.179814,9.83740397 189.171068,9.56140015 C189.162321,9.28539633 188.931485,9.06874152 188.655481,9.07748808 C185.939468,9.16355856 183.269552,9.35664027 180.636003,9.65486151 C180.361615,9.6859331 180.164367,9.9335576 180.195439,10.2079463 C180.22651,10.482335 180.474135,10.6795825 180.748524,10.6485109 Z M196.654904,10.09293 C199.363536,10.171015 202.013653,10.3168426 204.613394,10.5291098 C204.888621,10.5515818 205.129953,10.3466839 205.152425,10.0714574 C205.174897,9.79623089 204.969999,9.55489854 204.694773,9.53242649 C202.077481,9.31872638 199.409838,9.17193439 196.68372,9.09334531 C196.407693,9.08538793 196.177477,9.30270186 196.16952,9.57872956 C196.161563,9.85475726 196.378876,10.0849727 196.654904,10.09293 Z M212.543734,11.4018459 C215.203291,11.7721033 217.818176,12.2160832 220.403436,12.7334499 C220.674209,12.7876376 220.937642,12.6120601 220.99183,12.3412866 C221.046018,12.070513 220.87044,11.8070799 220.599667,11.7528922 C217.995147,11.2316712 215.360808,10.7843882 212.681622,10.4113981 C212.408117,10.3733214 212.155531,10.5641735 212.117454,10.8376781 C212.079377,11.1111827 212.270229,11.3637692 212.543734,11.4018459 Z M228.175111,14.5288372 C230.72391,15.1963856 233.264488,15.9387267 235.829586,16.7610757 C236.092546,16.8453783 236.374057,16.7005483 236.45836,16.4375889 C236.542662,16.1746294 236.397832,15.8931179 236.134873,15.8088153 C233.552935,14.9810677 230.995076,14.233677 228.428472,13.5614655 C228.16134,13.4915017 227.88807,13.6513383 227.818106,13.9184706 C227.748142,14.1856029 227.907979,14.4588734 228.175111,14.5288372 Z M243.369404,19.3754607 C244.558281,19.8168112 245.762274,20.2763887 246.996341,20.7593575 L248.871866,21.5019996 C249.505806,21.7558251 250.149134,22.016144 250.80372,22.2836018 C251.059348,22.3880488 251.351246,22.2654928 251.455693,22.0098653 C251.56014,21.7542378 251.437584,21.4623397 251.181956,21.3578927 L250.204701,20.9605221 L248.295103,20.1959626 C246.726377,19.5747884 245.210258,18.992163 243.71743,18.4379756 C243.458551,18.341871 243.170779,18.473826 243.074675,18.7327054 C242.97857,18.9915847 243.110525,19.2793561 243.369404,19.3754607 Z M258.178839,25.3822681 L265.527945,28.5467042 C265.781686,28.6556537 266.075705,28.5382769 266.184655,28.2845356 C266.293604,28.0307944 266.176227,27.7367754 265.922486,27.6278259 L258.572778,24.4631315 C258.318965,24.3543483 258.025023,24.4719178 257.91624,24.7257304 C257.807457,24.9795429 257.925026,25.2734849 258.178839,25.3822681 Z M272.896549,31.6565541 L273.868679,32.0553006 L275.770937,32.8251833 C277.335174,33.4522502 278.8509,34.0444568 280.347588,34.6122649 C280.605775,34.7102148 280.894481,34.5803172 280.992431,34.3221304 C281.090381,34.0639436 280.960483,33.7752377 280.702296,33.6772878 L278.902099,32.9861654 C277.088869,32.2819744 275.230902,31.5365731 273.277409,30.7319214 C273.022078,30.6267498 272.729834,30.7484775 272.624662,31.0038078 C272.519491,31.2591381 272.641218,31.5513826 272.896549,31.6565541 Z M287.900213,37.3195546 C290.459629,38.1802169 293.002248,38.9747876 295.5577,39.7087495 C295.823112,39.7849796 296.100068,39.6316173 296.176298,39.3662052 C296.252528,39.1007931 296.099165,38.8238373 295.833753,38.7476072 C293.292907,38.0178402 290.764494,37.2277089 288.218947,36.3717105 C287.957207,36.2836944 287.673674,36.4245255 287.585658,36.6862654 C287.497642,36.9480053 287.638473,37.2315386 287.900213,37.3195546 Z M303.330865,41.7420155 C305.914674,42.3516825 308.527762,42.9025954 311.183062,43.3949845 C311.454576,43.4453329 311.715497,43.2660432 311.765845,42.9945296 C311.816194,42.723016 311.636904,42.4620952 311.36539,42.4117467 C308.726025,41.9223125 306.128712,41.3747257 303.560515,40.7687423 C303.291753,40.7053261 303.02247,40.8717918 302.959053,41.1405538 C302.895637,41.4093157 303.062103,41.6785993 303.330865,41.7420155 Z M319.118413,44.6730887 C321.72689,45.0311198 324.381482,45.3357645 327.089107,45.5862478 C327.364076,45.6116852 327.607603,45.4094004 327.63304,45.1344322 C327.658477,44.8594639 327.456193,44.615937 327.181224,44.5904996 C324.488234,44.3413703 321.848268,44.0384039 319.254394,43.6823774 C318.980817,43.644827 318.728598,43.8361648 318.691048,44.1097422 C318.653497,44.3833195 318.844835,44.6355384 319.118413,44.6730887 Z M335.077419,46.1589953 C337.697127,46.2939832 340.367278,46.381227 343.091994,46.4198767 C343.368108,46.4237934 343.595118,46.2031333 343.599086,45.9270187 C343.602952,45.6509041 343.382292,45.423894 343.106177,45.4199773 C340.393836,45.3815032 337.736112,45.2946654 335.128879,45.1603203 C334.853102,45.1461101 334.618021,45.3581515 334.603811,45.633928 C334.589601,45.9097045 334.801642,46.1447852 335.077419,46.1589953 Z M351.107552,46.3917751 C353.77692,46.3322995 356.44685,46.2201452 359.120004,46.0561822 C359.395628,46.0392763 359.605361,45.8021336 359.588455,45.5265092 C359.571549,45.2508848 359.334407,45.0411521 359.058782,45.058058 C356.398529,45.2212297 353.741581,45.3328386 351.085276,45.3920232 C350.809202,45.3981743 350.590387,45.6269629 350.596538,45.9030368 C350.602689,46.1791106 350.831478,46.3979262 351.107552,46.3917751 Z M367.127155,45.4121516 C369.773509,45.1492866 372.425736,44.8368031 375.087621,44.4753465 C375.361252,44.4381902 375.552953,44.1862472 375.515797,43.912616 C375.478641,43.6389849 375.226698,43.4472841 374.953066,43.4844404 C372.302964,43.8442971 369.662637,44.1553783 367.02831,44.4170487 C366.75352,44.4443439 366.552886,44.6892324 366.580181,44.9640224 C366.607476,45.2388125 366.852365,45.4394468 367.127155,45.4121516 Z M383.014041,43.2603639 C385.626436,42.8150018 388.251955,42.3237899 390.896298,41.7868522 C391.166918,41.7319024 391.341753,41.4679761 391.286803,41.1973561 C391.231853,40.9267362 390.967927,40.751901 390.697307,40.8068508 C388.06313,41.3417244 385.447918,41.831008 382.845985,42.2745864 C382.57377,42.3209937 382.390717,42.579288 382.437124,42.851503 C382.483531,43.1237179 382.741826,43.3067712 383.014041,43.2603639 Z M398.737755,40.0748427 C401.303969,39.476402 403.893536,38.8361184 406.515877,38.152935 C406.7831,38.083317 406.94329,37.8102537 406.873672,37.5430311 C406.804054,37.2758084 406.530991,37.1156182 406.263768,37.1852362 C403.649606,37.8662887 401.068365,38.5045137 398.510649,39.1009727 C398.241722,39.1636864 398.074553,39.4325341 398.137267,39.7014608 C398.19998,39.9703876 398.468828,40.1375563 398.737755,40.0748427 Z M414.232803,36.0471146 C416.746798,35.3313053 419.299935,34.5765649 421.910693,33.778774 C422.17478,33.6980745 422.323446,33.4185695 422.242746,33.154482 C422.162047,32.8903945 421.882542,32.741729 421.618454,32.8224285 C419.013673,33.6183929 416.466654,34.371325 413.958957,35.0853409 C413.693371,35.1609613 413.539373,35.4375641 413.614993,35.7031505 C413.690614,35.968737 413.967217,36.1227349 414.232803,36.0471146 Z M429.559886,31.3731676 L430.790162,30.974566 L433.290307,30.1557222 L435.852906,29.3050984 C436.285854,29.1604843 436.721888,29.0143998 437.161248,28.8667716 C437.423009,28.7788181 437.563908,28.4953186 437.475954,28.2335576 C437.388001,27.9717967 437.104501,27.8308979 436.84274,27.9188514 L434.248241,28.7854554 L431.72209,29.6185075 C430.890144,29.8909893 430.067661,30.1584636 429.25271,30.4215149 C428.989919,30.5063393 428.845648,30.7881378 428.930472,31.0509294 C429.015296,31.313721 429.297095,31.457992 429.559886,31.3731676 Z M444.749154,26.2801916 L452.309562,23.651466 C452.570234,23.5603364 452.707676,23.2751446 452.616546,23.0144724 C452.525416,22.7538002 452.240225,22.6163588 451.979552,22.7074885 L444.91099,25.1663984 C444.747825,25.2227646 444.585221,25.2789029 444.422987,25.3348796 C444.161946,25.4249482 444.023346,25.7095785 444.113415,25.9706192 C444.203483,26.2316599 444.488114,26.3702602 444.749154,26.2801916 Z M459.850156,21.0127715 L465.429618,19.0705905 L467.404131,18.3886352 C467.665217,18.2986994 467.803963,18.0141397 467.714027,17.7530531 C467.624091,17.4919666 467.339531,17.3532215 467.078445,17.4431572 L459.520249,20.0687581 C459.259567,20.1598595 459.122095,20.4450363 459.213196,20.7057184 C459.304297,20.9664005 459.589474,21.1038728 459.850156,21.0127715 Z M474.976125,15.8152588 L477.216096,15.0705988 L479.3964,14.3547912 C479.755241,14.2377664 480.111916,14.1218478 480.466588,14.0069876 L482.571859,13.330142 C482.834933,13.2461982 482.980147,12.9648846 482.896203,12.7018103 C482.812259,12.4387361 482.530946,12.2935221 482.267872,12.3774659 L480.158721,13.0555582 C479.803412,13.1706246 479.446103,13.2867487 479.086634,13.4039783 L476.902606,14.1210072 L474.658998,14.8668758 C474.397109,14.954448 474.255798,15.2377421 474.34337,15.4996309 C474.430942,15.7615196 474.714236,15.902831 474.976125,15.8152588 Z M490.210346,10.9683213 C492.839066,10.1838238 495.39225,9.45345797 497.890931,8.7728624 C498.157366,8.70029016 498.314523,8.42547008 498.241951,8.15903457 C498.169379,7.89259906 497.894559,7.73544182 497.628123,7.80801406 C495.121478,8.49077923 492.560595,9.2233471 489.924376,10.0100828 C489.659765,10.0890513 489.509273,10.3675769 489.588242,10.6321871 C489.66721,10.8967974 489.945736,11.0472898 490.210346,10.9683213 Z M505.620435,6.78568694 C508.26329,6.1489243 510.856799,5.57013625 513.412403,5.04846032 C513.682966,4.99323027 513.857527,4.72912295 513.802297,4.4585601 C513.747067,4.18799726 513.48296,4.01343554 513.212397,4.06866559 C510.645112,4.59272597 508.04021,5.17405654 505.3862,5.81350683 C505.11774,5.87818891 504.952545,6.14825403 505.017227,6.41671416 C505.081909,6.68517428 505.351974,6.85036903 505.620435,6.78568694 Z M521.281918,3.60457194 C523.946511,3.17283132 526.577759,2.80666395 529.182999,2.50673385 C529.457329,2.47515137 529.654116,2.22716 529.622533,1.95282962 C529.590951,1.67849924 529.342959,1.48171318 529.068629,1.51329566 C526.447932,1.81500527 523.801502,2.18328531 521.121975,2.61744566 C520.849387,2.66161265 520.664216,2.91839281 520.708383,3.19098021 C520.75255,3.4635676 521.00933,3.64873893 521.281918,3.60457194 Z M537.139236,1.79297103 C539.814753,1.62275882 542.46869,1.52611825 545.106158,1.50447852 C545.382291,1.50221292 545.604305,1.2765262 545.602056,1.00039312 C545.599774,0.72426004 545.374087,0.50224658 545.097954,0.504512179 C542.441863,0.526304706 539.769497,0.62361633 537.075746,0.794988559 C536.800161,0.812520864 536.590968,1.05013959 536.6085,1.32572484 C536.626032,1.60131009 536.863651,1.81050333 537.139236,1.79297103 Z M553.082892,1.64616986 C555.778531,1.76219766 558.426986,1.94679545 561.032544,2.19869251 C561.307404,2.22526518 561.551765,2.02398782 561.578337,1.74912694 C561.60491,1.47426606 561.403633,1.22990588 561.128772,1.2033332 C558.505472,0.949720914 555.839269,0.763886097 553.125895,0.64709492 C552.850008,0.635219978 552.616731,0.84924398 552.604856,1.12513091 C552.592981,1.40101784 552.807005,1.63429492 553.082892,1.64616986 Z M568.945297,3.1889157 C571.596957,3.59808297 574.206146,4.08025263 576.780007,4.63442128 C577.049963,4.69254456 577.315924,4.52082013 577.374047,4.25086403 C577.43217,3.98090793 577.260446,3.71494704 576.99049,3.65682377 C574.39746,3.09852797 571.768937,2.61278533 569.097798,2.20061242 C568.824886,2.15850037 568.569508,2.34560103 568.527396,2.61851345 C568.485284,2.89142586 568.672385,3.14680365 568.945297,3.1889157 Z M584.532505,6.54812441 C587.093146,7.26209412 589.625429,8.05018337 592.142441,8.91314849 C592.403657,9.00270721 592.688016,8.86355141 592.777575,8.60233532 C592.867133,8.34111922 592.727978,8.05676005 592.466762,7.96720134 C589.93153,7.09798952 587.380671,6.30411891 584.801085,5.58486699 C584.535089,5.51070071 584.259333,5.66620957 584.185167,5.93220576 C584.111,6.19820195 584.266509,6.47395812 584.532505,6.54812441 Z M599.611211,11.7074081 C602.03877,12.6906771 604.467562,13.7463453 606.927374,14.882907 C607.178051,14.9987329 607.475161,14.8894145 607.590987,14.6387375 C607.706813,14.3880604 607.597494,14.0909511 607.346817,13.9751252 C604.872822,12.8320101 602.429393,11.7699801 599.986629,10.7805523 C599.730685,10.6768836 599.439161,10.8003272 599.335492,11.0562714 C599.231823,11.3122155 599.355267,11.6037393 599.611211,11.7074081 Z M614.11449,18.3822845 C615.523545,19.1009065 616.954448,19.8480547 618.439071,20.6392424 L620.248444,21.6107993 C620.554983,21.7765796 620.864181,21.9443696 621.176293,22.1142935 C621.418822,22.2463339 621.722469,22.1567657 621.85451,21.9142374 C621.98655,21.6717091 621.896982,21.3680613 621.654454,21.236021 L620.723789,20.7309996 L618.908668,19.7563608 C617.419183,18.9625866 615.983223,18.2128006 614.568818,17.4914501 C614.322821,17.3659908 614.021696,17.4637061 613.896237,17.7097032 C613.770778,17.9557003 613.868493,18.2568252 614.11449,18.3822845 Z M628.162171,25.9877463 L635.140684,29.9036378 C635.381897,30.0380659 635.686414,29.9514998 635.820842,29.7102868 C635.955271,29.4690739 635.868704,29.1645566 635.627491,29.0301285 L628.65163,25.1157202 C628.410827,24.9805597 628.106048,25.0662002 627.970888,25.3070036 C627.835727,25.547807 627.921368,25.8525859 628.162171,25.9877463 Z M642.178248,33.7450905 C644.700862,35.0836593 647.048993,36.2783101 649.327928,37.3759157 C649.576719,37.4957407 649.87554,37.3911938 649.995365,37.1424036 C650.11519,36.8936134 650.010644,36.5947917 649.761853,36.4749666 C647.495392,35.3833689 645.158688,34.194532 642.646975,32.8617471 C642.403046,32.7323119 642.100375,32.825127 641.97094,33.0690555 C641.841504,33.3129841 641.934319,33.6156552 642.178248,33.7450905 Z M656.667707,40.6680094 C659.208527,41.7168066 661.708423,42.6481619 664.2007,43.4683527 C664.463004,43.5546749 664.74562,43.4120139 664.831943,43.1497105 C664.918265,42.8874071 664.775604,42.6047901 664.5133,42.5184679 C662.044953,41.7061522 659.567977,40.7833358 657.049259,39.7436618 C656.794007,39.6382993 656.501672,39.7598084 656.396309,40.0150599 C656.290947,40.2703115 656.412456,40.5626469 656.667707,40.6680094 Z M671.935067,45.6580186 C673.4371,46.0133338 674.944303,46.3288559 676.460069,46.6043811 C677.595959,46.8106768 678.722164,46.99252 679.852076,47.1524175 C680.125495,47.1911098 680.37851,47.0008269 680.417202,46.7274087 C680.455895,46.4539905 680.265612,46.2009749 679.992194,46.1622826 C678.875167,46.0042087 677.761824,45.8244421 676.638837,45.6204898 C675.140461,45.3481257 673.650381,45.036188 672.16527,44.684876 C671.896544,44.6213072 671.627166,44.7876199 671.563597,45.0563459 C671.500029,45.3250718 671.666341,45.5944499 671.935067,45.6580186 Z M687.8696,47.9172978 C690.530489,48.051025 693.207281,48.0686823 695.908596,47.9745684 C696.184571,47.9649534 696.400498,47.7334371 696.390883,47.4574621 C696.381268,47.1814872 696.149752,46.9655598 695.873777,46.9751748 C693.200439,47.0683139 690.551992,47.0508436 687.919794,46.9185583 C687.643999,46.9046978 687.409188,47.1170371 687.395327,47.3928314 C687.381467,47.6686257 687.593806,47.9034373 687.8696,47.9172978 Z M703.933494,47.3792683 C706.545012,47.0864267 709.18738,46.6971401 711.878877,46.2134403 C712.150665,46.1645961 712.331397,45.9046722 712.282553,45.6328839 C712.233709,45.3610957 711.973785,45.1803638 711.701997,45.2292079 C709.031726,45.7090932 706.411132,46.0951718 703.822058,46.3854967 C703.547635,46.4162689 703.350118,46.6636781 703.38089,46.9381005 C703.411662,47.212523 703.659072,47.4100405 703.933494,47.3792683 Z M719.751154,44.5685782 C722.261344,43.9753859 724.830588,43.3073401 727.513573,42.5552826 C727.779467,42.4807508 727.934597,42.2047812 727.860065,41.9388872 C727.785534,41.6729931 727.509564,41.5178634 727.24367,41.5923951 C724.573421,42.3408825 722.01739,43.0054927 719.521174,43.5953827 C719.252434,43.6588898 719.086059,43.9282296 719.149566,44.1969702 C719.213073,44.4657107 719.482413,44.6320852 719.751154,44.5685782 Z M735.19968,40.2758519 L737.04263,39.6990966 L738.978191,39.0842142 L742.825942,37.8422919 C743.088558,37.7569252 743.232247,37.4748295 743.14688,37.2122136 C743.061513,36.9495976 742.779417,36.8059087 742.516801,36.8912755 L739.181364,37.969118 L736.7424,38.7452291 L734.903207,39.3208106 C734.63948,39.4026793 734.492054,39.6828402 734.573923,39.9465676 C734.655792,40.210295 734.935953,40.3577206 735.19968,40.2758519 Z M750.431543,35.3687904 L752.998765,34.5476596 L755.340421,33.8128875 L756.990787,33.3059217 L758.057035,32.9840573 C758.321558,32.9047965 758.471743,32.6261048 758.392482,32.3615819 C758.313221,32.0970591 758.034529,31.9468746 757.770007,32.0261354 L756.15653,32.5149509 L754.475628,33.034652 L752.078302,33.7908935 L750.12479,34.4170013 C749.861961,34.5017089 749.717565,34.7834432 749.802272,35.0462725 C749.88698,35.3091018 750.168714,35.453498 750.431543,35.3687904 Z M765.740032,30.8418683 C768.477506,30.1467228 771.050818,29.5783306 773.519072,29.1311322 C773.79079,29.0819023 773.971153,28.821722 773.921923,28.5500033 C773.872693,28.2782847 773.612513,28.097922 773.340794,28.147152 C770.848533,28.5987 768.252832,29.1720377 765.493907,29.8726303 C765.226259,29.9405959 765.064385,30.2126642 765.132351,30.4803119 C765.200316,30.7479596 765.472385,30.9098339 765.740032,30.8418683 Z M781.411863,28.0921103 C782.974236,27.9723696 784.501032,27.9115943 785.997586,27.9112753 C787.130808,27.9112753 788.247978,27.9354809 789.362367,27.9836725 C789.638252,27.9956031 789.871572,27.7816261 789.883503,27.5057416 C789.895433,27.229857 789.681456,26.9965368 789.405572,26.9846062 C788.276808,26.935793 787.145233,26.9112753 785.997479,26.9112753 C784.474895,26.9115999 782.922716,26.9733855 781.335447,27.0950343 C781.060112,27.1161361 780.854016,27.3564455 780.875117,27.6317804 C780.896219,27.9071154 781.136528,28.1132121 781.411863,28.0921103 Z M797.281365,28.7304908 C799.865807,29.1049055 802.453885,29.6054167 805.092388,30.2325885 C805.361045,30.2964482 805.630603,30.1304272 805.694463,29.8617703 C805.758323,29.5931133 805.592302,29.3235553 805.323645,29.2596956 C802.656851,28.6257993 800.039549,28.1196364 797.424741,27.7408225 C797.151452,27.7012304 796.897811,27.8906794 796.858219,28.1639688 C796.818627,28.4372582 797.008076,28.6908987 797.281365,28.7304908 Z M812.783144,32.3602109 C813.724732,32.6538446 814.679085,32.9620089 815.662712,33.2896365 L817.162171,33.7962921 C817.670686,33.9704541 818.188582,34.1500986 818.717924,34.3358422 L820.342352,34.9119865 C820.602318,35.0051105 820.888555,34.8698581 820.981679,34.6098917 C821.074803,34.3499253 820.93955,34.063689 820.679584,33.9705649 L819.047771,33.3918063 L817.484436,32.8496388 L815.977134,32.3403495 C815.729895,32.2580016 815.484473,32.1768688 815.240607,32.096874 L813.794022,31.6299404 C813.555347,31.5541876 813.31771,31.479418 813.080853,31.4055542 C812.817232,31.3233441 812.53688,31.4704069 812.45467,31.734028 C812.37246,31.9976492 812.519523,32.2780008 812.783144,32.3602109 Z M827.840433,37.6698605 L832.377456,39.3431035 L835.070412,40.3092338 C835.168183,40.3437737 835.266177,40.3783347 835.364544,40.4129697 C835.625012,40.5046812 835.91051,40.367877 836.002221,40.1074089 C836.093933,39.8469409 835.957128,39.5614429 835.69666,39.4697314 L833.640902,38.7371972 L830.668242,37.6513058 L828.188895,36.7325376 C827.93006,36.6363125 827.642227,36.7681335 827.546002,37.0269681 C827.449777,37.2858027 827.581598,37.5736355 827.840433,37.6698605 Z M842.996092,42.9297533 C845.650986,43.7349738 848.212365,44.4280015 850.752014,45.0196099 C851.020956,45.0822595 851.289764,44.9150268 851.352414,44.6460851 C851.415063,44.3771434 851.24783,44.1083355 850.978889,44.0456858 C848.461437,43.4592482 845.921047,42.7718994 843.286333,41.9727996 C843.022078,41.8926519 842.742884,42.0419006 842.662736,42.3061561 C842.582588,42.5704115 842.731837,42.8496055 842.996092,42.9297533 Z M858.635086,46.5331342 C861.285285,46.9302348 863.943813,47.2135923 866.633679,47.3796927 C866.909296,47.3967122 867.146525,47.1870772 867.163545,46.9114598 C867.180564,46.6358424 866.970929,46.3986134 866.695312,46.3815939 C864.03475,46.2173029 861.405081,45.9370214 858.78327,45.5441744 C858.510176,45.5032546 858.255618,45.6914687 858.214698,45.9645624 C858.173778,46.2376561 858.361992,46.4922144 858.635086,46.5331342 Z M874.717718,47.393689 C877.225423,47.1910926 879.875183,46.7821934 882.68956,46.172646 C882.959445,46.1141934 883.130845,45.8480232 883.072392,45.5781382 C883.013939,45.3082532 882.747769,45.1368534 882.477884,45.195306 C879.704941,45.7958795 877.098575,46.1980825 874.637191,46.3969366 C874.361945,46.4191736 874.156841,46.6603309 874.179078,46.9355764 C874.201315,47.210822 874.442472,47.415926 874.717718,47.393689 Z M890.475361,44.1143421 C892.875712,43.3789068 895.396687,42.5251162 898.081477,41.5436929 C898.340834,41.4488851 898.474227,41.1617777 898.37942,40.9024207 C898.284612,40.6430636 897.997504,40.5096701 897.738147,40.6044779 C895.069257,41.580089 892.564898,42.4282526 890.182416,43.1582128 C889.918388,43.2391073 889.769929,43.5187222 889.850824,43.78275 C889.931718,44.0467778 890.211333,44.1952366 890.475361,44.1143421 Z M905.562627,38.657332 L907.64968,37.8081362 L909.095195,37.2114436 L911.366389,36.2620164 L912.96179,35.5878214 C913.216005,35.4799802 913.334664,35.1864762 913.226822,34.932262 C913.118981,34.6780477 912.825477,34.5593889 912.571263,34.6672301 L910.978993,35.3401027 L909.453266,35.9793907 L907.985425,36.5885038 L905.873262,37.4530546 C905.643649,37.5461964 905.415545,37.6384361 905.188772,37.7298447 C904.932653,37.8330819 904.808719,38.1243973 904.911956,38.3805158 C905.015193,38.6366343 905.306508,38.7605691 905.562627,38.657332 Z M920.321531,32.4292897 L927.66486,29.2625026 C927.918671,29.1537151 928.036236,28.8597711 927.927448,28.6059604 C927.818661,28.3521497 927.524717,28.2345851 927.270906,28.3433727 L919.92488,31.51132 C919.67139,31.6208521 919.554689,31.9151398 919.664221,32.1686301 C919.773753,32.4221205 920.06804,32.5388217 920.321531,32.4292897 Z M935.022516,26.1534121 L936.947808,25.3595698 C937.263992,25.2300384 937.577934,25.1018564 937.88979,24.9749663 L939.737158,24.2286677 L941.542039,23.5106101 C941.839732,23.3931337 942.135971,23.2767188 942.430912,23.161308 C942.688068,23.0606826 942.814961,22.7706436 942.714336,22.5134877 C942.61371,22.2563318 942.323671,22.1294388 942.066516,22.2300642 L940.275126,22.9369751 L938.44519,23.6707124 C938.136567,23.7953913 937.826021,23.9213035 937.513395,24.0485065 L935.611407,24.8276773 C935.289827,24.9602748 934.965849,25.0942786 934.639317,25.2297464 C934.384253,25.335564 934.263266,25.6281156 934.369083,25.8831789 C934.474901,26.1382421 934.767452,26.2592297 935.022516,26.1534121 Z M949.902211,20.3563954 C952.497937,19.4272469 955.011052,18.5792334 957.464039,17.8080547 C957.72747,17.7252364 957.873886,17.4445461 957.791067,17.1811154 C957.708249,16.9176847 957.427559,16.7712694 957.164128,16.8540876 C954.698266,17.629314 952.172839,18.481482 949.565198,19.4148954 C949.30521,19.5079589 949.169891,19.7941638 949.262954,20.0541518 C949.356018,20.3141399 949.642223,20.4494589 949.902211,20.3563954 Z M965.132315,15.5997871 C967.783213,14.9111688 970.369727,14.3218186 972.902099,13.8330616 C973.173237,13.7807309 973.350616,13.5185072 973.298285,13.2473687 C973.245955,12.9762302 972.983731,12.7988514 972.712593,12.8511821 C970.15888,13.3440579 967.551779,13.938099 964.880891,14.6319099 C964.613619,14.7013386 964.453236,14.9742883 964.522664,15.2415602 C964.592093,15.5088321 964.865043,15.6692158 965.132315,15.5997871 Z M980.795358,12.6193017 C983.500004,12.3157197 986.143334,12.1410312 988.730915,12.0990959 C989.007022,12.0946212 989.227222,11.8671656 989.222815,11.5910594 C989.218273,11.3149533 988.990817,11.0947525 988.714711,11.0992272 C986.094576,11.14169 983.41949,11.3184773 980.683814,11.6255422 C980.409395,11.6563443 980.211904,11.9037749 980.242706,12.178194 C980.273508,12.4526131 980.520939,12.6501038 980.795358,12.6193017 Z M996.704406,12.4114058 C998.605085,12.5970957 1000.47438,12.863744 1002.31348,13.213231 C1003.05265,13.3536987 1003.78383,13.5050093 1004.50732,13.6671004 C1004.77678,13.7274713 1005.04416,13.5579692 1005.10453,13.2885068 C1005.1649,13.0190444 1004.9954,12.7516617 1004.72594,12.6912909 C1003.99184,12.5268206 1003.25001,12.3733071 1002.50017,12.2308124 C1000.63116,11.8756413 998.732024,11.6047361 996.80164,11.4161442 C996.526806,11.3892938 996.282242,11.5903242 996.255392,11.8651581 C996.228542,12.139992 996.429572,12.3845554 996.704406,12.4114058 Z M1012.13304,15.8686706 C1014.64442,16.7662423 1017.06503,17.8118524 1019.42007,19.0068798 C1019.66632,19.1318369 1019.96725,19.0335075 1020.0922,18.7872549 C1020.21716,18.5410023 1020.11883,18.2400774 1019.87258,18.1151203 C1017.48037,16.9012299 1015.02106,15.8389072 1012.46959,14.9270059 C1012.20955,14.8340695 1011.92342,14.9695285 1011.83048,15.229562 C1011.73754,15.4895956 1011.873,15.7757342 1012.13304,15.8686706 Z M1026.30216,23.0335751 C1028.44147,24.4543983 1030.55312,26.0150665 1032.7056,27.7512765 C1032.92054,27.9246458 1033.23532,27.8909489 1033.40869,27.6760124 C1033.58206,27.4610759 1033.54836,27.1462918 1033.33343,26.9729226 C1031.15787,25.2181046 1029.0216,23.639233 1026.85541,22.2005585 C1026.62538,22.0477833 1026.31505,22.1104116 1026.16228,22.3404427 C1026.0095,22.5704739 1026.07213,22.8807998 1026.30216,23.0335751 Z M1038.73098,32.9451711 L1040.60603,34.6695512 L1044.24689,38.0987946 C1044.3517,38.1981698 1044.45862,38.299567 1044.56775,38.4030818 C1044.7681,38.59312 1045.08458,38.5847607 1045.27461,38.3844107 C1045.46465,38.1840608 1045.45629,37.8675887 1045.25594,37.6775505 L1042.0981,34.6947228 L1040.1556,32.8919874 L1039.40381,32.2053714 C1039.19952,32.0195753 1038.88329,32.0345676 1038.69749,32.2388577 C1038.5117,32.4431477 1038.52669,32.759375 1038.73098,32.9451711 Z M1050.42234,43.881334 C1052.60779,45.8698325 1054.57463,47.5654461 1056.51508,49.1146015 C1056.73088,49.2868889 1057.04549,49.2516113 1057.21778,49.0358067 C1057.39007,48.8200021 1057.35479,48.5053913 1057.13898,48.3331038 C1055.21698,46.798674 1053.26595,45.1166892 1051.09534,43.1416858 C1050.89109,42.9558437 1050.57486,42.9707648 1050.38901,43.1750131 C1050.20317,43.3792613 1050.21809,43.6954919 1050.42234,43.881334 Z M1063.05948,53.8204716 C1065.38167,55.2973732 1067.72908,56.5796776 1070.14819,57.6776623 C1070.39964,57.7917919 1070.69601,57.6804686 1070.81014,57.4290148 C1070.92427,57.1775609 1070.81294,56.881197 1070.56149,56.7670673 C1068.18619,55.6889685 1065.87981,54.4290734 1063.59614,52.9766696 C1063.36313,52.8284765 1063.0541,52.8972338 1062.90591,53.1302432 C1062.75772,53.3632527 1062.82647,53.6722784 1063.05948,53.8204716 Z M1077.75861,60.4474256 C1080.29435,61.1538742 1082.92619,61.6829758 1085.67427,62.0310116 C1085.94822,62.065707 1086.19843,61.8717495 1086.23313,61.5977955 C1086.26783,61.3238414 1086.07387,61.0736315 1085.79991,61.0389361 C1083.0999,60.6969877 1080.51577,60.1774769 1078.02698,59.4841112 C1077.76097,59.4100014 1077.48525,59.5655688 1077.41114,59.8315807 C1077.33703,60.0975926 1077.49259,60.3733158 1077.75861,60.4474256 Z M1093.71769,62.5281351 C1096.2957,62.5318045 1098.97256,62.3964019 1101.75747,62.118237 C1102.03225,62.0907916 1102.23275,61.8457935 1102.2053,61.5710184 C1102.17786,61.2962433 1101.93286,61.0957429 1101.65808,61.1231883 C1098.9062,61.3980547 1096.26295,61.5317568 1093.71911,61.5281361 C1093.44297,61.5277431 1093.21879,61.7512818 1093.2184,62.0274239 C1093.21801,62.303566 1093.44154,62.5277421 1093.71769,62.5281351 Z M1109.71263,61.0098045 C1112.34247,60.5503388 1114.95906,60.0031317 1117.57549,59.3684703 C1117.84385,59.3033746 1118.00862,59.0330553 1117.94353,58.7646952 C1117.87843,58.496335 1117.60811,58.3315566 1117.33975,58.3966523 C1114.74417,59.0262582 1112.14879,59.5690303 1109.54053,60.024726 C1109.26851,60.0722517 1109.08652,60.3312962 1109.13404,60.6033181 C1109.18157,60.87534 1109.44061,61.0573302 1109.71263,61.0098045 Z M1125.32768,57.2361141 C1127.83814,56.4656473 1130.36544,55.6143492 1132.93373,54.6777647 C1133.19316,54.5831576 1133.32677,54.2961536 1133.23217,54.0367232 C1133.13756,53.7772928 1132.85055,53.6436772 1132.59112,53.7382843 C1130.03874,54.6690681 1127.52781,55.5148528 1125.03428,56.280123 C1124.77029,56.361142 1124.62196,56.6408267 1124.70298,56.9048164 C1124.784,57.168806 1125.06369,57.317133 1125.32768,57.2361141 Z M1140.42079,51.7591888 C1142.79011,50.7798073 1145.22143,49.7258453 1147.77803,48.5738718 C1148.0298,48.4604298 1148.14193,48.1643712 1148.02849,47.9126063 C1147.91504,47.6608415 1147.61899,47.5487088 1147.36722,47.6621508 C1144.81977,48.8099998 1142.39797,49.859835 1140.03878,50.8350308 C1139.78358,50.94052 1139.66222,51.2329158 1139.76771,51.488115 C1139.8732,51.7433142 1140.16559,51.864678 1140.42079,51.7591888 Z M1155.04171,45.2044459 L1157.48731,44.0361701 L1162.25611,41.7297681 C1162.50447,41.6090534 1162.60795,41.3098594 1162.48723,41.0614996 C1162.36652,40.8131399 1162.06732,40.7096632 1161.81896,40.830378 L1155.81525,43.7282953 L1154.61265,44.3011662 C1154.36322,44.4196456 1154.25706,44.7178983 1154.37554,44.9673321 C1154.49402,45.2167659 1154.79227,45.3229254 1155.04171,45.2044459 Z M1169.45663,38.2296309 L1173.24775,36.4048825 L1175.5545,35.3078877 L1176.67022,34.7818843 C1176.92014,34.6644236 1177.02751,34.3666066 1176.91005,34.1166915 C1176.79259,33.8667763 1176.49478,33.7594007 1176.24486,33.8768614 L1174.56085,34.6719752 L1172.21681,35.7896971 L1169.02095,37.329528 C1168.77239,37.4498369 1168.66843,37.7488615 1168.78874,37.9974181 C1168.90905,38.2459747 1169.20807,38.3499399 1169.45663,38.2296309 Z M1183.92187,31.4564217 C1186.43127,30.3381866 1188.86253,29.2922598 1191.25978,28.3028161 C1191.51503,28.1974617 1191.63655,27.9051301 1191.5312,27.6498752 C1191.42584,27.3946203 1191.13351,27.273102 1190.87826,27.3784565 C1188.47215,28.3715582 1186.03242,29.4211255 1183.51484,30.5430091 C1183.26261,30.6554087 1183.14925,30.951001 1183.26165,31.2032329 C1183.37405,31.4554648 1183.66964,31.5688213 1183.92187,31.4564217 Z M1198.69472,25.3772346 C1201.21484,24.4361504 1203.71875,23.5543629 1206.2231,22.7285811 C1206.48536,22.6421062 1206.62785,22.3594063 1206.54138,22.0971531 C1206.4549,21.8349 1206.1722,21.6924036 1205.90995,21.7788785 C1203.39307,22.6087891 1200.87696,23.4948771 1198.34488,24.440422 C1198.08619,24.5370253 1197.95479,24.8250504 1198.05139,25.0837441 C1198.148,25.3424377 1198.43602,25.4738379 1198.69472,25.3772346 Z M1213.85388,20.3883424 C1216.41355,19.662854 1218.98418,18.9944897 1221.57448,18.3830012 C1221.84324,18.3195566 1222.00967,18.0502553 1221.94623,17.7815001 C1221.88279,17.5127448 1221.61348,17.3463077 1221.34473,17.4097524 C1218.73992,18.0246666 1216.15497,18.6967517 1213.58119,19.4262404 C1213.31552,19.5015416 1213.16119,19.7779592 1213.23649,20.0436363 C1213.31179,20.3093134 1213.58821,20.4636436 1213.85388,20.3883424 Z M1229.39277,16.7230526 C1231.98932,16.2329616 1234.61075,15.7985848 1237.26227,15.4205666 C1237.53565,15.381592 1237.72567,15.1283801 1237.68669,14.855002 C1237.64772,14.5816239 1237.39451,14.3916023 1237.12113,14.4305768 C1234.45473,14.8107155 1231.81853,15.2475415 1229.2073,15.7404031 C1228.93595,15.7916198 1228.7575,16.0531128 1228.80871,16.324464 C1228.85993,16.5958151 1229.12142,16.7742693 1229.39277,16.7230526 Z M1245.20073,14.4672887 C1247.8198,14.210723 1250.4704,14.0074494 1253.15593,13.8583144 C1253.43165,13.843003 1253.64275,13.6070774 1253.62744,13.3313598 C1253.61213,13.0556423 1253.3762,12.8445414 1253.10048,12.8598527 C1250.40093,13.0097669 1247.7363,13.2141155 1245.10324,13.4720525 C1244.82841,13.4989748 1244.62744,13.7435908 1244.65436,14.0184176 C1244.68129,14.2932445 1244.9259,14.4942109 1245.20073,14.4672887 Z M1261.12575,13.5771678 C1262.78337,13.5516031 1264.45453,13.5459472 1266.13982,13.5604029 C1267.13545,13.5689431 1268.12055,13.5855416 1269.09531,13.6101476 C1269.37137,13.6171161 1269.6008,13.3989788 1269.60777,13.1229244 C1269.61474,12.8468699 1269.3966,12.6174345 1269.12055,12.610466 C1268.14022,12.5857194 1267.14956,12.5690274 1266.14839,12.5604397 C1264.45512,12.5459155 1262.77596,12.5515984 1261.11033,12.5772867 C1260.83422,12.581545 1260.61384,12.8088281 1260.61804,13.0849376 C1260.62236,13.3610472 1260.84964,13.5814261 1261.12575,13.5771678 Z M1277.0705,14.0060497 C1279.79931,14.2117285 1282.44169,14.4868918 1285.00385,14.8303965 C1285.27755,14.8670901 1285.52917,14.6749637 1285.56586,14.4012701 C1285.60255,14.1275765 1285.41043,13.8759579 1285.13673,13.8392643 C1282.55523,13.4931663 1279.8936,13.2159991 1277.14566,13.0088782 C1276.8703,12.9881233 1276.63025,13.1945226 1276.6095,13.4698839 C1276.58874,13.7452452 1276.79514,13.9852948 1277.0705,14.0060497 Z M1292.86062,16.1461704 C1295.52765,16.6870427 1298.10448,17.3110108 1300.60294,18.0175036 C1300.86866,18.0926426 1301.14498,17.9381437 1301.22012,17.6724206 C1301.29526,17.4066976 1301.14076,17.1303743 1300.87504,17.0552353 C1298.35228,16.3418709 1295.75099,15.7119782 1293.05938,15.1661209 C1292.78874,15.1112366 1292.52486,15.2861356 1292.46998,15.5567688 C1292.41509,15.827402 1292.58999,16.091286 1292.86062,16.1461704 Z M1308.15561,20.4884354 C1310.66329,21.4255257 1313.09866,22.4569322 1315.48736,23.5870836 C1315.73697,23.7051822 1316.03506,23.5985677 1316.15316,23.3489534 C1316.27126,23.0993391 1316.16465,22.8012488 1315.91503,22.6831501 C1313.50118,21.5410971 1311.03993,20.4987305 1308.50565,19.5517028 C1308.24698,19.4550404 1307.95893,19.5863747 1307.86226,19.8450462 C1307.7656,20.1037178 1307.89694,20.391773 1308.15561,20.4884354 Z M1322.56022,27.2900176 C1324.80123,28.5761927 1327.03265,29.9623916 1329.33528,31.488347 C1329.56547,31.6408908 1329.87573,31.5779504 1330.02827,31.3477657 C1330.18082,31.1175809 1330.11788,30.8073182 1329.88769,30.6547744 C1327.56791,29.1174486 1325.31843,27.7200311 1323.05799,26.4227085 C1322.81848,26.2852531 1322.5129,26.3679773 1322.37545,26.6074781 C1322.23799,26.8469789 1322.32071,27.1525623 1322.56022,27.2900176 Z M1335.88291,36.0440213 L1337.5197,37.2349009 L1342.32352,40.780364 C1342.54553,40.944581 1342.85863,40.8977324 1343.02285,40.6757248 C1343.18706,40.4537171 1343.14021,40.1406202 1342.91821,39.9764032 L1338.81541,36.9449951 L1336.46879,35.2336252 C1336.24501,35.0718382 1335.93244,35.1220973 1335.77065,35.345882 C1335.60887,35.5696667 1335.65913,35.8822343 1335.88291,36.0440213 Z M1348.79422,45.486013 C1351.1526,47.1527771 1353.31873,48.6113411 1355.45685,49.9595269 C1355.69043,50.1068129 1355.99919,50.0368545 1356.14648,49.8032706 C1356.29376,49.5696867 1356.2238,49.2609306 1355.99022,49.1136446 C1353.86813,47.7755618 1351.71626,46.3266059 1349.37138,44.6693767 C1349.14587,44.5100004 1348.83386,44.5636107 1348.67448,44.7891185 C1348.51511,45.0146264 1348.56872,45.3266367 1348.79422,45.486013 Z M1362.42787,54.001448 C1364.82148,55.2627016 1367.23539,56.4010587 1369.7087,57.4261978 C1369.9638,57.5319311 1370.25631,57.410847 1370.36205,57.1557488 C1370.46778,56.9006506 1370.3467,56.6081389 1370.0916,56.5024056 C1367.64718,55.4892411 1365.26099,54.3639593 1362.89404,53.1167518 C1362.64973,52.988023 1362.34733,53.0817137 1362.2186,53.3260158 C1362.08988,53.5703179 1362.18357,53.8727192 1362.42787,54.001448 Z M1377.2847,60.1492858 C1379.79889,60.9200143 1382.39073,61.5879972 1385.07706,62.1529562 C1385.34729,62.2097883 1385.61243,62.0367943 1385.66926,61.7665634 C1385.72609,61.4963325 1385.5531,61.2311957 1385.28287,61.1743636 C1382.62591,60.6155821 1380.0632,59.9551052 1377.57779,59.1932006 C1377.31377,59.1122664 1377.03413,59.2606832 1376.9532,59.5246988 C1376.87226,59.7887145 1377.02068,60.0683516 1377.2847,60.1492858 Z M1393.02085,63.4854323 C1395.59855,63.8144052 1398.26264,64.0596728 1401.02151,64.2197796 C1401.29719,64.2357782 1401.53364,64.025266 1401.54964,63.7495875 C1401.56563,63.4739089 1401.35512,63.2374579 1401.07944,63.2214593 C1398.34332,63.0626723 1395.70212,62.8195124 1393.14744,62.4934779 C1392.87352,62.4585195 1392.62312,62.6522367 1392.58817,62.9261574 C1392.55321,63.200078 1392.74692,63.4504739 1393.02085,63.4854323 Z M1409.04683,64.445446 C1411.76784,64.4475219 1414.44257,64.3798676 1417.07393,64.2438133 C1417.34971,64.2295545 1417.56171,63.9944364 1417.54745,63.7186624 C1417.53319,63.4428884 1417.29807,63.2308885 1417.0223,63.2451474 C1414.40844,63.3802965 1411.75119,63.4475089 1409.0476,63.4454463 C1408.77145,63.4452356 1408.54743,63.6689224 1408.54721,63.9450647 C1408.547,64.221207 1408.77069,64.4452353 1409.04683,64.445446 Z M1425.08397,63.6055848 C1427.7782,63.3135554 1430.42654,62.9464331 1433.03372,62.5056338 C1433.306,62.4595994 1433.48941,62.2015561 1433.44337,61.9292778 C1433.39734,61.6569996 1433.1393,61.4735926 1432.86702,61.519627 C1430.27939,61.9571197 1427.65071,62.321517 1424.97621,62.6114078 C1424.70167,62.6411648 1424.50324,62.8878417 1424.533,63.1623761 C1424.56275,63.4369105 1424.80943,63.6353418 1425.08397,63.6055848 Z M1440.918,60.9212827 C1443.5416,60.3086424 1446.12546,59.6183049 1448.67787,58.8510738 C1448.94233,58.7715816 1449.09227,58.4927587 1449.01278,58.2283052 C1448.93328,57.9638518 1448.65446,57.8139111 1448.39001,57.8934032 C1445.85746,58.654663 1443.29376,59.3396136 1440.69061,59.9474799 C1440.4217,60.0102731 1440.25461,60.2791702 1440.31741,60.5480784 C1440.3802,60.8169866 1440.6491,60.9840759 1440.918,60.9212827 Z M1456.28125,56.3075096 C1458.78212,55.3853523 1461.25996,54.386925 1463.73152,53.3096972 C1463.98466,53.199365 1464.10043,52.9047101 1463.9901,52.651567 C1463.87977,52.3984239 1463.58511,52.2826528 1463.33197,52.392985 C1460.87779,53.4626356 1458.41781,54.4538723 1455.93529,55.3692617 C1455.6762,55.464797 1455.54361,55.7522776 1455.63914,56.0113676 C1455.73468,56.2704576 1456.02216,56.4030449 1456.28125,56.3075096 Z M1471.02106,49.900521 C1473.35805,48.7350358 1475.70767,47.4959552 1478.11858,46.163223 C1478.36025,46.0296271 1478.44787,45.72541 1478.31427,45.4837352 C1478.18068,45.2420603 1477.87646,45.154445 1477.63479,45.2880409 C1475.23583,46.6141626 1472.89865,47.8466872 1470.57477,49.0056327 C1470.32765,49.1288724 1470.22723,49.4291054 1470.35047,49.676222 C1470.47371,49.9233386 1470.77394,50.0237607 1471.02106,49.900521 Z M1485.06358,42.1748173 L1486.31117,41.4314455 L1488.47533,40.1271787 L1490.36155,38.97826 L1491.91237,38.0277712 C1492.14768,37.8832512 1492.22127,37.575342 1492.07675,37.3400367 C1491.93223,37.1047313 1491.62432,37.0311352 1491.38902,37.1756551 L1488.41223,38.9955905 L1485.79803,40.5731375 L1484.55341,41.3147409 C1484.31591,41.4556192 1484.23758,41.7623582 1484.37846,41.9998617 C1484.51934,42.2373653 1484.82607,42.3156955 1485.06358,42.1748173 Z M1498.72523,33.8418593 L1501.0337,32.4423364 L1502.62885,31.4879708 L1504.13785,30.597727 L1505.5882,29.7558151 C1505.82754,29.6180856 1505.90992,29.3124078 1505.77219,29.0730645 C1505.63446,28.8337212 1505.32878,28.7513469 1505.08944,28.8890763 L1504.12391,29.4479448 L1503.13659,30.0258669 L1501.59684,30.9387426 L1499.96201,31.9208898 L1498.80566,32.6219612 C1498.60794,32.7422194 1498.4076,32.8642494 1498.20448,32.9881488 C1497.96874,33.1319494 1497.8942,33.4396324 1498.038,33.675378 C1498.1818,33.9111237 1498.48948,33.9856599 1498.72523,33.8418593 Z M1512.60724,25.9371339 C1515.10785,24.6687058 1517.49813,23.5685185 1519.83972,22.617656 C1520.09557,22.5137606 1520.21876,22.2221275 1520.11486,21.9662753 C1520.01097,21.7104231 1519.71933,21.5872378 1519.46348,21.6911333 C1517.09478,22.6530082 1514.67934,23.7647708 1512.15486,25.0453066 C1511.90859,25.1702269 1511.81021,25.4711371 1511.93513,25.7174083 C1512.06005,25.9636796 1512.36097,26.0620541 1512.60724,25.9371339 Z M1527.35563,20.0384866 C1529.94922,19.3195291 1532.52899,18.7881898 1535.12461,18.4468067 C1535.3984,18.4107979 1535.59115,18.1596607 1535.55514,17.8858762 C1535.51913,17.6120916 1535.268,17.4193363 1534.99421,17.4553452 C1532.35155,17.8029147 1529.72618,18.343647 1527.08849,19.0748266 C1526.82239,19.148593 1526.66646,19.4241151 1526.74023,19.6902224 C1526.814,19.9563298 1527.08952,20.112253 1527.35563,20.0384866 Z M1543.06552,17.8562425 C1545.69028,17.7819815 1548.3423,17.8206535 1551.0216,17.9722784 C1551.2973,17.9878807 1551.53345,17.7770288 1551.54905,17.5013275 C1551.56465,17.2256262 1551.3538,16.9894781 1551.0781,16.9738758 C1548.37072,16.8206619 1545.69042,16.7815774 1543.03724,16.8566424 C1542.76121,16.8644521 1542.54377,17.0945511 1542.55158,17.370583 C1542.55939,17.6466149 1542.78949,17.8640521 1543.06552,17.8562425 Z M1558.95341,18.740244 C1561.54382,19.093232 1564.1588,19.5477413 1566.79835,20.1037944 C1567.06857,20.1607177 1567.33376,19.9878132 1567.39069,19.7176015 C1567.44761,19.4473898 1567.2747,19.1821946 1567.00449,19.1252713 C1564.34157,18.5642951 1561.70288,18.1056642 1559.08843,17.7494011 C1558.81482,17.7121165 1558.56279,17.9036991 1558.5255,18.1773128 C1558.48822,18.4509265 1558.6798,18.7029594 1558.95341,18.740244 Z M1574.57203,22.0150548 C1577.08606,22.7200893 1579.6216,23.5140066 1582.17865,24.3968226 C1582.43968,24.4869404 1582.72433,24.3483938 1582.81445,24.08737 C1582.90457,23.8263463 1582.76602,23.5416898 1582.505,23.451572 C1579.92951,22.5623911 1577.3752,21.7625955 1574.84206,21.0522009 C1574.57617,20.9776361 1574.30018,21.1327315 1574.22562,21.3986163 C1574.15105,21.664501 1574.30615,21.9404899 1574.57203,22.0150548 Z M1589.62263,27.1933209 C1592.04266,28.1749199 1594.48133,29.2336342 1596.93863,30.3694729 C1597.18929,30.4853353 1597.48642,30.3760602 1597.60228,30.1254 C1597.71814,29.8747398 1597.60887,29.5776146 1597.35821,29.4617522 C1594.88661,28.3193089 1592.43338,27.2542716 1589.9985,26.2666493 C1589.74261,26.1628551 1589.45102,26.2861559 1589.34723,26.5420492 C1589.24343,26.7979425 1589.36674,27.0895268 1589.62263,27.1933209 Z M1604.12741,33.8849478 C1606.45142,35.0828142 1608.7916,36.3476829 1611.14796,37.6795583 C1611.38836,37.815438 1611.69339,37.730709 1611.82927,37.4903108 C1611.96515,37.2499125 1611.88042,36.944879 1611.64002,36.8089993 C1609.27258,35.4708553 1606.92109,34.1998787 1604.58556,32.9960742 C1604.3401,32.8695589 1604.03856,32.9659791 1603.91205,33.2114347 C1603.78553,33.4568904 1603.88195,33.7584325 1604.12741,33.8849478 Z M1618.05903,41.7496388 C1618.94827,42.2941238 1619.83975,42.8479019 1620.73347,43.4109733 C1620.96711,43.5581729 1621.27584,43.4881004 1621.42304,43.254462 C1621.57024,43.0208236 1621.50017,42.7120934 1621.26653,42.5648939 C1620.36921,41.9995569 1619.47411,41.4435289 1618.58123,40.8968101 C1618.34572,40.7526111 1618.03791,40.8266269 1617.89372,41.062129 C1617.74952,41.2976312 1617.82353,41.6054398 1618.05903,41.7496388 Z"/></svg>