<svg xmlns="http://www.w3.org/2000/svg" width="2881" height="125" viewBox="0 0 2881 125"><path fill="#DECA87" d="M970.242542,0.000360917267 C999.883945,0.0507838068 1026.09844,4.50509446 1051.14714,13.007646 L1052.87109,13.5990101 L1054.58157,14.1982327 C1055.43371,14.4999167 1056.28142,14.8047912 1057.12561,15.1132212 L1058.80959,15.7349301 L1060.48583,16.3667698 C1060.76465,16.4729567 1061.04322,16.5795927 1061.32157,16.6866914 L1062.98929,17.3349443 L1064.65338,17.9949509 L1066.31547,18.6673604 L1067.97722,19.3528221 L1069.64026,20.051985 C1069.91763,20.16969 1070.19512,20.2879929 1070.47277,20.4069073 L1072.14081,21.1278395 C1073.25446,21.613497 1074.3717,22.1093707 1075.49471,22.6163262 L1077.18384,23.385179 L1078.88329,24.1713039 L1080.59468,24.9753499 C1080.881,25.1108871 1081.16788,25.247198 1081.45537,25.3842962 L1083.18776,26.2164413 L1084.9362,27.0681306 L1086.70233,27.9400132 L1088.48779,28.8327385 C1088.78707,28.983299 1089.08722,29.134755 1089.38828,29.28712 L1091.20582,30.2123266 C1091.51064,30.3683817 1091.81645,30.525373 1092.12327,30.6833138 L1093.97656,31.6424623 L1095.85574,32.6250502 C1096.17119,32.7908042 1096.48778,32.9575619 1096.80555,33.1253368 L1098.72665,34.1443011 L1100.67773,35.1883279 L1102.66044,36.2580665 L1104.67643,37.3541659 L1106.72733,38.4772754 L1108.81478,39.6280442 L1110.94042,40.8071216 L1116.57022,43.9563373 L1127.55865,50.1253975 L1131.19697,52.1490458 L1134.50893,53.9724399 L1135.8793,54.7204181 L1137.94446,55.8389621 L1139.98055,56.9301704 C1140.31753,57.109777 1140.65336,57.288257 1140.98804,57.4656166 L1142.98259,58.516379 L1144.95086,59.5405495 L1146.89396,60.5384254 C1147.21577,60.7025634 1147.53658,60.8656181 1147.85641,61.0275959 L1149.76383,61.9865878 C1150.39584,62.3019768 1151.02412,62.6131073 1151.64886,62.920029 L1153.51262,63.8282169 C1170.81191,72.1877146 1185.47735,77.286326 1201.58935,80.2125072 C1221.36367,83.8038218 1241.22787,83.4653014 1262.55813,79.7740358 L1263.91178,79.5362514 L1265.25925,79.292423 L1267.27191,78.9146681 L1268.61001,78.6543704 L1270.61512,78.2504556 L1271.95252,77.9717473 L1273.29206,77.6851311 L1275.30843,77.2397001 L1276.6594,76.9319553 L1278.6994,76.4533755 L1280.07045,76.1225607 L1282.14708,75.6079198 L1283.54689,75.2520937 L1284.96062,74.8857195 L1286.38966,74.5084866 L1288.56496,73.9215975 L1290.78251,73.3085289 L1292.28666,72.8847547 L1293.81305,72.4485687 L1295.36307,71.9996602 L1297.73544,71.3017632 L1300.16876,70.5734935 L1301.82715,70.0705888 L1304.37247,69.289368 L1306.99123,68.4749787 L1309.68809,67.6263727 L1312.46775,66.7425016 L1317.2972,65.1881687 L1336.8354,58.8641259 L1343.66417,56.7021766 L1347.5232,55.5251893 L1350.46763,54.668044 L1352.61395,54.0702458 L1354.75432,53.4938944 L1358.32168,52.5593383 C1372.63717,48.8426156 1384.74153,46.9537362 1396.07232,46.9537362 C1403.45496,46.9537362 1410.31171,47.4375688 1417.25921,48.4852483 L1418.6501,48.7023259 L1420.04451,48.9345816 L1421.44353,49.1821577 L1422.84826,49.4451965 L1424.25979,49.7238402 C1424.73156,49.8193381 1425.20465,49.9174604 1425.67923,50.0182311 L1427.10766,50.3285113 C1428.0632,50.5406929 1429.02546,50.7635622 1429.99591,50.9973089 L1431.45791,51.3561109 C1431.70266,51.4172788 1431.94797,51.4791324 1432.19386,51.5416748 L1433.67635,51.9252177 C1433.92466,51.9905268 1434.17358,52.0565307 1434.42316,52.1232321 L1435.9286,52.5318359 L1437.45071,52.9573249 L1438.99059,53.3998412 L1440.54934,53.8595271 C1440.81076,53.9375802 1441.07301,54.0163545 1441.33612,54.0958532 L1442.92522,54.5815603 C1443.19184,54.6639679 1443.45936,54.7471058 1443.7278,54.8309769 L1445.34971,55.3430252 L1446.99487,55.8728121 L1448.66437,56.4204799 L1450.35932,56.9861708 L1452.08081,57.570027 L1453.82992,58.1721908 L1455.60777,58.7928045 L1457.41545,59.4320103 L1459.25404,60.0899504 L1462.07232,61.1122987 L1466.55611,62.7663273 L1474.1506,65.5857497 L1476.33898,66.3914368 L1479.11058,67.4037333 L1482.36245,68.5764468 L1484.81325,69.4464804 L1486.57388,70.0624836 L1488.27558,70.6494855 L1490.46445,71.3906246 L1492.05476,71.9180186 L1493.60852,72.4233212 L1495.13245,72.9086055 L1496.63327,73.3759444 L1498.11769,73.827411 L1499.59243,74.2650783 L1501.0642,74.6910192 L1502.04705,74.9694888 L1503.52881,75.3804924 L1505.5289,75.9192135 C1505.69713,75.9637843 1505.86579,76.0082915 1506.03494,76.0527479 C1519.48549,79.5878501 1532.39381,81.5436952 1545.97491,81.836772 C1558.17798,82.1001112 1572.33458,79.1240187 1589.96112,73.0107028 L1591.82943,72.3556131 L1594.14667,71.5244121 L1595.71469,70.9509258 L1597.30384,70.3610611 C1597.57058,70.2613427 1597.83829,70.16091 1598.10702,70.0597467 L1599.732,69.4438736 L1601.38362,68.8097011 L1603.06409,68.1564607 L1604.77561,67.4833841 L1606.52038,66.7897028 L1608.30062,66.0746484 L1610.11853,65.3374525 L1612.92084,64.1884624 L1614.84256,63.392551 L1619.90281,61.2703863 L1624.90278,59.1436231 L1645.23377,50.3797197 L1650.10955,48.292654 L1652.00371,47.487216 L1655.70046,45.9252204 L1657.50475,45.1681175 L1661.02941,43.7003379 L1663.60282,42.6390527 L1666.94606,41.2749886 L1668.58189,40.614193 L1670.19498,39.9671913 L1672.57388,39.0219561 L1674.90642,38.1062238 L1677.19548,37.2190739 L1678.69878,36.6430654 L1680.18488,36.0790786 L1682.38364,35.2550425 L1683.83047,34.719917 L1685.97431,33.9378948 L1687.38717,33.4299264 L1688.78794,32.9323437 L1690.86828,32.2048463 L1692.24253,31.7320349 L1693.60766,31.2686549 L1695.64013,30.5906721 C1695.86503,30.5164515 1696.08964,30.4425954 1696.31398,30.3690982 L1698.32611,29.71716 L1699.66073,29.2928468 L1701.65462,28.6711638 L1702.97974,28.2661686 L1704.96335,27.6721844 L1706.28428,27.2848031 L1707.60503,26.9039901 L1709.58765,26.3444898 L1710.91165,25.9789049 C1737.00138,18.8379264 1759.87902,16.8589268 1780.87214,20.8483006 C1796.57356,23.8320812 1810.15264,29.4776481 1822.98971,37.8316898 L1823.99622,38.492235 L1824.99137,39.156576 L1825.9768,39.8259292 L1826.95413,40.5015109 C1827.11643,40.6146945 1827.27846,40.7281883 1827.44026,40.8420176 L1828.40848,41.5292228 L1829.37266,42.2256975 L1830.33442,42.9326579 L1831.29539,43.6513205 L1832.25719,44.3829015 L1833.22145,45.1286174 C1833.38245,45.2541489 1833.54362,45.38032 1833.705,45.5071561 L1834.67599,46.2763549 L1835.65349,47.0627296 L1836.63913,47.8674963 L1837.63453,48.6918715 L1838.64133,49.5370715 L1839.66113,50.4043126 L1840.69557,51.2948113 L1841.74628,52.2097839 L1843.35638,53.6307921 L1844.45484,54.612271 L1846.14419,56.1387403 L1847.30056,57.1943277 L1849.08438,58.8376615 L1850.93221,60.5565875 L1852.8495,62.355211 L1860.18215,69.2969661 L1862.09535,71.0945248 L1863.33898,72.254373 L1865.15923,73.9380011 L1866.34408,75.0239484 L1867.5072,76.0814851 L1868.64961,77.111268 L1869.77233,78.1139541 L1871.42171,79.5686137 L1872.49967,80.5064319 L1873.56149,81.4194525 L1874.60822,82.3083325 L1875.64086,83.1737289 L1876.66043,84.0162985 L1877.66796,84.8366983 L1878.66446,85.6355852 L1879.65095,86.4136162 L1880.62845,87.1714483 L1881.59799,87.9097382 L1882.56057,88.6291431 C1882.72048,88.7475066 1882.88014,88.8651107 1883.03957,88.9819689 L1883.99364,89.6742778 C1884.15226,89.7882075 1884.31069,89.9014187 1884.46896,90.0139252 L1885.41681,90.6806163 L1886.36179,91.33105 C1886.67641,91.5452247 1886.99073,91.7567993 1887.30491,91.9658833 L1888.2472,92.5857731 L1889.18967,93.1913763 L1890.13335,93.7833499 C1890.29078,93.8809129 1890.44831,93.9779353 1890.60595,94.0744309 L1891.55335,94.6471918 C1891.86971,94.8360777 1892.1867,95.0229657 1892.50449,95.2079654 L1893.46041,95.7574086 L1894.42211,96.2961784 C1894.58294,96.3851204 1894.74405,96.4736451 1894.90546,96.5617661 L1895.87776,97.0857575 L1896.85841,97.6007178 L1897.84841,98.107304 C1898.01424,98.1910737 1898.18051,98.2745219 1898.34723,98.3576621 L1899.35318,98.8529188 L1900.37104,99.3414438 C1917.68563,107.547407 1937.28662,110.385312 1961.72327,107.264937 C1962.98241,107.104154 1964.23453,106.933712 1965.48076,106.75337 L1967.34584,106.475402 C1973.54903,105.523885 1979.61949,104.321815 1985.70069,102.838837 L1987.52552,102.385486 C1987.82976,102.308513 1988.13406,102.23083 1988.43844,102.152433 L1990.26585,101.673459 C1996.97094,99.8855963 2003.73242,97.7486514 2010.74124,95.2222203 L2012.65901,94.5235066 C2012.97971,94.4054347 2013.30095,94.2865506 2013.62276,94.1668503 L2015.56054,93.438825 C2015.88469,93.3158451 2016.20943,93.1920416 2016.53479,93.0674105 L2018.49452,92.3096639 L2020.46996,91.5318753 C2020.80055,91.4005636 2021.13184,91.2684092 2021.46384,91.1354084 L2023.46445,90.3272155 C2023.79935,90.1908136 2024.13499,90.0535577 2024.4714,89.9154439 L2026.49913,89.0764368 L2028.546,88.2166592 L2030.61289,87.335929 C2030.95909,87.1873845 2031.30616,87.0379593 2031.65411,86.8876498 L2033.75263,85.9751492 C2034.10421,85.8212868 2034.45671,85.6665325 2034.81015,85.5108823 L2036.94224,84.5662015 C2037.29952,84.406953 2037.65777,84.2468011 2038.01702,84.0857421 L2040.18462,83.1084713 C2040.54792,82.9437683 2040.91226,82.7781506 2041.27764,82.6116143 L2043.48267,81.6013437 L2045.71375,80.5688455 L2047.97172,79.5139376 L2051.21978,77.9806799 L2056.2104,75.5965129 L2077.54396,65.2461322 L2081.9238,63.1364294 L2085.11799,61.61051 L2088.23888,60.1313453 L2091.29046,58.6975383 L2093.28832,57.766176 L2095.25832,56.853938 L2098.16369,55.5205338 L2100.06925,54.6542959 L2102.8835,53.3879518 L2104.73199,52.5651274 L2106.55974,51.758944 L2108.36791,50.9689879 L2110.1577,50.194845 L2111.93027,49.4361017 L2113.68683,48.6923439 L2115.42854,47.9631579 L2117.1566,47.2481297 L2118.87218,46.5468454 C2119.15713,46.431087 2119.44162,46.3158841 2119.72566,46.2012279 L2121.42474,45.5197836 L2123.1143,44.8510486 C2123.39516,44.7406289 2123.67568,44.6307215 2123.95588,44.5213177 L2125.63338,43.8708706 L2127.30431,43.2320981 L2128.96987,42.6045863 L2130.63122,41.9879213 L2132.28956,41.3816893 C2132.56576,41.2814971 2132.84189,41.1817223 2133.11796,41.0823563 L2134.774,40.4909978 L2136.42997,39.9090375 L2138.08706,39.3360617 L2139.74646,38.7716563 L2141.40934,38.2154077 C2141.68684,38.1233563 2141.96454,38.0316275 2142.24246,37.9402128 L2143.91279,37.3954231 L2145.58957,36.8577554 L2147.27397,36.3267958 L2148.96718,35.8021304 L2150.67038,35.2833454 L2152.38476,34.7700268 C2182.87524,25.7182931 2214.37955,21.1385969 2249.64936,21.4411276 C2281.84547,21.7172932 2307.64999,26.6501437 2330.15844,35.9450131 L2331.49842,36.5038766 L2332.82068,37.0665667 L2334.12665,37.6338279 L2335.41773,38.2064048 C2336.05978,38.4941463 2336.69678,38.7841603 2337.32953,39.0768658 L2338.58958,39.6659895 L2339.8397,40.2630348 L2341.0813,40.8687463 C2341.2876,40.9704618 2341.49361,41.0725694 2341.69935,41.1750846 L2342.93082,41.7951916 C2343.13561,41.8993994 2343.3402,42.0040458 2343.5446,42.1091464 L2344.76913,42.745324 L2345.9908,43.3931462 L2347.21103,44.0533574 C2347.41436,44.1644664 2347.61769,44.2761226 2347.82104,44.3883416 L2349.04175,45.0685324 C2349.65251,45.4121284 2350.26406,45.7610684 2350.87718,46.115771 L2352.10578,46.8329841 L2353.34,47.5663091 L2354.58127,48.3164905 L2355.831,49.0842729 C2356.04007,49.2137448 2356.24955,49.343981 2356.45947,49.4749972 L2357.72454,50.2705772 L2359.00161,51.0856196 L2360.29208,51.920869 L2361.59738,52.7770699 C2361.81625,52.9215574 2362.03579,53.0669489 2362.25603,53.2132599 L2363.58623,54.1022843 L2364.93478,55.0141215 L2366.30311,55.9495163 C2366.5329,56.10742 2366.76356,56.2663362 2366.99514,56.4262805 L2369.10477,57.8939568 L2371.26846,59.4196633 L2372.7433,60.4702809 L2375.00768,62.0982887 L2377.33884,63.7910279 L2379.74156,65.5510112 L2387.81928,71.520479 L2390.74721,73.666745 L2392.86186,75.2030395 L2394.91162,76.6790521 L2396.90082,78.0971556 L2398.19544,79.0115582 L2400.0933,80.33842 L2401.94212,81.6137007 L2403.14955,82.4364036 L2404.33838,83.2379392 L2405.5099,84.0190109 L2406.66538,84.7803215 L2407.8061,85.5225743 L2408.93334,86.2464723 L2410.04839,86.9527187 C2410.23328,87.0689945 2410.41772,87.1845641 2410.60174,87.2994422 L2411.70089,87.9805294 L2412.79104,88.6457227 L2413.87348,89.2957252 L2414.94947,89.9312399 C2415.12834,90.0359908 2415.30699,90.1401674 2415.48546,90.2437842 L2416.5542,90.8588857 C2416.73202,90.9603223 2416.9097,91.0612284 2417.08728,91.1616188 L2418.15164,91.7578891 L2419.21469,92.3424841 L2420.27771,92.9161069 L2421.34196,93.4794606 C2421.51951,93.5725362 2421.69717,93.6652132 2421.87495,93.7575063 L2422.94347,94.3067746 L2424.01643,94.8475317 L2425.09512,95.3804805 L2426.1808,95.9063242 L2427.27477,96.4257658 L2428.3783,96.9395085 L2429.49268,97.4482554 L2430.61918,97.9527096 L2431.75908,98.4535741 C2431.95025,98.5367915 2432.14203,98.6198885 2432.33445,98.70288 C2451.75112,107.077293 2473.44737,111.530659 2500.20372,111.879228 C2530.15901,112.269471 2556.70052,107.980789 2581.66061,99.4811611 C2596.32721,94.4867624 2609.68738,88.4272921 2624.55229,80.2703768 L2626.68638,79.0907234 C2627.40137,78.6926752 2628.12006,78.2897593 2628.84278,77.8818644 L2631.02328,76.6431311 C2632.85093,75.5982199 2634.70559,74.5214928 2636.59201,73.4112081 L2638.87126,72.0626473 L2642.36821,69.9660306 L2651.60337,64.3287052 L2662.62514,57.5625055 L2664.9016,56.1793327 L2667.78395,54.4434888 L2669.84333,53.2162008 L2671.8255,52.0471126 L2673.73997,50.9310597 L2675.59622,49.8628773 L2676.80607,49.1747999 L2677.99708,48.5041726 L2679.75444,47.5276031 L2680.91068,46.893906 L2682.05792,46.272303 L2683.19899,45.6612639 C2700.49249,36.4556479 2715.27342,31.2981558 2730.84129,29.7739807 C2776.19196,25.333915 2826.16795,40.3236954 2880.76653,74.7225357 C2881.00003,74.8697353 2881.07024,75.1784655 2880.92304,75.4121038 C2880.77584,75.6457422 2880.46711,75.7158147 2880.23347,75.5686151 C2825.80875,41.2793128 2776.04474,26.3531105 2730.93873,30.7692222 C2715.51802,32.278989 2700.85605,37.3949742 2683.66888,46.5439892 L2682.53156,47.1530212 L2680.81292,48.0869355 L2679.65462,48.7253491 L2678.48302,49.378187 L2677.2953,50.0469759 L2676.08867,50.7332424 L2673.60743,52.1643149 L2671.67598,53.2948526 L2669.67354,54.4801724 L2666.87685,56.154721 L2664.67197,57.4879031 L2645.7215,69.0977513 L2641.69763,71.5385142 L2639.3802,72.9234577 L2637.09505,74.2754873 C2636.71678,74.4981199 2636.33979,74.719409 2635.96402,74.9393685 L2633.72388,76.243282 C2633.35288,76.4579789 2632.98304,76.6713741 2632.61432,76.8834816 L2630.41507,78.1407847 L2628.24081,79.3678507 C2612.02295,88.4591298 2597.7589,95.0556204 2581.98296,100.427781 C2556.91575,108.963885 2530.2609,113.270884 2500.19069,112.879143 C2473.30504,112.52889 2451.47861,108.048802 2431.93842,99.6211154 L2430.78456,99.1188373 L2429.64488,98.6133405 L2428.51811,98.1039206 L2427.40295,97.5898727 L2426.29813,97.0704925 L2425.20235,96.5450751 L2424.11434,96.0129162 L2423.03281,95.473311 L2421.95647,94.9255549 C2421.77744,94.8335438 2421.59858,94.7411638 2421.41985,94.6484001 L2420.34889,94.0870966 L2419.27992,93.5158808 L2418.21165,92.934048 L2417.1428,92.3408936 L2416.07207,91.7357131 C2415.89339,91.6338083 2415.71458,91.5313731 2415.53561,91.4283928 L2414.45967,90.8038519 C2414.27996,90.6986324 2414.10004,90.5928383 2413.91988,90.4864551 L2412.83584,89.8409685 L2411.7448,89.1806373 L2410.64546,88.504757 L2409.53655,87.8126229 L2408.41678,87.1035304 L2407.28487,86.3767749 L2406.13952,85.6316519 L2404.97947,84.8674567 L2403.80341,84.0834847 L2402.00653,82.8689039 L2400.78486,82.0324073 L2399.5427,81.1736679 L2398.27877,80.2919809 L2396.99177,79.3866419 L2395.01523,77.9827444 L2392.97957,76.5216663 L2390.16592,74.4805044 L2387.97547,72.876757 L2379.96727,66.9590416 L2378.34521,65.7661849 L2375.97396,64.0340372 L2374.43229,62.9162795 L2372.9203,61.8272605 L2371.43659,60.7662368 L2369.97974,59.7324652 L2368.54835,58.7252022 L2367.14099,57.7437045 L2365.75627,56.7872287 L2364.39278,55.8550315 L2363.04909,54.9463696 L2361.7238,54.0604995 L2360.4155,53.1966779 L2359.12278,52.3541615 L2357.84423,51.5322069 L2356.57843,50.7300707 L2355.32399,49.9470097 L2354.07947,49.1822803 L2352.84349,48.4351394 C2352.63812,48.3120403 2352.43305,48.1896431 2352.22825,48.0679323 L2351.0024,47.3457801 L2349.78156,46.6393579 L2348.5643,45.9479224 L2347.34922,45.2707302 C2347.14681,45.1590105 2346.94443,45.0478532 2346.74206,44.937243 L2345.5276,44.2800219 L2344.31179,43.6351857 L2343.09322,43.0019911 L2341.87048,42.3796946 L2340.64216,41.7675529 C2340.4369,41.6663343 2340.23134,41.5655078 2340.02547,41.4650579 L2338.78613,40.8667547 C2338.57885,40.7677495 2338.3712,40.66909 2338.16314,40.5707607 L2336.90961,39.9846235 C2336.69979,39.887553 2336.4895,39.7907818 2336.27872,39.6942943 L2335.00783,39.1186504 C2334.79494,39.0232359 2334.5815,38.9280742 2334.36747,38.8331498 L2333.07604,38.2663267 L2331.76915,37.7044549 C2331.54997,37.6111809 2331.33008,37.5180823 2331.10947,37.4251435 L2329.77675,36.8693049 C2307.39039,27.6248519 2281.7124,22.7161886 2249.64079,22.4410908 C2215.01277,22.1440653 2184.03328,26.5654577 2154.073,35.3153546 L2151.81297,35.9839979 L2150.10884,36.4986422 L2148.41521,37.0189619 L2146.73093,37.5453707 L2145.05479,38.0782819 L2143.38563,38.6181091 L2141.72226,39.1652658 L2140.0635,39.7201655 L2138.40817,40.2832218 L2136.75508,40.8548481 C2136.47969,40.9508562 2136.20435,41.0472388 2135.92902,41.1440042 L2134.2771,41.7292609 L2132.62448,42.3241214 L2130.96997,42.9289992 L2129.3124,43.5443079 L2127.65059,44.170461 L2125.98336,44.8078719 L2124.30951,45.4569542 L2122.62789,46.1181214 L2120.93729,46.791787 L2119.23655,47.4783645 L2117.52449,48.1782674 L2115.79991,48.8919093 L2114.06165,49.6197036 L2112.30851,50.3620639 L2109.64835,51.5038201 C2109.35062,51.632606 2109.05215,51.7620419 2108.75291,51.8921364 L2106.0384,53.081002 L2104.20374,53.8940263 L2102.34772,54.723891 L2100.46916,55.5710094 L2098.56687,56.4357951 L2095.66638,57.7670044 L2092.70586,59.1402912 L2089.68134,60.557051 L2086.58883,62.0186794 L2082.35284,64.0397251 L2080.18391,65.0821246 L2059.05214,75.3375013 L2053.81147,77.8546045 L2049.53746,79.8825562 L2047.25995,80.9514392 C2046.88267,81.1277038 2046.50652,81.3030297 2046.13149,81.4774205 L2043.89463,82.5125764 L2041.68379,83.5254747 L2039.49811,84.5162973 C2039.13588,84.6796048 2038.77466,84.8420001 2038.41444,85.0034869 L2036.26488,85.9615367 C2035.90856,86.1194048 2035.5532,86.2763721 2035.19878,86.4324422 L2033.0834,87.3581282 L2030.98973,88.2624656 L2028.9169,89.1456361 L2026.86405,90.0078216 L2024.83033,90.8492037 C2024.49292,90.9877106 2024.15627,91.1253582 2023.82037,91.2621504 L2021.81371,92.0726685 L2019.82401,92.8628378 L2017.85041,93.6328401 L2015.89204,94.3828571 C2015.56687,94.5062046 2015.2423,94.6287269 2014.91831,94.7504279 L2012.98118,95.4708079 C1995.28549,101.984497 1979.23851,106.036493 1961.84993,108.256883 C1937.22825,111.400885 1917.43469,108.535099 1899.94277,100.245094 L1899.4277,99.9994476 L1898.40691,99.5032859 C1898.23777,99.420024 1898.06912,99.3364687 1897.90092,99.2526063 L1896.89715,98.7456376 L1895.90344,98.2306402 L1894.91878,97.7069551 C1894.75536,97.6189136 1894.59228,97.5304827 1894.42951,97.4416486 L1893.45648,96.9036958 L1892.48993,96.3554073 L1891.52882,95.796124 C1891.36904,95.7019573 1891.20944,95.6073049 1891.05,95.5121533 L1890.09515,94.9351418 C1889.61853,94.6435303 1889.143,94.3471778 1888.66797,94.0457135 L1887.71842,93.4358593 C1887.56022,93.3330443 1887.40203,93.2296339 1887.24383,93.1256144 L1886.29438,92.4940771 C1886.13607,92.3875659 1885.9777,92.2804181 1885.81927,92.1726199 L1884.86761,91.5179164 C1884.7088,91.4074618 1884.54988,91.2963293 1884.39082,91.1845053 L1883.43465,90.5051525 L1882.47419,89.8085429 L1881.50842,89.0940174 L1880.53631,88.3609167 L1879.55683,87.6085818 L1878.56896,86.8363535 C1878.23816,86.5755552 1877.90579,86.3113316 1877.57168,86.0435726 L1876.56395,85.22958 L1875.54476,84.3937165 C1875.37388,84.2525467 1875.20248,84.1104382 1875.03054,83.9673772 L1873.99222,83.0974715 L1872.93987,82.204047 L1871.87246,81.2864446 L1870.78897,80.3440051 L1869.68838,79.3760694 L1868.56965,78.3819784 L1867.43177,77.3610728 L1866.2737,76.3126935 L1864.49651,74.6871695 L1863.2835,73.5672223 L1862.04671,72.4174943 L1860.14472,70.6356215 L1852.81987,63.7016107 L1850.8844,61.881323 L1849.0202,60.1420081 L1846.63605,57.9418073 L1845.48381,56.8899301 L1843.8007,55.3689835 L1842.70643,54.3911638 L1841.63252,53.4408455 L1840.57736,52.5168163 L1839.53932,51.6178636 L1838.51679,50.7427753 L1837.50815,49.8903389 L1836.51178,49.059342 L1835.52607,48.2485722 L1834.5494,47.4568173 L1833.58015,46.6828649 L1832.61671,45.9255025 L1831.65745,45.1835178 L1830.70077,44.4556984 L1829.74504,43.740832 C1829.58575,43.6226996 1829.42642,43.5050565 1829.26703,43.3878773 L1828.3097,42.6901672 L1827.34928,42.0023791 L1826.38416,41.3233007 L1825.41272,40.6517196 L1824.43333,39.9864234 L1823.44439,39.3261999 L1822.44427,38.6698365 C1809.71315,30.3847438 1796.25493,24.789427 1780.68545,21.8307192 C1760.15357,17.9289965 1737.76989,19.7852978 1712.2704,26.6463222 L1711.17565,26.9434281 C1710.73521,27.0639795 1710.29523,27.1854679 1709.85556,27.3079385 L1708.53733,27.6783423 C1706.78057,28.1762639 1705.02653,28.6906272 1703.26617,29.2243357 L1701.94457,29.6282897 L1700.5417,30.0642152 L1699.13421,30.508902 L1697.01212,31.1930666 L1695.58868,31.6610703 L1694.1571,32.1389663 L1692.71636,32.6270777 L1690.5359,33.3791053 L1689.06788,33.8941687 L1686.84177,34.6881391 L1685.34018,35.2321741 L1683.05898,36.0711165 L1681.5175,36.6461427 L1679.17177,37.5330864 L1676.78278,38.450285 L1675.16441,39.0790975 L1672.69578,40.0491443 L1670.17484,41.052354 L1667.59817,42.0898172 L1665.84776,42.8010277 L1663.17067,43.8980035 L1660.4288,45.032141 L1656.66633,46.6040161 L1653.76008,47.8291051 L1649.76609,49.5262071 L1646.67695,50.8481849 L1626.49515,59.5496234 L1621.90207,61.5095162 L1618.19824,63.0738392 L1615.22501,64.3165288 L1613.30003,65.1137853 L1611.4182,65.8869779 L1609.57731,66.6368765 L1606.8879,67.7197331 L1605.13969,68.4147664 C1604.85115,68.5288673 1604.56399,68.64211 1604.27817,68.7545104 L1602.57893,69.4189348 L1600.90957,70.0639159 L1598.45673,70.996616 L1596.85241,71.5963583 L1595.27023,72.1793527 L1593.70798,72.7463695 L1592.16345,73.2981787 L1591.22077,73.630482 L1589.35472,74.2776434 C1586.88367,75.1250087 1584.48035,75.9102809 1582.14048,76.6331451 L1580.39741,77.1635867 C1567.12408,81.1405187 1555.91345,83.051476 1545.95333,82.8365392 C1532.28965,82.5416802 1519.30406,80.5741281 1505.78075,77.0199023 C1503.91269,76.5289348 1502.10377,76.0319089 1500.29867,75.5117598 L1498.84121,75.086502 L1496.94234,74.5165788 L1495.98545,74.2226566 L1494.53586,73.7690413 L1493.06384,73.2985142 L1491.05597,72.6416615 L1489.50847,72.1245273 L1487.37834,71.398862 L1485.15893,70.627886 L1482.23761,69.5938121 L1478.47993,68.2385082 L1474.40224,66.7445034 L1463.64687,62.7558784 L1461.73304,62.0529962 L1458.92506,61.0343442 L1456.18911,60.0580688 L1454.40335,59.4305228 L1452.64687,58.8214534 L1450.91858,58.2307177 L1449.21738,57.6581726 L1447.5422,57.1036751 C1447.26511,57.0127549 1446.98905,56.9225807 1446.71402,56.8331496 L1445.07579,56.3054556 C1444.80472,56.2189848 1444.53463,56.133251 1444.26547,56.0482514 L1442.66175,55.5470391 L1441.07966,55.0633025 L1439.51811,54.5968987 C1439.0009,54.4443037 1438.48693,54.2945736 1437.97602,54.1476847 L1436.45228,53.7155175 L1434.9458,53.3002542 C1433.69729,52.9612049 1432.46563,52.6396149 1431.24797,52.3351117 L1429.79331,51.9778858 L1428.351,51.6369203 L1426.91995,51.3120723 L1425.49905,51.0031987 L1424.08723,50.7101566 L1422.68338,50.432803 C1421.98326,50.2980244 1421.28573,50.1690755 1420.59017,50.0458757 L1419.20148,49.8071178 L1417.81694,49.583548 L1416.43546,49.3750232 C1416.2054,49.3415149 1415.97543,49.3086275 1415.74552,49.2763581 L1414.36658,49.0901329 C1409.54149,48.4641315 1404.72241,48.1080156 1399.6985,47.9941988 L1398.25735,47.9682491 C1397.5338,47.958547 1396.80566,47.9537362 1396.07232,47.9537362 C1385.11136,47.9537362 1373.39902,49.7397224 1359.61099,53.259978 L1357.3312,53.8503313 L1354.50552,54.5950914 L1352.92892,55.0209272 L1351.38176,55.4492666 L1348.63185,56.2399454 L1345.22371,57.2668508 L1340.21485,58.8353368 L1331.11956,61.7563053 L1316.61626,66.4595554 L1312.76631,67.696917 L1309.98154,68.5823989 L1307.27958,69.4325849 L1304.65573,70.2485249 L1302.10532,71.0312686 L1299.62366,71.7818657 L1297.20604,72.501366 L1294.84779,73.1908193 L1292.54421,73.8512753 L1291.03655,74.2759882 L1289.54971,74.6885909 L1288.08232,75.0893946 L1286.63296,75.4787104 L1285.20027,75.8568492 L1283.07942,76.403781 L1281.68229,76.7553382 L1280.29695,77.0968071 L1278.92202,77.4284987 L1277.55611,77.7507241 L1276.19782,78.0637944 L1274.84576,78.3680204 L1273.49856,78.6637134 C1273.27435,78.7123018 1273.05028,78.7605475 1272.82634,78.8084572 L1271.48379,79.0919337 L1270.14263,79.3676547 L1268.13041,79.7673751 L1266.11346,80.1513951 L1264.08711,80.5207647 L1262.72865,80.7593902 C1241.28891,84.4696014 1221.30821,84.8101072 1201.41066,81.1964122 C1190.70291,79.2517237 1180.63545,76.3552107 1170.02748,72.1934144 L1168.30234,71.5073882 C1165.70697,70.461564 1163.07584,69.3398739 1160.39196,68.1378066 L1158.59471,67.3244712 C1156.78927,66.4991291 1154.9587,65.6376182 1153.09797,64.7386018 L1151.22701,63.8270342 C1150.59988,63.518978 1149.96921,63.2067051 1149.33482,62.8901658 L1147.42028,61.9276998 C1147.09927,61.7651392 1146.77728,61.6014996 1146.45428,61.4367748 L1144.50414,60.4353553 C1143.52287,59.9280852 1142.53217,59.4109375 1141.53142,58.883745 L1139.51632,57.8159178 C1139.17817,57.6356979 1138.83886,57.4543496 1138.49836,57.2718666 L1136.44094,56.1633036 L1133.56763,54.5970239 L1130.71351,53.0244099 L1125.94278,50.3677424 L1113.08529,43.1491528 L1110.45537,41.6816116 L1108.33401,40.504901 L1105.22306,38.792673 L1103.19411,37.6854671 L1101.19926,36.6049283 L1098.26734,35.0327023 C1097.94543,34.8611817 1097.62476,34.6907048 1097.30532,34.5212579 L1095.40295,33.5168294 L1093.52813,32.536474 C1093.21787,32.3750515 1092.90868,32.214605 1092.60055,32.0551211 L1090.76399,31.1096595 L1088.9509,30.18665 L1087.15964,29.2854439 C1086.86282,29.1370238 1086.56685,28.9894852 1086.27168,28.8428145 L1084.51008,27.9730978 L1082.76622,27.1235633 C1082.47697,26.9836201 1082.18838,26.8444908 1081.90043,26.7061619 L1080.1801,25.885685 L1078.47342,25.0837693 L1076.77874,24.2997663 C1076.4972,24.1705558 1076.2161,24.0420647 1075.93539,23.9142793 L1074.25565,23.1559294 C1073.4179,22.7808813 1072.58312,22.4119426 1071.75038,22.0487484 L1070.08736,21.3299112 C1069.81055,21.2113456 1069.5339,21.0933912 1069.25738,20.9760345 L1067.59948,20.2789597 C1067.32333,20.16394 1067.04723,20.049491 1066.77115,19.9355993 L1065.11469,19.2588277 C1064.83857,19.1471108 1064.5624,19.0359241 1064.28615,18.9252542 L1062.62745,18.2673266 L1060.96521,17.6211513 C1060.41035,17.4076461 1059.85463,17.1959916 1059.29778,16.9860796 L1057.62354,16.3614631 C1057.34385,16.2581956 1057.06379,16.1553367 1056.78336,16.0528729 L1055.09583,15.4427234 C1054.81371,15.341786 1054.53114,15.2412167 1054.24808,15.141002 L1052.54357,14.5438603 C1051.97327,14.3461594 1051.40074,14.1497686 1050.82571,13.95458 C1025.8788,5.48657744 999.772164,1.0505951 970.240844,1.00035948 C943.53646,0.955098982 916.29495,5.18481751 885.285409,13.5303947 L882.598755,14.2603166 L879.165739,15.2057814 L876.956531,15.8224724 L874.794304,16.4336109 L872.664834,17.043776 L869.149877,18.0709927 L866.330724,18.9142249 L863.468658,19.7882908 L862.010997,20.2402785 L858.511611,21.3430685 L854.831438,22.527225 L850.335474,24.0022906 L845.453531,25.6318737 L838.686568,27.9253403 L829.38552,31.1200163 L816.565466,35.5670266 L797.343241,42.271373 L789.90226,44.8497606 L785.155153,46.481411 L780.566967,48.0466105 L777.223977,49.1786389 L772.889332,50.6344978 L769.668319,51.7065483 L765.73083,53.0043906 L763.164051,53.8422054 L760.640748,54.6589652 L758.158266,55.4554205 L754.505274,56.613674 L752.11323,57.3626514 L749.752717,58.0939511 L746.26526,59.1593966 L743.971961,59.8497854 L741.700901,60.5251233 C741.324098,60.6364671 740.94811,60.747215 740.572883,60.8573827 L738.330207,61.5115515 L736.103136,62.1525456 L733.889016,62.7811157 L731.685192,63.3980121 L729.489009,64.0039855 L727.297814,64.5997863 L725.108952,65.1861651 L723.584534,65.5893687 C720.280814,66.4586034 716.969683,67.3000074 713.610105,68.125184 C680.261735,76.316182 649.011989,80.6668559 617.422735,80.8884016 C585.379454,81.1131316 557.822997,77.7347365 531.918222,71.0313671 L530.366412,70.6260627 L528.829526,70.2170741 L527.306028,69.8039139 C527.053143,69.7346792 526.800751,69.6652503 526.548821,69.5956172 L525.042529,69.175286 L523.545789,68.7495648 L522.057065,68.3179663 L520.574823,67.8800032 C520.328238,67.8064519 520.081858,67.7326151 519.835653,67.6584826 L518.360255,67.2100587 L516.887501,66.7540519 L515.415855,66.2899746 C515.170588,66.2119288 514.925304,66.1335264 514.679969,66.0547573 L513.207109,65.5776607 C512.961448,65.4973841 512.715673,65.4167204 512.469752,65.3356596 L510.992223,64.8444471 L509.509664,64.3432148 L508.020538,63.8314754 L506.523311,63.3087414 L505.016448,62.7745257 L502.734727,61.9506075 L501.197058,61.3855549 L498.861932,60.513097 L497.283863,59.9141617 L495.686947,59.3008204 L494.06965,58.6725858 L492.430437,58.0289704 L490.767772,57.3694871 L488.226445,56.3494434 L485.623719,55.2909553 L482.954412,54.192378 L479.282811,52.6624042 L477.395332,51.8683762 L474.495198,50.6396621 L470.491653,48.9284969 L457.881958,43.4985737 L454.884041,42.2186092 L451.981254,40.989828 L449.167644,39.810336 L446.437256,38.6782392 L444.660293,37.9489032 L442.915908,37.2392288 L440.356554,36.2103548 L437.860578,35.2225624 L436.228864,34.5859219 L434.620908,33.9661369 L433.034945,33.3626461 L431.469212,32.7748885 L429.921944,32.2023027 L428.391379,31.6443275 L426.87575,31.1004018 L425.373295,30.5699644 L423.88225,30.052454 L422.40085,29.5473095 L420.927331,29.0539696 L419.45993,28.5718732 L417.996881,28.100459 L416.536423,27.6391658 C416.293131,27.5630959 416.049873,27.4874242 415.806613,27.4121392 L414.34673,26.9649754 L412.885027,26.5265295 L411.419739,26.0962405 L409.949102,25.673547 L408.471352,25.257888 L406.984725,24.8487022 L405.487456,24.4454284 C384.931078,18.9684078 363.818053,16.157177 339.952187,16.157177 C308.108377,16.157177 281.644585,23.7182649 249.475255,40.1950619 L247.369053,41.2822899 L245.245988,42.3948823 C244.180127,42.9575335 243.107686,43.5297276 242.028281,44.1115117 L239.891907,45.2731006 L236.61163,47.0993424 L230.796065,50.3901978 L222.554604,55.1030801 L207.671922,63.6793051 L195.80269,70.5447756 C193.933764,71.6052446 192.088417,72.6430799 190.264174,73.6591406 L187.543331,75.167008 C183.033941,77.65326 178.648729,80.006105 174.34904,82.2389662 L171.77918,83.5643922 C152.577568,93.3987127 134.95128,100.857723 115.378156,107.164595 C81.06252,118.221816 43.6904816,124.324261 0.507827969,125.000946 C0.231719428,125.004621 0,124.784295 0,124.508187 C0,124.232078 0.216066029,124.004744 0.49217457,124.000421 C43.5765794,123.325921 80.8505231,117.239494 115.071463,106.212787 C129.385976,101.60035 142.658148,96.3691737 156.275092,90.0369533 L158.755008,88.8734004 C167.036117,84.9537326 175.474744,80.618904 184.379675,75.7615476 L187.065452,74.2885575 L189.78106,72.7835715 L192.528352,71.2459455 C192.988977,70.9869187 193.451,70.726505 193.914459,70.4646911 L195.714302,69.4423677 L217.854269,56.6511595 L226.824858,51.5043517 L234.102697,47.3649291 L237.159401,45.6462574 L239.682963,44.2469062 L240.469652,43.8175308 C276.740072,24.1386923 305.149277,15.157177 339.952187,15.157177 C363.905716,15.157177 385.105242,17.9799254 405.744914,23.4791387 L407.247396,23.8838135 C407.496865,23.9517361 407.745887,24.0199049 407.994498,24.0883316 L409.48153,24.5020801 L410.960473,24.92258 L412.433092,25.3503931 C412.6781,25.422336 412.922918,25.4946069 413.167583,25.5672178 L414.634033,26.0070543 C414.878234,26.0810713 415.122355,26.1554515 415.366434,26.2302066 L416.830691,26.6833307 L418.295696,27.1460154 C418.540024,27.2239574 418.784457,27.3023212 419.029031,27.3811185 L420.498472,27.8591977 L421.97308,28.3482421 L423.454622,28.8488136 L424.944866,29.3614741 L426.44558,29.8867853 L427.958531,30.4253093 L429.485486,30.9776077 L431.028214,31.5442424 L432.588482,32.1257754 L434.168058,32.7227684 L435.768708,33.3357832 L437.392202,33.9653818 L439.040306,34.612126 L441.562473,35.6156192 C441.846232,35.7294021 442.1312,35.8439579 442.417415,35.9592984 L445.027996,37.0188635 L446.808721,37.7497156 L449.544733,38.8841113 L452.363958,40.0659335 L455.272362,41.2970787 L460.439252,43.509182 L469.860285,47.5686938 L472.903754,48.8739412 L475.856485,50.1314543 L478.723649,51.3428763 L481.51042,52.5098506 L484.221968,53.6340204 L485.990432,54.3604983 L488.588104,55.4169792 L490.28544,56.0998526 L492.783604,57.0932094 L494.41939,57.7355216 L496.033237,58.3624615 L497.626679,58.9745158 L499.981934,59.8657522 L501.531068,60.442723 L503.065159,61.0065126 L504.585742,61.5576077 L506.094348,62.0964953 L507.592509,62.6236623 L509.08176,63.1395956 L510.563631,63.6447821 L512.039655,64.1397088 C512.285257,64.2213686 512.53068,64.3026213 512.775954,64.3834768 L514.246083,64.8639266 C514.490894,64.9432345 514.735621,65.0221656 514.980295,65.1007301 L516.447976,65.5677985 L517.91594,66.0265547 L519.38572,66.4774856 L520.858848,66.921078 L522.336858,67.3578188 L523.821282,67.7881951 L525.313651,68.2126936 L526.8155,68.6318013 L528.32836,69.046005 L529.853763,69.4557918 L531.393243,69.8616485 L532.16874,70.0632552 C557.989055,76.7447689 585.458934,80.1125496 617.415722,79.8884262 C648.921581,79.6674653 680.09495,75.3274249 713.371576,67.1540487 C714.919812,66.7737724 716.457781,66.3900325 717.989514,66.0016892 L720.251136,65.4237709 L723.172896,64.6635919 L726.090556,63.8889788 L728.279905,63.2974735 L730.473155,62.6960933 L733.408156,61.8775912 L734.882003,61.4606979 L736.361131,61.0384123 L738.59145,60.394386 L741.591052,59.5147307 L743.103702,59.0654214 L746.158642,58.1467245 L750.041022,56.9584076 L753.205576,55.9736236 L756.429094,54.9565692 L759.717885,53.9054607 L763.078253,52.8185146 L767.388977,51.4067181 L770.933454,50.2326158 L774.570005,49.0168792 L779.25478,47.4359427 L782.144555,46.4533681 L789.134759,44.0566131 L796.49868,41.5064065 L822.706447,32.3740326 L832.013113,29.156209 L836.571664,27.5912659 L842.812155,25.4672996 L847.835929,23.7791848 L852.447391,22.2533399 L856.723567,20.864969 L859.757002,19.8989916 L863.155754,18.8381691 L865.518035,18.1153375 L868.773689,17.1393491 L870.624718,16.5948035 L871.798353,16.2532949 L873.837626,15.6664929 L875.903021,15.0801067 L878.007118,14.4900868 L881.263344,13.5893854 L883.519228,12.9725646 C915.233316,4.33571776 943.00866,-0.0457970065 970.242542,0.000360917267 Z"/></svg>