<?xml version="1.0" encoding="UTF-8"?>
<svg width="1080px" height="1080px" viewBox="0 0 1080 1080" version="1.1" xmlns="http://www.w3.org/2000/svg" xmlns:xlink="http://www.w3.org/1999/xlink">
    <title>my-rituals-phase-logo-graditute-dark-01</title>
    <g id="my-rituals-phase-logo-graditute-dark-01" stroke="none" stroke-width="1" fill="none" fill-rule="evenodd">
        <g id="brand-/-logo-/-myrituals_crm_tier_logo_01" transform="translate(80.000000, 80.000000)" fill="#1A1919">
            <path d="M459.857824,5.99129635e-13 C544.212789,5.99129635e-13 621.947993,45.1648521 663.423964,118.04695 C744.693977,119.239372 819.611823,162.345338 861.137627,232.012792 C902.700806,301.742949 904.741398,387.89816 866.691273,459.431556 C905.273795,531.009396 903.555605,617.514464 861.990766,687.581442 C820.447083,757.612757 745.205654,800.9257 663.606181,801.987437 C622.120668,874.850548 544.392104,920 460.047392,920 C375.698425,920 297.966273,874.845993 256.480504,801.975999 C175.246622,800.742974 100.373469,757.637738 58.8652792,687.994954 C17.3035084,618.262271 15.2620116,532.106298 53.3092395,460.569642 C14.7262182,388.99175 16.4445602,302.487091 58.0092341,232.42039 C99.5388221,162.412835 174.743294,119.105526 256.310766,118.01549 C297.789748,45.1520171 375.514846,5.99129635e-13 459.857824,5.99129635e-13 Z M459.881386,689.128792 L457.907771,692.363476 C417.70977,756.62206 348.490103,797.424143 272.519923,801.641818 L272.519923,801.641818 L268.461303,801.83004 L270.499448,805.143091 C310.433747,868.716973 380.107848,908.181384 455.834291,909.595437 L455.834291,909.595437 L460.047392,909.634761 C537.396215,909.634761 608.921512,869.894267 649.595335,805.143091 L649.595335,805.143091 L651.624514,801.83004 L647.563089,801.65359 C571.492906,797.501322 502.152634,756.695722 461.870436,692.376544 L461.870436,692.376544 L459.881386,689.128792 Z M262.456082,128.407121 L261.78166,129.681747 C227.296398,195.488939 228.014841,274.19451 263.936989,339.464269 L263.936989,339.464269 L268.151033,347.121094 L259.375193,347.135505 C232.203596,347.180122 205.270854,352.183562 179.900775,361.902648 C131.197192,380.399849 90.6094008,415.32431 65.1928465,460.530196 C104.929409,529.937917 179.108003,572.890839 259.554562,572.866321 L259.554562,572.866321 L268.352276,572.86364 L264.125991,580.53859 C251.796007,602.929892 243.445662,627.270731 239.440811,652.501841 C231.742962,700.185727 239.942671,749.036066 262.740186,791.612505 C343.042833,790.444037 416.639762,746.443402 455.312188,676.247442 L455.312188,676.247442 L459.87886,667.958282 L464.449623,676.245211 C503.237138,746.568135 577.049918,790.58934 657.52939,791.620277 C692.711537,725.549937 692.221686,646.237086 656.063011,580.537563 L656.063011,580.537563 L651.852266,572.886732 L660.621224,572.866335 C741.246104,572.678796 815.425347,529.278404 854.804201,459.468387 C815.044677,390.083611 740.88082,347.140311 660.443529,347.135512 L660.443529,347.135512 L651.64665,347.134987 L655.874717,339.461956 C668.207346,317.080894 676.557692,292.747842 680.559219,267.523378 C688.258992,219.838478 680.058677,170.986527 657.2584,128.410021 C576.918577,129.516333 503.268626,173.52121 464.593501,243.753532 L464.593501,243.753532 L460.029779,252.041049 L455.456704,243.758634 C416.660989,173.494704 342.892647,129.490691 262.456082,128.407121 Z M860.561999,470.225301 L858.829688,473.084085 C818.03088,538.703145 746.997469,580.016141 669.304369,583.05241 L669.304369,583.05241 L669.152337,583.050932 L671.431235,587.70375 C702.157924,652.20863 701.475109,727.324879 669.382789,791.358142 L669.382789,791.358142 L669.31907,791.4648 L673.28162,791.278563 C746.030323,787.158303 812.442012,747.930271 850.832256,685.916901 L850.832256,685.916901 L853.015835,682.314015 C890.957996,618.353883 894.14839,540.057472 862.208526,473.558422 L862.208526,473.558422 L860.561999,470.225301 Z M59.4821346,471.324016 L57.785133,474.853971 C26.425152,541.242972 29.9305755,619.122385 67.8292648,682.70912 C105.849771,746.50024 173.169226,786.987805 247.054796,791.263174 L247.054796,791.263174 L250.93348,791.454435 L250.291845,790.183856 C229.673679,748.66734 222.019618,701.910868 228.384665,655.972539 L228.384665,655.972539 L229.149637,650.871955 C232.740878,628.246548 239.6756,606.295444 249.711227,585.725748 L249.711227,585.725748 L251.037688,583.071662 L246.617917,582.880655 C170.770752,578.738318 101.597229,538.166902 61.242291,474.154782 L61.242291,474.154782 L59.4821346,471.324016 Z M338.397073,250.336566 L346.069416,254.638377 C402.970967,286.542546 443.830008,340.701542 458.722669,403.961193 L458.722669,403.961193 L460.063048,409.654728 L454.219415,410.294343 C445.894426,411.205554 437.931967,414.178302 431.070494,418.9336 C426.548208,422.08378 422.568359,425.941269 419.285339,430.356421 L419.285339,430.356421 L416.098505,434.641 L413.828885,439.813205 C411.726359,444.603163 410.395199,449.690884 409.882554,454.892706 L409.814893,455.63658 C409.116464,463.940553 410.525903,472.286022 413.913878,479.907198 L413.913878,479.907198 L416.292198,485.257175 L415.908505,485.373 L419.289831,489.934296 C422.415003,494.14995 426.180884,497.853984 430.447376,500.911573 L431.060265,501.343959 C437.931967,506.106364 445.894426,509.079112 454.219415,509.990324 L454.219415,509.990324 L460.063048,510.629939 L458.722669,516.323474 C443.830008,579.583125 402.970967,633.742121 346.069416,665.64629 L346.069416,665.64629 L338.397073,669.948101 L338.300726,661.188252 C337.586365,596.238708 364.11663,533.931191 411.511885,489.248566 L411.511885,489.248566 L415.486505,485.501 L410.666164,486.960989 C348.807047,505.694683 281.937711,498.066882 225.977861,465.955524 L224.285463,464.97496 L216.694303,460.534247 L224.262036,456.054149 C280.381693,422.831308 347.88816,414.392143 410.527747,432.768571 L410.527747,432.768571 L414.624505,433.97 L411.511885,431.036101 C364.590583,386.800302 338.119057,325.290347 338.287462,261.044094 L338.300726,259.096415 L338.397073,250.336566 Z M582.239953,250.338116 L582.339045,259.094778 C583.07409,324.049422 556.540039,386.365829 509.126711,431.037226 L509.126711,431.037226 L505.147505,434.785 L509.973323,433.32377 C571.835264,414.585135 638.710285,422.222123 694.663557,454.352953 L696.355751,455.33411 L703.945044,459.776954 L696.376566,464.25479 C640.258198,497.456822 572.764971,505.886694 510.135945,487.516156 L510.135945,487.516156 L506.000505,486.303 L509.126711,489.24744 C556.065906,533.472124 582.541321,594.990681 582.352922,659.242056 L582.339045,661.189888 L582.239953,669.946551 L574.570374,665.64629 C517.668823,633.742121 476.809782,579.583125 461.917121,516.323474 L461.917121,516.323474 L460.575558,510.62491 L466.424914,509.989829 C474.748641,509.086099 482.709977,506.11377 489.587012,501.33878 C494.112178,498.214321 498.0844,494.364225 501.341645,489.945544 L501.341645,489.945544 L504.657505,485.446 L506.831996,480.477405 C508.927737,475.686572 510.25193,470.599014 510.75815,465.392643 L510.824897,464.648087 C511.523326,456.344114 510.113887,447.998645 506.725912,440.377468 L506.725912,440.377468 L504.347738,435.027819 L504.723505,434.913 L501.346051,430.345092 C498.228388,426.12841 494.464968,422.426385 490.18996,419.370286 L489.575779,418.938109 C482.709977,414.170897 474.748641,411.198568 466.424914,410.294838 L466.424914,410.294838 L460.575558,409.659757 L461.917121,403.961193 C476.809782,340.701542 517.668823,286.542546 574.570374,254.638377 L574.570374,254.638377 L582.239953,250.338116 Z M505.972682,500.668009 L505.525613,501.181993 C502.530434,504.424374 499.181641,507.331841 495.540626,509.845812 C488.901079,514.455926 481.413986,517.677453 473.533096,519.340986 L473.533096,519.340986 L473.407613,519.356536 L474.263752,522.533369 C488.860161,575.019649 522.358468,620.294 568.276747,649.764574 L568.276747,649.764574 L571.832279,652.000504 L571.656929,647.494702 C568.954143,593.387517 546.50654,542.032876 508.447453,503.138094 L508.447453,503.138094 L505.972682,500.668009 Z M414.665438,500.657644 L412.195747,503.138613 C374.149384,542.042495 351.704125,593.392684 348.986855,647.497011 L348.986855,647.497011 L348.805842,651.990139 L352.363043,649.764574 C398.281322,620.294 431.779629,575.019649 446.376038,522.533369 L446.376038,522.533369 L447.220087,519.34617 L446.44957,519.19416 C439.903671,517.733153 433.6389,515.197475 427.914718,511.683613 L427.914718,511.683613 L425.098877,509.845613 C421.463097,507.320779 418.119967,504.413488 415.125592,501.17812 L415.125592,501.17812 L414.665438,500.657644 Z M459.88152,432.462591 C475.84605,432.462591 488.787858,445.33537 488.787858,461.214747 C488.787858,477.094125 475.84605,489.966904 459.88152,489.966904 C443.916991,489.966904 430.975183,477.094125 430.975183,461.214747 C430.975183,445.33537 443.916991,432.462591 459.88152,432.462591 Z M678.416506,457.396765 C630.105455,433.147493 574.489766,427.177902 521.9984,440.719573 L521.9984,440.719573 L518.36304,441.689797 L518.629859,442.444273 C520.645547,448.811957 521.583355,455.476193 521.397238,462.159739 L521.397238,462.159739 L521.210305,465.501837 C520.84969,469.895631 520.005281,474.229975 518.696494,478.427929 L518.696494,478.427929 L518.467248,479.06685 L522.093385,480.015518 C576.338518,493.513896 633.720137,486.346959 682.925951,459.927606 L682.925951,459.927606 L683.105818,459.8186 Z M398.568449,440.268376 C344.314543,426.766357 286.922675,433.941068 237.715219,460.377071 L237.715219,460.377071 L237.521882,460.471611 L242.223416,462.906547 C290.539579,487.141072 346.152178,493.103398 398.64195,479.564438 L398.64195,479.564438 L402.26466,478.590049 L402.009937,477.840321 C399.994268,471.472418 399.056531,464.807306 399.242939,458.120258 L399.242939,458.120258 L399.430035,454.776181 C399.796439,450.381617 400.646642,446.047132 401.961129,441.849643 L401.961129,441.849643 L402.170872,441.20263 Z M459.88152,442.82783 C449.672252,442.82783 441.396005,451.059933 441.396005,461.214747 C441.396005,471.369561 449.672252,479.601664 459.88152,479.601664 C470.090789,479.601664 478.367036,471.369561 478.367036,461.214747 C478.367036,451.059933 470.090789,442.82783 459.88152,442.82783 Z M250.672959,128.524819 L246.71838,128.72327 C172.570664,132.922765 105.006036,173.593316 66.9841648,237.687817 C29.0420038,301.647949 25.8516099,379.94436 57.7914737,446.44341 L57.7914737,446.44341 L59.4196097,449.753953 L62.1346897,445.346502 C88.048881,404.302485 126.324773,372.305244 171.612457,354.010239 L171.612457,354.010239 L176.169488,352.224653 C199.175733,343.411113 223.421851,338.301509 247.996067,337.065226 L247.996067,337.065226 L250.850113,336.949053 L248.568765,332.298082 C217.842076,267.793203 218.524891,192.676953 250.617211,128.643691 L250.617211,128.643691 L250.672959,128.524819 Z M669.05855,128.56628 L669.70841,129.841296 C691.091711,172.895125 698.53132,221.585183 690.850434,269.153 C687.262044,291.773277 680.327331,313.718814 670.289405,334.281186 L670.289405,334.281186 L668.954341,336.928322 L673.382472,337.125604 C749.220479,341.292211 818.38177,381.856453 858.753626,445.848854 L858.753626,445.848854 L860.499474,448.686333 L862.215531,445.148149 C892.951054,380.089755 890.20001,303.993878 854.406525,241.130913 L854.406525,241.130913 L852.173805,237.2989 C814.152014,173.510095 746.830246,133.02777 672.945624,128.760777 L672.945624,128.760777 L669.05855,128.56628 Z M571.832279,268.279342 L568.276747,270.520092 C522.358468,299.990667 488.860161,345.265018 474.263752,397.751298 L474.263752,397.751298 L473.418034,400.912945 L476.468946,401.64011 C482.300183,403.177707 487.877451,405.57938 493.008221,408.772895 L493.008221,408.772895 L495.535507,410.435304 C499.17726,412.957477 502.524219,415.865662 505.519363,419.104592 L505.519363,419.104592 L505.972682,419.622202 L508.447453,417.146573 C546.50654,378.251791 568.954143,326.897149 571.656929,272.789964 L571.656929,272.789964 L571.832279,268.279342 Z M348.805842,268.289707 L348.986855,272.787655 C351.704125,326.891982 374.149384,378.242172 412.195747,417.146054 L412.195747,417.146054 L414.665438,419.622202 L415.131895,419.108527 C417.377582,416.684669 419.818325,414.443042 422.432173,412.405272 L422.432173,412.405272 L425.102909,410.436257 C431.559348,405.961648 438.812887,402.794877 446.449614,401.090476 L446.449614,401.090476 L447.220087,400.933675 L446.376038,397.751298 C431.779629,345.265018 398.281322,299.990667 352.363043,270.520092 L352.363043,270.520092 L348.805842,268.289707 Z M459.857824,10.3652394 C382.502873,10.3652394 310.974161,50.1161111 270.308853,114.879449 L270.308853,114.879449 L268.273728,118.18031 L272.341628,118.375487 C348.39966,122.547639 417.731688,163.342216 458.030589,227.628983 L458.030589,227.628983 L460.016856,230.860827 L461.995225,227.637737 C502.184013,163.371048 571.413019,122.571605 647.386662,118.379092 L647.386662,118.379092 L651.44736,118.190675 L649.406796,114.879449 C609.480857,51.2936264 539.803617,11.8189942 464.071257,10.4045732 L464.071257,10.4045732 Z" id="Combined-Shape"></path>
        </g>
    </g>
</svg>