<?xml version="1.0" encoding="UTF-8"?>
<svg width="1080px" height="1080px" viewBox="0 0 1080 1080" version="1.1" xmlns="http://www.w3.org/2000/svg" xmlns:xlink="http://www.w3.org/1999/xlink">
    <title>my-rituals-phase-logo-general-dark-01</title>
    <g id="my-rituals-phase-logo-general-dark-01" stroke="none" stroke-width="1" fill="none" fill-rule="evenodd">
        <g id="brand-/-logo-/-myrituals_crm_tier_logo_01" transform="translate(80.000000, 80.000000)" fill="#1A1919">
            <path d="M460.009996,0 L476.824601,16.779569 L476.84,16.895 L523.789985,63.8154094 C598.971557,49.6287827 678.561296,77.2330455 729.331234,134.092261 L745.722,134.093 L745.790016,134.041671 L785.928656,134.10185 L785.928656,270.798727 L785.925,270.798 L785.928656,270.84832 L785.929861,272.708806 C838.607456,307.200927 876.871421,364.411722 885.461127,427.042679 L885.193,425.18 L903.351,443.339 L903.41595,443.34884 L920,460.003974 L885.091,494.912 L885.063634,495.09537 C875.246553,557.274429 839.494911,612.325499 786.781743,646.588364 L785.928,647.13 L785.928656,785.8981 L729.104131,785.902796 C678.080663,843.077633 598.649023,870.309396 523.267617,856.698111 L476.86,903.123 L476.852763,903.184305 L460.00203,920 L443.334896,903.332654 L443.334,903.331 L396.584414,856.592974 C321.737208,870.78478 241.704684,842.876251 190.949395,785.900115 L134.108019,785.8981 L134.108199,647.226273 C82.5122249,614.344993 44.8116202,557.129002 35.1639428,497.043385 L34.831,494.823 L15.5675427,475.559837 L15.575,475.543 L-3.13775672e-13,459.999939 L15.402,444.597 L15.3691732,444.531384 L34.9673075,424.933792 C44.8317951,362.411985 80.9061268,307.088464 134.082078,272.841959 L134.083223,134.044342 L191.110073,134.040621 C241.980763,77.396235 321.705462,50.1143953 396.553161,63.466163 L443.359,16.731 L443.383518,16.5557874 L460.009996,0 Z M169.52,472.591 L169.52,487.026 L192.926,490.226 L192.936903,490.222306 L194.789,490.48 L317.966,507.317 L317.995411,507.305238 L346.263059,511.173492 L346.268,511.185 L379.989,515.795 L380.010585,515.78563 L397.045563,518.116501 L397.056,518.127 L400.938681,518.658649 L401.472,522.529 L401.561517,522.61801 L403.545212,536.776811 L403.481,537.09 L408.475,573.294 L408.554116,573.32739 L412.44774,601.599863 L414.034696,613.006252 L413.977,613.177 L436.611,777.261 L436.672987,777.377784 L441.460594,812.206087 L441.455,812.215 L441.462449,812.219732 L445.005882,837.915942 L444.983,837.952 L447.926,859.281 L447.982219,859.395497 L453.319,898.367 L460.00594,905.054437 L466.808,898.271 L472.128476,859.274215 L472.235,859.059 L475.148,837.827 L475.10411,837.750179 L478.402002,813.598388 L478.462,813.505 L478.466,813.473 L478.433238,813.453528 L478.62489,812.137433 L482.193,785.922 L467.704,785.922 L467.022726,790.978599 L459.826634,841.480541 L419.926,551.816 L419.850535,551.352918 L419.856,551.311 L413.608196,505.950552 L169.52,472.591 Z M361.029018,785.915006 L340.836331,785.915006 L399.888,844.949 L402.067355,847.12104 L402.066,847.126 L440.942,885.99 L437.707,862.541 L422.494,847.338 L422.472901,847.333752 L402.412789,827.273384 L402.413,827.271 L361.029018,785.915006 Z M495.215228,849.645851 L482.419,862.395 L479.224,885.804 L510.920337,854.091532 C505.652653,852.816207 500.413844,851.33558 495.215228,849.645851 Z M204.263606,763.154356 L192.887,771.781 L194.712808,773.984338 L197.426189,777.111055 L202.92656,783.323508 C249.166022,832.205712 318.718513,857.017877 385.127486,847.77003 L385.127486,847.77003 L387.403139,847.42371 L374.342877,834.405547 L373.099077,834.546558 C311.96836,840.354655 245.990398,813.168909 205.875338,765.132465 L205.875338,765.132465 L204.263606,763.154356 Z M734.238,736.336 L732.968101,738.564122 C684.228786,821.655156 578.995546,857.5425 489.391798,821.081423 L489.391798,821.081423 L488.13,820.55 L486.14,835.134 L489.428779,836.413742 C491.398572,837.159473 493.375716,837.872599 495.359507,838.553356 L495.600369,838.495649 C502.67336,840.896311 509.871496,842.906336 517.162157,844.517093 L522.646991,845.650164 L522.704192,845.842205 C593.147636,859.44583 667.741719,835.351572 716.98315,783.469022 L722.512621,777.137732 C729.171077,769.519919 735.275222,761.434855 740.77818,752.94463 L740.77818,752.94463 L742.340045,750.53491 L742.356,750.534 L743.421691,748.799645 L743.538,748.58 L734.238,736.336 Z M431.909,820.507 L426.253201,822.727469 L423.168394,823.845147 L420.065257,824.910877 L416.207569,826.121262 L427.619448,837.533288 L430.910246,836.364004 L433.939,835.226 L431.909,820.507 Z M325.877,785.898 L243.003898,785.89924 C277.739616,812.186987 322.113438,826.600049 364.551769,824.565631 L325.877,785.898 Z M677.189828,785.852663 L594.159,785.848 L555.416348,824.596767 C599.150838,826.226256 642.547259,812.333249 677.189828,785.852663 Z M639.330947,705.481361 L585.35,759.462 L585.367057,759.504551 L560.496486,784.37544 L560.395,784.417 L524.218895,820.594883 L526.616529,821.111315 C530.467116,821.876512 534.341185,822.521082 538.233055,823.043988 L538.233055,823.043988 L541.622011,823.437323 L650.869625,714.188314 L639.330947,705.481361 Z M543.956,785.922 L522.981294,785.923237 C514.50894,795.413536 505.241931,804.156328 495.283765,812.057467 C500.842727,814.247085 506.464241,816.143892 512.128213,817.754958 L543.956,785.922 Z M396.847276,785.898918 L375.959,785.898 L407.713416,817.643772 C413.439427,816.049938 419.083889,814.181236 424.627261,812.044562 C414.62026,804.211453 405.327882,795.435232 396.847276,785.898918 Z M364.98,641.049 L351.233,651.492 L351.602948,656.91042 L351.582692,656.94171 C355.279911,699.502401 373.056294,741.185904 400.667708,774.154748 C401.514191,775.148661 402.370337,776.134819 403.236062,777.112812 L403.236062,777.112812 L403.220541,777.145776 C410.901899,785.977129 419.303004,794.144502 428.338148,801.489622 L428.338148,801.489622 L429.401,802.329 L426.412652,780.665137 C425.998217,780.274225 425.585574,779.881481 425.174734,779.486918 L424.888434,779.217011 C388.397923,744.301876 366.156331,693.046328 365.001062,642.345056 L365.001062,642.345056 L364.98,641.049 Z M508.509,785.922 L492.856,785.922 L491.994,792.239 L490.638383,802.219409 L495.018525,798.578243 C498.113873,795.921649 501.13192,793.176282 504.068892,790.345576 L508.509,785.922 Z M460.531,761.051 L459.498745,761.051585 L461.471,775.327 L488.464,775.33 L520.690851,775.232248 L520.743,775.348 L554.53,775.348 L568.827,761.051 L539.355,761.051 L539.353724,761.052007 L508.85442,761.052007 L508.854,761.051 L496.264,761.051 L496.257595,761.1016 L460.524308,761.1016 L460.531,761.051 Z M242.694,702.689 L192.218,741.042 L174.485982,754.586624 L174.412,754.572 L158.953795,766.318597 L158.943651,739.23137 L157.046587,735.464981 C152.166809,725.48428 148.050353,715.176584 144.720565,704.63098 L144.720565,704.63098 L144.668235,704.488093 L144.668235,775.327183 L182.136,775.327 L181.172931,774.087352 L181.175,774.063 L177.907294,769.900834 L182.169,766.661 L182.169933,766.660798 L182.759,766.212 L252.901459,712.899178 L251.288,711.283 L242.694,702.689 Z M377.607943,761.093851 L216.425711,761.093851 L220.090364,765.128353 C222.602418,767.809301 225.194692,770.414658 227.863752,772.94084 L227.863752,772.94084 L230.458096,775.327183 L387.973733,775.327183 L387.140339,774.295262 C384.511759,770.941763 381.983675,767.510092 379.559544,764.004796 L379.559544,764.004796 L377.607943,761.093851 Z M712.90587,667.14541 L702.709145,677.352832 L737.693,723.41 L737.712318,723.408665 L754.127391,744.98162 L754.131,745.051 L766.323967,761.1016 L748.161767,761.096783 C744.937615,766.00466 741.526901,770.750592 737.943551,775.329901 L775.354211,775.327183 L775.354,749.187 L758.2447,726.762838 L758.236,726.697 L712.90587,667.14541 Z M703.596735,761.051585 L618.956,761.051 L604.733,775.274 L689.680582,775.27435 L692.246752,772.898338 L696.166364,769.041825 L699.970797,765.073262 L703.596735,761.051585 Z M341.824665,665.182882 L340.285768,665.833239 C336.937825,667.23152 333.554818,668.544666 330.140007,669.771391 L324.749,671.614 L288.952,698.81 L340.74,750.534 L371.121755,750.535434 C355.711311,724.368192 345.504355,695.102381 341.824665,665.182882 Z M260.441,720.437 L220.836,750.534 L290.538,750.534 L260.441,720.437 Z M659.409,720.597 L629.522,750.485 L698.857,750.485 L659.409,720.597 Z M577.960676,665.151704 L577.864431,665.91758 C574.032992,695.760343 564.167532,724.538782 548.844793,750.485988 L579.392,750.485 L630.888,698.988 L594.397,671.341 L593.116605,670.911871 C587.996991,669.173032 582.941795,667.251708 577.960676,665.151704 Z M459.488178,569.202759 L435.503,587.43 L457.968,750.485 L461.975,750.485 L484.196,587.927 L459.488178,569.202759 Z M514.87789,624.676054 L497.706,750.485 L506.255644,750.486042 C529.005145,720.546288 542.097312,684.510505 543.980854,647.165547 C533.665921,640.49121 523.931541,632.967907 514.87789,624.676054 Z M378.511722,645.341251 L375.751926,647.124242 C377.657745,683.981888 391.241258,720.905422 413.499608,750.485805 L422.25,750.485 L404.904244,624.741062 C396.634322,632.255128 387.812349,639.141329 378.511722,645.341251 Z M785.973599,437.953902 L785.973599,452.4514 L842.602616,460.161825 L505.981021,506.53172 L499.992,550.339 L500.027795,550.512652 L499.012914,557.938827 L498.949,557.964 L472.628,750.485 L487.041,750.485 L505.802,613.091 L505.727922,612.866875 L507.215693,602.030804 L507.318,601.987 L507.32,601.976 L507.3168,601.967347 L511.158993,573.683279 L511.185,573.672 L517.039,530.797 L518.075583,523.184071 L518.079,523.18 L518.618258,519.23547 L522.553,518.692 L522.582791,518.663622 L540.411246,516.183972 L540.485,516.217 L573.32,511.686 L573.347574,511.620447 L601.615223,507.727397 L601.714,507.768 L697.046,494.612 L697.046309,494.611355 L727.074486,490.420746 L727.167,490.455 L755.074,486.604 L755.078771,486.600783 L768.805,484.709 L898.200981,466.853799 L905.069242,459.98545 L898.47,453.344 L860.485,448.138 L785.973599,437.953902 Z M239.820064,664.672804 L231.113222,676.158796 L243.652,688.699 L243.666117,688.688413 L263.082,708.132 L305.427804,750.484895 L325.74729,750.484895 L277.225,702.027 L277.164661,702.023654 L259.43539,684.269361 L259.436,684.261 L239.820064,664.672804 Z M554.836,641.492 L554.721263,644.669502 L554.662293,644.700361 C553.367756,681.514485 541.764445,717.239726 521.176452,747.790305 L521.176452,747.790305 L519.305447,750.484895 L536.444399,750.484895 L537.624089,748.628134 C554.778894,720.826809 565.248067,689.435719 568.224159,656.928575 L568.212917,656.909321 L568.503,653.453 L568.598427,651.908243 L554.836,641.492 Z M520.419,584.081 L518.975,594.657 L518.206525,600.353362 L713.634963,748.42439 L714.218079,747.661567 C716.580689,744.416327 718.836608,741.094735 720.982221,737.702115 L720.982221,737.702115 L721.665544,736.568564 L673.517,700.086 L673.45191,700.09041 L654.307,685.53 L648.877,681.416 L648.561469,681.298405 L605.093761,648.319061 L605.122,648.262 L570.475,622.009 L570.381896,622.061684 L542.039859,600.587916 L541.886,600.347 L520.419,584.081 Z M147.101,607.095 L146.500314,611.636754 C141.222875,655.577892 149.723731,700.132205 170.888847,739.09114 L170.888847,739.09114 L172.797,742.524 L184.064,733.965 L184.239984,733.831791 L181.85998,729.408941 C181.786175,729.267388 181.712546,729.125758 181.639092,728.98405 L181.624291,728.982634 C177.077394,720.290951 173.199584,711.265341 170.024556,701.984226 L170.024556,701.984226 L170.041411,701.878427 C165.273936,687.977097 162.05626,673.59229 160.446192,658.988519 L160.425209,658.959701 C159.559752,651.280315 159.14685,643.558343 159.188055,635.833791 L159.304127,630.040519 L159.370664,630.002898 C159.462834,627.417276 159.605385,624.830268 159.798625,622.243293 L159.798625,622.243293 L159.984,619.978 L147.101,607.095 Z M775.3554,704.149607 C773.372546,710.461074 771.108464,716.690569 768.567415,722.819085 L775.354,731.735 Z M695.141,684.866 L684.708,695.299 L727.110394,727.425195 C727.160075,727.332915 727.209683,727.240577 727.259219,727.148182 L695.141,684.866 Z M224.667,684.662 L192.55951,727.028642 C192.62125,727.142844 192.683112,727.256991 192.745097,727.371083 L235.157,695.152 L224.667,684.662 Z M319.61,518.211 L224.687,643.469 L210.614682,662.086904 L210.577,662.089 L180.98228,701.141908 C182.851552,706.335708 184.950893,711.454863 187.276891,716.483766 L335.858,520.432 L319.61,518.211 Z M725.68529,501.327973 L708.933,503.639 L709.79782,504.557242 C731.035954,527.709655 746.094475,556.314649 754.117369,586.804417 L754.262631,586.845859 C756.914008,596.893374 758.763046,607.135637 759.792295,617.476002 L759.792295,617.476002 L759.745286,617.616099 C760.172984,621.723078 760.475045,625.842109 760.649543,629.965168 L760.682749,629.985062 C760.743044,631.666588 760.782034,633.348489 760.799732,635.030362 C761.162641,656.509998 758.045648,678.009359 751.176826,698.396084 L751.176826,698.396084 L750.808104,699.426648 L761.068494,712.934778 C770.595852,688.010948 775.310182,661.595708 775.058212,635.083453 C774.476676,586.213431 757.076378,538.95335 725.68529,501.327973 Z M399.252,583.763 L378.12706,599.814472 L349.611449,621.486613 L349.607,621.484 L271.187,681.067 L281.403,691.271 L319.019538,662.689476 L319.902,662.019 L401.495,600.023 L399.252,583.763 Z M748.055987,666.819978 L746.933905,667.269857 C741.581507,669.396194 736.145603,671.307022 730.639296,672.997644 L742.998927,689.22927 C745.182988,681.878352 746.863988,674.389058 748.055987,666.819978 Z M172.168677,666.876017 L172.191514,667.023114 C173.372704,674.3954 174.989587,681.691795 177.033679,688.873486 L189.156039,672.875574 C183.412718,671.11173 177.745383,669.110132 172.168677,666.876017 Z M746.086138,598.715382 L702.013,642.787 L702.008301,642.861818 L684.27903,660.591315 L684.213,660.587 L664.677,680.123 L676.202,688.855 L748.94705,616.112033 C748.258894,610.275405 747.303164,604.467798 746.086138,598.715382 Z M287.675992,655.23675 L285.567081,655.598289 C276.992473,656.932399 268.335581,657.699636 259.652942,657.893578 L253.137019,657.931442 L247.945745,657.804456 L262.273993,672.132888 L265.644724,671.974387 L287.675992,655.23675 Z M631.562,655.034 L653.846,671.917 L657.759019,672.080054 L671.992169,657.825589 L671.80786,657.841411 C660.80515,658.189492 649.808006,657.631482 638.926853,656.180569 L633.496453,655.380766 L631.562,655.034 Z M750.216376,638.69988 L748.341255,639.612817 C745.113192,641.117178 741.843632,642.531681 738.536342,643.854635 L734.676,645.33 L728.739,651.267 L720.460957,659.558526 L723.810555,663.975403 L725.831722,663.412092 C731.228391,661.806416 736.555757,659.979003 741.800293,657.934703 L747.016718,655.818287 L749.392185,654.771816 L749.631828,652.319756 L749.994231,646.838726 L750.196976,641.350052 L750.216376,638.69988 Z M169.817539,638.742508 C169.863693,644.099311 170.137453,649.442469 170.635732,654.757854 L173.986538,656.207645 C178.104129,657.91024 182.27524,659.478816 186.493272,660.91101 L192.854686,662.956722 L195.884327,663.816902 L199.276192,659.347193 L185.254373,645.261795 L181.430026,643.811398 L176.508317,641.783512 L171.645314,639.619881 Z M34.1209348,479.163993 L43.477,488.521 L43.5235649,488.498272 L77.8910742,522.915813 L77.931,522.977 L147.259,592.311 L147.317693,592.293724 L169.212723,614.189033 L169.254,614.308 L191.95,637.005 L191.961043,637.012062 L192.68,637.735 L205.823,650.879 L208.528,647.309 L214.523731,639.376148 L167.12,591.959 L167.047423,591.979401 L147.086496,572.018219 L147.081,571.995 L147.066443,571.998058 L137.609,562.439 L57.552,482.36 L41.496,480.165 L34.1209348,479.163993 Z M600.024,518.666 L583.784,520.907 L681.063,648.813 L691.26,638.616 L600.024,518.666 Z M347.881,522.075 L252.93587,647.361726 C270.179233,647.575479 287.377304,645.398402 304.037324,640.886464 L308.19,639.699 L341.3846,614.480561 C344.695105,582.960878 354.658154,552.525376 370.589047,525.178606 L347.881,522.075 Z M571.773,522.564 L549.824231,525.593698 C565.132351,552.077511 574.822148,581.442665 578.276879,611.855412 L578.583,614.896 L610.901,639.381 L611.031544,639.420195 C629.103811,644.818118 647.862834,647.493005 666.691327,647.371118 L571.773,522.564 Z M520.552301,615.505995 L523.439263,618.176503 C527.917465,622.202967 532.566372,626.034013 537.372887,629.659162 L542.231453,633.215291 L544.18944,634.557632 C544.182596,634.162104 544.174492,633.76649 544.165125,633.370797 L520.552301,615.505995 Z M402.212,612.762 L375.63,632.958 L375.589731,634.526037 L377.593594,633.152828 C384.118407,628.533406 390.378592,623.551076 396.344525,618.229415 L400.763341,614.174914 L402.212,612.762 Z M48.087,508.08 L48.9559916,511.684894 C60.6525594,558.245983 89.7021878,601.739112 128.401711,630.471636 L132.176692,633.205731 L134.033,634.487 L134.033,616.758 L133.708788,616.510725 C107.046341,595.702578 86.101069,568.501661 72.7944541,537.464494 L70.9456802,533.004792 L69.647,529.64 L48.087,508.08 Z M871.731761,508.275224 L866.298,513.705 L850.361,529.642 L849.142348,532.861131 C836.68765,564.468278 816.255666,592.279712 789.876753,613.599847 L786.068101,616.601131 L785.928,616.704 L785.928,634.421 L788.230168,632.830267 C829.021738,603.858837 858.146529,561.392438 870.555428,513.117654 L871.731761,508.275224 Z M695.95104,505.428599 L612.049,517.007 L698.793,631.083 L743.149372,586.72878 C734.60371,556.096522 718.539563,527.615425 695.95104,505.428599 Z M224.366297,505.196358 C201.836519,527.859465 185.439211,555.876477 176.711682,586.611131 L220.973,630.886 L307.596,516.57 Z M538.458,527.161 L527.997,528.604 L526.997899,535.907119 L528.835915,539.012249 C536.923659,553.177511 543.225296,568.281706 547.602651,583.978812 L549.153688,589.892344 L549.916,593.176 L566.833,605.993 L566.323798,602.581142 C562.327403,578.274884 554.122735,554.835793 542.066575,533.324679 L539.424291,528.745051 L538.458,527.161 Z M381.97,526.734 L380.985694,528.352582 C368.312001,549.535425 359.432029,572.723163 354.702994,596.869996 L353.753295,602.058617 L353.209767,605.46764 L370.221921,592.544578 L371.030254,589.203793 C374.954209,573.722994 380.714417,558.774073 388.183305,544.674001 L391.063983,539.426883 L392.74,536.556 L391.566362,528.045501 L381.97,526.734 Z M828.821974,551.18351 L785.928,594.076 L785.928999,603.161989 C803.309398,588.56646 817.834315,570.938582 828.821974,551.18351 Z M134.033489,603.148491 L134.033,594.026 L91.4662658,551.460041 C102.460162,571.035644 116.862126,588.548375 134.033489,603.148491 Z M885.822,479.232 L862.384,482.466 L775.132313,569.731094 L775.930341,572.213674 C777.084859,575.974759 778.136912,579.766161 779.085394,583.583669 L779.085394,583.583669 L779.538567,585.517729 L885.822,479.232 Z M524.596093,553.487716 L522.058,572.07 L536.266126,582.834434 C533.208998,572.740888 529.305033,562.923703 524.596093,553.487716 Z M384.009122,582.09582 L397.598,571.772 L395.173858,554.199892 C390.720623,563.188271 386.987247,572.516226 384.009122,582.09582 Z M194.36,501.095 L192.683499,503.113455 C183.56642,514.288115 175.625607,526.342654 168.971104,539.083424 L168.911829,539.326836 C165.504654,545.79729 162.446569,552.442603 159.749828,559.234076 C159.65702,559.46775 159.565145,559.700978 159.473676,559.934382 L159.749828,559.234076 C159.598318,559.61564 159.447948,559.997665 159.298721,560.380147 L159.473676,559.934382 C158.582101,562.209462 157.729203,564.501322 156.915518,566.809016 L168.223,578.12 L168.41117,577.543088 C176.665508,551.695432 190.11097,527.826406 207.898322,507.392328 L208.697669,506.47967 L211.406597,503.456814 L200.461,501.929 L194.36,501.095 Z M459.78,538.279 L431.688,559.09 L433.895982,575.373706 L456.28938,558.371989 L462.675568,558.367822 L485.756634,575.849207 L487.996744,559.565938 L459.78,538.279 Z M775.354,494.474 L761.078,496.444 L761.078795,535.621818 L763.616308,540.682182 C764.96316,543.483108 766.251093,546.311517 767.479311,549.165534 L769.276753,553.465528 L771.264954,558.614936 L775.354211,554.536193 L775.354,494.474 Z M158.943651,459.509949 L144.668,461.482 L144.674575,494.269101 L144.647,494.265 L144.647102,554.536193 L148.677203,558.568189 C151.663992,550.669997 155.092497,542.958793 158.942643,535.469906 L158.943,496.255 L158.879406,496.246848 L158.879406,460.488186 L158.943,460.497 L158.943651,459.509949 Z M466.620134,528.07217 L466.029,529.74 L484.91131,543.94837 L486.559693,545.226939 L484.8556,541.646171 L482.361299,535.9806 L480.261905,530.797488 L478.208335,525.261698 L476.188893,519.234251 L474.607992,514.017192 L473.064488,508.319054 L472.632013,506.492471 C471.030197,513.770774 469.022856,520.976881 466.620134,528.07217 Z M436.906179,537.726194 L434.48674,543.190283 L433.982,544.239 L440.186,539.643 L453.63,529.677 L452.894127,527.493354 L451.308313,522.390367 L449.731129,516.781548 L448.174351,510.548441 L447.243749,506.403541 C444.672462,517.10779 441.21547,527.585088 436.906179,537.726194 Z M845.068,484.855 L785.928,493.015 L785.928,543.996 L845.068,484.855 Z M74.859,484.726 L134.083,543.968 L134.083,492.821 L74.859,484.726 Z M438.41545,497.407562 L437.4712,498.253976 C433.899201,501.483331 430.450486,504.848837 427.132838,508.343413 L424.936,510.725 L427.863725,531.966384 C432.480694,520.811912 436.014281,509.238852 438.41545,497.407562 Z M481.362175,497.112359 L482.005311,500.274765 L483.302793,505.710795 L484.763115,511.101479 L486.385177,516.44372 L488.16711,521.732144 L489.306255,524.831256 L490.515055,527.982587 L491.919,531.432 L494.813103,510.268558 C490.548635,505.660301 486.059219,501.269678 481.362175,497.112359 Z M750.516,497.901 L737.91348,499.639782 C742.416338,505.369761 746.620316,511.296616 750.516902,517.396236 L750.516,497.901 Z M169.52,497.7 L169.520645,517.097243 C173.420552,511.011714 177.618619,505.111789 182.102154,499.419801 L169.52,497.7 Z M464.908821,489.64615 L462.725828,489.937433 C461.846422,490.018119 460.963867,490.059874 460.080591,490.062685 C458.389704,490.087923 456.688598,489.96654 454.994743,489.688983 L455.380876,492.392076 L456.305533,497.863577 L457.529622,504.011975 L458.581207,508.679327 L459.908871,513.932323 C461.362593,508.650198 462.58871,503.317643 463.582817,497.951773 L464.507818,492.521485 L464.908821,489.64615 Z M425.530526,494.953318 L424.639323,495.243173 C423.486524,495.611222 422.330747,495.969916 421.172105,496.319219 L422.985697,496.565221 L423.094,497.358 L423.558458,496.885583 C424.2114,496.236923 424.868773,495.592819 425.530526,494.953318 Z M494.502055,494.893703 L496.301226,496.618671 L496.809,497.137 L500.190349,496.671252 C498.286406,496.104345 496.390135,495.511776 494.502055,494.893703 Z M507.178079,472.683702 L508.124495,473.549161 C513.400384,478.413599 518.443309,483.533028 523.235946,488.89163 L525.864,491.932 L529.502173,492.562556 L547.169453,490.111084 L538.95924,479.290793 L535.738281,478.886682 C526.067584,477.531666 516.521268,475.456839 507.178079,472.683702 Z M412.562107,472.887379 C402.130093,475.951826 391.476709,478.143288 380.687596,479.447254 L380.171,479.507 L372.539,489.579 L393.679673,492.478023 L395.767299,490.045982 C399.831769,485.414146 404.086058,480.95727 408.518355,476.686422 L408.518355,476.686422 Z M559.489,432.132 L546.663641,449.053543 L546.63,449.071 L537.97655,460.482085 L559.236459,488.357013 L575.417,486.142 L569.546437,478.451594 L569.557,478.426 L558.322501,463.552543 L558.326138,457.178577 L569.849,441.951 L569.845139,441.943607 L575.588,434.302 L566.945,433.121 L559.489,432.132 Z M360.93,431.699 L344.704,433.931 L361.66203,456.336929 L361.695581,462.668006 L358.146251,467.419935 L344.217628,485.747041 L360.368,487.972 L372.97591,471.335744 L373.189,471.214 L382.035329,459.54165 L374.145,449.13 L374.088571,449.098443 L360.93,431.699 Z M431.751508,470.574025 L429.057234,472.712691 C423.231137,477.454709 417.664735,482.504705 412.381672,487.840522 L412.631432,487.777661 C418.118436,486.282615 423.543427,484.568588 428.893361,482.639698 L434.217794,480.63934 L437.076515,479.470427 L436.117144,478.301709 C435.448721,477.431397 434.829046,476.525978 434.260631,475.589814 C433.234517,473.961317 432.402425,472.282821 431.751508,470.574025 Z M488.265391,470.521592 C487.563786,472.373725 486.678343,474.12776 485.636159,475.768575 C485.59585,475.829624 485.557204,475.891759 485.518329,475.953757 C485.453761,476.057086 485.38853,476.159651 485.322681,476.261817 C485.285311,476.319645 485.247652,476.377678 485.209791,476.435585 C485.138148,476.545134 485.066367,476.653297 484.993888,476.760994 C484.971235,476.794848 484.948166,476.829 484.925026,476.863106 L484.898145,476.90239 C484.469394,477.531737 484.016702,478.144925 483.540998,478.740531 L483.523623,478.763588 L483.503252,478.787694 C483.381435,478.93959 483.258117,479.090336 483.133316,479.239909 L483.014,479.371 L486.066094,480.625461 C493.151615,483.419313 500.380963,485.825402 507.721915,487.833977 C503.667317,483.748053 499.447743,479.829946 495.074785,476.087503 L490.712547,472.45378 Z M638.453923,466.092997 L635.689271,467.226453 C621.09492,472.926032 605.887883,476.86863 590.389405,478.980481 L584.564442,479.686465 L583.856,479.743 L587.452,484.454 L653.014636,475.444518 L655.152714,474.450643 C650.634016,471.893692 646.018129,469.52873 641.317634,467.360056 L638.453923,466.092997 Z M246.95,447.381 L226.436,450.204 L231.493584,454.02889 C238.718265,459.319901 246.273306,464.145958 254.112907,468.47742 L255.766823,469.381603 C258.046065,470.61445 260.348849,471.805736 262.674066,472.954745 L262.674066,472.954745 L267.493872,475.243751 L332.171756,484.088071 L335.489654,479.734594 C304.734866,476.26386 275.23522,465.723551 249.264857,448.914874 L249.264857,448.914874 L246.95,447.381 Z M447.566,169.506 L433.139,169.506 L412.855,318.097 L412.870897,318.132454 L409.002692,346.400463 L408.991,346.405 L401.541057,400.980458 L387.828,402.87 L380.011543,403.979648 L379.959,403.955 L346.686,408.54 L346.664305,408.594756 L318.396657,412.487806 L318.31,412.451 L164.98,433.584 L164.954183,433.614931 L140.158,437.012052 L140.151,437.007 L21.5784339,453.349569 L14.9426372,459.98545 L21.7580653,466.800966 L51.071,470.806 L60.729711,472.118282 L60.752,472.129 L134.083,482.152 L134.083,467.697 L77.5831847,460.02952 L213.022,441.386 L213.034815,441.347089 L247.451916,436.610958 L247.551,436.634 L334.175,424.71 L334.251638,424.52999 L357.239,421.535 L384.469,417.787 L389.598976,417.072626 L389.662,417.072 L414.221056,413.692781 L421.96,357.02 L425.012909,333.956558 L425.115,333.913 L447.566,169.506 Z M450.96439,442.799685 L449.625,443.581 L449.625808,443.649254 C448.695738,444.241058 447.826824,444.904169 447.024159,445.628757 C443.242307,449.168836 440.858927,454.16444 440.603069,459.365056 L440.610846,461.054988 L440.595855,461.06347 C440.822318,466.588255 443.510873,472.190498 449.5215,476.397409 L449.5215,476.397409 L449.925,476.649 L450.864,477.178 L450.880311,477.167386 L452.289604,477.841623 L453.666717,478.377554 L455.065846,478.803978 L456.375032,479.078265 L456.485428,479.122817 L457.830256,479.302212 L457.909316,479.333739 L459.510054,479.424881 L460.790351,479.43765 L461.841472,479.338829 L462.233576,479.329182 L463.421206,479.128325 L463.458743,479.13178 C469.449333,477.928767 474.886161,473.957482 477.643661,468.384011 C478.527406,466.531399 479.121417,464.537877 479.388126,462.473071 L479.516117,461.102838 C479.517601,461.077189 479.519036,461.051531 479.52042,461.025866 L479.475847,460.99674 C479.504125,460.431307 479.507948,459.868102 479.487987,459.308439 L479.423422,459.277887 C479.179345,452.813344 475.752564,446.927927 470.339065,443.512518 L468.944992,442.711218 L468.940292,442.653392 C466.252172,441.399066 463.634782,440.733821 461.145967,440.55859 C457.651289,440.38188 454.129549,441.134614 450.96439,442.799685 Z M587.652,435.951 L584.088595,440.65533 C604.975393,442.953797 625.275656,448.516666 644.281386,457.098284 C650.876913,460.031776 657.307048,463.321836 663.544099,466.952955 L669.039579,470.271954 L669.033961,470.460526 C669.472176,470.738866 669.909403,471.018988 670.345631,471.300889 L670.345631,471.300889 L672.700128,472.855679 L693.262644,470.002673 L687.991758,466.034393 C681.184346,461.075156 674.089749,456.522249 666.745086,452.399566 L664.490348,451.151749 C661.812022,449.690517 659.101392,448.286036 656.360221,446.93944 L656.360221,446.93944 L651.627,444.694 L587.652,435.951 Z M230.975857,466.621332 L230.095471,467.278606 L230.328962,467.046482 L229.83442,467.476702 L228.456298,468.47635 L227.934476,468.936182 L226.876034,469.749072 L238.044882,471.270676 L237.046666,470.665688 L232.918504,467.927805 L232.380202,467.600119 L230.975857,466.621332 Z M332.706,435.582 L263.324885,445.129123 C287.681666,459.169541 314.906066,467.634856 343.029278,469.84789 L350.832292,459.54165 L332.706,435.582 Z M576.568438,450.581872 L569.158454,460.365851 L576.285495,469.800848 C592.478654,468.707186 608.446036,465.516193 623.789693,460.319245 C608.59298,455.081389 592.726494,451.7931 576.568438,450.581872 Z M698.482467,460.34041 L698.25729,460.509742 C701.451565,462.948544 704.582047,465.474455 707.645078,468.085119 L750.491,462.182 L750.491,458.206 L708.293562,452.440408 C705.102067,455.170804 701.830237,457.805289 698.482467,460.34041 Z M212.141969,452.171509 L169.52,458.035 L169.52,461.942 L212.587,467.825 L215.161266,465.613513 L219.551624,462.055777 L220.974048,461.015139 L221.505399,460.547982 L222.037184,460.155757 C218.665579,457.591509 215.36571,454.929146 212.141969,452.171509 Z M390.297025,452.950502 L392.878171,456.358751 L392.878171,462.740736 L389.272356,467.499132 C398.998134,465.794384 408.573297,463.322292 417.907968,460.10629 C408.905435,457.008509 399.674013,454.616138 390.297025,452.950502 Z M530.498007,452.864993 C522.219234,454.311176 514.046842,456.318396 506.044445,458.872569 C504.825659,459.267488 503.627569,459.666495 502.44792,460.070629 C511.383544,463.155917 520.542229,465.552385 529.845477,467.239772 L527.143426,463.695661 L527.140905,457.291543 Z M761.157,351.227 L761.157269,384.837827 L761.057,385.239 L761.057,423.915 L761.082881,423.918319 L761.082881,459.653027 L761.057,459.65 L761.057662,460.672285 L775.354211,458.685748 L775.354,365.421 L765.011,355.078 L761.157,351.227 Z M681.298,448.749 L683.121024,449.881599 L687.807509,452.965023 L689.279053,453.983571 L690.669192,452.992579 L693.95,450.478 L681.298,448.749 Z M507.587137,432.480356 L506.986614,432.648738 C503.253585,433.685873 499.546407,434.827045 495.867752,436.07167 C492.452782,437.207856 489.067438,438.430121 485.733153,439.72947 L483.148394,440.763383 C483.289192,440.932543 483.428076,441.103173 483.565024,441.275237 L483.612377,441.334019 L483.652079,441.385139 C485.620952,443.882628 487.183922,446.678447 488.27763,449.664315 L490.848155,447.643187 C495.217206,444.094178 499.44063,440.371886 503.50843,436.485608 L507.587137,432.480356 Z M412.953726,432.514582 L413.511,433.076201 C417.071052,436.627726 420.755174,440.053053 424.55655,443.345771 L429.044287,447.126732 L431.84607,449.35536 L432.364899,448.040893 C433.521168,445.376795 435.060826,442.889573 436.939057,440.655326 L432.508048,438.892073 C426.095391,436.448934 419.56946,434.32078 412.953726,432.514582 Z M390.292,427.659 L380.679,428.982 L372.947,430.057 L381.192,440.937 L384.376148,441.328409 C394.208538,442.666864 403.914076,444.755715 413.408588,447.572235 C407.218768,441.934497 401.346277,435.950768 395.818639,429.649568 L394.766,428.416 L390.292,427.659 Z M459.995373,14.9164637 L453.393,21.497 L448.056977,60.6186332 L448.026,60.678 L445.042,82.547 L445.055647,82.570769 L443.425,94.396 L438.016938,134.034761 L452.419153,134.034761 L453.533069,125.938201 L455.43,111.196 L459.70401,77.0320661 L459.77,77.481 L459.923549,76.2895628 L467.128,128.583 L469.355608,144.660625 L469.343,144.66 L499.343,362.397 L499.36312,362.405753 L500.316014,368.720913 L500.259,369.051 L506.477649,414.178849 L572.91,423.259 L586.045585,425.002778 L586.051,425.017 L653.684786,434.254566 L653.991,434.343 L672.621,436.889 L672.753275,436.858229 L707.418339,441.594361 L707.434,441.648 L750.491,447.534 L750.491,433.132 L601.922,412.848 L601.892487,412.860372 L573.624839,408.992118 L573.62,408.983 L519.22095,401.556799 L511.651,346.668 L511.578212,346.638959 L507.689352,318.400971 L507.716,318.334 L507.688775,318.32247 L506.101819,306.99047 L506.156,306.825 L483.566,143.014 L483.536638,142.956938 L478.777,108.3 L478.773275,108.298057 L475.229643,82.7242683 L475.247,82.692 L472.257,61.008 L472.129645,60.7511381 L466.727,21.627 L459.995373,14.9164637 Z M526.437872,427.630245 L524.380614,430.062212 C520.326242,434.68911 516.082664,439.141878 511.661607,443.409505 L511.661607,443.409505 L507.386373,447.421656 L508.282312,447.154029 C517.44068,444.52262 526.778738,442.562455 536.222176,441.289132 L536.222176,441.289132 L539.588,440.881 L547.452,430.514 L526.437872,427.630245 Z M714.179,269.104 L709.951,274.685 L705.477582,280.605319 L753.579,328.704 L753.639652,328.688089 L758.25,333.375 L759.509,334.634 L759.510648,334.633298 L784.38122,359.504187 L862.644523,437.763701 L886.038876,440.965408 L876.534,431.461 L876.481656,431.487082 L860.82,415.747 L776.932,331.858 L776.859945,331.888919 L752.063762,307.092419 L751.99,306.915 L714.179,269.104 Z M140.378213,334.453172 L78.184,396.647 L77.9875664,396.954933 L43.6448533,431.298085 L43.57,431.261 L33.9518699,440.880875 L57.3779227,437.647468 L144.8056,350.345474 L144.005688,347.852111 C142.850891,344.078907 141.796886,340.275951 140.84474,336.447304 L140.84474,336.447304 L140.378213,334.453172 Z M785.928,375.995 L785.928,427.284 L845.339,435.407 L785.928,375.995 Z M134.157,375.917 L74.613,435.381 L134.157,427.173 L134.157,375.917 Z M460.123332,405.318636 L460.112226,405.358105 C458.836446,410.181705 457.728939,415.047996 456.791666,419.948125 L455.70888,426.090269 L455.084598,430.304102 C455.968005,430.160763 456.866718,430.058185 457.779384,429.998699 C460.249222,429.808769 462.745595,429.922053 465.216979,430.344307 L464.838223,427.748564 L463.907353,422.359355 L462.836874,416.980949 C462.044561,413.067145 461.139609,409.178102 460.123332,405.318636 Z M148.662922,361.534884 L144.721067,365.466408 L144.721,425.716 L158.943,423.756 L158.941325,384.896037 C155.066752,377.305792 151.637891,369.501769 148.662922,361.534884 Z M423.625,422.952 L423.608843,423.075163 L420.047252,423.564913 C422.122144,424.180258 424.192067,424.827545 426.257204,425.507035 L423.884079,423.215802 L423.625,422.952 Z M497.006,422.898 L496.628226,423.290839 C495.918527,423.998561 495.203466,424.700785 494.483108,425.397451 C496.083385,424.870841 497.690691,424.364208 499.303422,423.876108 L497.099143,423.575132 L497.006,422.898 Z M481.475236,423.052291 L481.663721,422.886322 C485.602033,419.372937 489.390067,415.692019 493.017174,411.853282 L495.162,409.514 L492.194439,387.977096 C487.482112,399.289068 483.891638,411.037329 481.475236,423.052291 Z M428.291712,388.796334 L425.447393,409.606571 C429.63455,414.154915 434.038203,418.495041 438.642212,422.612227 C436.271008,411.037324 432.804979,399.714703 428.291712,388.796334 Z M738.691224,420.860031 L750.491,422.471 L750.492689,404.391257 C746.811481,410.055413 742.87372,415.550778 738.691224,420.860031 Z M169.518114,403.344532 L169.52,422.298 L181.812667,420.605159 C177.419069,415.044796 173.319356,409.281736 169.518114,403.344532 Z M750.491,348.327 L749.097988,352.207314 C741.247275,373.22823 729.878471,392.762678 715.480899,409.971537 L712.10484,413.901148 L709.429474,416.841655 L726.420494,419.166327 L728.387992,416.824459 C734.60623,409.171633 740.282326,401.096773 745.375866,392.659102 L748.36176,387.553437 L750.491,383.656 L750.491,348.327 Z M158.97535,207.029456 L158.439004,208.416531 C150.947909,228.291294 146.481517,249.188883 145.198406,270.409834 L145.231498,269.84509 C143.675345,296.959303 147.318859,324.355073 155.865304,350.178324 L155.908795,350.187479 C159.44281,360.7878 163.796274,371.097065 168.92977,381.021929 L168.92977,381.021929 L169.013691,381.375664 C175.932565,394.702192 184.301018,407.31853 194.069492,418.915027 L194.075,418.913 L194.003481,418.828193 L210.857136,416.503521 L209.938091,415.510896 C188.805158,392.236029 173.823998,363.670455 165.838266,333.266294 L165.648242,333.213644 C163.016253,323.184554 161.168406,312.965914 160.121423,302.650199 L160.121423,302.650199 L160.215741,302.37858 C159.798303,298.338626 159.502508,294.287171 159.330179,290.231678 L159.280317,290.201145 C159.127786,286.365308 159.092179,282.527088 159.173296,278.691815 C159.47804,259.284431 162.647174,239.946772 168.881622,221.495684 L168.881622,221.495684 L169.213,220.514 L158.97535,207.029456 Z M699.032,289.098 L612.292,403.592 L696.511053,415.097777 C718.547776,392.943397 734.686291,365.637377 743.471732,335.674602 L743.937,334.004 L699.032,289.098 Z M221.18,288.922 L176.795008,333.306633 C185.311682,363.916158 201.333936,392.425054 223.879316,414.805655 L307.972,403.212 L221.18,288.922 Z M433.697,375.018 L434.95854,377.662502 C440.227274,389.112602 444.380905,401.031165 447.368671,413.252287 C448.852764,406.28859 450.668561,399.395908 452.808613,392.5976 L453.628,390.119 L433.697,375.018 Z M485.946832,376.011964 L466.7777,390.526953 C469.209418,397.980492 471.236475,405.55611 472.844473,413.194781 C475.426337,402.581239 478.885599,392.195063 483.187816,382.143784 L485.624089,376.681752 L485.946832,376.011964 Z M724.09,256.022 L720.651,260.561 L734.820906,274.73024 L738.781093,276.253098 C743.834624,278.279268 748.805774,280.517622 753.69447,282.96935 L753.69447,282.96935 L758.55568,285.492246 L762.586745,287.722956 C803.163886,310.799278 834.343091,347.42869 850.637133,391.202355 L850.229,390.119 L870.208,410.195 L871.971,411.959 L871.36221,409.337349 C858.544563,356.493749 823.716121,309.25987 777.855067,280.073058 L777.837888,280.084907 C769.834062,275.064142 761.501918,270.586871 752.897758,266.683347 L752.897758,266.683347 L752.71264,266.424394 C743.574856,262.269973 734.125595,258.807843 724.43434,256.11672 L724.43434,256.11672 L724.09,256.022 Z M134.281311,285.402597 L131.700307,287.213289 C89.6878027,317.104952 60.0701809,361.312735 48.365148,411.428991 L48.365148,411.428991 L48.33,411.57 L69.773,390.126 L71.0271052,386.881295 C83.9731502,354.372449 105.32216,325.889961 132.879168,304.346293 L133.724687,303.688964 L135.168902,302.584035 L134.897107,299.571063 C134.584122,295.546991 134.384761,291.515289 134.299196,287.480772 L134.299196,287.480772 L134.281311,285.402597 Z M732.992892,203.130348 L700.071,246.575 L700.073987,246.609565 L699.274,247.627 L685.149,266.266 L685.168818,266.534804 L681.771741,270.998174 L681.454,271.142 L584.015,399.73 L600.265,401.949 L709.416,257.867 L709.412942,257.80989 L717.769256,246.800244 L717.812,246.785 L739.332825,218.378081 L738.403701,215.808286 C737.091591,212.355559 735.672332,208.944991 734.14807,205.581518 L734.14807,205.581518 L732.992892,203.130348 Z M238.914,271.187 L228.718,281.384 L319.981,401.556 L336.242,399.315 L238.914,271.187 Z M615.974395,279.25878 L611.568,280.528 L578.833879,305.416351 C575.567225,337.042739 565.60947,367.589626 549.648132,395.035974 L572.007,398.089 L667.038061,272.682555 C649.802595,272.49846 632.616453,274.709514 615.974395,279.25878 Z M253.311807,272.668985 L348.247,397.66 L370.602316,394.578839 C355.397215,368.186483 345.769732,338.942368 342.328346,308.659787 L342.01,305.516 L309.323,280.747 L308.966754,280.638514 C290.905891,275.191833 272.141998,272.509988 253.311807,272.668985 Z M567.02401,314.397594 L566.537,314.765 L549.861,327.443 L549.110056,330.681038 C545.253762,346.216048 539.545321,361.224122 532.112503,375.383849 L529.244615,380.653353 L527.473394,383.683381 L528.656848,392.157867 L538.261847,393.468136 L539.273222,391.829441 C551.954011,370.587456 560.825756,347.337589 565.53086,323.131037 L566.475191,317.929659 L567.02401,314.397594 Z M353.739,314.404 L354.418675,318.753969 C358.721157,344.282259 367.672244,368.839052 380.857816,391.190251 L381.964,393.012 L385.681,392.499 L392.06299,391.597832 L393.140779,383.757348 L391.375389,380.736492 C383.458751,366.775865 377.293672,351.900652 373.014053,336.448402 L371.497839,330.627419 L370.729115,327.288956 L359.479,318.753 L353.739,314.404 Z M434.355,344.395 L432.155,360.501 L460.499,381.97 L488.429973,360.785364 L486.126464,344.512661 L463.547686,361.67058 L457.153082,361.666472 L434.355,344.395 Z M785.880213,316.815978 L785.879,325.865 L828.519702,368.506254 C817.499939,348.846168 803.047564,331.338186 785.880213,316.815978 Z M134.03298,317.018236 C116.889699,331.470328 102.520293,348.860153 91.5745163,368.325566 L134.033,325.865 Z M395.618304,366.18577 L398.1,348.018 L384.343522,337.594251 C387.302717,347.421235 391.074078,356.984765 395.618304,366.18577 Z M536.163735,337.858938 L522.525,348.226 L524.988105,366.083683 C529.463448,356.99038 533.200765,347.551675 536.163735,337.858938 Z M462.094,169.506 L458.244,169.506 L435.997,332.375 L460.354636,350.820975 L484.546,332.461 L462.094,169.506 Z M638.644121,228.807405 L601.093551,257.350614 L518.627,319.958 L520.866,336.2 L541.924,320.18 L541.995686,320.069524 L554.478,310.636 L648.811,238.925 L646.528,236.642 L638.644121,228.807405 Z M206.419183,171.620478 L205.913576,172.301688 C202.344801,177.184341 199.015183,182.237746 195.936571,187.444078 L195.936571,187.444078 L198.388601,183.434037 L271.321,238.698 L271.375602,238.718107 L296.619,257.867 L350.218,298.481 L350.226788,298.477159 L368.495,312.33 L399.74,336.006 L401.959,319.764 L367.898133,293.980613 L367.877,293.94 L360.903,288.642 L343.475,275.44 L343.465907,275.589166 L343.348,275.344 L206.419183,171.620478 Z M243.814221,231.142643 L171.018302,303.937706 C171.701337,309.758684 172.650678,315.551229 173.860145,321.290004 L217.977,277.172 L217.978782,277.155013 L235.732849,259.400719 L255.29,239.842 L243.814221,231.142643 Z M761.078795,299.160427 L761.078,301.063 L775.311,315.297 L775.311945,308.564781 L772.265375,306.369193 L767.718845,303.293858 L763.096395,300.361306 L761.078795,299.160427 Z M544.136852,285.709031 L541.889821,287.27956 C533.380072,293.37118 525.321254,300.075064 517.778048,307.33938 L517.844,307.289 L518.217092,306.926944 L544.217501,287.20055 C544.207223,286.986495 544.196784,286.772684 544.186183,286.559115 L544.136852,285.709031 Z M376.276557,285.814698 L376.307,287.057 L399.548,304.662 L396.722818,302.0369 C392.299027,298.046379 387.70734,294.247389 382.960493,290.650163 L378.162397,287.120572 L376.276557,285.814698 Z M422.479,169.506 L414.542242,169.506058 C391.58097,199.482016 378.344579,235.674944 376.464698,273.177307 C386.672982,279.818835 396.307133,287.295281 405.269298,295.527917 L422.479,169.506 Z M506.452709,169.506454 L497.882,169.506 L515.221872,295.262109 C523.996782,287.286407 533.38694,280.009091 543.306854,273.498669 C539.636486,230.83105 528.514087,198.202321 506.452709,169.506454 Z M196.17,256.019 L193.088364,256.914414 C186.190854,259.018802 179.40549,261.475566 172.759042,264.275109 L170.566861,265.230785 L170.326155,267.723211 L169.948472,273.229107 L169.745074,278.548234 C169.742866,278.675933 169.740788,278.803637 169.738842,278.931344 L169.721537,281.461221 L171.551547,280.583499 L176.387283,278.40535 L181.281231,276.360067 L185.106441,274.878173 L199.534,260.45 L196.17,256.019 Z M490.785,118.031 L493.773,139.706 L496.803669,142.611302 C500.866476,146.63051 504.748439,150.827158 508.438319,155.188716 C536.511782,187.988827 550.090227,225.248497 554.030514,274.974589 L554.030514,274.974589 L554.35471,279.506384 L568.714659,268.612126 L568.642087,267.894022 C568.478328,266.386198 568.301495,264.889143 568.108905,263.386921 L568.108905,263.386921 L568.140458,263.329323 C563.940705,228.354908 553.761941,196.691268 537.503592,171.025037 L537.503592,171.025037 L534.953754,167.123213 L532.058696,162.766901 C520.560362,145.923448 506.666488,130.869927 490.765182,118.015659 L490.785,118.031 Z M401.435,169.506 L384.297,169.506 L383.110453,171.368125 C365.741657,199.242058 355.173681,230.789035 352.248645,263.264832 L352.250935,263.266028 L351.927624,267.582082 L351.874,268.516 L365.699435,279.020316 L365.78049,275.833209 C367.042076,238.759762 378.780725,202.814872 399.597435,172.165198 L399.597435,172.165198 L401.435,169.506 Z M747.564171,177.241957 L736.152292,185.938343 L738.955349,191.101272 C749.547465,211.380999 756.563931,233.350811 759.681759,256.043282 L759.681759,256.043282 L759.936376,258.126839 C765.061343,260.549926 770.088778,263.179845 775.007503,266.003924 L774.483345,260.350422 C773.671727,252.817591 772.461734,245.347437 770.862844,237.970429 C767.427898,222.699643 762.173116,207.25616 755.389643,192.277162 C753.643678,188.564554 751.788944,184.89823 749.827101,181.283398 L749.827101,181.283398 L747.564171,177.241957 Z M262.189,247.912 L247.883,262.218 L248.145699,262.21071 C259.162111,261.834784 270.174592,262.380709 281.069018,263.834862 L286.505865,264.637561 L288.521316,264.987751 L285.414,262.63 L266.253,248.111 L263.878232,247.981856 L262.189,247.912 Z M657.742,247.856 L654.525653,248.00708 L632.378154,264.850385 L634.479681,264.495599 C643.079541,263.14247 651.76338,262.361236 660.473819,262.158501 L667.01074,262.11502 L672.12,262.234 L657.742,247.856 Z M614.520675,169.422606 L594.254023,169.422606 L652.648,227.824 L660.585563,235.706995 L660.581,235.759 L663.479,238.657 L663.788488,238.785954 L680.251,255.171 L688.898657,243.801538 L614.520675,169.422606 Z M371.871571,169.506168 L340.69,169.506 L289.093,220.992 L325.695,248.718 L326.741558,249.067493 C332.074314,250.871473 337.336603,252.875549 342.517278,255.075323 C346.269089,224.85152 356.257428,195.707718 371.871571,169.506168 Z M579.294,169.407 L548.914156,169.407103 C563.550482,193.919047 573.095427,223.093084 577.697542,254.995541 C583.777398,252.401718 589.970526,250.074827 596.257695,248.022017 L595.59,248.242 L631.134,221.248 L579.294,169.407 Z M177.014563,230.791842 C174.828901,238.140075 173.144567,245.622503 171.947678,253.182219 C177.655837,250.885075 183.455482,248.827381 189.333415,247.013667 Z M743.454252,230.464152 L730.931759,246.992501 C736.908997,248.776476 742.793291,250.837691 748.569845,253.159375 C747.332134,245.486273 745.622512,237.90602 743.454252,230.464152 Z M182.235011,144.598667 L144.647102,144.601451 L144.64669,215.321664 C146.945499,208.159771 149.633503,201.102397 152.71629,194.184334 L152.71629,194.184334 L152.825,194.171 L156.349323,186.076008 L161.711,193.14 L161.747582,193.136835 L179.377668,216.321562 L179.395,216.441 L202.394,246.744 L202.417299,246.752104 L207.082,252.902 L217.281602,242.702602 L182.395,196.701 L182.347384,196.705024 L165.932311,175.107273 L165.924,174.981 L153.683281,158.840841 L171.988801,158.831394 C175.215189,153.924158 178.635556,149.178257 182.235011,144.598667 Z M727.59523,192.277326 L684.844,224.805 L695.355,235.316 L727.752581,192.563395 C727.700215,192.467997 727.647765,192.372641 727.59523,192.277326 Z M192.997112,192.601449 C192.93248,192.721439 192.867972,192.841527 192.80359,192.961711 L224.837,235.184 L235.337,224.684 Z M749.487,144.601 L738.050761,153.218105 L738.029,153.215 L718.213359,168.32552 L718.137,168.315 L667.14212,207.071723 L677.317713,217.247446 L754.036477,158.865638 L771.293457,158.865638 L757.676364,172.994148 L758.448305,174.434127 C760.766202,178.874572 762.957462,183.373547 765.014592,187.915415 C769.009605,196.430127 772.462128,205.182585 775.354644,214.124202 L775.354211,144.643718 L749.487,144.601 Z M325.726,169.506 L305.417,169.506 L269.110554,205.814287 L280.5964,214.531806 L325.726,169.506 Z M699.233,169.407 L629.447,169.407 L659.573,199.534 L699.233,169.407 Z M290.489,169.506 L221.123,169.506 L260.592,199.404 L290.489,169.506 Z M397.058896,74.305588 C327.155899,60.9754343 252.294319,85.144379 203.188531,136.550289 L197.656118,142.823738 C190.952691,150.419212 184.819701,158.499671 179.307248,166.999106 L179.307248,166.999106 L178.59,168.104 L176.51,171.483 L185.819,183.754 L187.080388,181.569515 C235.269944,99.4291022 339.810985,63.3294576 428.486883,98.2877508 L431.169101,99.368869 L432.025702,99.7352851 L433.594,88.283 L434.02,85.162 L430.858627,83.9131475 C428.817997,83.1301305 426.768227,82.3829679 424.710168,81.6713754 L424.221658,81.7883889 C417.138857,79.3586526 409.928688,77.3222103 402.624172,75.6878995 L397.128612,74.5377041 Z M458.674554,144.707118 L230.679993,144.707118 L228.085446,147.098723 C225.417694,149.622415 222.827911,152.226059 220.319575,154.90594 L220.319575,154.90594 L216.658175,158.929883 L381.4,158.929 L381.426837,158.915231 L411.975734,158.915231 L411.982,158.929 L423.923,158.929 L423.930502,158.881315 L448.448,158.929 L460.629366,158.929883 L458.674554,144.707118 Z M556.569,144.601 L531.847948,144.601451 L532.698128,145.657547 C535.316299,149.011184 537.834248,152.442469 540.248552,155.94688 L540.248552,155.94688 L542.171472,158.834783 L703.840036,158.833264 C703.557604,158.510299 703.27402,158.188407 702.989292,157.867592 L700.744537,155.386229 C699.19652,153.707331 697.616737,152.059287 696.006568,150.44268 C695.815618,150.250374 695.623569,150.058662 695.431088,149.867376 L696.006568,150.44268 C695.630244,150.064852 695.25226,149.688741 694.872635,149.314354 L695.431088,149.867376 C694.924808,149.36424 694.415542,148.864052 693.903315,148.366842 L694.872635,149.314354 C694.064665,148.517536 693.249258,147.72853 692.426582,146.947409 L689.881347,144.601451 L591.945,144.601 L591.921632,144.660625 L556.711052,144.660625 L556.569,144.601 Z M722.951137,142.831088 C676.824257,89.9889858 604.670891,62.9777374 535.250697,72.6423101 L535.250697,72.6423101 L532.962,72.983 L545.907,85.92 L547.301875,85.787017 C601.227775,80.8444681 656.341356,99.9477252 696.38972,136.212978 C696.473602,136.291668 696.558524,136.368703 696.643376,136.445811 C697.950383,137.630908 699.239931,138.835779 700.512812,140.058694 C700.67999,140.220983 700.847252,140.382174 701.014218,140.543664 C701.216414,140.737875 701.417677,140.933527 701.618515,141.129633 C701.883202,141.388954 702.147717,141.648533 702.411472,141.908864 C702.53902,142.034466 702.666358,142.160627 702.793521,142.286973 C707.414022,146.873091 711.799334,151.690581 715.932873,156.721657 L727.346583,148.051614 C726.768563,147.349947 726.18485,146.651481 725.595442,145.956216 L722.929302,142.876987 Z M364.333345,95.6662602 C320.943625,94.1877439 277.759928,107.989198 243.242307,134.139496 L325.876,134.143 Z M407.709578,102.411917 L376.001,134.143 L397.881342,134.142279 C406.330386,124.700021 415.55876,116.015112 425.23808,108.367275 C419.461119,106.064336 413.610601,104.081939 407.709578,102.411917 Z M378.16797,96.7554785 L340.857464,134.087595 L361.11355,134.087595 L395.592219,99.5873514 L393.192215,99.0739519 C390.62498,98.5651989 388.047062,98.1115125 385.460236,97.7132149 L381.573538,97.1573506 L378.16797,96.7554785 Z M496.276572,108.164332 L495.657144,108.406253 C505.469461,116.164074 514.591454,124.740627 522.932382,134.04406 L543.906,134.044 L512.624784,102.761766 C507.090693,104.300621 501.635065,106.103686 496.276572,108.164332 Z M479.231,34.237 L482.459,57.647 L497.946,73.136 L498.007786,73.1518937 L517.993509,93.1130758 L517.977,93.171 L558.844,134.044 L579.1,134.044 L540.233,95.201 L540.182495,95.183649 L518.26267,73.28834 L518.272,73.254 L479.231,34.237 Z M677.252231,134.044216 C642.760075,107.802155 599.097644,93.7067721 555.778893,95.7856565 L594.059,134.044 Z M429.469,118.508 L425.021445,122.254847 L420.657971,126.131706 L416.403549,130.127937 L412.456441,134.034761 L427.35,134.034 L429.469,118.508 Z M492.83,82.968 L491.474882,83.4318136 L486.995981,85.0892119 L486.281,85.368 L488.295,99.977 L491.970072,98.5002168 L497.133721,96.5828732 L502.350733,94.815886 L504.13,94.268 L492.83,82.968 Z M441.002,34.004 L408.909088,66.0532948 C414.215632,67.3316491 419.487706,68.8209821 424.712974,70.5254157 L437.804,57.437 L441.002,34.004 Z" id="Combined-Shape"></path>
        </g>
    </g>
</svg>