<svg xmlns="http://www.w3.org/2000/svg" width="2880" height="125" viewBox="0 0 2880 125"><path fill="#B4B4B4" d="M0.507888718,125.000293 C3.1981446,124.958176 5.86717747,124.894767 8.51541854,124.810214 C8.79142027,124.801402 9.00802023,124.570515 8.99920808,124.294513 C8.99039593,124.018511 8.75950866,123.801911 8.48350692,123.810723 C5.84069506,123.895103 3.17708169,123.958383 0.492235319,124.000415 C0.216126778,124.004738 -0.00419928698,124.232072 6.07492975e-05,124.50818 C0.00444584668,124.784289 0.231780177,125.004615 0.507888718,125.000293 Z M16.5209664,124.487288 C19.2034709,124.356218 21.8643118,124.202914 24.5040048,124.027535 C24.7795397,124.009228 24.9880646,123.771023 24.9697583,123.495488 C24.9514519,123.219953 24.7132465,123.011428 24.4377116,123.029735 C21.803856,123.204726 19.1488453,123.357694 16.4721635,123.488479 C16.1963502,123.501956 15.9836842,123.736472 15.9971607,124.012285 C16.0106373,124.288098 16.245153,124.500764 16.5209664,124.487288 Z M32.5077125,123.422838 C35.1858816,123.195761 37.8420026,122.945386 40.476704,122.67188 C40.7513704,122.643367 40.9509172,122.397592 40.9224043,122.122925 C40.8938914,121.848259 40.648116,121.648712 40.3734496,121.677225 C37.7450078,121.950081 35.0951434,122.199866 32.4232273,122.426414 C32.1480722,122.449744 31.9439276,122.691714 31.9672575,122.966869 C31.9905874,123.242024 32.2325574,123.446168 32.5077125,123.422838 Z M48.4456515,121.766268 C51.117423,121.436016 53.7669774,121.081374 56.3950925,120.702508 C56.6684095,120.663107 56.8580359,120.409599 56.8186349,120.136282 C56.7792339,119.862965 56.5257259,119.673339 56.2524089,119.71274 C53.6309608,120.090644 50.9880764,120.444394 48.3229772,120.773821 C48.0489205,120.807697 47.8542153,121.057325 47.8880908,121.331382 C47.9219664,121.605438 48.1715948,121.800144 48.4456515,121.766268 Z M64.2952475,119.480288 C66.9459134,119.041881 69.5747239,118.578213 72.1826443,118.089437 C72.4540609,118.038568 72.6328502,117.777304 72.5819813,117.505887 C72.5311124,117.234471 72.2698484,117.055681 71.9984318,117.10655 C69.3975117,117.594015 66.7757132,118.056446 64.1320695,118.493691 C63.8596284,118.538751 63.6752998,118.796137 63.7203602,119.068578 C63.7654205,119.341019 64.0228063,119.525348 64.2952475,119.480288 Z M80.0453192,116.526793 C82.6730479,115.974442 85.2797419,115.395961 87.8666264,114.791469 C88.1355248,114.728634 88.3025722,114.459711 88.2397372,114.190812 C88.1769022,113.921914 87.9079791,113.754866 87.6390806,113.817701 C85.0594541,114.420497 82.4600405,114.997362 79.8396134,115.54818 C79.5693766,115.604984 79.3963553,115.870103 79.4531594,116.140339 C79.5099635,116.410576 79.7750825,116.583598 80.0453192,116.526793 Z M95.6571878,112.877358 C98.2551198,112.207495 100.833577,111.51075 103.394147,110.787163 C103.659883,110.712069 103.814429,110.435772 103.739335,110.170036 C103.664241,109.9043 103.387944,109.749754 103.122208,109.824848 C100.569023,110.546349 97.9979862,111.241088 95.4075092,111.90903 C95.1401126,111.977977 94.9792373,112.250637 95.0481841,112.518033 C95.117131,112.78543 95.3897912,112.946305 95.6571878,112.877358 Z M111.074537,108.520277 C113.632396,107.732914 116.173392,106.918108 118.699631,106.075743 C118.961594,105.988392 119.103145,105.705218 119.015794,105.443255 C118.928444,105.181292 118.64527,105.039741 118.383307,105.127091 C115.864393,105.967014 113.330772,106.779455 110.780338,107.564533 C110.516417,107.645774 110.368325,107.925583 110.449566,108.189504 C110.530806,108.453426 110.810615,108.601518 111.074537,108.520277 Z M126.277688,103.450915 C128.793096,102.546979 131.295573,101.615023 133.788038,100.654624 C134.045713,100.555337 134.174111,100.265961 134.074824,100.008286 C133.975536,99.7506103 133.68616,99.6222118 133.428485,99.7214995 C130.943078,100.679179 128.447722,101.608483 125.939502,102.509836 C125.679631,102.603223 125.544668,102.889597 125.638056,103.149469 C125.731443,103.40934 126.017817,103.544303 126.277688,103.450915 Z M141.216277,97.6967055 C143.682416,96.6829512 146.141503,95.6405357 148.597796,94.568434 C148.850881,94.4579694 148.966498,94.163254 148.856033,93.9101687 C148.745569,93.6570833 148.450853,93.5414663 148.197768,93.6519308 C145.748005,94.7211823 143.295526,95.7607968 140.836077,96.7718011 C140.580672,96.8767904 140.458736,97.1689479 140.563725,97.4243532 C140.668714,97.6797585 140.960872,97.8016948 141.216277,97.6967055 Z M155.904118,91.2889661 C158.31416,90.1776354 160.725902,89.0365622 163.146099,87.8634575 C163.394589,87.7430109 163.498388,87.4439287 163.377942,87.1954389 C163.257495,86.946949 162.958413,86.8431495 162.709923,86.9635961 C160.295445,88.1339288 157.889508,89.2722551 155.48537,90.380864 C155.234604,90.4964982 155.125059,90.7935239 155.240693,91.0442894 C155.356327,91.2950549 155.653353,91.4046004 155.904118,91.2889661 Z M170.315904,84.3080408 C172.669494,83.115209 175.038278,81.8899862 177.434637,80.6270104 C177.678928,80.4982596 177.772591,80.1958499 177.64384,79.9515594 C177.51509,79.7072689 177.21268,79.6136054 176.968389,79.7423562 C174.576658,81.002893 172.212594,82.2256745 169.863834,83.4160579 C169.61752,83.5408933 169.519042,83.8417696 169.643878,84.0880839 C169.768713,84.3343982 170.069589,84.4328762 170.315904,84.3080408 Z M184.494658,76.8416537 L187.259228,75.3265357 C188.652526,74.5586282 190.063767,73.7744681 191.499351,72.970771 C191.740304,72.8358763 191.82628,72.531192 191.691386,72.2902397 C191.556491,72.0492874 191.251807,71.9633107 191.010854,72.0982054 L189.585103,72.8944197 L186.776671,74.4506711 C185.84915,74.9618682 184.929623,75.4658361 184.016194,75.9635468 C183.773711,76.0956711 183.684248,76.3993499 183.816373,76.6418324 C183.948497,76.884315 184.252176,76.973778 184.494658,76.8416537 Z M198.475132,69.0229109 L201.447392,67.3186268 L204.590154,65.5055111 C204.861287,65.3486745 205.134997,65.1902508 205.411482,65.0301267 C205.650443,64.8917346 205.73197,64.5858297 205.593578,64.3468689 C205.455186,64.1079082 205.149281,64.0263811 204.910321,64.1647731 L201.715081,66.0106593 L197.978986,68.1546719 C197.739228,68.2916788 197.655932,68.5971068 197.792939,68.8368644 C197.929946,69.076622 198.235374,69.1599179 198.475132,69.0229109 Z M212.325298,61.0118582 L219.237037,56.9879712 C219.4758,56.8492382 219.556891,56.5432173 219.418158,56.3044543 C219.279425,56.0656913 218.973404,55.9846009 218.734641,56.1233339 L211.821974,60.1477604 C211.58336,60.2867495 211.502598,60.5928573 211.641587,60.8314713 C211.780576,61.0700853 212.086684,61.1508473 212.325298,61.0118582 Z M226.161259,52.984379 L228.865812,51.4359159 L231.44726,49.969062 L233.113873,49.0287432 C233.354552,48.8933603 233.439911,48.5885024 233.304528,48.347824 C233.169145,48.1071457 232.864287,48.0217868 232.623609,48.1571697 L230.105375,49.5800702 L227.483132,51.0740445 L225.66313,52.117276 C225.423686,52.2548306 225.341089,52.5604481 225.478643,52.799892 C225.616198,53.0393359 225.921815,53.1219335 226.161259,52.984379 Z M240.096052,45.1590264 L241.300398,44.5047189 L243.671876,43.2292739 L245.998867,41.9956047 C246.383333,41.7933111 246.766202,41.5926356 247.147602,41.393517 C247.392392,41.2657186 247.487233,40.963676 247.359434,40.7188859 C247.231636,40.4740958 246.929593,40.3792553 246.684803,40.5070536 C244.390946,41.7046149 242.044421,42.9581719 239.617473,44.2809819 C239.375008,44.4131378 239.285585,44.7168283 239.41774,44.9592936 C239.549896,45.2017589 239.853587,45.2911823 240.096052,45.1590264 Z M254.270923,37.7724994 C256.711701,36.5672834 259.108933,35.4220334 261.476802,34.3315228 C261.727622,34.2160085 261.83731,33.9190352 261.721796,33.6682145 C261.606281,33.4173937 261.309308,33.3077061 261.058487,33.4232204 C258.682247,34.5175866 256.276885,35.6667205 253.828174,36.8758537 C253.580572,36.9981154 253.478964,37.2979491 253.601225,37.545551 C253.723487,37.7931528 254.023321,37.8947611 254.270923,37.7724994 Z M268.783589,31.1019838 C271.269198,30.050987 273.733998,29.0588256 276.187013,28.1233445 C276.445029,28.0249473 276.574426,27.7360168 276.476029,27.4780001 C276.377632,27.2199835 276.088702,27.0905863 275.830685,27.1889835 C273.366391,28.1287663 270.890559,29.1253681 268.39414,30.1809359 C268.1398,30.2884794 268.020797,30.5818441 268.128341,30.8361845 C268.235884,31.0905249 268.529249,31.2095273 268.783589,31.1019838 Z M283.704844,25.4225637 C286.244804,24.567086 288.780754,23.7714891 291.319081,23.0351068 C291.584288,22.9581686 291.736911,22.6808046 291.659973,22.4155969 C291.583034,22.1503892 291.30567,21.9977666 291.040463,22.0747048 C288.488397,22.8150728 285.938927,23.6149115 283.385654,24.4748728 C283.123957,24.5630145 282.983262,24.8466153 283.071404,25.1083129 C283.159545,25.3700106 283.443146,25.5107054 283.704844,25.4225637 Z M299.035808,20.9817085 C301.623407,20.355427 304.219831,19.7897132 306.82982,19.2846781 C307.100934,19.2322174 307.278187,18.9699088 307.225726,18.6987954 C307.173266,18.4276819 306.910957,18.2504289 306.639844,18.3028895 C304.014617,18.810873 301.403104,19.3798745 298.800568,20.0097712 C298.532175,20.0747309 298.36726,20.3449667 298.432219,20.6133598 C298.497179,20.8817529 298.767415,21.0466682 299.035808,20.9817085 Z M314.70924,17.9512339 C317.329486,17.5709721 319.967836,17.2506158 322.627873,16.9906578 C322.902706,16.9637991 323.103729,16.7192296 323.07687,16.4443965 C323.050011,16.1695634 322.805442,15.9685405 322.530609,15.9953991 C319.855058,16.2568734 317.201251,16.5791064 314.56562,16.961601 C314.29234,17.0012605 314.102954,17.2549478 314.142613,17.5282274 C314.182273,17.801507 314.43596,17.9908934 314.70924,17.9512339 Z M330.598694,16.3965396 C333.231894,16.2605515 335.8892,16.1822554 338.573328,16.1622915 C338.849463,16.1602377 339.071649,15.9347213 339.06961,15.6585865 C339.067542,15.3824518 338.842025,15.1602653 338.565891,15.1623191 C335.867063,15.1823924 333.195041,15.2611221 330.547119,15.3978705 C330.271344,15.4121125 330.05933,15.6472176 330.073572,15.9229925 C330.087814,16.1987673 330.322919,16.4107816 330.598694,16.3965396 Z M346.537029,16.230545 C349.23205,16.2911076 351.894426,16.3890407 354.526501,16.5239233 C354.802281,16.5380559 355.037302,16.3259483 355.051435,16.0501678 C355.065568,15.7743873 354.85346,15.5393664 354.57768,15.5252338 C351.936017,15.3898599 349.26407,15.2915746 346.559496,15.2307974 C346.283423,15.2245935 346.054592,15.4433654 346.048389,15.719438 C346.042185,15.9955107 346.260957,16.2243411 346.537029,16.230545 Z M362.492017,17.0518388 C365.167457,17.2700874 367.813153,17.527874 370.432325,17.8248368 C370.706709,17.8559466 370.954361,17.6587336 370.985471,17.3843492 C371.016581,17.1099648 370.819368,16.8623128 370.544984,16.831203 C367.915371,16.5330565 365.259223,16.2742514 362.573322,16.0551495 C362.298094,16.0326979 362.056777,16.2376137 362.034325,16.5128418 C362.011873,16.78807 362.216789,17.0293871 362.492017,17.0518388 Z M378.358826,18.8541664 C381.006307,19.24218 383.62978,19.6715323 386.233839,20.1420819 C386.50558,20.1911853 386.765676,20.0107013 386.81478,19.7389597 C386.863883,19.4672182 386.683399,19.207122 386.411657,19.1580187 C383.796717,18.6855027 381.162307,18.2543605 378.503837,17.8647363 C378.230613,17.8246928 377.97666,18.0137225 377.936616,18.2869461 C377.896573,18.5601697 378.085603,18.8141229 378.358826,18.8541664 Z M394.083715,21.6968763 C396.686826,22.2579206 399.275928,22.8613459 401.857887,23.5076033 C402.125766,23.5746526 402.397279,23.4118482 402.464328,23.1439695 C402.531378,22.8760908 402.368573,22.604578 402.100694,22.5375287 C399.508137,21.8886187 396.90833,21.2826985 394.294406,20.7193235 C394.024462,20.6611429 393.758464,20.8328109 393.700284,21.1027547 C393.642103,21.3726984 393.813771,21.6386957 394.083715,21.6968763 Z M409.568862,25.5695649 C412.111494,26.2926482 414.655889,27.0585018 417.213157,27.8690531 C417.476393,27.9524883 417.757426,27.806731 417.840861,27.5434951 C417.924296,27.2802591 417.778539,26.9992266 417.515303,26.9157913 C414.948655,26.1022671 412.394729,25.3335449 409.8424,24.6077036 C409.576789,24.5321682 409.300236,24.6862547 409.2247,24.9518653 C409.149165,25.217476 409.303252,25.4940295 409.568862,25.5695649 Z M424.799934,30.3899256 C427.271342,31.2478552 429.768498,32.1494361 432.312493,33.1006263 C432.571147,33.197336 432.859226,33.0660544 432.955936,32.8074005 C433.052646,32.5487466 432.921364,32.2606674 432.66271,32.1639577 C430.111476,31.2100608 427.60691,30.3058048 425.127878,29.4452285 C424.867007,29.3546692 424.582117,29.4927341 424.491558,29.753605 C424.400998,30.0144759 424.539063,30.2993663 424.799934,30.3899256 Z M439.772497,35.9765291 L440.799078,36.3848245 L442.879763,37.2206603 C443.229937,37.3622301 443.581921,37.5049737 443.93588,37.6489538 L446.084699,38.5281744 C446.447236,38.6773516 446.812085,38.8278908 447.179414,38.9798547 C447.434582,39.085418 447.727013,38.964139 447.832577,38.7089704 C447.93814,38.4538018 447.816861,38.1613709 447.561692,38.0558076 L446.465076,37.6033426 L444.312389,36.7225406 L442.207042,35.8713952 C441.512254,35.5922876 440.824011,35.3176201 440.140969,35.0468899 C439.884256,34.9451394 439.593664,35.0707611 439.491913,35.3274738 C439.390163,35.5841866 439.515784,35.8747785 439.772497,35.9765291 Z M454.553104,42.0768617 L458.68542,43.8431483 L461.903641,45.227505 C462.157242,45.3367814 462.451412,45.2197836 462.560688,44.9661829 C462.669965,44.7125823 462.552967,44.4184124 462.299366,44.3091359 L455.383061,41.3432801 C455.236487,41.2808666 455.090362,41.2186793 454.944504,41.156641 C454.690392,41.0485589 454.396776,41.1669394 454.288693,41.4210513 C454.180611,41.6751633 454.298992,41.9687795 454.553104,42.0768617 Z M469.254644,48.3967067 L473.972056,50.419503 L476.61357,51.5432065 C476.867816,51.6509723 477.161285,51.5322263 477.269051,51.2779801 C477.376816,51.0237338 477.25807,50.7302651 477.003824,50.6224994 L473.257823,49.0267596 L469.649934,47.4781503 C469.396282,47.368994 469.102167,47.4861313 468.993011,47.7397836 C468.883855,47.993436 469.000992,48.2875505 469.254644,48.3967067 Z M483.991276,54.6295583 L485.262013,55.1514489 L487.759899,56.1674944 C488.171814,56.3339176 488.581677,56.4989365 488.989711,56.6626332 L491.417726,57.6296022 C491.674535,57.731108 491.965007,57.6052095 492.066513,57.3483998 C492.168019,57.0915902 492.042121,56.8011182 491.785311,56.6996123 L489.361854,55.7344577 L486.894354,54.7375449 C486.063332,54.3995109 485.223198,54.0555289 484.37218,53.7049436 C484.116854,53.5997599 483.824604,53.7214737 483.71942,53.976799 C483.614237,54.2321243 483.73595,54.5243746 483.991276,54.6295583 Z M498.90827,60.514746 C501.445583,61.464998 503.94937,62.3738395 506.437349,63.2462684 C506.697935,63.3376448 506.983256,63.2004735 507.074633,62.9398877 C507.166009,62.6793019 507.028838,62.3939801 506.768252,62.3026037 C504.287033,61.4325454 501.789843,60.5260983 499.258993,59.5782665 C499.000391,59.4814172 498.712241,59.6125435 498.615392,59.8711452 C498.518542,60.1297469 498.649669,60.4178968 498.90827,60.514746 Z M514.021837,65.8077137 C516.574,66.6358942 519.121032,67.4277118 521.672135,68.1848416 C521.936864,68.2634095 522.215162,68.1124956 522.293729,67.8477661 C522.372297,67.5830366 522.221383,67.3047391 521.956654,67.2261713 C519.413715,66.4714642 516.874725,65.6821469 514.330494,64.8565404 C514.067835,64.7713071 513.785813,64.9151392 513.700579,65.1777985 C513.615346,65.4404578 513.759178,65.7224804 514.021837,65.8077137 Z M529.378565,70.3621548 C531.954497,71.053079 534.54112,71.70983 537.144026,72.3328806 C537.412582,72.3971641 537.682401,72.2315686 537.746685,71.9630127 C537.810968,71.6944569 537.645373,71.4246373 537.376817,71.3603538 C534.782747,70.7394184 532.204882,70.0848909 529.637631,69.3962951 C529.370916,69.3247561 529.096707,69.4829773 529.025168,69.7496921 C528.953629,70.0164068 529.11185,70.2906157 529.378565,70.3621548 Z M544.957016,74.0907305 C547.557446,74.6386589 550.177819,75.153979 552.821853,75.6366805 C553.093506,75.686274 553.353927,75.5062597 553.403521,75.2346072 C553.453114,74.9629546 553.2731,74.7025332 553.001447,74.6529397 C550.366318,74.1718639 547.754807,73.6582866 545.163195,73.1122163 C544.892986,73.0552814 544.627783,73.2281743 544.570848,73.4983836 C544.513914,73.7685928 544.686806,74.0337955 544.957016,74.0907305 Z M560.732143,76.9718955 C563.350113,77.3782019 565.993226,77.753535 568.664082,78.0976933 C568.93796,78.1329844 569.188591,77.9395715 569.223882,77.6656935 C569.259173,77.3918155 569.06576,77.1411845 568.791882,77.1058934 C566.129563,76.7628351 563.494971,76.388712 560.885506,75.9837256 C560.61263,75.9413756 560.357089,76.1282535 560.314739,76.4011291 C560.272389,76.6740046 560.459267,76.9295455 560.732143,76.9718955 Z M576.623816,79.0220693 C579.25493,79.2946741 581.91384,79.5380143 584.602437,79.7518246 C584.87771,79.7737157 585.11861,79.5683088 585.140501,79.2930355 C585.162392,79.0177622 584.956985,78.7768629 584.681712,78.7549718 C582.001038,78.5417917 579.350057,78.299177 576.726872,78.0273938 C576.4522,77.9989356 576.206464,78.1985313 576.178006,78.4732034 C576.149548,78.7478754 576.349144,78.9936111 576.623816,79.0220693 Z M592.59565,80.2951551 C595.233855,80.4445476 597.900869,80.5664587 600.59811,80.6606154 C600.874084,80.6702493 601.105615,80.4543377 601.115249,80.1783634 C601.124883,79.9023891 600.908972,79.670858 600.632997,79.6612241 C597.942958,79.5673189 595.283161,79.4457377 592.652186,79.2967545 C592.376485,79.2811425 592.14033,79.4919861 592.124718,79.7676868 C592.109106,80.0433875 592.319949,80.2795431 592.59565,80.2951551 Z M608.621828,80.8572779 C611.262577,80.8950483 613.932143,80.9071105 616.631615,80.8932076 C616.907754,80.8917855 617.130456,80.6667779 617.12904,80.3906392 C617.127612,80.1145005 616.902604,79.8917987 616.626465,79.8932209 C613.933458,79.9070904 611.270375,79.8950576 608.636129,79.8573802 C608.360015,79.8534309 608.132979,80.0740641 608.128978,80.3501783 C608.125081,80.6262924 608.345714,80.8533286 608.621828,80.8572779 Z M624.64533,80.7650708 C627.311244,80.6928119 629.977679,80.5910291 632.645462,80.4599987 C632.921272,80.446452 633.133878,80.2118822 633.120331,79.9360723 C633.106785,79.6602624 632.872215,79.4476561 632.596405,79.4612027 C629.935918,79.5918748 627.276804,79.6933781 624.618235,79.7654379 C624.342194,79.7729199 624.124484,80.0027608 624.131966,80.2788018 C624.139448,80.5548427 624.369289,80.7725528 624.64533,80.7650708 Z M640.632793,79.980912 C643.292558,79.7926222 645.954459,79.5756051 648.619501,79.3301074 C648.894479,79.3047771 649.096858,79.0613289 649.071528,78.7863507 C649.046198,78.5113726 648.802749,78.3089931 648.527771,78.3343235 C645.869734,78.5791759 643.214871,78.7956192 640.562178,78.9834083 C640.286725,79.0029082 640.079234,79.2420147 640.098733,79.5174677 C640.118233,79.7929207 640.35734,80.0004118 640.632793,79.980912 Z M656.604348,78.5107517 C659.25037,78.2116485 661.900454,77.8848571 664.555834,77.5305731 C664.829551,77.4940535 665.021837,77.2425571 664.985318,76.9688402 C664.948798,76.6951234 664.697302,76.502837 664.423585,76.5393567 C661.774808,76.8927597 659.131365,77.2187321 656.492024,77.51708 C656.21763,77.5480973 656.020333,77.7956827 656.05135,78.0700776 C656.082368,78.3444724 656.329953,78.541769 656.604348,78.5107517 Z M672.491289,76.3927579 C675.122727,75.9894705 677.760543,75.5595992 680.406283,75.1032583 C680.678408,75.0563219 680.860958,74.7976722 680.814022,74.525548 C680.767086,74.2534238 680.508436,74.070873 680.236312,74.1178093 C677.596688,74.5730952 674.965032,75.0019626 672.3398,75.4042989 C672.066844,75.4461313 671.879482,75.7013173 671.921315,75.9742727 C671.963147,76.2472281 672.218333,76.4345903 672.491289,76.3927579 Z M688.277772,73.6723286 C690.885892,73.1742194 693.503159,72.6508054 696.131546,72.1020733 C696.401861,72.0456394 696.575245,71.7807576 696.518811,71.5104433 C696.462377,71.240129 696.197495,71.0667447 695.927181,71.1231786 C693.304337,71.6707534 690.69266,72.1930496 688.090179,72.6900819 C687.818939,72.7418844 687.641049,73.003762 687.692852,73.275002 C687.744654,73.5462419 688.006532,73.7241311 688.277772,73.6723286 Z M703.950963,70.4027261 C706.538206,69.8186568 709.138049,69.2104399 711.753107,68.5778601 C712.021508,68.5129341 712.186458,68.242719 712.121532,67.9743178 C712.056606,67.7059165 711.786391,67.5409672 711.517989,67.6058932 C708.907852,68.2372828 706.312978,68.8443373 703.730755,69.4272732 C703.461391,69.488082 703.292324,69.7557399 703.353133,70.0251038 C703.413942,70.2944677 703.681599,70.4635349 703.950963,70.4027261 Z M719.523117,66.6385551 C722.083347,65.9802404 724.66053,65.2988591 727.258277,64.5938656 C727.52478,64.5215403 727.682192,64.246866 727.609867,63.9803634 C727.537542,63.7138607 727.262867,63.5564488 726.996365,63.628774 C724.402862,64.3326158 721.829971,65.0128622 719.274087,65.6700594 C719.006644,65.7388272 718.845586,66.0113797 718.914354,66.2788224 C718.983122,66.5462651 719.255674,66.7073229 719.523117,66.6385551 Z M734.98575,62.4448132 C737.525792,61.721772 740.088738,60.9762289 742.679958,60.2070462 C742.944684,60.1284646 743.095583,59.8501593 743.017001,59.5854339 C742.93842,59.3207085 742.660115,59.1698091 742.395389,59.2483907 C739.807715,60.0165207 737.248362,60.7610184 734.711969,61.4830212 C734.446377,61.5586238 734.292361,61.8352162 734.367964,62.1008078 C734.443566,62.3663993 734.720159,62.5204158 734.98575,62.4448132 Z M750.332851,57.8924076 C752.844461,57.1191373 755.387353,56.3232888 757.970248,55.5025667 C758.233424,55.4189419 758.378978,55.1378045 758.295354,54.8746287 C758.211729,54.6114529 757.930591,54.4658981 757.667415,54.5495229 C755.087333,55.3693514 752.547299,56.1643053 750.038603,56.9366786 C749.774686,57.017933 749.626608,57.29775 749.707863,57.5616673 C749.789117,57.8255845 750.068934,57.973662 750.332851,57.8924076 Z M765.581981,53.0502327 L768.582612,52.0661769 L771.632468,51.0568493 C772.145236,50.886414 772.660322,50.7148445 773.17786,50.5421003 C773.439797,50.454671 773.581263,50.1714541 773.493833,49.9095176 C773.406404,49.6475811 773.123187,49.5061151 772.861251,49.5935444 L769.786868,50.6154096 C769.279023,50.7834787 768.773364,50.9504538 768.269758,51.1163756 L765.271692,52.0995905 C765.00918,52.1852745 764.865832,52.4675437 764.951516,52.7300562 C765.0372,52.9925688 765.319469,53.1359167 765.581981,53.0502327 Z M780.772752,47.9831575 L784.492016,46.7144234 L788.348195,45.3898956 C788.609274,45.2999374 788.747995,45.0153657 788.658037,44.7542869 C788.568078,44.4932081 788.283507,44.3544875 788.022428,44.4444457 L782.915545,46.1966399 L780.450971,47.0363434 C780.189515,47.1252007 780.049597,47.4091854 780.138454,47.6706409 C780.227311,47.9320964 780.511296,48.0720149 780.772752,47.9831575 Z M795.903023,42.7734308 L803.45732,40.1376655 C803.717982,40.046508 803.855393,39.7613016 803.764236,39.5006391 C803.673078,39.2399767 803.387872,39.1025657 803.127209,39.1937231 L795.574474,41.8289441 C795.313661,41.9196705 795.175779,42.2046493 795.266505,42.4654622 C795.357231,42.726275 795.64221,42.8641572 795.903023,42.7734308 Z M811.013976,37.4926531 L818.562485,34.8534406 C818.823211,34.7624659 818.960822,34.4773559 818.869847,34.2166296 C818.778873,33.9559032 818.493763,33.8182924 818.233036,33.909267 L810.683556,36.5488191 C810.422924,36.640062 810.285606,36.9253135 810.376849,37.1859461 C810.468092,37.4465787 810.753344,37.5838961 811.013976,37.4926531 Z M826.105994,32.2305272 L831.576611,30.3441799 L833.666629,29.6281327 C833.92792,29.5387922 834.067313,29.2545494 833.977972,28.9932586 C833.888632,28.7319678 833.604389,28.5925744 833.343098,28.6819149 L828.015809,30.512282 L825.778828,31.2855605 C825.517882,31.375905 825.379583,31.6606817 825.469928,31.9216271 C825.560272,32.1825724 825.845049,32.3208717 826.105994,32.2305272 Z M841.262917,27.0523483 L844.349198,26.019806 L847.366603,25.0193078 C847.864234,24.855083 848.359348,24.6920843 848.852121,24.5302572 C849.114478,24.4440987 849.257315,24.1615709 849.171157,23.8992136 C849.084998,23.6368564 848.802471,23.494019 848.540113,23.5801775 L845.551339,24.5665046 C845.048063,24.7333799 844.542096,24.9015354 844.033262,25.0710255 L840.944435,26.1044196 C840.682672,26.192366 840.541765,26.4758618 840.629712,26.7376251 C840.717658,26.9993885 841.001154,27.1402948 841.262917,27.0523483 Z M856.446344,22.0703058 C857.484084,21.7390888 858.513091,21.4127975 859.534085,21.0912392 L862.573741,20.1405703 C863.076584,19.9844277 863.577602,19.8294202 864.076887,19.6755236 C864.340778,19.5941834 864.488764,19.3143183 864.407424,19.0504275 C864.326084,18.7865366 864.046219,18.6385501 863.782328,18.7198903 L860.761246,19.6579888 L857.694303,20.6239031 C857.179085,20.7872711 856.661775,20.9518463 856.142284,21.1176528 C855.879217,21.2016166 855.734024,21.4829413 855.817988,21.7460092 C855.901952,22.009077 856.183276,22.1542696 856.446344,22.0703058 Z M871.742019,17.3603209 C874.339912,16.5924513 876.897102,15.8544336 879.420479,15.1448022 C879.68631,15.0700446 879.841205,14.7939432 879.766447,14.5281126 C879.691689,14.262282 879.415588,14.1073868 879.149758,14.1821444 C876.622062,14.8929903 874.060633,15.6322316 871.458567,16.4013343 C871.193751,16.4796073 871.042527,16.7577365 871.1208,17.0225534 C871.199073,17.2873702 871.477202,17.4385939 871.742019,17.3603209 Z M887.114736,13.0416377 C889.725604,12.3492685 892.304574,11.687755 894.856378,11.0564149 C895.124438,10.9900944 895.28798,10.7190253 895.22166,10.4509653 C895.155339,10.1829052 894.88427,10.019363 894.61621,10.0856836 C892.058939,10.7183763 889.474586,11.3812706 886.858409,12.0750477 C886.591492,12.1458305 886.432495,12.4195899 886.503278,12.6865064 C886.57406,12.9534228 886.84782,13.1124205 887.114736,13.0416377 Z M902.632394,9.20725598 C905.25884,8.60861357 907.859764,8.04277285 910.438647,7.50951269 C910.709069,7.45359507 910.882959,7.18904488 910.827041,6.9186233 C910.771124,6.64820172 910.506573,6.4743119 910.236152,6.53022953 C907.650605,7.06486746 905.043107,7.63213859 902.410165,8.23226152 C902.140927,8.29362842 901.972415,8.56163606 902.033782,8.83087335 C902.095149,9.10011063 902.363157,9.26862288 902.632394,9.20725598 Z M918.282965,5.97592612 C920.926473,5.48959742 923.549434,5.03854223 926.154541,4.6228351 C926.427233,4.57932051 926.613018,4.32298418 926.569504,4.05029188 C926.525989,3.77759957 926.269653,3.59181433 925.996961,3.63532891 C923.383983,4.05229201 920.753239,4.50468553 918.102031,4.99243098 C917.830446,5.04239468 917.650787,5.30306114 917.70075,5.57464582 C917.750714,5.84623051 918.011381,6.02588981 918.282965,5.97592612 Z M934.0553,3.46362476 C936.713909,3.10835027 939.356098,2.79102768 941.984017,2.51193132 C942.258615,2.48276782 942.45758,2.23652042 942.428416,1.96192234 C942.399253,1.68732427 942.153005,1.48836024 941.878407,1.51752374 C939.241459,1.79757904 936.590323,2.1159761 933.922846,2.47243564 C933.649136,2.50901189 933.456902,2.76054803 933.493478,3.03425735 C933.530054,3.30796666 933.78159,3.500201 934.0553,3.46362476 Z M949.959048,1.77939925 C952.627958,1.57312858 955.284011,1.40745029 957.928962,1.28277566 C958.204798,1.26977361 958.417867,1.03562403 958.404865,0.759787923 C958.391863,0.483951816 958.157714,0.270882708 957.881878,0.28388475 C955.226867,0.409033571 952.560823,0.575335036 949.881991,0.782372538 C949.60667,0.803651155 949.400728,1.04409291 949.422006,1.31941424 C949.443285,1.59473556 949.683727,1.80067787 949.959048,1.77939925 Z M965.900061,1.03111999 C967.348692,1.00820488 968.794456,0.997921024 970.237588,1.00034747 C971.464379,1.00243432 972.682837,1.01213192 973.896357,1.02942473 C974.172471,1.03335939 974.399496,0.81271417 974.403482,0.536599829 C974.407365,0.260485487 974.18672,0.0334609118 973.910605,0.0295262473 C972.692898,0.0121737665 971.470257,0.00244286902 970.239279,0.000348900167 C968.790289,-0.00208739481 967.338693,0.00823794504 965.884244,0.0312450738 C965.608136,0.0356126714 965.387847,0.262982932 965.392151,0.539090765 C965.396582,0.815198598 965.623953,1.03548758 965.900061,1.03111999 Z M981.877811,1.2554461 C984.560704,1.3697574 987.217441,1.52221366 989.849306,1.71241414 C990.12473,1.73231858 990.364141,1.52517899 990.384045,1.2497549 C990.40395,0.974330824 990.19681,0.734919753 989.921386,0.715015312 C987.27968,0.52410358 984.613105,0.371082763 981.92038,0.256352568 C981.644488,0.244597506 981.411304,0.458722851 981.399549,0.734614913 C981.387794,1.01050697 981.601919,1.24369104 981.877811,1.2554461 Z M997.806839,2.40978944 C1000.47569,2.68530083 1003.11929,3.00068743 1005.73933,3.35555589 C1006.01297,3.3926193 1006.26485,3.20083301 1006.30191,2.92718924 C1006.33898,2.65354546 1006.14719,2.40166753 1005.87355,2.36460412 C1003.24302,2.00831459 1000.58891,1.6916739 997.909525,1.41507567 C997.634842,1.38671958 997.389181,1.5864067 997.360825,1.86108932 C997.332469,2.13577195 997.532156,2.38143336 997.806839,2.40978944 Z M1013.63259,4.55544969 C1016.26919,5.00050189 1018.88281,5.48656458 1021.47572,6.01332154 C1021.74634,6.06829762 1022.01028,5.89348808 1022.06526,5.62287352 C1022.12023,5.35225896 1021.94542,5.08831559 1021.67481,5.03333951 C1019.07107,4.50438227 1016.44656,4.01629577 1013.79903,3.56939862 C1013.52674,3.52343664 1013.26875,3.70691214 1013.22278,3.97920262 C1013.17682,4.25149311 1013.3603,4.50948771 1013.63259,4.55544969 Z M1029.26306,7.73169224 C1031.85807,8.35017788 1034.43406,9.01038223 1036.99417,9.71220166 C1037.26048,9.78520881 1037.53556,9.62850048 1037.60857,9.36218382 C1037.68157,9.09586715 1037.52487,8.82079085 1037.25855,8.74778369 C1034.68768,8.04301467 1032.10085,7.38003028 1029.4949,6.75893892 C1029.22628,6.69491736 1028.95663,6.86077589 1028.8926,7.1293943 C1028.82858,7.39801271 1028.99444,7.66767069 1029.26306,7.73169224 Z M1044.66685,11.9538679 C1047.20668,12.7418722 1049.73386,13.5717315 1052.25295,14.4438389 C1052.51389,14.5341787 1052.79867,14.3958743 1052.88901,14.1349273 C1052.97935,13.8739803 1052.84104,13.5892061 1052.5801,13.4988663 C1050.05086,12.6232441 1047.5134,11.7900111 1044.96317,10.9987805 C1044.69943,10.9169528 1044.4193,11.0644219 1044.33747,11.328162 C1044.25564,11.5919021 1044.40311,11.8720402 1044.66685,11.9538679 Z M1059.78092,17.1836994 C1062.25277,18.1270327 1064.7217,19.112013 1067.19477,20.1401578 C1067.44976,20.246164 1067.7424,20.1253929 1067.84841,19.8704081 C1067.95441,19.6154232 1067.83364,19.3227821 1067.57866,19.2167758 C1065.09662,18.1849053 1062.61858,17.1962919 1060.13747,16.2494227 C1059.87948,16.1509644 1059.59052,16.2802932 1059.49206,16.5382865 C1059.3936,16.7962799 1059.52293,17.0852411 1059.78092,17.1836994 Z M1074.51966,23.3046134 C1076.91896,24.3794857 1079.33004,25.4965036 1081.7654,26.6599541 C1082.01457,26.7789901 1082.31306,26.6734967 1082.4321,26.4243279 C1082.55113,26.1751592 1082.44564,25.8766703 1082.19647,25.7576344 C1079.75387,24.5907225 1077.33539,23.4702767 1074.9285,22.3920079 C1074.67649,22.2791095 1074.38068,22.391881 1074.26778,22.64389 C1074.15488,22.8958991 1074.26765,23.191715 1074.51966,23.3046134 Z M1088.93484,30.1818871 C1091.25673,31.352551 1093.61423,32.5689656 1096.03586,33.8441348 C1096.2802,33.9727968 1096.58257,33.8790236 1096.71123,33.6346863 C1096.8399,33.3903491 1096.74612,33.0879734 1096.50179,32.9593114 C1094.07508,31.681469 1091.71235,30.4623593 1089.38504,29.28896 C1089.13846,29.1646403 1088.83779,29.2637479 1088.71347,29.5103229 C1088.58915,29.7568979 1088.68826,30.0575674 1088.93484,30.1818871 Z M1103.09281,37.6252002 L1104.77095,38.5412647 L1107.36842,39.9697121 L1110.09723,41.4821446 C1110.33856,41.6163617 1110.643,41.529529 1110.77722,41.2881986 C1110.91144,41.0468681 1110.8246,40.7424267 1110.58327,40.6082097 L1106.97209,38.6091804 L1104.40655,37.2023415 C1104.12659,37.0495145 1103.84808,36.8977199 1103.57079,36.7468273 C1103.32823,36.6148379 1103.0246,36.7044698 1102.89261,36.9470258 C1102.76062,37.1895818 1102.85025,37.4932108 1103.09281,37.6252002 Z M1117.00353,45.337425 L1117.08677,45.3934554 L1124.05082,49.307623 C1124.29165,49.4427324 1124.59641,49.3570272 1124.73152,49.1161951 C1124.86663,48.875363 1124.78092,48.5706023 1124.54009,48.435493 L1117.56783,44.5166951 C1117.3271,44.3814147 1117.02227,44.4669034 1116.88699,44.7076394 C1116.76675,44.921627 1116.82093,45.18625 1117.00353,45.337425 Z M1131.04906,53.2097996 L1132.88928,54.224438 L1135.53665,55.672413 L1138.07735,57.0467917 C1138.32056,57.177567 1138.62374,57.0864185 1138.75451,56.8432057 C1138.88529,56.599993 1138.79414,56.2968158 1138.55093,56.1660405 L1136.87009,55.2585861 L1135.14656,54.3209116 L1133.37073,53.347963 L1131.53298,52.3346866 C1131.29132,52.2010562 1130.98709,52.288628 1130.85346,52.5302838 C1130.71983,52.7719396 1130.80741,53.0761692 1131.04906,53.2097996 Z M1145.15906,60.7791665 C1147.61311,62.0436047 1149.99065,63.2356816 1152.321,64.3679879 C1152.56938,64.488672 1152.86856,64.3851583 1152.98924,64.1367837 C1153.10992,63.888409 1153.00641,63.5892278 1152.75804,63.4685438 C1150.43495,62.3397681 1148.06438,61.1511844 1145.61708,59.890226 C1145.37161,59.7637465 1145.07008,59.8602107 1144.9436,60.1056848 C1144.81712,60.351159 1144.91359,60.652687 1145.15906,60.7791665 Z M1159.57053,67.7645371 C1162.05655,68.8838152 1164.50677,69.9379708 1166.93576,70.9312426 C1167.19135,71.0357627 1167.48329,70.9132901 1167.58781,70.6576924 C1167.69233,70.4020948 1167.56985,70.1101617 1167.31426,70.0056416 C1164.89625,69.0168584 1162.45669,67.9672895 1159.98106,66.8526934 C1159.72927,66.7393266 1159.43324,66.8515478 1159.31987,67.1033464 C1159.20651,67.3551451 1159.31873,67.6511702 1159.57053,67.7645371 Z M1174.41594,73.8203044 C1176.95734,74.7427402 1179.48732,75.5994319 1182.0149,76.391577 C1182.27841,76.4741595 1182.55897,76.327493 1182.64155,76.0639883 C1182.72413,75.8004836 1182.57747,75.5199244 1182.31396,75.4373419 C1179.80071,74.649687 1177.28476,73.7977476 1174.75712,72.880308 C1174.49755,72.7860926 1174.21075,72.9201413 1174.11653,73.1797141 C1174.02232,73.439287 1174.15637,73.7260891 1174.41594,73.8203044 Z M1189.73248,78.6101068 C1192.32916,79.2887059 1194.93139,79.8998874 1197.54536,80.4435063 C1197.81571,80.4997319 1198.08046,80.3261435 1198.13669,80.0557858 C1198.19291,79.7854281 1198.01933,79.52068 1197.74897,79.4644544 C1195.15163,78.9242926 1192.5658,78.3169655 1189.98533,77.6425995 C1189.71816,77.5727789 1189.44497,77.732762 1189.37515,77.9999318 C1189.30533,78.2671016 1189.46532,78.5402863 1189.73248,78.6101068 Z M1205.45511,81.8758557 C1208.10243,82.2847289 1210.75572,82.6244485 1213.41674,82.8964256 C1213.69145,82.9245032 1213.93691,82.7245672 1213.96499,82.4498559 C1213.99307,82.1751447 1213.79313,81.9296859 1213.51842,81.9016083 C1210.87437,81.6313659 1208.23807,81.293822 1205.60775,80.8875736 C1205.33484,80.8454237 1205.07944,81.0324889 1205.03729,81.3053954 C1204.99514,81.578302 1205.1822,81.8337058 1205.45511,81.8758557 Z M1221.43208,83.5108743 C1224.09702,83.6479336 1226.77121,83.719287 1229.45716,83.7263198 C1229.7333,83.7270409 1229.95775,83.5037701 1229.95847,83.2276286 C1229.95919,82.9514872 1229.73592,82.7270444 1229.45978,82.7263215 C1226.78997,82.7193327 1224.13204,82.6484129 1221.48344,82.5121942 C1221.20766,82.4980108 1220.9726,82.7100751 1220.95842,82.9858529 C1220.94423,83.2616308 1221.1563,83.4966909 1221.43208,83.5108743 Z M1237.47699,83.5591257 C1240.1316,83.4425365 1242.79984,83.2655997 1245.48546,83.0294846 C1245.76054,83.0052999 1245.96393,82.7626968 1245.93975,82.4876156 C1245.91556,82.2125343 1245.67296,82.0091424 1245.39788,82.0333271 C1242.72667,82.2681756 1240.07299,82.4441465 1237.43312,82.5600888 C1237.15724,82.5722052 1236.94342,82.8056695 1236.95554,83.0815459 C1236.96765,83.3574223 1237.20112,83.5712421 1237.47699,83.5591257 Z M1253.46532,82.1619045 C1256.08625,81.8236683 1258.72692,81.4316459 1261.39311,80.9864636 C1261.66548,80.9409849 1261.84942,80.6833163 1261.80394,80.4109447 C1261.75846,80.1385731 1261.50079,79.95464 1261.22842,80.0001187 C1258.57427,80.4432899 1255.94583,80.8334972 1253.33733,81.170129 C1253.06346,81.2054726 1252.87009,81.4561406 1252.90543,81.7300118 C1252.94078,82.0038831 1253.19145,82.197248 1253.46532,82.1619045 Z M1269.27237,79.5327333 C1271.85053,79.0133013 1274.45756,78.4465457 1277.1035,77.8318382 C1277.37248,77.7693487 1277.53987,77.5006405 1277.47738,77.2316615 C1277.41489,76.9626826 1277.14618,76.7952898 1276.8772,76.8577793 C1274.24067,77.4703025 1271.64322,78.0349746 1269.07487,78.5524316 C1268.80417,78.6069713 1268.62893,78.8706326 1268.68347,79.1413354 C1268.73801,79.4120382 1269.00167,79.587273 1269.27237,79.5327333 Z M1284.90891,75.9105149 C1287.43498,75.2554099 1290.00536,74.5581331 1292.64106,73.814595 C1292.90683,73.7396206 1293.0615,73.4633931 1292.98652,73.1976236 C1292.91155,72.931854 1292.63532,72.7771839 1292.36955,72.8521583 C1289.74049,73.5938235 1287.17692,74.2892542 1284.65787,74.9425363 C1284.39057,75.0118571 1284.23008,75.2847421 1284.2994,75.552042 C1284.36872,75.8193419 1284.64161,75.9798357 1284.90891,75.9105149 Z M1300.32628,71.5732326 L1301.38243,71.2547631 L1304.61746,70.2657249 L1306.84146,69.5749922 C1307.21727,69.4575924 1307.59578,69.3390166 1307.97719,69.219209 C1308.24064,69.1364552 1308.38713,68.8558009 1308.30438,68.5923498 C1308.22162,68.3288988 1307.94097,68.1824147 1307.67752,68.2651685 L1306.54342,68.6204381 L1304.32276,69.3101349 L1302.15762,69.9742718 L1300.03854,70.6155244 C1299.77407,70.6949821 1299.6241,70.9737854 1299.70355,71.2382492 C1299.78301,71.502713 1300.06181,71.6526902 1300.32628,71.5732326 Z M1315.58632,66.7928512 L1323.19464,64.3206872 C1323.45718,64.2350609 1323.60059,63.9528233 1323.51496,63.6902918 C1323.42933,63.4277604 1323.1471,63.2843505 1322.88456,63.3699768 L1315.27914,65.8411994 C1315.01635,65.9260245 1314.87208,66.2078233 1314.95691,66.4706147 C1315.04173,66.7334061 1315.32353,66.8776763 1315.58632,66.7928512 Z M1330.81389,61.8407882 L1334.46467,60.6641689 L1338.42982,59.4030148 C1338.69318,59.3199758 1338.83936,59.039163 1338.75632,58.7758017 C1338.67328,58.5124405 1338.39247,58.3662604 1338.12911,58.4492994 L1334.15978,59.7117789 L1331.26962,60.6423133 C1331.01803,60.7236362 1330.7635,60.8059854 1330.50583,60.8894218 C1330.24312,60.9744907 1330.09911,61.2564233 1330.18418,61.5191358 C1330.26925,61.7818484 1330.55118,61.9258571 1330.81389,61.8407882 Z M1346.07813,57.045194 L1347.2174,56.7049123 L1349.44993,56.0479886 C1350.18442,55.8341363 1350.90958,55.6253191 1351.62649,55.4212749 L1353.7535,54.8231999 C1354.01958,54.7493245 1354.17539,54.4737386 1354.10152,54.2076615 C1354.02764,53.9415843 1353.75205,53.785774 1353.48598,53.8596494 L1352.4253,54.1560315 L1350.26853,54.7698757 C1348.81386,55.1887365 1347.32412,55.6272097 1345.7907,56.0873948 C1345.52621,56.1667686 1345.37614,56.4455244 1345.45552,56.7100134 C1345.53489,56.9745023 1345.81365,57.1245678 1346.07813,57.045194 Z M1361.474,52.7917252 C1364.1479,52.1305751 1366.73467,51.5388481 1369.25416,51.0143615 C1369.52451,50.958083 1369.69805,50.6933009 1369.64177,50.4229542 C1369.58549,50.1526075 1369.32071,49.979071 1369.05036,50.0353495 C1366.51838,50.5624365 1363.91957,51.1569168 1361.23397,51.8209601 C1360.9659,51.887243 1360.80232,52.1582891 1360.8686,52.4263585 C1360.93488,52.6944278 1361.20593,52.8580081 1361.474,52.7917252 Z M1377.09765,49.5659414 C1379.79602,49.1353644 1382.42655,48.7899881 1385.00085,48.5309329 C1385.2756,48.5032839 1385.47592,48.2581373 1385.44827,47.9833826 C1385.42062,47.7086279 1385.17548,47.5083092 1384.90072,47.5359581 C1382.30676,47.796992 1379.65712,48.1448783 1376.94008,48.5784345 C1376.66739,48.6219478 1376.4816,48.8782833 1376.52511,49.1509758 C1376.56863,49.4236683 1376.82496,49.6094547 1377.09765,49.5659414 Z M1392.9546,48.0018305 C1394.00218,47.969818 1395.04127,47.9537298 1396.07238,47.9537298 C1397.68992,47.9537298 1399.30076,47.9819806 1400.90633,48.0380907 C1401.18231,48.0477352 1401.41385,47.8318325 1401.42349,47.5558586 C1401.43313,47.2798847 1401.21723,47.0483453 1400.94126,47.0387008 C1399.32407,46.9821848 1397.70159,46.9537298 1396.07238,46.9537298 C1395.03102,46.9537298 1393.98174,46.9699756 1392.92406,47.0022971 C1392.64804,47.0107317 1392.43113,47.2413225 1392.43956,47.517336 C1392.448,47.7933496 1392.67859,48.0102651 1392.9546,48.0018305 Z M1408.86892,48.5464133 C1411.50958,48.7911927 1414.14383,49.1109374 1416.78184,49.5045159 C1417.05496,49.5452641 1417.3094,49.35689 1417.35014,49.0837706 C1417.39089,48.8106512 1417.20252,48.5562113 1416.9294,48.5154631 C1414.27321,48.1191713 1411.62053,47.7971908 1408.96122,47.5506821 C1408.68626,47.525194 1408.44269,47.7274337 1408.41721,48.0023973 C1408.39172,48.2773609 1408.59396,48.5209251 1408.86892,48.5464133 Z M1424.63749,50.8894553 C1427.20822,51.4109334 1429.79544,52.0011486 1432.41772,52.6614713 C1432.6855,52.7289025 1432.95725,52.5664854 1433.02468,52.2987026 C1433.09211,52.0309198 1432.92969,51.7591751 1432.66191,51.6917439 C1430.02486,51.0277009 1427.42253,50.434039 1424.8363,49.9094159 C1424.56566,49.8545179 1424.30177,50.0294036 1424.24687,50.300034 C1424.19198,50.5706645 1424.36686,50.8345574 1424.63749,50.8894553 Z M1440.11951,54.7688649 C1442.59225,55.4965427 1445.1173,56.2857823 1447.73945,57.147377 C1448.0018,57.2335786 1448.28435,57.0907876 1448.37055,56.8284445 C1448.45675,56.5661014 1448.31396,56.2835501 1448.05162,56.1973486 C1445.41989,55.3326066 1442.88493,54.5402729 1440.40182,53.8095415 C1440.13691,53.7315839 1439.85896,53.8831385 1439.781,54.1480484 C1439.70304,54.4129582 1439.8546,54.6909072 1440.11951,54.7688649 Z M1455.30437,59.733391 L1456.57927,60.1860829 L1459.91708,61.3888009 L1462.82226,62.4519886 C1463.08141,62.5473578 1463.36881,62.4145862 1463.46418,62.1554351 C1463.55954,61.8962839 1463.42677,61.6088884 1463.16762,61.5135192 L1460.96242,60.7053027 L1458.22167,59.7121329 L1456.2732,59.0157258 C1456.06039,58.9401597 1455.8486,58.8651269 1455.63763,58.7905568 C1455.37727,58.698529 1455.09161,58.8349864 1454.99958,59.0953429 C1454.90755,59.3556994 1455.04401,59.6413632 1455.30437,59.733391 Z M1470.32952,65.2357597 L1476.86687,67.6533586 L1477.83839,68.0086381 C1478.09779,68.1033227 1478.38483,67.9697928 1478.47952,67.7103907 C1478.5742,67.4509886 1478.44067,67.1639446 1478.18127,67.0692601 L1472.92988,65.1348311 L1470.67802,64.298454 C1470.41919,64.2022161 1470.13136,64.3340228 1470.03512,64.5928526 C1469.93888,64.8516824 1470.07069,65.1395217 1470.32952,65.2357597 Z M1485.37126,70.7008491 L1487.60251,71.4704053 L1489.78003,72.2061569 C1490.85693,72.5660419 1491.91725,72.9142856 1492.96631,73.2524415 C1493.22913,73.337161 1493.51088,73.1927775 1493.59559,72.9299521 C1493.68031,72.6671266 1493.53593,72.3853858 1493.27311,72.3006663 C1491.87877,71.851215 1490.46429,71.3838167 1489.01704,70.8947961 L1486.82001,70.1445892 C1486.44921,70.0166988 1486.07597,69.8873421 1485.7001,69.7564618 C1485.43931,69.6656565 1485.15429,69.8034525 1485.06349,70.0642379 C1484.97268,70.3250233 1485.11048,70.6100438 1485.37126,70.7008491 Z M1500.6461,75.6029905 C1503.26232,76.3582427 1505.83574,77.0518818 1508.38869,77.6872052 C1508.65666,77.7538917 1508.92795,77.5907197 1508.99464,77.3227504 C1509.06132,77.0547812 1508.89815,76.7834891 1508.63018,76.7168026 C1506.08952,76.0845367 1503.52803,75.3941135 1500.92346,74.6422231 C1500.65815,74.5656335 1500.38099,74.7186205 1500.3044,74.9839291 C1500.22781,75.2492377 1500.3808,75.5264009 1500.6461,75.6029905 Z M1516.19998,79.4599044 C1518.83565,79.998778 1521.46353,80.4747443 1524.09468,80.8875487 C1524.36749,80.9303493 1524.62334,80.7438937 1524.66614,80.4710885 C1524.70894,80.1982832 1524.52248,79.942434 1524.24968,79.8996334 C1521.63387,79.4892365 1519.02109,79.0160051 1516.40029,78.480172 C1516.12975,78.4248577 1515.86558,78.5993372 1515.81027,78.8698829 C1515.75496,79.1404285 1515.92944,79.4045902 1516.19998,79.4599044 Z M1532.06906,81.9422711 C1534.72155,82.2274604 1537.38512,82.4481543 1540.06622,82.6031199 C1540.3419,82.6190542 1540.57831,82.4084868 1540.59424,82.1328045 C1540.61018,81.8571222 1540.39961,81.6207204 1540.12393,81.6047861 C1537.45934,81.450775 1534.81217,81.2314401 1532.17596,80.9480014 C1531.9014,80.9184814 1531.6549,81.1171256 1531.62538,81.3916856 C1531.59586,81.6662455 1531.7945,81.9127511 1532.06906,81.9422711 Z M1548.10178,82.8495999 C1550.68708,82.8261264 1553.36313,82.6634162 1556.13604,82.3645618 C1556.41059,82.3349715 1556.60917,82.0884151 1556.57958,81.8138626 C1556.54999,81.5393102 1556.30343,81.3407293 1556.02888,81.3703196 C1553.28777,81.6657476 1550.64436,81.8264731 1548.0927,81.8496412 C1547.81657,81.8521483 1547.59476,82.0780292 1547.59724,82.3541602 C1547.59977,82.6302912 1547.82565,82.8521071 1548.10178,82.8495999 Z M1564.09642,81.1859274 C1566.62981,80.7161383 1569.24109,80.1481339 1571.93831,79.4825769 C1572.20641,79.4164211 1572.37012,79.1454526 1572.30396,78.8773518 C1572.2378,78.609251 1571.96684,78.4455423 1571.69874,78.5116981 C1569.02001,79.1726941 1566.42775,79.7365593 1563.91409,80.2026901 C1563.64258,80.2530392 1563.46329,80.5139605 1563.51364,80.7854739 C1563.56399,81.0569874 1563.82491,81.2362766 1564.09642,81.1859274 Z M1579.71062,77.3678479 C1582.18267,76.6370181 1584.72771,75.8330687 1587.3574,74.9541275 C1587.6193,74.8665906 1587.76065,74.5833156 1587.67312,74.3214151 C1587.58558,74.0595145 1587.3023,73.9181648 1587.0404,74.0057017 C1584.42152,74.8810281 1581.88761,75.6814622 1579.42711,76.4088777 C1579.1623,76.487166 1579.01109,76.765304 1579.08938,77.0301163 C1579.16767,77.2949286 1579.4458,77.4461362 1579.71062,77.3678479 Z M1594.90458,72.3126178 C1597.32136,71.43151 1599.81458,70.4913503 1602.40453,69.4859567 C1602.66196,69.3860261 1602.78964,69.0963309 1602.68971,68.8389042 C1602.58978,68.5814775 1602.30008,68.4538016 1602.04265,68.5537322 C1599.45894,69.5567047 1596.97214,70.4944419 1594.56205,71.3731093 C1594.30262,71.4676952 1594.16898,71.7546883 1594.26356,72.0141264 C1594.35815,72.2735645 1594.64514,72.4072037 1594.90458,72.3126178 Z M1609.85088,66.5257735 L1611.89513,65.6916554 L1615.06181,64.3844155 L1617.24994,63.4716094 C1617.50465,63.3649429 1617.62466,63.0719898 1617.518,62.8172805 C1617.41133,62.5625711 1617.11838,62.4425587 1616.86367,62.5492253 L1614.67833,63.4608672 L1612.55583,64.3389908 L1610.48922,65.1862922 C1610.14905,65.3250904 1609.81093,65.4627167 1609.4747,65.5992272 C1609.21884,65.7031066 1609.09563,65.994732 1609.19951,66.2505907 C1609.30339,66.5064494 1609.59502,66.6296529 1609.85088,66.5257735 Z M1624.6145,60.3542754 L1631.9705,57.1942063 C1632.22405,57.0848146 1632.34091,56.7905915 1632.23152,56.5370405 C1632.12213,56.2834896 1631.82791,56.1666255 1631.57436,56.2760172 L1624.22172,59.434643 C1623.96777,59.5431063 1623.84983,59.8368998 1623.95829,60.0908493 C1624.06675,60.3447988 1624.36055,60.4627386 1624.6145,60.3542754 Z M1639.30016,54.0273511 L1646.64615,50.8613399 C1646.89989,50.7524017 1647.01728,50.458388 1646.90835,50.2046419 C1646.79941,49.9508958 1646.50539,49.8335058 1646.25165,49.9424439 L1638.90351,53.109381 C1638.65002,53.2189128 1638.53331,53.5132005 1638.64285,53.7666909 C1638.75238,54.0201813 1639.04667,54.1368829 1639.30016,54.0273511 Z M1654.00522,47.7222258 L1657.23999,46.3587629 L1661.37652,44.6340918 C1661.63165,44.5284438 1661.75283,44.2359726 1661.64719,43.9808391 C1661.54154,43.7257056 1661.24907,43.6045237 1660.99393,43.7101717 L1657.90533,44.9957794 L1655.78816,45.8841947 L1653.61542,46.8013247 C1653.36112,46.9089641 1653.24223,47.2023737 1653.34987,47.4566735 C1653.45751,47.7109733 1653.75092,47.8298651 1654.00522,47.7222258 Z M1668.78913,41.60834 C1671.33043,40.5872852 1673.80324,39.6118016 1676.22604,38.6755965 C1676.48362,38.5760637 1676.61175,38.2865661 1676.51222,38.0289853 C1676.41268,37.7714045 1676.12318,37.6432813 1675.8656,37.742814 C1673.43855,38.6806619 1670.96163,39.6577683 1668.41631,40.6804352 C1668.16008,40.7833859 1668.03582,41.0745625 1668.13877,41.3307963 C1668.24172,41.5870301 1668.5329,41.7112906 1668.78913,41.60834 Z M1683.70795,35.8517642 C1686.26143,34.9122737 1688.76668,34.0166736 1691.23277,33.1627427 C1691.49371,33.0723867 1691.632,32.7876039 1691.54164,32.5266625 C1691.45129,32.2657211 1691.16651,32.1274343 1690.90556,32.2177903 C1688.4333,33.0738592 1685.92203,33.9716111 1683.36265,34.91327 C1683.1035,35.0086207 1682.9707,35.2960067 1683.06605,35.5551647 C1683.1614,35.8143227 1683.44879,35.9471148 1683.70795,35.8517642 Z M1698.82361,30.6270908 C1701.40545,29.7975869 1703.94795,29.0157329 1706.45645,28.280953 C1706.72146,28.2033282 1706.87336,27.9255698 1706.79574,27.6605622 C1706.71811,27.3955547 1706.44035,27.243651 1706.17535,27.3212758 C1703.65841,28.0585263 1701.10766,28.8429174 1698.51772,29.6750219 C1698.25482,29.7594894 1698.11016,30.0410917 1698.19463,30.3039983 C1698.2791,30.5669048 1698.5607,30.7115582 1698.82361,30.6270908 Z M1714.13713,26.1515602 C1716.75728,25.4677295 1719.34209,24.8382489 1721.89509,24.2634074 C1722.16449,24.2027488 1722.3337,23.9351853 1722.27304,23.6657875 C1722.21238,23.3963898 1721.94482,23.2271732 1721.67542,23.2878318 C1719.11126,23.8651876 1716.51551,24.4973339 1713.8846,25.1839712 C1713.61741,25.2537056 1713.45734,25.5268386 1713.52707,25.7940309 C1713.59681,26.0612232 1713.86994,26.2212945 1714.13713,26.1515602 Z M1729.72323,22.6546817 C1732.38127,22.1624389 1735.00551,21.7332646 1737.59839,21.3679993 C1737.87184,21.3294789 1738.06228,21.0765829 1738.02376,20.8031404 C1737.98524,20.529698 1737.73234,20.3392561 1737.4589,20.3777765 C1734.85157,20.7450764 1732.21315,21.1765716 1729.54114,21.6714005 C1729.26961,21.7216842 1729.09026,21.9825623 1729.14054,22.2540879 C1729.19083,22.5256135 1729.4517,22.7049654 1729.72323,22.6546817 Z M1745.51077,20.4440055 C1748.19617,20.1971686 1750.84787,20.023531 1753.46764,19.9243287 C1753.74358,19.9138796 1753.95881,19.6817116 1753.94836,19.405767 C1753.93791,19.1298224 1753.70575,18.9145958 1753.4298,18.9250449 C1750.79189,19.0249342 1748.12229,19.1997434 1745.41924,19.4482033 C1745.14425,19.4734793 1744.94182,19.7168874 1744.9671,19.9918705 C1744.99238,20.2668537 1745.23578,20.4692814 1745.51077,20.4440055 Z M1761.43631,19.8555847 C1764.12222,19.9134144 1766.77394,20.0549585 1769.39274,20.2817399 C1769.66785,20.305564 1769.91019,20.1018543 1769.93401,19.8267416 C1769.95783,19.5516289 1769.75412,19.3092926 1769.47901,19.2854685 C1766.83847,19.0568034 1764.16516,18.9141071 1761.45783,18.8558164 C1761.18176,18.8498722 1760.95313,19.0688592 1760.94719,19.3449376 C1760.94124,19.621016 1761.16023,19.8496405 1761.43631,19.8555847 Z M1777.32489,21.246619 C1778.45135,21.4243675 1779.57153,21.6190215 1780.68551,21.8307128 C1782.18856,22.1163411 1783.67311,22.4271178 1785.13997,22.7628794 C1785.40915,22.8244945 1785.67731,22.6562295 1785.73893,22.3870489 C1785.80054,22.1178684 1785.63228,21.8497054 1785.3631,21.7880903 C1783.88413,21.449556 1782.38743,21.1362364 1780.8722,20.8482942 C1779.74795,20.6346496 1778.61749,20.4382099 1777.48076,20.2588407 C1777.20799,20.2157997 1776.95198,20.4020298 1776.90894,20.6747972 C1776.8659,20.9475646 1777.05213,21.203578 1777.32489,21.246619 Z M1792.84261,24.8025347 C1795.40759,25.577089 1797.91866,26.4339122 1800.38208,27.3726342 C1800.64012,27.4709652 1800.92902,27.3414939 1801.02735,27.083452 C1801.12568,26.82541 1800.99621,26.5365127 1800.73816,26.4381818 C1798.25274,25.4910723 1795.71932,24.6266236 1793.13169,23.8452297 C1792.86734,23.7654025 1792.58832,23.9149897 1792.5085,24.1793422 C1792.42867,24.4436947 1792.57826,24.7227074 1792.84261,24.8025347 Z M1807.72248,30.4746088 C1810.12634,31.5930248 1812.48878,32.7955221 1814.81959,34.083621 C1815.06128,34.2171886 1815.36549,34.1295377 1815.49906,33.8878472 C1815.63263,33.6461567 1815.54498,33.3419499 1815.30328,33.2083823 C1812.95241,31.9091975 1810.56936,30.6962063 1808.14432,29.5679367 C1807.89395,29.4514499 1807.59655,29.5599841 1807.48006,29.8103546 C1807.36358,30.0607252 1807.47211,30.3581219 1807.72248,30.4746088 Z M1821.66318,38.1654393 C1823.8684,39.5781752 1826.05544,41.0738926 1828.24134,42.6597957 C1828.46486,42.8219578 1828.77751,42.7722229 1828.93967,42.5487099 C1829.10183,42.3251968 1829.0521,42.0125454 1828.82858,41.8503834 C1826.62736,40.2533621 1824.42441,38.7467663 1822.20261,37.3234095 C1821.97009,37.1744497 1821.66084,37.2421888 1821.51188,37.4747089 C1821.36292,37.707229 1821.43066,38.0164795 1821.66318,38.1654393 Z M1834.59533,47.5203069 C1836.60223,49.1323072 1838.62802,50.8293848 1840.71333,52.6402961 C1840.92183,52.8213581 1841.23763,52.7991172 1841.41869,52.5906198 C1841.59975,52.3821224 1841.57751,52.0663221 1841.36901,51.8852601 C1839.27437,50.0662485 1837.23883,48.3610003 1835.22156,46.7406676 C1835.00627,46.5677393 1834.69155,46.6020814 1834.51863,46.8173728 C1834.3457,47.0326643 1834.38004,47.3473786 1834.59533,47.5203069 Z M1846.67128,57.9669372 L1847.5732,58.7961919 L1849.43913,60.5266994 L1851.44411,62.4045819 L1852.51982,63.4180553 C1852.72066,63.6075825 1853.03711,63.5984171 1853.22663,63.3975837 C1853.41616,63.1967504 1853.407,62.8803006 1853.20616,62.6907733 L1851.10306,60.7129828 L1849.17254,58.9132361 L1847.79724,57.6431149 C1847.64665,57.5046592 1847.49663,57.3669322 1847.347,57.2297733 C1847.14343,57.04318 1846.82715,57.0569361 1846.64056,57.2604983 C1846.45396,57.4640605 1846.46772,57.780344 1846.67128,57.9669372 Z M1858.3236,68.9160167 L1861.27586,71.700894 L1863.46728,73.7475382 L1864.16562,74.3946267 C1864.36836,74.5821051 1864.6847,74.5697272 1864.87218,74.3669799 C1865.05966,74.1642326 1865.04728,73.8478922 1864.84453,73.6604138 L1862.33982,71.3278327 L1860.34568,69.4515984 L1859.01112,68.1898448 C1858.81059,67.9999933 1858.49412,68.0086473 1858.30427,68.2091742 C1858.11442,68.409701 1858.12308,68.7261652 1858.3236,68.9160167 Z M1870.11467,79.768722 C1872.22034,81.6182134 1874.24361,83.3316899 1876.23573,84.9465279 C1876.45024,85.1204174 1876.76511,85.0874832 1876.939,84.8729674 C1877.11289,84.6584515 1877.07995,84.3435868 1876.86544,84.1696973 C1874.88404,82.5635521 1872.87075,80.858528 1870.77459,79.0173892 C1870.56712,78.8351563 1870.2512,78.855619 1870.06896,79.0630938 C1869.88673,79.2705686 1869.90719,79.5864891 1870.11467,79.768722 Z M1882.60776,89.8471998 C1884.82479,91.4562351 1887.03349,92.9555259 1889.25516,94.3540959 C1889.48886,94.5012087 1889.79756,94.4310226 1889.94467,94.1973284 C1890.09179,93.9636354 1890.0216,93.6549313 1889.78791,93.5078185 C1887.5853,92.1212501 1885.39476,90.634287 1883.19513,89.0378821 C1882.97164,88.875684 1882.65898,88.9253684 1882.49678,89.1488554 C1882.33458,89.3723423 1882.38427,89.6850017 1882.60776,89.8471998 Z M1896.22013,98.3818353 C1898.60629,99.6400876 1901.02335,100.790758 1903.48372,101.835426 C1903.7379,101.94335 1904.03144,101.824787 1904.13937,101.570608 C1904.24729,101.316429 1904.12873,101.022886 1903.87455,100.914962 C1901.44016,99.8813255 1899.0483,98.7426531 1896.68656,97.4972805 C1896.4423,97.3684777 1896.13987,97.4620767 1896.01107,97.7063398 C1895.88227,97.9506028 1895.97587,98.2530325 1896.22013,98.3818353 Z M1911.00698,104.652192 C1913.53517,105.475466 1916.1154,106.19514 1918.75549,106.810395 C1919.02442,106.873069 1919.29325,106.70586 1919.35592,106.436924 C1919.41859,106.167988 1919.25138,105.899165 1918.98245,105.836491 C1916.37027,105.227741 1913.81763,104.515761 1911.31661,103.701336 C1911.05404,103.615833 1910.77187,103.759375 1910.68637,104.021947 C1910.60086,104.284518 1910.74441,104.566689 1911.00698,104.652192 Z M1926.66324,108.31228 C1929.26563,108.698573 1931.92711,108.991155 1934.65263,109.188689 C1934.92805,109.208651 1935.16751,109.001561 1935.18747,108.726141 C1935.20743,108.450721 1935.00034,108.211267 1934.72492,108.191306 C1932.02422,107.99557 1929.38761,107.705721 1926.81006,107.323118 C1926.53691,107.282573 1926.28261,107.471135 1926.24207,107.744285 C1926.20152,108.017435 1926.39009,108.271735 1926.66324,108.31228 Z M1942.67624,109.493457 C1945.29342,109.506153 1947.96832,109.437646 1950.70413,109.286708 C1950.97985,109.271496 1951.19104,109.035646 1951.17583,108.759923 C1951.16061,108.4842 1950.92476,108.273014 1950.64904,108.288226 C1947.93303,108.438072 1945.27812,108.506067 1942.68109,108.493469 C1942.40495,108.492129 1942.18001,108.714898 1942.17866,108.991037 C1942.17733,109.267177 1942.4001,109.492118 1942.67624,109.493457 Z M1958.72458,108.626205 C1959.75446,108.514457 1960.79265,108.391823 1961.8393,108.258242 C1963.46457,108.050708 1965.07622,107.825896 1966.6856,107.582443 C1966.95864,107.541141 1967.14649,107.286319 1967.10519,107.013283 C1967.06389,106.740247 1966.80907,106.55239 1966.53603,106.593692 C1964.93426,106.835993 1963.33025,107.05974 1961.71266,107.266292 C1960.67227,107.399076 1959.64032,107.520973 1958.61671,107.632041 C1958.34218,107.661829 1958.14378,107.908529 1958.17357,108.18306 C1958.20335,108.457591 1958.45005,108.655994 1958.72458,108.626205 Z M1974.59019,106.233897 C1977.21322,105.735684 1979.83044,105.18813 1982.44598,104.591325 C1982.7152,104.529894 1982.88365,104.261847 1982.82222,103.992624 C1982.76079,103.723401 1982.49274,103.554952 1982.22352,103.616383 C1979.61981,104.210488 1977.01455,104.755541 1974.40358,105.251461 C1974.13229,105.30299 1973.95414,105.564688 1974.00567,105.83598 C1974.0572,106.107272 1974.31889,106.285426 1974.59019,106.233897 Z M1990.23259,102.668918 C1992.79854,101.987787 1995.36794,101.259074 1997.94651,100.482242 C1998.21091,100.402586 1998.36068,100.12367 1998.28103,99.8592662 C1998.20137,99.594862 1997.92245,99.4450937 1997.65805,99.5247494 C1995.08996,100.298423 1992.53119,101.024122 1989.97603,101.702391 C1989.70913,101.773239 1989.5502,102.047038 1989.62105,102.313937 C1989.6919,102.580836 1989.9657,102.739766 1990.23259,102.668918 Z M2005.59841,98.046075 C2008.10246,97.206798 2010.62193,96.3219114 2013.16523,95.3896476 C2013.4245,95.2946094 2013.55764,95.0073836 2013.4626,94.7481109 C2013.36757,94.4888381 2013.08034,94.3556998 2012.82107,94.450738 C2010.2864,95.3798386 2007.77571,96.2616403 2005.28062,97.0979148 C2005.01879,97.1856709 2004.87768,97.4690641 2004.96543,97.7308913 C2005.05319,97.9927185 2005.33658,98.1338311 2005.59841,98.046075 Z M2020.63717,92.5429706 C2023.07366,91.5807295 2025.54122,90.5741789 2028.0537,89.5189215 C2028.30829,89.4119886 2028.428,89.1189102 2028.32107,88.8643125 C2028.21413,88.6097149 2027.92106,88.490009 2027.66646,88.5969419 C2025.16047,89.6494761 2022.69953,90.6533232 2020.26985,91.6128766 C2020.01301,91.7143097 2019.88703,92.004746 2019.98846,92.2615844 C2020.0899,92.5184228 2020.38033,92.6444036 2020.63717,92.5429706 Z M2035.40418,86.3508698 C2036.19459,86.0020009 2036.99098,85.6480086 2037.79441,85.288462 L2040.22689,84.1927283 C2041.04547,83.8216422 2041.87215,83.4445708 2042.70799,83.0610834 C2042.95898,82.9459299 2043.06909,82.6491147 2042.95394,82.3981281 C2042.83878,82.1471415 2042.54197,82.0370269 2042.29098,82.1521803 C2041.45656,82.5350156 2040.63132,82.9114325 2039.81419,83.2818614 L2037.38611,84.3756141 C2036.58416,84.7344972 2035.78927,85.0878225 2035.00039,85.4360203 C2034.74776,85.5475251 2034.63335,85.8427137 2034.74486,86.0953425 C2034.85636,86.3479712 2035.15155,86.4623747 2035.40418,86.3508698 Z M2049.98088,79.6733943 L2052.59181,78.4357744 L2055.31261,77.1364332 L2057.20345,76.2285101 C2057.45229,76.1087879 2057.55696,75.8100094 2057.43723,75.5611697 C2057.31751,75.31233 2057.01873,75.2076595 2056.76989,75.3273817 L2053.05461,77.107589 L2050.41318,78.3629091 C2050.1252,78.4992349 2049.83886,78.6346018 2049.55397,78.7691023 C2049.30425,78.8869915 2049.19739,79.1849922 2049.31528,79.4347055 C2049.43317,79.6844189 2049.73117,79.7912835 2049.98088,79.6733943 Z M2064.40497,72.7439329 L2071.59744,69.2442817 C2071.84576,69.1234659 2071.94911,68.8242298 2071.82829,68.5759192 C2071.70748,68.3276086 2071.40824,68.2242536 2071.15993,68.3450694 L2063.96793,71.8444944 C2063.71955,71.9651818 2063.61604,72.2643643 2063.73673,72.5127374 C2063.85742,72.7611105 2064.1566,72.8646202 2064.40497,72.7439329 Z M2078.79669,65.7512231 L2082.1149,64.1523375 L2085.24425,62.6542003 C2085.49909,62.5326434 2085.75268,62.4117946 2086.00522,62.2915686 C2086.25454,62.1728685 2086.36044,61.874522 2086.24174,61.6251931 C2086.12304,61.3758643 2085.82469,61.2699687 2085.57536,61.3886688 L2082.47997,62.867887 L2080.04978,64.0362091 L2078.36162,64.850826 C2078.11298,64.9709671 2078.00881,65.2699213 2078.12895,65.5185591 C2078.24909,65.7671969 2078.54805,65.8713641 2078.79669,65.7512231 Z M2093.23233,58.8872041 L2096.18295,57.5213472 C2097.64219,56.849736 2099.07877,56.1944975 2100.49911,55.5529176 C2100.75077,55.439241 2100.86263,55.1430779 2100.74895,54.891419 C2100.63527,54.63976 2100.33911,54.5279033 2100.08745,54.6415799 C2097.71665,55.7124903 2095.30087,56.8213075 2092.81033,57.9806099 C2092.55998,58.097143 2092.4515,58.3945597 2092.56803,58.6449088 C2092.68457,58.8952578 2092.98198,59.0037372 2093.23233,58.8872041 Z M2107.8014,52.3134027 C2110.28269,51.2337229 2112.72883,50.1918565 2115.15268,49.1833207 C2115.40763,49.0772375 2115.52831,48.7845599 2115.42223,48.529607 C2115.31614,48.2746542 2115.02347,48.1539716 2114.76851,48.2600548 C2112.33962,49.2706934 2109.88854,50.3146625 2107.40241,51.3964486 C2107.1492,51.5066275 2107.03325,51.8012122 2107.14342,52.0544221 C2107.2536,52.3076319 2107.54819,52.4235815 2107.8014,52.3134027 Z M2122.57437,46.1727338 C2125.07442,45.1854378 2127.55894,44.2320849 2130.03512,43.3108097 C2130.29393,43.214518 2130.42567,42.9266514 2130.32938,42.6678416 C2130.23309,42.4090318 2129.94522,42.2772847 2129.68641,42.3735764 C2127.20394,43.2971963 2124.71321,44.2529272 2122.20706,45.242634 C2121.95022,45.344063 2121.82424,45.6344974 2121.92567,45.8913373 C2122.0271,46.1481773 2122.31753,46.2741628 2122.57437,46.1727338 Z M2137.54802,40.6059016 C2140.07456,39.7270556 2142.5976,38.8808874 2145.12173,38.0666429 C2145.38454,37.9818655 2145.52886,37.7000928 2145.44408,37.437286 C2145.3593,37.1744792 2145.07753,37.0301579 2144.81472,37.1149353 C2142.28333,37.9315233 2139.75311,38.7800978 2137.21948,39.6614104 C2136.95867,39.7521334 2136.82078,40.0371105 2136.91151,40.2979245 C2137.00223,40.5587385 2137.28721,40.6966245 2137.54802,40.6059016 Z M2152.76053,35.7016324 C2155.3173,34.9434023 2157.87864,34.2174514 2160.44773,33.5235606 C2160.71432,33.4515569 2160.87206,33.1770727 2160.80006,32.910483 C2160.72806,32.6438933 2160.45357,32.4861501 2160.18698,32.5581537 C2157.60996,33.2541859 2155.04076,33.9823635 2152.47621,34.7429028 C2152.21146,34.8214153 2152.06049,35.0996813 2152.139,35.3644272 C2152.21752,35.6291731 2152.49578,35.780145 2152.76053,35.7016324 Z M2168.1901,31.535801 C2170.77315,30.9070987 2173.36635,30.3103684 2175.97202,29.7456617 C2176.2419,29.6871732 2176.41326,29.4209803 2176.35477,29.1511031 C2176.29628,28.8812258 2176.03009,28.7098614 2175.76021,28.7683498 C2173.14626,29.3348513 2170.54483,29.9334751 2167.95361,30.5641674 C2167.6853,30.6294726 2167.52073,30.8999205 2167.58604,31.1682298 C2167.65134,31.436539 2167.92179,31.6011062 2168.1901,31.535801 Z M2183.78617,28.1557984 C2186.39351,27.6597209 2189.01485,27.1952376 2191.65194,26.762535 C2191.92444,26.7178226 2192.1091,26.4606723 2192.06439,26.1881739 C2192.01968,25.9156754 2191.76252,25.7310183 2191.49003,25.7757308 C2188.84457,26.2098059 2186.2149,26.6757653 2183.59926,27.1734212 C2183.32799,27.2250347 2183.14992,27.4867884 2183.20153,27.7580643 C2183.25314,28.0293403 2183.5149,28.2074119 2183.78617,28.1557984 Z M2199.55528,25.5678563 C2202.17955,25.2048148 2204.82037,24.8727272 2207.47911,24.5718411 C2207.7535,24.5407886 2207.95076,24.2931779 2207.91971,24.018787 C2207.88866,23.7443961 2207.64105,23.5471314 2207.36666,23.5781839 C2204.69971,23.8799994 2202.05069,24.2131175 2199.41824,24.5772901 C2199.14471,24.6151313 2198.95364,24.8675534 2198.99148,25.1410907 C2199.02932,25.414628 2199.28174,25.6056975 2199.55528,25.5678563 Z M2215.44766,23.7686034 C2218.0839,23.5351574 2220.73829,23.3318303 2223.41193,23.1588899 C2223.68749,23.1410653 2223.89643,22.9032248 2223.87861,22.6276583 C2223.86078,22.3520918 2223.62294,22.1431507 2223.34738,22.1609754 C2220.66585,22.3344261 2218.00357,22.5383574 2215.35946,22.7725013 C2215.08439,22.7968592 2214.88115,23.0395902 2214.90551,23.3146562 C2214.92987,23.5897222 2215.1726,23.7929613 2215.44766,23.7686034 Z M2231.37186,22.7364687 C2234.01409,22.6266062 2236.67537,22.545847 2239.35657,22.4944571 C2239.63266,22.4891653 2239.85219,22.2610589 2239.8469,21.9849673 C2239.84161,21.7088756 2239.6135,21.4893489 2239.33741,21.4946407 C2236.64875,21.5461735 2233.98001,21.6271591 2231.33032,21.737332 C2231.05441,21.7488039 2230.84005,21.9817682 2230.85152,22.2576722 C2230.86299,22.5335761 2231.09596,22.7479406 2231.37186,22.7364687 Z M2247.34064,22.4283551 C2248.10249,22.4302439 2248.86596,22.4344576 2249.63106,22.4410006 C2251.56207,22.4575639 2253.46253,22.4909124 2255.34256,22.541079 C2255.6186,22.548445 2255.84835,22.3306383 2255.85572,22.0545942 C2255.86308,21.7785501 2255.64528,21.5488008 2255.36923,21.5414349 C2253.48315,21.4911066 2251.57666,21.4576523 2249.63962,21.4410372 C2248.87249,21.4344769 2248.107,21.430252 2247.34312,21.4283551 C2247.06698,21.4276715 2246.84257,21.6509729 2246.84188,21.9271145 C2246.8412,22.203256 2247.0645,22.4276684 2247.34064,22.4283551 Z M2263.31598,22.8610696 C2266.01841,23.0069559 2268.67451,23.1895422 2271.28593,23.4084785 C2271.56111,23.4315488 2271.80289,23.2271759 2271.82596,22.9519989 C2271.84903,22.676822 2271.64465,22.4350448 2271.36948,22.4119745 C2268.74814,22.1922064 2266.08215,22.008941 2263.36989,21.8625235 C2263.09415,21.8476381 2262.85855,22.0591032 2262.84366,22.3348441 C2262.82878,22.6105849 2263.04024,22.8461841 2263.31598,22.8610696 Z M2279.23431,24.2025893 C2281.91949,24.5153735 2284.55591,24.8690057 2287.14585,25.263131 C2287.41885,25.3046749 2287.67384,25.117043 2287.71538,24.8440436 C2287.75692,24.5710441 2287.56929,24.3160563 2287.29629,24.2745124 C2284.69475,23.8786215 2282.04675,23.5234358 2279.35001,23.2093055 C2279.07573,23.1773549 2278.82747,23.3738081 2278.79552,23.6480958 C2278.76357,23.9223836 2278.96002,24.1706388 2279.23431,24.2025893 Z M2295.02154,26.612978 C2297.67281,27.1199792 2300.27442,27.6722785 2302.82963,28.2696148 C2303.09852,28.3324744 2303.36746,28.1654516 2303.43032,27.8965589 C2303.49318,27.6276662 2303.32615,27.3587278 2303.05726,27.2958682 C2300.4888,26.695435 2297.87393,26.1403181 2295.20936,25.6307756 C2294.93814,25.578909 2294.67622,25.7567362 2294.62435,26.0279639 C2294.57248,26.2991916 2294.75031,26.5611113 2295.02154,26.612978 Z M2310.54698,30.2489121 C2313.13626,30.9735632 2315.67828,31.7477718 2318.17794,32.5716418 C2318.4402,32.6580824 2318.72289,32.515549 2318.80933,32.2532845 C2318.89577,31.9910201 2318.75323,31.7083388 2318.49097,31.6218982 C2315.97691,30.7932815 2313.42037,30.0146536 2310.81649,29.2859147 C2310.55057,29.2114914 2310.27466,29.3667337 2310.20024,29.6326581 C2310.12581,29.8985825 2310.28106,30.1744888 2310.54698,30.2489121 Z M2325.7041,35.2494869 C2328.20193,36.2053262 2330.66058,37.2145411 2333.08772,38.2783115 C2333.34064,38.3891607 2333.63553,38.2739918 2333.74638,38.0210747 C2333.85722,37.7681576 2333.74206,37.4732667 2333.48914,37.3624176 C2331.04754,36.2923095 2328.57422,35.2770702 2326.06149,34.315533 C2325.80359,34.2168415 2325.51451,34.3459089 2325.41582,34.6038131 C2325.31713,34.8617173 2325.44619,35.1507953 2325.7041,35.2494869 Z M2340.32186,41.6541545 C2342.6939,42.8291415 2345.04382,44.0606849 2347.38475,45.353003 C2347.6265,45.4864622 2347.93067,45.3986749 2348.06413,45.1569246 C2348.19759,44.9151742 2348.1098,44.6110067 2347.86805,44.4775475 C2345.51429,43.1781474 2343.15124,41.9397217 2340.76574,40.7580661 C2340.51829,40.6354932 2340.21833,40.7367245 2340.09575,40.9841725 C2339.97318,41.2316204 2340.07441,41.5315816 2340.32186,41.6541545 Z M2354.28354,49.3497013 C2356.51755,50.7038996 2358.75951,52.119846 2361.03745,53.6118442 C2361.26845,53.763146 2361.57837,53.6985354 2361.72967,53.4675324 C2361.88098,53.2365294 2361.81636,52.9266101 2361.58536,52.7753083 C2359.29792,51.277088 2357.04615,49.8549418 2354.80191,48.494546 C2354.56577,48.3514015 2354.25829,48.4267931 2354.11515,48.6629377 C2353.972,48.8990823 2354.0474,49.2065568 2354.28354,49.3497013 Z M2367.66681,58.0928923 L2368.44807,58.6377301 L2370.03225,59.751995 L2371.65392,60.9048433 L2373.32338,62.1032317 C2373.60618,62.3071447 2373.8914,62.5132449 2374.17925,62.7216775 C2374.40292,62.8836304 2374.71552,62.8336032 2374.87748,62.6099385 C2375.03943,62.3862739 2374.9894,62.0736691 2374.76574,61.9117162 L2373.0648,60.6852727 L2371.4167,59.5077973 C2370.875,59.1226923 2370.34037,58.7445869 2369.81111,58.3723192 L2368.23771,57.2718676 C2368.01099,57.11422 2367.6994,57.1702139 2367.54175,57.3969336 C2367.3841,57.6236533 2367.44009,57.9352447 2367.66681,58.0928923 Z M2380.62775,67.4463616 L2387.06019,72.2041027 C2387.28239,72.3680543 2387.59543,72.3208317 2387.75938,72.098628 C2387.92333,71.8764243 2387.87611,71.5633836 2387.65391,71.399432 L2381.22196,66.6420509 C2380.99985,66.4779646 2380.68678,66.5249975 2380.5227,66.7471018 C2380.35861,66.9692061 2380.40564,67.2822754 2380.62775,67.4463616 Z M2393.52544,76.9282451 L2395.22905,78.1507213 L2396.88126,79.3242452 C2397.15287,79.5161056 2397.42274,79.7061905 2397.69107,79.8946321 L2399.28405,81.0066197 C2399.54698,81.1890167 2399.80877,81.3700347 2400.0696,81.5498059 C2400.29698,81.7065131 2400.60833,81.649229 2400.76504,81.4218582 C2400.92175,81.1944875 2400.86446,80.8831307 2400.63709,80.7264235 L2399.85384,80.1848288 L2398.26533,79.0759604 L2396.63956,77.9275803 L2394.96703,76.7333603 C2394.68385,76.5301521 2394.39833,76.3247702 2394.11026,76.1170828 C2393.88626,75.9555889 2393.57376,76.0062571 2393.41227,76.2302534 C2393.25077,76.4542497 2393.30144,76.7667512 2393.52544,76.9282451 Z M2406.7271,85.9964333 C2409.02797,87.4802818 2411.29126,88.8813657 2413.54547,90.2136298 C2413.7832,90.3541296 2414.08981,90.2753109 2414.23031,90.0375832 C2414.37081,89.7998556 2414.29199,89.4932417 2414.05427,89.3527419 C2411.81156,88.0272748 2409.55929,86.6330159 2407.26907,85.1560392 C2407.03701,85.0063767 2406.72755,85.0731799 2406.57789,85.3052483 C2406.42823,85.5373168 2406.49503,85.8467708 2406.7271,85.9964333 Z M2420.5505,94.1446571 C2422.92992,95.4077565 2425.3187,96.6014648 2427.73087,97.7298395 C2427.98099,97.846846 2428.27862,97.7389295 2428.39562,97.4888013 C2428.51263,97.2386731 2428.40471,96.9410517 2428.15458,96.8240453 C2425.75786,95.7028916 2423.38412,94.5167003 2421.01937,93.2613923 C2420.77546,93.1319162 2420.47278,93.2246806 2420.3433,93.4685874 C2420.21383,93.7124942 2420.30659,94.0151809 2420.5505,94.1446571 Z M2435.09027,100.9381 C2437.56055,101.937321 2440.06478,102.873246 2442.61129,103.746843 C2442.87249,103.83645 2443.15688,103.697346 2443.24648,103.436146 C2443.33609,103.174946 2443.19699,102.890562 2442.93579,102.800955 C2440.40635,101.933214 2437.91895,101.003581 2435.46525,100.011068 C2435.20926,99.9075192 2434.91779,100.0311 2434.81425,100.287093 C2434.7107,100.543086 2434.83428,100.834551 2435.09027,100.9381 Z M2450.28266,106.151973 C2452.82602,106.876236 2455.41517,107.542816 2458.05543,108.151624 C2458.32452,108.213671 2458.59295,108.045836 2458.65499,107.776754 C2458.71704,107.507673 2458.54921,107.23924 2458.28012,107.177194 C2455.65635,106.572187 2453.0836,105.90983 2450.55654,105.190209 C2450.29096,105.114579 2450.01435,105.268568 2449.93872,105.534152 C2449.86309,105.799736 2450.01708,106.076344 2450.28266,106.151973 Z M2465.91385,109.764703 C2468.50451,110.232992 2471.14491,110.64953 2473.83861,111.013905 C2474.11226,111.050922 2474.36411,110.859092 2474.40112,110.585442 C2474.43814,110.311792 2474.24631,110.059947 2473.97266,110.022931 C2471.29356,109.660531 2468.66777,109.246298 2466.09173,108.780651 C2465.81999,108.731531 2465.55988,108.912 2465.51076,109.183738 C2465.46164,109.455477 2465.64211,109.715584 2465.91385,109.764703 Z M2481.82585,111.926083 C2484.44117,112.171512 2487.10584,112.371023 2489.82231,112.52415 C2490.09801,112.539691 2490.33411,112.328787 2490.34966,112.053083 C2490.3652,111.777378 2490.15429,111.541276 2489.87859,111.525735 C2487.17445,111.373303 2484.52216,111.17472 2481.91928,110.930457 C2481.64434,110.904657 2481.40055,111.10662 2481.37475,111.381554 C2481.34895,111.656488 2481.55091,111.900282 2481.82585,111.926083 Z M2497.84435,112.837674 C2498.62235,112.855069 2499.40447,112.868894 2500.19075,112.879137 C2502.09054,112.903886 2503.97769,112.909711 2505.85251,112.896751 C2506.12865,112.894843 2506.35095,112.669443 2506.34905,112.393307 C2506.34713,112.117172 2506.12173,111.894867 2505.8456,111.896775 C2503.97744,111.909689 2502.09693,111.903885 2500.20378,111.879222 C2499.4206,111.869019 2498.64159,111.855249 2497.8667,111.837924 C2497.59063,111.831752 2497.36182,112.05055 2497.35565,112.326623 C2497.34948,112.602696 2497.56827,112.831502 2497.84435,112.837674 Z M2513.86779,112.724624 C2516.56373,112.62687 2519.23384,112.489224 2521.87918,112.312124 C2522.1547,112.293678 2522.36311,112.055367 2522.34466,111.779841 C2522.32621,111.504316 2522.0879,111.295911 2521.81238,111.314357 C2519.17724,111.490775 2516.51731,111.627895 2513.83155,111.72528 C2513.55559,111.735287 2513.33999,111.967109 2513.35,112.24307 C2513.36,112.519031 2513.59182,112.73463 2513.86779,112.724624 Z M2529.85491,111.651729 C2532.53292,111.386911 2535.18541,111.080595 2537.81376,110.73323 C2538.08752,110.69705 2538.28012,110.445792 2538.24394,110.17203 C2538.20776,109.898268 2537.9565,109.70567 2537.68274,109.741851 C2535.06525,110.087781 2532.42362,110.392842 2529.7565,110.656583 C2529.4817,110.683757 2529.28096,110.928557 2529.30813,111.203359 C2529.33531,111.478161 2529.58011,111.678903 2529.85491,111.651729 Z M2545.75665,109.546955 C2548.4073,109.104898 2551.03364,108.620052 2553.63748,108.092834 C2553.90813,108.038034 2554.08311,107.774204 2554.02831,107.503554 C2553.97351,107.232904 2553.70968,107.057923 2553.43903,107.112723 C2550.84646,107.637659 2548.23144,108.120417 2545.59215,108.560579 C2545.31977,108.606004 2545.13579,108.863637 2545.18121,109.136017 C2545.22664,109.408398 2545.48427,109.592381 2545.75665,109.546955 Z M2561.47507,106.362536 C2564.08519,105.73802 2566.67354,105.069957 2569.24265,104.358628 C2569.50878,104.284943 2569.66479,104.009468 2569.5911,103.743339 C2569.51742,103.477209 2569.24194,103.321202 2568.97581,103.394887 C2566.418,104.103089 2563.84103,104.768214 2561.24237,105.389987 C2560.97381,105.454245 2560.80819,105.724049 2560.87245,105.992611 C2560.93671,106.261173 2561.20651,106.426794 2561.47507,106.362536 Z M2576.93186,102.083403 C2579.48058,101.280411 2582.01211,100.433964 2584.53006,99.5439834 C2584.79042,99.4519589 2584.92688,99.1662967 2584.83485,98.905939 C2584.74283,98.6455814 2584.45717,98.5091205 2584.19681,98.6011451 C2581.68965,99.4873104 2579.16904,100.330107 2576.63137,101.12962 C2576.36799,101.2126 2576.22175,101.493379 2576.30473,101.756759 C2576.3877,102.020139 2576.66848,102.166383 2576.93186,102.083403 Z M2592.05751,96.7391148 C2594.53649,95.7678594 2597.00551,94.7535556 2599.47013,93.6952787 C2599.72387,93.5863262 2599.84125,93.2923059 2599.73229,93.0385659 C2599.62334,92.7848259 2599.32932,92.6674525 2599.07558,92.776405 C2596.62072,93.8304896 2594.16161,94.8407202 2591.69271,95.8080279 C2591.4356,95.9087639 2591.30883,96.1988575 2591.40957,96.4559701 C2591.51031,96.7130826 2591.8004,96.8398508 2592.05751,96.7391148 Z M2606.78685,90.4199384 C2609.18653,89.3023195 2611.58765,88.1418581 2613.99973,86.9355489 C2614.24671,86.8120322 2614.3468,86.5116867 2614.22328,86.2647085 C2614.09976,86.0177303 2613.79942,85.9176451 2613.55244,86.0411618 C2611.14856,87.2433726 2608.75579,88.3997938 2606.36466,89.513432 C2606.11433,89.6300171 2606.00591,89.9274564 2606.1225,90.1777813 C2606.23908,90.4281061 2606.53652,90.5365235 2606.78685,90.4199384 Z M2621.12484,83.2577269 C2623.44088,82.0260881 2625.77711,80.7496353 2628.1537,79.4192012 C2628.39466,79.2843123 2628.48064,78.9796302 2628.34575,78.7386746 C2628.21086,78.497719 2627.90618,78.4117349 2627.66523,78.5466237 C2625.29478,79.8736209 2622.96485,81.1466304 2620.65531,82.3748071 C2620.4115,82.5044625 2620.31896,82.8072173 2620.44861,83.0510289 C2620.57827,83.2948405 2620.88102,83.3873823 2621.12484,83.2577269 Z M2635.11461,75.4378957 L2637.03008,74.3152489 L2638.98209,73.1606669 L2640.9803,71.968714 C2641.31772,71.7666389 2641.65747,71.5627803 2641.99975,71.3570247 C2642.23642,71.2147537 2642.31295,70.9075598 2642.17068,70.670888 C2642.02841,70.4342161 2641.72121,70.3576891 2641.48454,70.4999601 L2639.46274,71.71076 L2637.49206,72.8814377 L2635.56284,74.0174215 C2635.24423,74.2041626 2634.92694,74.3896843 2634.61077,74.5740996 C2634.37224,74.7132316 2634.29166,75.0193877 2634.4308,75.2579184 C2634.56993,75.4964491 2634.87608,75.5770277 2635.11461,75.4378957 Z M2648.84014,67.2026814 L2655.65505,63.0130724 C2655.89018,62.8682692 2655.96341,62.5602716 2655.81861,62.3251405 C2655.6738,62.0900093 2655.36581,62.016784 2655.13068,62.1615871 L2648.31793,66.3498639 C2648.08243,66.494068 2648.00842,66.8018782 2648.15262,67.0373772 C2648.29683,67.2728763 2648.60464,67.3468855 2648.84014,67.2026814 Z M2662.47417,58.8260903 L2665.35986,57.0707792 L2668.03602,55.4580341 L2669.31804,54.6918374 C2669.55526,54.5504846 2669.63298,54.2435896 2669.49163,54.0063682 C2669.35027,53.7691467 2669.04338,53.6914298 2668.80616,53.8327826 L2666.86784,54.9928952 L2664.84222,56.2151754 L2661.95301,57.9726319 C2661.71733,58.1165465 2661.64294,58.4242656 2661.78686,58.6599416 C2661.93077,58.8956176 2662.23849,58.9700049 2662.47417,58.8260903 Z M2676.20817,50.6665114 C2678.62883,49.2846691 2680.94391,48.0015258 2683.19414,46.7973945 C2683.43761,46.6671076 2683.52937,46.364114 2683.39908,46.1206392 C2683.2688,45.8771645 2682.9658,45.7854076 2682.72233,45.9156945 C2680.46371,47.1243119 2678.1407,48.4118507 2675.71241,49.7980535 C2675.47259,49.9349547 2675.38916,50.2403459 2675.52606,50.4801639 C2675.66296,50.719982 2675.96835,50.8034126 2676.20817,50.6665114 Z M2690.29646,43.1561517 C2692.75893,41.952937 2695.16705,40.8419463 2697.54041,39.8171595 C2697.79393,39.7076933 2697.9107,39.4134358 2697.80124,39.1599171 C2697.69177,38.9063983 2697.39751,38.7896207 2697.144,38.8990869 C2694.7559,39.9302371 2692.33362,41.0477607 2689.85744,42.2576725 C2689.60934,42.3789034 2689.50648,42.6783119 2689.62771,42.9264201 C2689.74894,43.1745283 2690.04835,43.2773826 2690.29646,43.1561517 Z M2704.96247,36.8542973 C2707.50414,35.9255956 2710.02264,35.0965579 2712.53039,34.3660428 C2712.79551,34.2888119 2712.94783,34.0112795 2712.8706,33.7461569 C2712.79337,33.4810343 2712.51583,33.328718 2712.25071,33.4059489 C2709.72119,34.1428055 2707.18154,34.9788066 2704.61928,35.9150343 C2704.35991,36.0098059 2704.22647,36.2968946 2704.32124,36.5562649 C2704.41602,36.8156352 2704.7031,36.9490689 2704.96247,36.8542973 Z M2720.26126,32.4211464 C2722.87327,31.8691751 2725.48609,31.4247413 2728.10843,31.0889651 C2728.38233,31.0538929 2728.57595,30.8034165 2728.54087,30.5295104 C2728.5058,30.2556043 2728.25532,30.0619912 2727.98142,30.0970634 C2725.3321,30.4362945 2722.69269,30.8852518 2720.05451,31.4427535 C2719.78433,31.4998471 2719.61159,31.7651514 2719.66869,32.0353271 C2719.72578,32.3055029 2719.99109,32.47824 2720.26126,32.4211464 Z M2736.03955,30.353562 C2738.68048,30.181379 2741.3371,30.0744868 2744.00941,30.0328878 C2744.28552,30.0285898 2744.50587,29.801275 2744.50163,29.525166 C2744.49727,29.2490571 2744.26996,29.0287109 2743.99385,29.033009 C2741.30506,29.0748643 2738.63194,29.1824206 2735.97449,29.3556806 C2735.69893,29.3736464 2735.49011,29.6115939 2735.50808,29.8871512 C2735.52604,30.1627085 2735.76399,30.3715278 2736.03955,30.353562 Z M2751.99165,30.1013011 C2754.63247,30.1869449 2757.28829,30.3348969 2759.9591,30.5451612 C2760.23439,30.566834 2760.47513,30.361236 2760.4968,30.0859455 C2760.51847,29.8106549 2760.31288,29.5699186 2760.03759,29.5482459 C2757.35149,29.3367784 2754.68031,29.1879707 2752.02407,29.1018266 C2751.74807,29.0928758 2751.51707,29.3093597 2751.50812,29.585357 C2751.49917,29.8613542 2751.71566,30.0923503 2751.99165,30.1013011 Z M2767.90072,31.3485695 C2770.51897,31.6715478 2773.15133,32.0531095 2775.7978,32.4932587 C2776.0702,32.5385631 2776.32775,32.3544653 2776.37306,32.0820646 C2776.41836,31.809664 2776.23426,31.5521131 2775.96186,31.5068087 C2773.30162,31.0643682 2770.65538,30.6807947 2768.02315,30.3560921 C2767.74908,30.3222844 2767.4995,30.5170514 2767.4657,30.7911165 C2767.43189,31.0651815 2767.62666,31.3147617 2767.90072,31.3485695 Z M2783.63297,33.9589844 C2786.2141,34.4948517 2788.80837,35.0853039 2791.4158,35.7303445 C2791.68386,35.7966591 2791.95493,35.6331109 2792.02124,35.3650494 C2792.08756,35.0969879 2791.92401,34.8259225 2791.65595,34.7596078 C2789.03634,34.1115541 2786.42977,33.5183045 2783.83625,32.9798628 C2783.56587,32.9237298 2783.30118,33.0974089 2783.24505,33.3677859 C2783.18892,33.6381628 2783.3626,33.9028514 2783.63297,33.9589844 Z M2799.13697,37.7890296 C2801.67132,38.513049 2804.21785,39.2876358 2806.77656,40.1127927 C2807.03937,40.1975475 2807.32113,40.0532019 2807.40588,39.7903878 C2807.49064,39.5275737 2807.34629,39.2458135 2807.08348,39.1610587 C2804.51413,38.332472 2801.95686,37.5546173 2799.41167,36.8274977 C2799.14615,36.7516432 2798.86941,36.9053973 2798.79355,37.170917 C2798.7177,37.4364367 2798.87145,37.7131751 2799.13697,37.7890296 Z M2814.35145,42.6906131 C2816.83211,43.5786107 2819.32401,44.5132656 2821.82715,45.4945798 C2822.08424,45.5953686 2822.37436,45.4686599 2822.47515,45.2115681 C2822.57593,44.9544762 2822.44923,44.6643566 2822.19213,44.5635678 C2819.67978,43.5786381 2817.17856,42.6404873 2814.68847,41.7491175 C2814.42849,41.6560505 2814.14228,41.7913659 2814.04921,42.0513527 C2813.95615,42.3113395 2814.09146,42.5975462 2814.35145,42.6906131 Z M2829.24241,48.5241412 C2831.66809,49.5549028 2834.10414,50.6287186 2836.55055,51.74559 C2836.80175,51.8602726 2837.09836,51.7496016 2837.21304,51.4983994 C2837.32773,51.2471972 2837.21706,50.9505891 2836.96585,50.8359065 C2834.51146,49.7153906 2832.06734,48.6380176 2829.6335,47.6037893 C2829.37935,47.4957924 2829.08578,47.6142715 2828.97778,47.8684197 C2828.86978,48.1225679 2828.98826,48.4161444 2829.24241,48.5241412 Z M2843.73879,55.1366598 C2846.10914,56.2906568 2848.48907,57.4844144 2850.87855,58.7179335 C2851.12393,58.8446034 2851.42553,58.7483731 2851.5522,58.5029972 C2851.67887,58.2576212 2851.58264,57.9560185 2851.33726,57.8293486 C2848.94086,56.5922574 2846.55394,55.3949914 2844.17652,54.2375518 C2843.92823,54.1166768 2843.62897,54.2199605 2843.5081,54.4682423 C2843.38722,54.7165242 2843.49051,55.0157848 2843.73879,55.1366598 Z M2857.94358,62.4657855 C2860.25978,63.727233 2862.58482,65.0254596 2864.91871,66.3604661 C2865.15841,66.4975761 2865.46387,66.4144116 2865.60098,66.1747129 C2865.73809,65.9350142 2865.65493,65.6295504 2865.41523,65.4924404 C2863.07533,64.1539943 2860.74421,62.8523746 2858.42187,61.5875819 C2858.17936,61.4555066 2857.8757,61.545031 2857.74362,61.7875402 C2857.61155,62.0300495 2857.70107,62.3337102 2857.94358,62.4657855 Z M2871.82132,70.4006338 C2874.08566,71.7558695 2876.3582,73.1452153 2878.63894,74.568672 C2878.8732,74.7148791 2879.18163,74.6434975 2879.32784,74.4092367 C2879.47404,74.174976 2879.40266,73.8665459 2879.1684,73.7203388 C2876.88242,72.2936071 2874.60458,70.9010201 2872.33488,69.5425783 C2872.09793,69.4007635 2871.79089,69.4778821 2871.64907,69.7148276 C2871.50726,69.9517731 2871.58438,70.258819 2871.82132,70.4006338 Z"/></svg>