<?xml version="1.0" encoding="UTF-8"?>
<svg width="1080px" height="1080px" viewBox="0 0 1080 1080" version="1.1" xmlns="http://www.w3.org/2000/svg" xmlns:xlink="http://www.w3.org/1999/xlink">
    <title>my-rituals-phase-logo-secret-dark-01</title>
    <g id="my-rituals-phase-logo-secret-dark-01" stroke="none" stroke-width="1" fill="none" fill-rule="evenodd">
        <g id="brand-/-logo-/-myrituals_crm_tier_logo_01" transform="translate(80.000000, 80.000000)" fill="#1A1919">
            <path d="M278.19283,106.229806 C369.889964,-62.8094431 634.534398,-20.7152913 670.888123,166.044853 L672.661898,175.772974 C683.251906,236.963347 664.230293,302.180598 623.732763,348.925808 L620.938384,352.084094 L618.222809,355.015964 L620.033657,354.50187 C690.038787,335.37291 768.345291,350.432983 825.466515,394.981588 L828.937011,397.745859 L832.286615,400.527234 L835.249707,403.0388 L833.672249,406.58345 C786.804755,511.897699 633.610471,534.044128 558.287317,447.568864 L556.028823,444.915127 L552.846245,441.087626 L556.546462,437.754945 C612.440424,387.412832 699.098677,376.132716 766.216487,409.974011 L769.730688,411.796828 L775.79756,415.03287 L771.021347,419.971384 C766.320855,424.831603 761.228216,429.294655 755.796169,433.316206 L751.659317,436.248894 L749.256989,437.87865 L746.605717,436.693309 C701.672098,416.604216 650.138181,418.726365 607.242401,441.90662 L603.688075,443.887029 L603.128229,444.211071 L605.138422,445.682483 C662.230436,486.327783 748.79343,472.40307 790.297973,415.939164 L792.210213,413.261308 L793.08483,411.937754 L790.280713,410.099727 C739.909802,377.879015 674.110631,370.008401 617.337603,389.439088 L613.391646,390.83905 L609.476825,392.327828 C592.016897,399.010833 575.594058,408.099083 560.722562,419.287362 L556.308168,422.706542 L552.337203,425.954535 L547.543333,430.098088 C544.432378,432.874353 541.410179,435.74739 538.481179,438.712873 L536.997117,440.248227 L538.649858,442.569208 C596.466295,522.073491 720.341444,537.103844 795.600331,473.481516 L798.236153,471.203341 L800.830482,468.85971 C922.788313,366.636191 847.168565,157.656048 689.186311,155.005508 L684.373879,154.988667 L680.343157,155.027796 L679.299257,151.145233 C677.828398,145.674693 676.135922,140.266625 674.226176,134.934292 L672.244169,129.627696 L669.622996,122.889609 L676.863386,122.569854 C872.284632,113.939529 971.099202,370.132797 821.177272,494.239312 C769.7475,539.83622 695.324687,556.192377 629.107815,539.408499 L625.064239,538.339474 L621.790997,537.400143 L624.630692,540.049517 C676.593455,589.374601 704.545312,663.043763 696.432164,734.644442 L695.902001,738.93779 L695.309586,743.063255 L694.673864,747.203654 L690.481142,747.455771 C620.988256,751.634516 553.143667,708.6781 527.009402,644.116697 C513.196923,610.712222 510.523119,573.805949 519.312174,538.833773 L520.470531,534.472718 L521.974999,529.09985 L527.239368,530.986373 C558.741784,542.275475 586.680018,561.614255 608.318378,587.065955 L611.366421,590.743288 L614.313064,594.487218 L617.072684,598.166645 C636.333065,624.516059 648.382349,655.390955 652.065133,687.750987 L652.534205,692.383623 L653.214441,700.049695 L645.833567,697.801536 C638.668537,695.619121 631.726117,692.776727 625.095561,689.312838 L621.155366,687.160234 L619.012451,685.937234 L618.607869,683.508341 C614.691347,659.995629 605.425529,637.717645 591.59141,618.420814 L588.763907,614.601714 L585.992591,611.078482 L582.666375,607.106414 C578.220107,601.970566 573.444427,597.13018 568.403645,592.642937 L564.574356,589.34462 L560.588214,586.129672 L556.516357,583.033413 L552.415382,580.119777 L548.223166,577.340333 L546.661393,576.375022 L546.62422,577.345898 C544.468314,643.079472 596.008998,704.373705 661.184621,713.673519 L665.035772,714.151273 L665.048047,713.882563 C665.347731,698.745867 663.950223,683.633473 660.89316,668.851383 L659.669043,663.32418 L658.289784,657.83153 L656.886905,652.813734 L655.619866,648.695853 C639.712344,598.886018 605.029373,557.239569 559.038951,532.505578 L555.069398,530.427144 L551.16662,528.489514 L546.191523,526.173474 C536.306866,521.732401 526.082938,518.089921 515.618414,515.280085 L514.672535,515.033935 L513.431876,518.23123 C493.23864,572.069552 501.441547,635.679431 534.615991,682.544045 L536.970961,685.786166 L539.351701,688.901779 C673.347032,858.215509 934.589563,694.216919 844.12141,502.434393 L841.271801,496.614611 L839.586659,493.294938 L842.199867,490.639142 C846.228088,486.545271 850.09434,482.296981 853.789955,477.904047 L857.42837,473.46326 L862.175574,467.513134 L865.998957,474.091714 C883.464723,504.143619 893.211448,538.034462 894.373586,572.800925 C900.030608,813.690672 565.309906,874.409314 483.178805,653.780709 L480.76791,647.008771 L478.5015,640.003351 L477.16525,635.242902 C476.299908,632.015322 475.512706,628.774721 474.803351,625.523776 C458.829242,701.841242 405.195967,770.321241 330.109893,798.026794 L326.066995,799.471827 L322.234149,800.797776 L320.011164,797.413545 C259.56711,705.394605 315.219429,570.865524 422.375362,547.035781 L425.63821,546.34771 L430.878724,545.302523 L431.784488,550.55485 C435.302759,570.95652 435.465566,591.778875 432.269868,612.26011 L431.400973,617.372872 L430.394171,622.448236 L429.420608,626.74869 C418.697434,671.667911 391.940444,711.12101 354.215019,737.768325 L350.530101,740.306875 L344.233947,744.536256 L342.551979,737.154139 C341.049962,730.561821 340.097732,723.859782 339.7036,717.116661 L339.512774,712.052689 L339.469148,709.478735 L341.49847,707.887552 C376.104733,680.752922 397.559781,640.599858 401.159034,597.323363 L401.444009,593.257343 L401.603625,589.446182 L398.889915,590.867866 C372.754893,604.909178 351.933384,627.159182 339.700753,654.204297 L338.15417,657.758834 L336.762599,661.220793 C325.168568,691.257991 324.76065,724.307876 335.369383,754.437592 L336.752841,758.188168 L337.615506,760.325665 C344.122207,756.962672 350.427439,753.25802 356.501723,749.233595 L361.013672,746.155661 L365.436122,742.959906 L369.855968,739.580291 L372.953012,737.154627 C430.617641,690.978433 458.20663,611.147389 442.314653,539.241154 L441.421625,535.396852 L440.531204,531.933078 L437.620685,532.302198 C375.185844,540.766017 319.565073,584.39306 296.312244,642.991219 L295.006828,646.388349 L293.774324,649.817836 C224.835638,852.974536 503.527905,982.531928 615.948939,804.224815 L619.304213,798.727093 L621.303978,795.341541 L625.113641,796.344493 C630.579232,797.783394 636.100241,799.000894 641.663074,799.994186 L647.239344,800.912639 L654.340123,801.98427 L651.104726,808.377989 C562.521006,983.435118 290.963933,943.290194 255.195319,752.784135 L254.184026,746.965267 C241.494062,680.147876 264.642293,609.02196 312.015491,560.961575 L315.561399,557.442588 L311.644088,558.643162 C241.023996,579.367493 160.892302,565.264305 102.642595,520.086062 L99.1741222,517.338108 L95.8248166,514.57073 L92.7319622,511.961645 L94.5112979,508.332393 C128.711919,438.574512 214.502239,401.014542 289.16862,422.93884 C318.796609,431.202608 345.56761,447.378374 366.611228,469.682306 L369.578187,472.910077 L373.084871,476.826078 L369.115811,480.275376 C350.021058,496.869604 327.776335,509.46716 303.70887,517.31775 C292.117202,521.11331 280.180353,523.766628 268.076721,525.238765 C255.37531,526.801482 242.554607,527.090875 229.75703,526.100413 L224.274186,525.597552 L218.833897,524.940113 L213.73889,524.181512 C196.728321,521.409782 180.185934,516.326547 164.572166,509.079162 L159.402601,506.583415 L152.848146,503.295281 L158.12939,498.216165 C162.803011,493.721416 167.827966,489.608667 173.155382,485.91632 L177.206892,483.226485 L179.524497,481.753644 L182.050634,482.832904 C225.985804,501.603639 275.850202,499.469252 317.786102,477.514859 L321.4654,475.526298 L322.052796,475.177271 L320.138042,473.798467 C264.176484,434.661509 180.27004,447.223524 138.286452,501.013989 L136.288,503.648886 L135.445923,504.805234 L138.008972,506.47167 C193.415368,541.504444 266.827515,546.603905 326.894234,519.714842 L330.709854,517.955056 L334.410713,516.146826 L338.025453,514.281546 L343.607753,511.289764 C347.974734,508.857388 352.245175,506.257673 356.386495,503.512955 L360.483568,500.72073 L364.53346,497.806502 L369.474185,494.03836 C375.90377,488.98002 382.023154,483.54359 387.799894,477.758548 L389.161779,476.349526 L387.532424,474.076199 C329.261805,394.763754 205.195991,380.376844 130.157874,444.462171 L127.530015,446.756612 L124.943992,449.116352 C4.31708219,551.245793 79.7590509,758.908004 236.484838,762.103805 L241.258866,762.137743 L245.348922,762.112781 L246.337822,766.070524 C247.564946,770.981679 249.050847,775.966417 250.795808,781.074509 L252.627134,786.225563 L255.107545,792.946042 L247.93089,793.200843 C54.721955,800.060548 -43.0678806,546.925422 104.139205,423.016045 C153.93585,377.956686 226.739889,360.233761 292.150004,375.045465 L296.228234,376.013606 L298.635912,376.635248 L296.080018,374.102375 C247.326028,324.683313 221.974873,253.09173 230.052244,184.087599 L230.600698,179.778434 L231.223165,175.563284 L231.8823,171.387708 L236.116384,171.188648 C247.865225,170.636291 259.633975,171.301051 271.29186,173.180275 L276.280927,174.060004 L281.7884,175.211431 L284.902474,175.889892 C374.314992,196.370112 432.05628,295.196602 406.283238,382.703981 L405.350221,385.751832 L403.713597,390.901704 L398.620158,389.061625 C364.999831,376.915792 335.510177,355.618182 313.434726,327.594506 L310.597636,323.901299 L307.850344,320.135648 L305.074507,316.119703 C288.510375,291.475565 278.014462,263.298295 274.416735,233.882434 L273.881128,228.968715 L273.137398,221.200289 L280.607911,223.524092 C287.80103,225.761608 294.765235,228.664452 301.410223,232.192998 L305.358187,234.384893 L307.452974,235.599644 L307.868024,237.980413 C311.644821,259.644482 319.958212,280.248215 332.203119,298.405431 L334.886983,302.258311 L337.701291,306.052456 L340.617551,309.756157 C350.261789,321.637701 361.573646,332.038294 374.184777,340.646336 L378.436104,343.448865 L379.19582,343.915852 L379.209289,343.690167 C379.621162,329.570616 377.814277,315.473691 373.854859,301.911522 L372.45542,297.411307 L371.045299,293.358123 C366.560376,281.076008 360.291736,269.528991 352.487202,259.12972 L349.48899,255.2846 L346.639168,251.879642 L344.0895,249.005025 C323.802683,226.770541 296.726299,211.993931 267.22273,206.853262 L263.361033,206.237565 L261.258362,205.963245 L261.213266,207.560126 C258.993852,295.259112 320.460377,378.608299 404.703803,403.113168 L408.276825,404.113413 L410.935009,404.790112 L412.178138,401.793674 C437.75674,337.691433 421.49252,259.707015 372.551798,211.074529 L369.849953,208.451217 L367.083625,205.887683 L364.25479,203.38548 L360.533658,200.154129 C358.060018,198.065859 355.529094,196.046505 352.961294,194.110585 L349.084488,191.271096 L345.076884,188.502143 L340.308365,185.382886 C338.198456,184.050923 336.060299,182.764261 333.917199,181.535435 L330.701758,179.737142 L325.633367,177.079418 L321.015319,174.725137 C172.04295,101.333588 8.13071331,267.69055 82.2678764,414.549348 L84.5875827,418.993379 L86.3806028,422.318189 L83.7592549,425.041815 C79.9239163,429.026798 76.2350648,433.140516 72.6925521,437.383143 L69.1988137,441.668746 L64.5703922,447.484331 L60.6868148,441.149829 C-26.6104166,298.759348 97.6605437,106.192864 262.633418,124.30814 L267.709973,124.931058 L272.514352,125.644138 L276.788195,126.151639 C366.733604,137.835887 433.266339,209.427432 451.919214,291.865336 C463.322717,231.963645 497.478873,176.25878 548.884351,141.73996 L552.676431,139.252248 L561.439599,133.788881 C570.861756,128.122016 580.675959,123.134557 590.806896,118.863773 L596.922865,116.387601 L600.762575,114.896359 L603.096857,118.282604 C642.823607,175.912549 639.700845,258.340791 596.332964,313.280699 L593.9712,316.197315 L591.532926,319.056953 L587.843661,323.271939 C584.026931,327.48851 580.000302,331.509667 575.751008,335.343876 L571.427018,339.116082 L567.016636,342.708093 L563.187875,345.624295 C546.152861,358.213861 526.886022,367.459944 506.414681,372.882959 L501.669611,374.06634 L496.439374,375.290159 L495.381755,370.037659 C480.996053,298.59335 512.188774,221.419207 571.885919,179.741216 L575.054101,177.580635 L581.13177,173.533016 L582.97597,180.585239 C584.816093,187.621869 586.019012,194.806024 586.571829,202.051196 L586.825403,206.404928 L586.931787,209.049825 L584.846503,210.687656 C549.548639,238.411421 527.968672,279.636225 525.001968,323.854784 L524.78368,327.882607 L524.669703,331.684981 L525.345862,331.355728 C535.534382,326.083735 545.005336,319.549501 553.515843,311.928477 L557.103693,308.596297 L560.190727,305.525121 L563.258033,302.270022 L565.525134,299.796014 C598.381543,262.925768 607.588692,206.794482 589.085914,161.221006 L587.750012,158.058966 L587.02457,156.489941 L585.233552,157.423076 C506.579837,198.967402 463.857491,295.72451 485.740454,381.763989 L486.703615,385.392897 L487.531419,388.274805 L489.788388,388.003118 C577.547782,376.263137 646.973196,293.410145 642.900612,205.031948 L642.71333,201.715304 L642.463509,198.47432 C633.782278,29.2003579 402.65585,-29.4554176 312.893874,112.012033 L310.217459,116.360273 L308.189386,119.75762 L304.366916,118.70781 C298.827507,117.186456 293.229804,115.887791 287.58738,114.814773 L281.930551,113.817081 L274.713721,112.643375 L278.19283,106.229806 Z M319.583405,394.550072 C250.942113,366.280094 166.100546,380.957368 110.989589,430.820983 C-24.6435768,544.992196 58.8932748,775.097511 231.415448,782.766202 L236.670496,782.930152 L240.463003,782.940846 L239.197779,779.067896 L238.39236,776.425719 L237.631502,773.797785 L237.279722,772.483918 L236.258518,772.475704 C73.3403603,769.16767 -6.519817,558.238703 110.605984,447.995628 L114.215664,444.686066 L118.02405,441.374478 C197.740237,367.004912 335.87805,382.120831 398.162459,471.065325 L402.479703,477.448919 L399.655307,480.451807 C393.768124,486.711042 387.512419,492.611752 380.890835,498.147327 L375.856086,502.230442 L370.739006,506.131366 L366.519514,509.169629 C362.207296,512.191551 357.779985,515.045519 353.216573,517.742221 L348.607017,520.386896 L342.879475,523.45659 L339.142341,525.38541 C273.106919,558.56485 189.872289,553.503154 128.658799,512.781416 L125.217667,510.438345 L121.085138,507.558684 L123.842389,503.349746 C168.049529,435.867653 268.78287,419.93835 331.978691,469.659099 L334.589875,471.768827 L340.100737,476.34063 L334.032867,480.14691 C288.320484,508.821574 231.674281,513.869287 181.689947,493.912232 L180.573619,493.445773 L179.092446,494.434871 C177.468437,495.560446 175.875163,496.728738 174.314278,497.938449 L171.99745,499.783915 L171.023775,500.593416 L173.910855,501.880648 C183.870496,506.141358 194.193479,509.485611 204.735529,511.869758 L210.024142,512.98162 L215.345259,513.932253 L220.225338,514.66041 L225.447932,515.290126 C239.199615,516.748091 253.07493,516.631913 266.810066,514.942018 C278.246047,513.55108 289.517763,511.045608 300.469115,507.459716 C318.541139,501.564782 335.522746,492.839836 350.787728,481.639508 L354.907873,478.523767 L358.171598,475.893073 L355.597448,473.259869 C338.606893,456.341031 317.973792,443.495196 295.230745,435.686364 L290.654458,434.192043 L286.298405,432.909859 C219.718296,413.36038 143.400864,444.477774 108.695238,503.870907 L106.994871,506.864023 L105.704087,509.255653 L105.845198,509.376573 C169.089313,560.479392 261.213288,572.146065 335.562672,538.793831 L339.459133,536.996851 L343.321258,535.116554 L348.557167,544.056202 C285.499108,586.389674 251.165192,666.363454 263.738808,741.310928 L264.431093,745.18282 C293.256117,925.346531 541.43112,968.995897 633.761426,818.155868 L636.511225,813.525366 L638.498023,809.954577 L634.005609,809.08476 L631.105616,808.465651 L628.214129,807.807563 L626.233027,807.309223 L624.718925,809.806912 C508.192656,994.623575 222.733399,866.700232 279.993624,659.256852 L281.834213,652.946589 L283.931922,646.45886 C307.181915,579.463286 369.816246,529.473106 440.133422,521.536635 L443.907582,521.151839 L448.183232,520.762534 L449.376907,524.875223 C471.862995,602.348846 444.420049,691.015441 382.545206,742.723624 L379.422842,745.278012 L376.234329,747.775259 L371.710547,751.234203 C362.458053,758.113817 352.662831,764.231857 342.421944,769.529051 L337.264811,772.10897 L332.456069,774.433969 L330.255553,769.577451 C314.201569,734.146453 313.048544,693.779064 327.054091,657.494239 C340.592786,622.418908 367.205644,593.984182 401.242435,578.078721 L404.789733,576.478264 L411.923021,573.373514 L412.070918,581.133588 C413.046641,632.329401 390.499823,681.082663 351.000229,713.575378 L350.005337,714.369126 L350.088854,716.51302 C350.209119,718.570609 350.38615,720.624019 350.619665,722.670924 L351.012265,725.73611 L351.232876,727.097946 L351.839146,726.665242 C383.259081,703.275961 406.163677,670.296292 417.063557,632.808414 L418.225075,628.6248 L419.286725,624.405631 L420.217395,620.301694 L421.181919,615.432548 C424.022461,599.986224 424.824559,584.257659 423.584629,568.645682 L423.023928,562.797434 L422.367775,557.691562 L421.612977,557.869568 C326.508019,581.243257 275.985375,699.12746 323.879811,783.80997 L325.425044,786.472969 L326.526035,788.27305 L329.387021,787.206734 C432.741455,747.245862 492.557272,625.448491 460.791224,519.279017 L459.71075,515.784716 L457.721658,509.690596 L457.290245,508.436112 L455.810483,508.469434 C431.608504,509.320487 407.772562,514.517826 385.445149,523.797164 L380.684209,525.847977 L375.971947,528.023171 L370.799986,519.056297 C387.663854,507.612209 402.887951,493.947205 416.061628,478.439022 L417.291169,476.94084 L416.461056,475.557731 C406.431767,459.4139 394.170439,444.771979 380.046834,432.061176 L375.754253,428.306298 L371.723125,424.968312 L349.037869,406.678168 L319.583405,394.550072 Z M475.713848,682.370672 L479.910642,691.556344 C494.245386,722.93131 550.775002,769.515678 595.568642,789.695536 L598.7475,791.091488 L605.002074,793.765546 L600.773,799.082237 C562.287925,847.464755 516.168251,872.908293 468.730251,872.908293 C423.340998,872.978049 379.841671,855.742867 342.3679,822.902085 L338.760355,819.675285 L332.171724,813.661441 L340.668358,810.914891 C383.305385,797.132404 440.835021,740.890621 468.807293,694.283563 L470.66817,691.12135 L475.713848,682.370672 Z M474.912725,704.161172 L473.732058,706.046263 C446.319903,748.666095 397.820355,796.553086 356.652778,815.7109 L353.142747,817.281848 L352.210747,817.662412 L352.903729,818.255878 C385.265953,845.408094 421.937661,860.437752 460.195473,862.330256 L464.45273,862.48642 L468.722211,862.53415 C509.153659,862.53415 548.911078,842.427016 583.496647,803.498201 L586.626417,799.907403 L588.376944,797.806697 L588.103522,797.683208 C547.464736,778.541911 499.258704,740.197015 477.787775,708.628995 L475.854248,705.69014 L474.912725,704.161172 Z M474.769602,726.317435 L478.843767,732.501346 C491.153368,751.18529 522.884601,777.02426 554.540786,796.788072 L562.991421,801.966599 L559.69131,806.509365 C521.946942,858.466343 433.889106,862.707109 384.803264,824.706712 L382.381862,822.771517 L376.490423,817.910674 L383.18809,814.231748 C410.271105,799.355459 443.058548,767.698927 467.444297,736.043056 L470.329356,732.245429 L474.769602,726.317435 Z M474.392581,744.017836 L472.623276,746.295773 C451.020663,773.590694 423.809907,800.340619 399.04119,816.737512 L395.018601,819.311868 L396.177598,820.120445 C440.077686,849.692833 512.933403,845.899128 547.518562,805.189818 L547.80571,804.819478 L545.195557,803.166093 C517.46208,785.448942 490.3575,763.680079 475.510124,745.442312 L474.392581,744.017836 Z M662.396111,177.453873 L661.658122,173.453929 C632.171612,-2.97288476 390.31242,-48.2384522 295.639469,97.2206865 L292.816014,101.68698 L290.896169,104.900355 L295.43591,105.828261 L298.373107,106.489085 L301.301304,107.189082 L303.327611,107.711692 L304.115328,106.444706 C397.346518,-40.5113082 633.934456,16.120513 652.00945,187.146151 L652.48992,192.363669 L652.839979,197.759283 C661.343853,295.114993 584.716902,387.793989 487.615915,398.722897 L480.133478,399.450467 L478.860716,395.477556 C448.546889,300.853343 495.293438,190.877926 583.935065,146.417362 L587.196679,144.820133 L591.780308,142.629466 L594.082187,147.148616 C619.445889,196.943742 611.625723,261.371719 575.545192,304.098197 L573.253406,306.740017 L570.889161,309.320043 L567.71456,312.688783 C555.664924,325.072237 541.512571,335.217412 525.922043,342.659749 L521.634923,344.622115 L514.602637,347.70505 L514.343145,340.048957 C512.621741,289.260442 534.063479,240.580723 572.382277,207.502085 L576.267991,204.251545 L576.135398,202.043264 C575.958366,199.924004 575.720489,197.810783 575.422154,195.706194 L574.929357,192.556109 L574.551516,190.599445 L571.864772,192.62288 C522.392346,230.570583 495.594281,295.268772 503.759603,357.053536 L504.291576,360.756889 L504.602546,362.609686 L508.154127,361.619641 C522.638819,357.32866 536.421002,350.981432 549.053655,342.792726 L553.22135,339.995249 L556.933178,337.335207 L560.566745,334.570563 L564.775384,331.140333 C568.857253,327.696768 572.761614,324.050945 576.449353,320.244498 L580.063437,316.386052 L583.650774,312.287094 L586.002398,309.52909 C626.279347,261.037716 631.799792,187.552053 600.338977,133.341016 L598.482885,130.235155 L596.824083,127.619276 L594.857788,128.418822 C589.053749,130.865398 583.361241,133.556749 577.803718,136.480347 L572.292058,139.480896 L566.875601,142.633493 L561.419079,146.022129 L558.259345,148.005564 C474.350989,201.770313 436.632415,314.430623 470.468765,407.662275 L471.875084,411.429431 L473.530606,411.370784 C490.85676,410.52083 507.990193,407.425399 524.499877,402.168745 L529.979412,400.336597 L534.917728,398.53267 L564.561051,387.260915 L540.079033,407.381986 C529.436148,416.12907 519.614743,425.819059 510.734155,436.331133 L509.263037,438.12157 L510.06028,439.453658 C523.520392,461.305756 541.021129,480.390157 561.614677,495.698788 L565.774343,498.709872 L570.014799,501.618477 L564.757491,510.549261 C545.578313,500.789453 525.08274,493.878357 503.921385,490.025913 L501.824977,489.669661 L501.373308,490.572819 C480.946925,531.741365 475.200081,578.567496 484.958502,623.285291 L486.023338,627.903431 L487.198997,632.504619 L488.459617,637.009479 L490.643099,643.747546 C564.545928,861.056235 889.408417,804.473395 883.97502,573.095208 C883.04572,545.300441 876.327402,518.061389 864.312333,493.089742 L861.997556,488.434547 L860.630735,485.862426 L857.831286,489.119894 L853.78577,493.565094 L852.173193,495.240464 L853.566593,498.083574 C947.31865,696.83273 683.786539,867.421302 539.829983,705.631857 L535.504755,700.627096 L531.169776,695.308496 C490.927495,643.941694 480.839364,571.049162 505.266301,510.543445 L506.804991,506.854779 L508.536485,502.834835 L512.801866,503.859038 C523.884689,506.520248 534.731862,510.062785 545.27945,514.469054 L550.527982,516.744085 L555.682908,519.145084 L559.75254,521.164021 C608.873016,546.192872 646.259789,589.270002 664.106706,641.248045 L665.548551,645.599956 L666.869325,649.897228 L668.327101,655.106415 C673.490084,674.507168 675.882214,694.530521 675.438468,714.584409 L675.247086,720.053963 L674.994628,725.328409 L669.710819,724.982491 C592.312702,719.91542 530.076895,647.089009 536.629445,570.173604 L536.928362,567.094958 L537.77434,559.335544 L544.620426,563.118633 C549.320388,565.715792 553.890226,568.537915 558.342429,571.595956 L562.755885,574.733042 L567.010866,577.970276 L571.178345,581.329565 C576.746517,585.968189 582.004484,590.962176 586.947458,596.312251 L590.595553,600.391585 L594.075501,604.549806 L596.99151,608.253823 C612.498464,628.540737 623.107533,652.1015 628.016667,677.104028 L628.407229,679.294846 L629.923011,680.123508 C632.346491,681.389565 634.815565,682.56476 637.325014,683.64684 L641.26519,685.249486 L641.119854,684.148883 C637.484972,658.439222 628.246864,633.842025 614.084641,612.118559 L611.371686,608.079515 L608.704377,604.329032 L606.05731,600.797924 L603.225501,597.201466 C585.371551,575.105874 562.570491,557.580388 536.728967,545.988084 L532.137524,544.004251 L529.059719,542.763468 L528.351787,545.810668 C522.050095,574.362904 523.804639,604.105447 533.426291,631.746871 L535.01085,636.093366 L536.641365,640.197783 C559.831706,697.486252 618.236575,736.708208 679.605006,737.353757 L683.017207,737.349803 L685.623073,737.285151 L686.108406,733.361402 C694.981573,654.642653 658.098829,573.129977 593.229142,527.752799 L589.848946,525.438128 L586.419379,523.189106 L591.627978,514.222164 C662.350267,550.795171 754.716423,539.281525 814.398912,486.371858 C952.547115,372.008157 868.167926,139.159451 693.655515,132.862651 L688.339807,132.74154 L684.468353,132.744001 L685.951108,137.06743 L686.857844,139.897492 L687.726195,142.739641 L688.255002,144.632532 L689.376466,144.632875 C853.571961,147.374317 933.63912,359.632118 815.21137,470.008071 L811.561775,473.321291 L807.711704,476.635836 C727.72475,550.513833 589.788395,534.678981 528.0076,445.531718 L525.998637,442.56626 L523.751564,439.172455 L526.520411,436.186607 C529.876308,432.567701 533.359294,429.069039 536.988644,425.674323 L540.667495,422.313652 L545.629894,418.026039 L549.759877,414.646004 C566.659173,401.172002 585.544033,390.376537 605.704628,382.660052 C668.689349,357.889123 743.782629,366.213573 799.741675,403.890911 L803.213918,406.283931 L807.192297,409.090077 L804.643438,413.231745 C761.288902,483.678999 657.585136,501.211991 593.262257,449.721564 L590.710581,447.625096 L585.346892,443.102662 L591.249181,439.305521 C636.755147,410.030002 693.475767,404.536301 743.57869,424.173845 L748.102774,426.02556 L749.595123,424.986784 C751.252769,423.759566 752.875891,422.487438 754.462699,421.171904 L756.815453,419.166236 L758.401626,417.705663 L757.922448,417.472003 C698.638205,389.389089 624.048774,397.77489 572.389691,438.02149 L569.377657,440.425651 L567.34232,442.115536 L568.3004,443.187413 C637.213514,518.69986 772.214346,500.949798 819.897918,411.131774 L821.389903,408.240799 L822.524983,405.910497 L822.297227,405.732354 C763.28696,357.771937 678.961542,343.67007 607.083379,369.45749 L603.103193,370.931201 L599.150058,372.487218 L568.016341,385.111389 L593.866783,363.692713 C647.164392,319.532377 674.245796,245.735762 662.396111,177.453873 Z M88.3753766,522.067721 L94.9811489,528.047928 C128.147206,558.073167 205.504717,579.979307 259.858656,581.146975 L263.701052,581.19494 L273.799674,581.227761 L267.90894,589.40753 C247.776093,617.363647 235.30616,689.227361 239.907748,738.048226 L240.285023,741.66554 L241.057728,748.404461 L234.333609,747.382562 C173.156244,738.085119 128.210477,710.82355 104.554547,669.696544 C82.0026331,630.492455 75.4075956,584.314406 85.3606471,535.6237 L86.4111344,530.74642 L88.3753766,522.067721 Z M825.046516,501.263596 L827.573518,507.559661 C850.565216,564.843853 849.808667,617.293304 826.278723,658.493138 C803.842485,697.787733 767.215125,726.928874 720.039133,743.073955 L715.440906,744.595717 L706.948564,747.311631 L708.759399,738.603336 C717.84127,694.928685 697.590921,617.520634 671.064568,570.18021 L669.012089,566.59902 L663.895149,557.873453 L673.98724,558.816203 C708.266459,562.018389 776.572867,536.332442 816.521029,507.616976 L819.614779,505.344143 L825.046516,501.263596 Z M94.8330764,541.383734 L94.6648425,542.288468 C86.5220283,586.860695 93.0269288,628.808506 113.578256,664.534788 C133.792498,699.678249 171.090269,724.124704 222.28867,734.695079 L226.842169,735.591668 L229.290309,736.029905 L229.23898,735.367117 C225.846858,691.011341 235.126555,631.049147 251.654097,596.767416 L253.33081,593.426374 L254.454878,591.334239 L251.707117,591.21844 C201.451403,588.520635 136.527644,570.511162 99.4133938,544.728459 L96.0167023,542.288788 L94.8330764,541.383734 Z M820.309169,517.637793 L819.275149,518.376763 C782.940724,543.447468 727.450596,565.539024 689.643635,568.98558 L685.79716,569.274967 L682.491806,569.414111 L684.177182,572.619496 C706.984817,616.822531 724.066863,680.617414 720.994045,725.293517 L720.619045,729.695964 L720.347889,731.942574 L721.221191,731.646848 C760.911716,717.102276 792.22224,692.785988 812.835202,660.632957 L815.081391,657.028246 L817.238827,653.359625 C837.298766,618.235608 839.539065,573.911061 822.836666,524.695016 L821.266051,520.207475 L820.309169,517.637793 Z M106.656551,562.648001 L113.185067,566.622592 C139.605544,582.707501 183.502913,595.403754 223.084282,600.75682 L227.811935,601.363688 L235.213771,602.262319 L231.811885,608.879097 C221.60121,628.739186 214.864281,668.99923 213.37248,706.448234 L213.062528,716.203025 L207.47045,715.600473 C143.401139,708.696944 96.0049145,634.412554 104.906255,572.948298 L105.349771,570.163576 L106.656551,562.648001 Z M811.318096,541.707449 L813.634625,546.815278 C840.190956,605.370654 799.975043,683.927863 742.409909,707.279702 L739.781536,708.302867 L732.63478,710.968364 L732.758678,703.360348 C733.258642,672.659724 721.985193,628.583536 706.571038,591.855971 L704.623255,587.304799 L701.665794,580.528279 L709.061901,580.058421 C731.443464,578.636572 769.817836,563.960055 802.6308,546.440095 L806.391004,544.406535 L811.318096,541.707449 Z M114.619355,579.383464 L114.571334,579.959293 C110.185574,632.162009 148.628811,692.954872 200.444392,703.982831 L203.043841,704.482764 L203.173106,701.665003 C204.828473,668.451061 210.374251,633.924318 219.016663,612.035413 L219.54281,610.7335 L216.747766,610.335773 C182.317969,605.215833 145.48132,594.921684 118.883016,581.598365 L114.619355,579.383464 Z M806.275683,556.249585 L803.55383,557.688748 C774.443959,572.843683 741.956624,585.519558 718.693487,589.352698 L716.894132,589.622539 L718.140296,592.642962 C731.741537,626.338089 741.78467,665.081867 743.04393,695.177272 L743.046974,695.654544 L743.580851,695.423687 C790.848127,672.851625 823.926876,608.874427 807.162423,558.749359 L806.275683,556.249585 Z M452.439823,382.197286 L452.090127,383.773757 C448.170901,400.694217 441.93881,417.329528 433.192709,433.276356 L430.493257,438.039346 L428.695903,441.110108 L425.175592,440.545848 C419.20202,439.588361 413.273289,438.397143 407.402919,436.976034 L401.552504,435.478437 L397.276026,434.262466 L398.471713,435.476252 C407.132381,444.537509 414.978438,454.353464 421.91333,464.812039 L425.304399,470.094359 L428.144902,474.8018 L429.953298,477.88862 L427.704157,480.672513 C421.862548,487.903011 415.605091,494.773216 408.967478,501.250295 L403.918546,506.03388 L403.403323,506.485812 L407.153716,505.421103 C420.912936,501.676578 435.038349,499.321757 449.316111,498.406106 L455.443856,498.101941 L460.903377,497.980214 L464.603443,497.9453 L467.075184,504.892779 L468.05729,507.827964 L468.485212,509.182425 C471.214672,517.227646 473.43033,525.369847 475.151461,533.569843 C478.748174,517.595442 484.214197,501.988059 491.505799,487.075766 L494.325639,481.51688 L496.053553,478.230833 L499.730264,478.800144 C508.703525,480.189587 517.573735,482.101856 526.296376,484.522587 L532.809991,486.433246 L535.623936,487.335525 L534.867237,486.637558 C523.387321,475.601577 513.165897,463.295661 504.410329,449.940358 L501.196109,444.88336 L498.422816,440.250083 L496.638688,437.181501 L498.859091,434.410431 C502.717262,429.595424 506.759399,424.93499 510.97568,420.439074 L515.249646,415.998367 L515.827255,415.413023 L512.242789,416.323576 C501.804914,418.792776 491.185327,420.463557 480.476795,421.317785 L474.041744,421.732191 L468.512371,421.930758 L464.924004,422.012498 L463.57405,418.695986 C458.737112,406.812788 455.041987,394.596239 452.439823,382.197286 Z M463.652007,432.631098 C479.167994,432.631098 491.620668,443.124091 492.300397,459.391616 L492.326085,461.146145 C492.574035,478.493375 479.764762,489.809044 463.652007,489.809044 C447.539251,489.809044 434.729978,478.493375 434.977928,461.293996 C434.729978,443.946767 447.539251,432.631098 463.652007,432.631098 Z M463.652007,443.005034 C453.050832,443.005034 445.219341,449.923347 445.379752,461.293996 C445.219341,472.516794 453.050832,479.435107 463.652007,479.435107 C473.723123,479.435107 481.294599,473.19133 481.889036,462.944805 L481.924261,461.146145 C482.084672,449.923347 474.253182,443.005034 463.652007,443.005034 Z M266.248193,135.201858 C112.212464,114.390217 -6.76860631,288.488478 62.6299439,423.422617 L64.7907496,427.499302 L65.8506509,429.386715 L68.4482603,426.359751 L72.3001251,422.064242 L73.68402,420.579243 L72.966023,419.19537 C-4.07263854,266.616525 160.83944,94.6367285 316.189245,161.087523 L320.893628,163.174431 L325.686372,165.456045 L330.421118,167.869652 L335.616503,170.594325 C337.938193,171.85947 340.232306,173.173993 342.518092,174.550348 L345.94293,176.662811 L350.89014,179.900085 L355.06512,182.78321 C357.860372,184.770796 360.599622,186.835008 363.295947,188.987294 L367.309877,192.283207 L371.121549,195.592796 L374.030886,198.166365 C431.495256,250.181818 450.650803,338.335852 420.258278,409.467874 L418.69731,413.010044 L416.943472,416.871 L412.79996,415.926253 C317.143733,394.116018 246.490052,301.021851 250.952125,203.397807 L251.146204,199.867371 L251.487071,194.562577 L256.796715,195.03239 C291.959843,198.143727 324.740623,213.86003 349.154503,239.219972 L351.83242,242.077278 L354.526553,245.117112 L357.527097,248.69984 C367.510446,261.025442 375.381977,274.915599 380.81926,289.805788 C387.70273,308.623327 390.617149,328.637842 389.400206,348.598508 L389.045961,353.20329 L388.308526,361.138624 L381.330952,357.253483 C364.033757,347.622336 348.59057,335.03132 335.663053,320.024983 L332.483966,316.223395 L329.430278,312.342707 L326.480059,308.368043 C312.719835,289.238233 303.186324,267.428916 298.492853,244.382595 L298.084559,242.220153 L296.520779,241.349675 C294.091713,240.05982 291.615971,238.861455 289.098835,237.756897 L285.216196,236.141026 L285.447002,237.760462 C288.896281,260.457248 296.704333,282.271093 308.41908,301.975589 L310.989015,306.165248 L313.677554,310.287654 L316.337651,314.138428 L318.969841,317.744169 C337.274373,342.182087 361.459421,361.527976 389.199583,374.049667 L393.608814,375.969812 L396.984746,377.330302 L397.168657,376.707959 C418.482399,297.700078 367.73336,209.410791 288.725181,187.553603 L285.632738,186.735804 L282.628338,186.012761 L279.611561,185.35561 L274.233058,184.230569 C263.612679,182.197142 252.816024,181.245563 242.009561,181.388398 L240.868715,181.418511 L240.375858,185.368458 C231.917914,257.86561 262.188608,333.521177 318.289154,380.462184 L321.492156,383.088341 L324.749811,385.651879 L349.401969,404.644877 L376.998521,416.148889 C389.436462,421.329415 402.318345,425.354805 415.480187,428.178474 L421.137639,429.314908 L423.283228,429.68756 L423.532198,429.26416 C487.531419,314.187867 412.479455,160.138525 283.467073,137.656393 L279.541177,137.015564 L275.501656,136.445776 L271.136271,135.925558 L266.248193,135.201858 Z M217.514609,169.490041 L215.704361,178.195512 C206.62249,221.870162 226.872839,299.278213 253.399192,346.618638 L255.451671,350.199828 L260.557111,358.905785 L250.485993,357.983521 C216.131836,354.837534 147.808678,380.504893 107.938094,409.183548 L104.850665,411.453439 L99.4190957,415.537303 L96.8905138,409.239862 C73.8781395,351.927478 74.6278692,299.536349 98.1204097,258.295592 C120.704659,218.947568 157.282129,189.842602 204.428793,173.722106 L209.024252,172.202684 L217.514609,169.490041 Z M204.104935,184.84191 L203.246555,185.147851 C160.643008,200.747053 127.717098,227.613519 107.15737,263.434214 C87.1340206,298.584912 84.9021106,342.865317 101.621923,392.097351 L103.194147,396.586515 L104.143655,399.14669 L105.174224,398.429329 C141.402218,373.419346 196.807125,351.367363 234.652717,347.845806 L238.638737,347.540113 L241.981824,347.391121 L240.286578,344.179352 C217.478943,299.976317 200.396897,236.181434 203.469715,191.505331 L203.844715,187.102884 L204.104935,184.84191 Z M683.357981,168.368236 L690.085134,169.393172 C751.267371,178.714776 796.209126,205.980147 819.8616,247.101145 C842.412268,286.279692 849.010114,332.478719 839.056154,381.153929 L838.005563,386.029536 L836.041381,394.703851 L829.436889,388.72862 C796.262888,358.715367 718.893811,336.818958 664.491299,335.651849 L660.64537,335.603908 L650.528703,335.571082 L656.44185,327.385223 C676.621098,299.450103 689.115116,227.549367 684.50949,178.727792 L684.131859,175.110495 L683.357981,168.368236 Z M697.573685,181.187001 L695.120903,180.744205 L695.178462,181.40849 C698.573367,225.770174 689.274553,285.763037 672.707037,320.041437 L671.026257,323.382031 L669.90432,325.450245 L672.649043,325.580236 C722.942679,328.276758 787.878239,346.277946 824.999847,372.049677 L828.397216,374.488312 L829.567733,375.390376 L829.752186,374.489748 C837.333686,333.004168 832.21587,293.76642 814.889602,259.738788 L812.914246,255.979532 L810.838558,252.26406 C790.626432,217.124277 753.330841,192.674385 702.127627,182.085282 L697.573685,181.187001 Z M191.781878,205.830542 L191.658138,213.438395 C191.158517,244.156218 202.402186,288.096268 217.843264,324.930854 L219.794715,329.496699 L222.749262,336.276864 L215.350579,336.740701 C192.984428,338.142875 154.652902,352.808268 121.79196,370.355441 L113.098717,375.091399 L110.782189,369.98357 C84.2258578,311.428193 124.441771,232.870984 182.006904,209.519146 L184.635278,208.495981 L191.781878,205.830542 Z M181.372383,221.622944 L181.353835,221.12994 L180.835963,221.375161 C133.568687,243.947223 100.489938,307.924421 117.254391,358.049488 L118.125126,360.545273 L120.874749,359.103441 C150.021744,343.926672 182.482352,331.256792 205.732167,327.439084 L207.51708,327.161945 L206.268962,324.126831 C192.649326,290.356759 182.627988,251.71295 181.372383,221.622944 Z M711.35493,200.689524 L716.946363,201.292006 C781.015675,208.195535 828.411899,282.479925 819.510559,343.944182 L819.067042,346.728903 L817.760263,354.244478 L811.231746,350.269887 C784.822841,334.192023 740.95958,321.499547 701.334568,316.11568 L696.601299,315.504948 L689.237939,314.605821 L692.595185,308.009023 C702.756488,288.042644 709.554414,247.540991 711.044776,210.406393 L711.35493,200.689524 Z M721.367371,212.395085 L721.244099,215.1544 C719.58648,248.121518 713.997982,282.797602 705.391539,304.781301 L704.837194,306.133976 L707.682538,306.541255 C742.141683,311.685021 778.95555,321.978826 805.539454,335.296774 L809.781454,337.494386 L809.84548,336.933186 C814.23124,284.73047 775.788002,223.937607 723.972422,212.909648 L721.367371,212.395085 Z M455.694603,43.8907603 L460.074919,43.9379383 C503.897794,44.9486515 545.853243,62.1122282 582.059105,93.8997097 L585.660382,97.1271475 L592.238191,103.143459 L583.746434,105.88461 C541.112567,119.646882 483.585209,175.879142 455.609747,222.491493 L453.748644,225.65409 L448.702965,234.404768 L444.506172,225.219096 C430.174046,193.849862 373.653615,147.287355 328.848991,127.103632 L325.669313,125.70736 L319.414739,123.033302 L323.643814,117.716611 C361.142092,70.57467 405.888471,45.2106282 452.04763,43.9409021 L455.694603,43.8907603 Z M455.702656,54.2646906 C415.263392,54.2646906 375.505743,74.3718316 340.920167,113.300647 L337.790397,116.891445 L336.023865,118.977787 L336.314807,119.116171 C376.962099,138.2597 425.162283,176.588288 446.630125,208.148938 L448.563371,211.087129 L449.488084,212.602564 L450.685497,210.727974 C478.10057,168.103816 526.59939,120.22373 567.766272,101.081917 L571.276244,99.5123629 L572.200465,99.1220722 L571.522001,98.5393419 C539.210936,71.3871619 502.503735,56.3605067 464.232072,54.4685147 L459.97337,54.3123967 L455.702656,54.2646906 Z M539.613308,92.0919213 L542.034952,94.0273313 L547.929847,98.8910254 L541.226238,102.568464 C514.138489,117.428155 481.343343,149.091414 456.971983,180.753333 L449.649025,190.484165 L445.573047,184.297502 C433.252007,165.596195 401.488391,139.73645 369.747563,119.910256 L361.427589,114.805816 L364.725504,110.266075 C401.83886,59.1777154 487.601576,54.2411238 537.126724,90.2268941 L539.613308,92.0919213 Z M376.5951,111.944258 L379.233348,113.623084 C406.995183,131.378963 434.073354,153.132722 448.910018,171.360287 L450.018631,172.766648 L451.789121,170.502724 C473.382408,143.200526 500.599318,116.443789 525.375003,100.055221 L529.382208,97.4726163 L528.238418,96.6776066 C485.162406,67.6581321 414.219625,70.7499132 378.895918,109.321369 L376.5951,111.944258 Z" id="Combined-Shape"></path>
        </g>
    </g>
</svg>