<?xml version="1.0" encoding="UTF-8"?>
<svg width="1080px" height="1080px" viewBox="0 0 1080 1080" version="1.1" xmlns="http://www.w3.org/2000/svg" xmlns:xlink="http://www.w3.org/1999/xlink">
    <title>my-rituals-phase-logo-joy-dark-01</title>
    <g id="my-rituals-phase-logo-joy-dark-01" stroke="none" stroke-width="1" fill="none" fill-rule="evenodd">
        <g id="brand-/-logo-/-myrituals_crm_tier_logo_01" transform="translate(80.000000, 80.000000)" fill="#1A1919">
            <path d="M460.005427,0 C540.236311,0.08403329 615.508486,38.4154663 662.709336,102.992359 L663.525574,104.133407 L664.501497,104.244539 C739.653163,113.09188 806.691079,155.194978 847.292206,218.650512 L849.696403,222.483372 L851.991886,226.291749 L854.192366,230.092741 C894.175919,300.084311 898.970459,384.64653 867.363775,458.593204 L866.758359,459.966665 L867.401307,461.426557 C897.087253,530.977066 894.619633,609.899094 860.988733,677.325319 L858.799767,681.613307 L856.526214,685.868865 L854.201488,690.030837 C814.646378,759.850038 744.21025,806.578906 664.644877,816.029677 L663.235773,816.182396 L662.710732,816.935058 C618.180558,877.903957 548.632317,915.500094 473.456104,919.622488 L468.938933,919.829582 L464.496409,919.954191 L459.997079,920 C379.742963,919.954754 304.439111,881.616681 257.242895,817.008172 L256.459702,815.913632 L255.4514,815.801302 C180.303997,806.943727 113.270747,764.84317 72.6628907,701.395286 L70.2582762,697.562892 L67.9623559,693.754983 L65.7582072,689.948835 C25.8510022,619.911366 21.0741153,535.353765 52.6375279,461.387619 L53.2165662,460.049362 L52.5986931,458.619977 C22.9127467,389.069468 25.3803666,310.14744 59.0112673,242.721215 L61.2002332,238.433227 L63.4737864,234.177669 L65.7990164,230.014806 C105.359814,160.217823 175.789257,113.4953 255.353439,104.018512 L256.749502,103.854306 L257.335029,103.065718 C301.853574,42.1061861 371.384428,4.51104284 446.504329,0.379902979 L451.018074,0.172272189 L455.503734,0.0464204856 L460.005427,0 Z M459.992638,552.142396 L458.550547,556.578049 C434.914613,627.272337 395.78425,691.883122 343.950407,745.656232 L338.894665,750.82609 C319.496866,770.459821 298.518804,788.461477 276.147544,804.670086 L268.639114,810.006326 L266.176855,811.69516 C310.615332,871.999626 380.635405,908.209024 455.535542,909.620386 L459.946905,909.663191 L464.343626,909.618344 C538.171433,908.197693 607.202473,873.036263 651.681911,814.426435 L653.806915,811.561722 L653.0761,811.071164 C562.398235,748.682926 494.838612,658.344429 460.612119,554.064684 L459.992638,552.142396 Z M460.001418,724.295713 L464.244233,730.369798 C477.262181,749.006512 491.372794,766.857624 506.493898,783.820377 C512.973771,791.05469 519.238757,797.752214 525.45475,804.061164 L530.11015,808.722335 L535.404023,813.949683 L528.653686,817.084489 C507.148096,827.071525 483.720638,832.254721 459.993556,832.272857 C437.860836,832.245333 415.979313,827.744646 395.661612,819.060186 L391.332233,817.135299 L384.679092,814.061483 L389.806508,808.829147 L393.038204,805.601207 C413.738729,784.66778 432.803825,762.188366 450.068655,738.360691 L455.756696,730.368468 L460.001418,724.295713 Z M459.992638,742.241272 L458.453463,744.420876 C442.832373,765.980026 425.764442,786.453746 407.375932,805.692126 L402.508685,810.693407 L404.424196,811.470923 C420.643426,817.780241 437.828925,821.295968 455.241946,821.856348 L459.996037,821.935784 C479.034748,821.921223 497.874456,818.352706 515.552255,811.443271 L517.44554,810.662396 L513.319861,806.41849 C510.134828,803.100297 506.928725,799.675727 503.679894,796.125439 L498.771894,790.703298 C485.571223,775.894894 473.132412,760.428973 461.502876,744.365521 L459.992638,742.241272 Z M858.157501,466.148238 L855.544902,467.447272 C822.78981,483.277212 788.383307,495.442952 752.954926,503.722252 L744.761292,505.563769 C678.752858,519.865297 610.57902,520.376528 544.507934,507.16116 L538.82866,505.977002 L542.141519,509.734169 C591.054793,566.039179 626.843937,632.570854 646.840424,704.543168 L648.726177,711.525054 L650.989804,720.385021 C656.843401,744.179737 660.98558,768.358142 663.389126,792.772367 L664.208905,801.938466 L664.457074,805.617901 L667.808004,805.203408 C739.408691,795.370601 802.873659,754.003252 840.716453,692.520154 L843.001196,688.730845 L845.178122,684.967599 L847.464067,680.875327 C882.992837,615.842261 887.413379,538.38208 859.714435,469.891447 L858.157501,466.148238 Z M61.8434196,466.183584 C32.5053175,535.567704 36.4046042,614.54871 72.4413811,680.687837 L74.7355154,684.804608 L76.8985509,688.539914 C114.491067,752.149261 179.152072,794.999563 252.226002,804.971687 L255.611001,805.400823 L255.820163,802.381241 C258.667698,765.818436 265.448367,729.668061 276.044372,694.556996 L278.557278,686.473178 C299.322788,621.461436 333.073874,561.415782 377.687394,509.931753 L381.156616,505.977002 L375.803003,507.09702 C303.519986,521.612375 228.813938,519.632886 157.267755,501.218626 L150.123877,499.322419 L141.414688,496.880509 C118.133995,490.124404 95.381179,481.683573 73.308406,471.613165 L65.0632904,467.760484 L61.8434196,466.183584 Z M653.444664,121.137901 L648.697907,124.56389 C563.489014,186.706968 500.337275,274.47453 468.574132,375.044239 L466.741986,380.974773 L459.937509,404.024091 L455.026489,386.964846 C434.547984,315.829351 398.297348,250.211095 348.960246,194.973571 C325.176372,168.297979 298.557118,144.309368 269.582939,123.42639 L266.447461,121.210261 L266.911733,126.283101 C268.967972,147.1639 272.331933,167.892462 276.978504,188.325623 L279.048345,197.064189 L281.294463,205.841571 C301.650283,283.51047 340.733015,354.982416 395.08484,414.03775 L399.920126,419.216134 L412.04628,432.01668 L394.91848,427.785672 C288.979849,401.616095 177.476889,412.164565 78.5818864,457.372623 L72.9022842,460.008014 L77.6366833,462.224116 C96.5251668,470.841148 115.941533,478.245742 135.74618,484.386712 L144.257252,486.941043 L152.889374,489.361233 C229.6615,510.359679 310.425833,511.903245 387.880361,493.905804 L394.912361,492.215838 L412.04742,487.960907 L399.923064,500.780757 C349.045452,554.576884 310.93627,619.114698 288.416897,689.617356 C277.460169,723.859906 270.233298,759.166138 266.851188,794.923456 L266.509561,798.826441 L270.097102,796.284124 C289.550139,782.189025 307.946611,766.691253 325.142954,749.910573 L331.535046,743.557916 C388.09842,686.54499 429.794451,616.590248 453.023645,539.829888 L455.025264,533.039409 L459.992638,515.704193 L464.975027,533.040426 C495.258651,638.657936 560.031517,730.922604 648.712044,795.32252 L653.527464,798.764418 L653.086034,793.747028 C651.027726,772.846456 647.663689,752.097843 643.018917,731.643818 L640.949961,722.896259 L638.705899,714.113267 C618.331199,636.460024 579.24131,565.005031 524.89188,505.961486 L520.056829,500.784129 L507.904804,487.958111 L525.063434,492.215613 C596.360736,509.906328 670.772359,511.016855 742.571034,495.460803 C777.410544,487.940962 811.294086,476.600027 843.60785,461.655033 L847.124391,459.98734 L842.351347,457.763212 C823.444849,449.154961 804.013222,441.755056 784.195059,435.614244 L775.6783,433.059702 L767.040729,430.638761 C690.268603,409.640315 609.504271,408.09675 532.049742,426.094191 L525.017742,427.784156 L507.865856,432.043266 L520.008922,419.217248 C570.892721,365.471632 609.017679,300.981013 631.559538,230.52309 C642.518137,196.254702 649.739516,160.92137 653.108609,125.137635 L653.444664,121.137901 Z M801.15129,571.023509 L800.446847,578.508126 C798.204721,602.330435 790.90349,625.401653 779.032644,646.178837 C768.021588,665.498415 753.239757,682.393746 735.580368,695.87245 L731.752494,698.708086 L725.508647,703.196085 L723.166579,693.633738 L722.562337,691.46241 C714.982852,662.899835 705.269969,634.949837 693.507381,607.846945 L689.510719,598.844343 L686.508808,592.231723 L693.747591,591.563457 C716.251013,589.485999 738.608132,586.051924 760.739463,581.270957 C769.599903,579.434988 778.804084,577.17754 789.314631,574.312265 L801.15129,571.023509 Z M119.646214,578.460154 L118.933066,570.860343 L127.823252,573.472219 L130.486319,574.176159 C158.734501,581.824768 187.525619,587.288969 216.604154,590.522519 L226.307294,591.517689 L233.54794,592.19786 L230.53161,598.807182 C221.067462,619.54484 212.839905,640.823508 205.893886,662.525943 C203.562756,669.838803 201.368551,677.192685 199.311263,684.587619 L196.328018,695.710815 L194.43487,703.041388 L188.288486,698.610963 C168.951215,684.672309 152.819351,666.76768 140.965199,646.081971 C129.933559,626.688273 122.868089,605.317109 120.159741,583.20854 L119.646214,578.460154 Z M788.950971,587.075943 L789.226438,585.03498 L787.514991,585.502072 C778.65023,587.854268 770.640841,589.776454 762.88481,591.383437 C743.602389,595.549127 724.118984,598.713782 704.513035,600.865352 L701.841309,601.129811 L703.003636,603.735755 C713.641929,628.247756 722.630289,653.433301 729.892265,679.064927 L731.721786,685.749137 L732.802317,684.902328 C746.66082,673.681493 758.493342,660.155476 767.773858,644.907815 L770.040516,641.06037 C779.592879,624.341153 785.992272,606.043281 788.950971,587.075943 Z M130.841637,584.952283 L131.137335,587.02137 C134.083153,605.970456 140.452566,624.254054 149.956157,640.961476 C159.587837,657.76889 172.239644,672.626668 187.251711,684.802432 L188.29454,685.625092 L188.561253,684.641441 C190.103939,678.994631 191.725051,673.370908 193.424813,667.769567 L196.033474,659.384254 C202.095304,640.444407 209.114143,621.82576 217.062356,603.599786 L218.185367,601.067789 L215.459002,600.796151 C189.143427,597.870003 163.067849,593.151628 137.485214,586.692084 L130.841637,584.952283 Z M255.536087,114.409382 C182.562897,123.421952 117.706989,165.117719 79.2732698,227.546377 L76.9990998,231.316881 L74.8218785,235.078935 L72.5359332,239.171207 C37.0071631,304.204273 32.5866207,381.664453 60.2889361,450.162771 L61.827774,453.878126 L62.6768458,453.458523 C160.754091,405.499875 271.906184,391.518635 378.621097,413.498474 L381.156616,414.028688 L377.834272,410.262238 C328.919541,353.9454 293.137289,287.397995 273.158322,215.413327 L271.274297,208.430256 L269.009407,199.579031 C263.152647,175.807197 259.009934,151.650547 256.608951,127.262161 L255.79028,118.105952 L255.536087,114.409382 Z M664.343224,114.635879 L664.720638,109.218265 C662.323288,148.687093 655.344939,187.734685 643.932107,225.578163 L641.418679,233.668765 C620.63126,298.642925 586.864544,358.646256 542.243105,410.084917 L538.76656,414.008014 L544.1271,412.902974 C616.410114,398.387619 691.116131,400.367098 762.661969,418.781262 L769.805812,420.677459 L778.519842,423.119944 C801.813213,429.876646 824.581052,438.311825 846.676236,448.372709 L854.930112,452.221643 L858.126451,453.785092 L859.655631,450.183915 C886.811625,383.141849 883.168742,307.547642 849.702723,243.449393 L847.477885,239.285577 L845.217514,235.241282 L843.054948,231.505546 C805.470358,167.889109 740.805781,125.036242 667.724375,115.073271 L664.343224,114.635879 Z M460.053817,10.3367963 L455.611368,10.3829402 C381.843827,11.8128544 312.831115,46.9736921 268.353308,105.588586 L266.230111,108.433632 L268.769864,110.179814 C301.025695,132.615024 330.536398,158.765882 356.686783,188.095716 C402.180741,239.030477 436.777253,298.614387 458.453568,363.186013 L459.992638,367.904643 L460.63965,365.93789 C494.328348,263.754819 559.867508,174.925359 647.751804,112.503955 L653.755165,108.29925 L651.713087,105.548353 C608.101045,48.1182898 540.969828,13.2289134 468.908301,10.5084852 L464.398204,10.3804322 L460.053817,10.3367963 Z M725.570182,217.047933 L731.704355,221.453689 C751.067811,235.361133 767.208266,253.267106 779.032822,273.961088 C790.081806,293.350344 797.156556,314.72434 799.863975,336.837616 L800.377147,341.587036 L801.089226,349.185894 L792.882087,346.772315 L789.537247,345.870447 C761.281985,338.221541 732.483842,332.7573 703.398329,329.523953 L693.692866,328.52886 L686.448327,327.84855 L689.469407,321.237123 C698.942852,300.50514 707.170051,279.227398 714.10475,257.524873 C716.426322,250.220034 718.617792,242.870679 720.679167,235.47678 L723.673657,224.35252 L725.570182,217.047933 Z M188.244727,221.340446 L194.388821,216.917982 L196.913125,226.645651 L197.460725,228.606501 C205.043676,257.161537 214.756907,285.104536 226.516926,312.201591 L230.512625,321.20229 L233.512971,327.811833 L226.277912,328.482873 C203.774204,330.570055 181.416202,334.004266 159.281749,338.776009 C150.575206,340.576354 141.548421,342.782942 131.334173,345.56152 L118.876802,349.025944 L119.576128,341.541857 C121.80224,317.718342 129.096195,294.644217 140.969051,273.864725 C151.991077,254.555631 166.770332,237.664673 184.419223,224.177985 L188.244727,221.340446 Z M731.680386,234.411609 L730.649704,238.250153 C728.555063,245.763283 726.327826,253.232464 723.967273,260.659946 C717.913922,279.60426 710.895688,298.225113 702.940654,316.449873 L701.810259,318.968913 L704.543236,319.250308 C730.865723,322.176447 756.954419,326.896549 782.605699,333.371986 L789.174688,335.084418 L788.886394,333.023667 C786.185747,315.65227 780.601559,298.840735 772.355414,283.289054 L770.040633,279.079448 C760.433148,262.265535 747.783662,247.411654 732.761145,235.25995 L731.680386,234.411609 Z M188.28419,234.287564 L187.203294,235.146473 C172.195137,247.310154 159.558591,262.169834 149.959419,278.986277 C140.40779,295.703234 134.014065,314.001057 131.066579,332.96761 L130.779537,335.001722 L133.738689,334.215367 C140.423485,332.454839 146.646651,330.938123 152.663096,329.617282 L157.140652,328.66263 C176.423372,324.505498 195.905317,321.342298 215.509161,319.184905 L218.164667,318.90689 L217.020667,316.312769 C206.384875,291.806456 197.396628,266.627485 190.132112,241.002419 L188.28419,234.287564 Z M460.006372,87.7271374 C482.13242,87.7543459 504.007205,92.2552008 524.317455,100.940068 L528.645226,102.865046 L535.296731,105.939407 L526.939103,114.398174 C506.245239,135.331845 487.187094,157.81125 469.929501,181.638596 L464.243883,189.630698 L460.001265,195.702971 L455.756946,189.631883 C442.73094,170.99944 428.619807,153.14767 413.506102,136.179617 C407.116524,129.046112 400.835725,122.34071 394.567175,115.982491 L389.866551,111.277659 L384.564446,106.042183 L391.329849,102.912337 C411.414791,93.6205376 433.158528,88.4882304 455.250436,87.8052825 L460.006372,87.7271374 Z M460.002988,98.0552047 L455.253866,98.1475324 C437.831426,98.7220213 420.644614,102.249944 404.426054,108.569269 L402.529385,109.332957 L406.732312,113.652085 C409.932289,116.982472 413.140213,120.405091 416.369009,123.930857 L421.229475,129.298233 C434.423308,144.110831 446.86027,159.576248 458.493584,175.635305 L459.992638,177.743744 L461.543526,175.580024 C477.158161,154.021043 494.219915,133.547203 512.602836,114.308148 L517.45589,109.301946 L515.555338,108.528724 C499.342505,102.21942 482.162094,98.7037438 464.74813,98.1435811 L460.002988,98.0552047 Z" id="Shape"></path>
        </g>
    </g>
</svg>