<?xml version="1.0" encoding="UTF-8"?>
<svg width="1080px" height="1080px" viewBox="0 0 1080 1080" version="1.1" xmlns="http://www.w3.org/2000/svg" xmlns:xlink="http://www.w3.org/1999/xlink">
    <title>my-rituals-phase-logo-soulmate-dark-01</title>
    <g id="my-rituals-phase-logo-soulmate-dark-01" stroke="none" stroke-width="1" fill="none" fill-rule="evenodd">
        <g id="brand-/-logo-/-myrituals_crm_tier_logo_01" transform="translate(80.000000, 80.000000)" fill="#1A1919">
            <path d="M428.777718,530.367173 L430.485136,534.23137 C462.9819,607.777442 426.542101,716.309408 355.340231,757.679248 L352.394645,759.341307 L346.166743,762.751918 L344.748813,754.989571 L343.948798,750.221597 L343.490354,748.121813 C338.670567,729.96413 340.379537,718.27121 352.36177,705.702376 L354.05974,703.982326 C384.13196,674.441031 400.111798,636.570453 398.167595,593.46587 L397.932698,589.409576 L397.80317,587.887306 L395.507914,588.887617 C349.295357,609.724033 316.47047,660.84696 314.610212,716.962431 L314.534424,720.47592 L314.538449,723.862596 C315.369594,790.173139 351.133641,843.679887 415.598852,867.375482 C479.251667,890.735296 547.498436,870.37708 592.519912,808.085799 L594.867868,804.768601 L597.024795,801.656918 L635.028291,813.626382 L633.011381,818.812649 C611.641876,873.762026 535.927961,921.675637 463.406941,919.955042 C361.800183,917.512139 282.425017,841.685471 272.494682,745.936368 C261.829002,642.185205 326.611978,554.760202 421.286844,532.058961 L428.777718,530.367173 Z M422.72481,542.38425 L420.165604,543.028815 C332.324297,565.839481 272.740635,647.698694 282.729036,744.861602 C292.126488,835.472571 367.27747,907.263899 463.650565,909.580971 C528.420841,911.117676 596.270487,870.38033 619.957806,822.855459 L621.243886,820.155245 L601.106954,813.804533 L600.895921,814.113949 C554.775885,877.98842 484.97158,900.537237 419.006061,879.501343 L415.537884,878.353934 L412.077689,877.125963 C343.497133,851.917684 305.133584,794.521809 304.249566,723.992914 C303.441154,658.658055 342.282827,598.239111 397.501738,576.818238 L400.529781,575.688707 L406.579955,573.52137 L407.358743,579.94856 C413.431916,630.069298 397.278052,674.450611 364.043791,708.598371 L361.234842,711.420232 C351.19647,721.256445 349.433848,729.025558 352.879545,743.270997 L353.70154,746.561704 L355.982935,745.118809 C416.037298,705.79156 447.644812,613.795764 424.662383,547.551224 L423.526615,544.4165 L422.72481,542.38425 Z M465.20098,640.679037 L470.119394,656.486063 C487.806396,713.329367 517.816121,754.907222 562.863548,784.237379 L567.00027,786.8701 L571.394673,789.603678 L568.668506,794.025626 C522.468223,868.964275 408.734976,868.48018 363.468749,796.367111 L361.881437,793.761196 L359.325074,789.434751 L363.53715,786.729092 C409.521872,757.190454 440.576807,716.46741 458.644173,661.670135 L460.299998,656.491569 L465.20098,640.679037 Z M465.200669,674.109631 L464.880188,675.0405 C446.890453,723.690582 418.203739,761.349162 377.629717,789.739275 L373.354856,792.656248 L373.941115,793.55063 C414.632109,853.978501 510.280007,855.926395 554.654185,796.323886 L556.524234,793.731799 L557.11851,792.843034 L553.270818,790.286545 C513.853948,763.49394 485.766645,727.268058 467.410098,679.994072 L465.200669,674.109631 Z M460.163639,734.220524 L463.958963,729.227574 L522.852342,796.234356 L519.873016,799.672833 C498.780231,824.01627 442.078083,825.806258 411.307203,801.899222 L409.250093,800.22934 L404.933346,796.567353 L412.453313,789.10539 L424.104455,777.755469 L428.751737,773.117729 L432.607535,769.12005 L434.925449,766.61278 L437.172237,764.09337 C439.341241,761.619186 441.520782,758.979282 443.82405,756.0525 L447.012751,751.918332 L460.163639,734.220524 Z M508.911291,796.008013 L464.572998,745.565514 L454.31624,759.368746 C451.820911,762.626894 449.481466,765.559485 447.177622,768.293742 L443.705575,772.296625 L440.117737,776.214981 L436.13452,780.347824 L433.066444,783.426705 L420.440498,795.738211 L422.006065,796.779265 C447.310703,812.79977 488.529164,812.040234 507.703829,797.019889 L508.911291,796.008013 Z M844.217169,493.407443 L847.500435,498.686938 C892.532515,571.098555 883.050573,670.626434 817.303154,736.822483 C754.701024,799.840908 661.019223,811.647143 584.102845,767.520028 C503.810531,721.493267 467.087994,622.234425 495.326654,540.267725 L496.540916,536.862642 L497.988688,532.937026 L502.09908,533.536228 C583.341946,545.379594 652.674613,625.543136 655.413662,710.675248 L655.488086,714.129115 L655.569374,721.587085 L645.149358,717.854369 L641.34312,716.554353 C621.62532,709.791014 612.793374,702.947697 608.055882,685.291671 L607.484529,683.027576 C597.912288,642.753421 573.45245,611.833669 535.606326,590.665107 L531.902059,588.64699 L530.756313,588.053338 L530.526101,591.190786 C526.878696,649.884043 558.817285,704.490712 611.062354,732.485346 L614.1589,734.101224 L617.301597,735.654696 C673.602273,762.722899 744.441356,749.726208 787.278414,705.073329 C833.903533,656.79824 844.767645,591.924416 816.486777,529.028211 L813.235948,522.072504 L844.217169,493.407443 Z M155.252231,424.470253 C233.444907,382.285225 332.02377,400.484744 388.730196,464.746808 L391.241099,467.65495 L394.07629,471.011295 L391.249229,474.374607 C336.469122,539.545665 233.685311,559.364422 162.352953,519.546246 L159.13251,517.695207 L153.596875,514.420086 L157.97103,509.683785 C175.683871,490.504462 187.532158,484.924931 209.663134,490.935042 C247.98035,501.841218 289.003529,496.242026 323.068958,475.554738 L327.170856,472.969693 L329.037142,471.613248 L327.534713,470.3338 C298.835941,446.9779 241.484695,438.538242 198.64631,453.069264 L195.380402,454.232478 L192.397575,455.396604 C126.685339,482.182372 89.4620693,544.171281 95.4968982,612.644632 C98.7691709,649.764586 114.728191,682.024618 142.875213,709.122161 C167.580888,732.906671 197.989447,745.856854 236.559197,750.88815 L241.045911,751.433707 L244.740124,751.850845 L251.986963,785.500911 L253.101809,790.882406 L247.710047,791.69367 C177.989554,802.184072 90.2640693,745.955169 61.6076393,661.265879 C30.8543626,569.838392 70.5724487,469.430168 155.252231,424.470253 Z M841.968123,509.57224 L825.761854,524.556599 L825.84112,524.705243 C854.786332,589.047249 845.053115,655.895309 799.921789,706.627754 L797.329403,709.482065 L794.661539,712.301203 C748.766998,760.141213 673.169816,774.010861 612.873588,745.021679 C550.938344,715.244492 513.382054,651.151026 520.906755,583.001551 L521.34453,579.411155 L522.282928,572.379757 L528.642801,575.41275 C574.344714,597.207778 604.474623,631.232912 616.479105,676.580021 L617.491221,680.610596 C620.937249,695.132215 626.59716,700.266329 642.433182,705.950603 L644.930763,706.817872 L644.750931,704.099578 C639.02331,629.948073 580.206915,560.933743 510.32462,545.578366 L507.040942,544.898068 L504.774834,544.4804 L503.87951,547.194329 C480.225286,621.471139 512.33713,710.135957 582.593084,754.527485 L585.914202,756.575687 L589.189199,758.4995 C662.11699,800.338352 750.736237,789.170125 810.033549,729.478495 C869.36352,669.743682 880.327461,581.470688 844.507036,514.137202 L842.677035,510.788206 L841.968123,509.57224 Z M378.385911,468.704488 C324.437964,410.403997 232.878792,394.359185 160.075855,433.636319 C79.8429638,476.235322 42.2240105,571.33689 71.3489509,657.923466 C97.1930503,734.301359 174.036501,786.274028 237.259437,782.371325 L240.720694,782.082106 L236.213808,761.297015 L235.349696,761.193751 C197.764555,756.306542 167.179762,744.136581 141.870902,722.20308 L138.734649,719.410361 L135.770152,716.628141 C105.853344,687.826799 88.7456976,653.244899 85.2476176,613.563437 C78.8134931,540.559534 118.613075,474.280223 188.542469,445.775447 C237.515881,425.82307 307.311434,436.170739 338.727179,466.446058 L340.640155,468.364119 L344.662638,472.563517 L338.910983,476.992685 L335.841792,479.435913 L333.788986,480.975648 C333.472551,481.201254 333.164479,481.414354 332.858036,481.619451 L331.936865,482.215236 C294.813624,506.18861 249.292965,512.997183 206.927975,500.938504 C192.132812,496.920841 183.84763,499.043943 172.493565,509.64583 L170.766242,511.299996 L170.102521,511.958945 L170.619921,512.242888 C234.286168,545.572978 323.557427,529.808887 375.806028,476.060675 L378.430524,473.295033 L380.475325,471.02176 L378.385911,468.704488 Z M777.198457,546.447685 C787.434429,541.624495 793.441392,544.282056 797.795791,554.475086 C815.394986,595.707991 804.551195,651.022678 772.917631,684.095493 C751.650573,706.225575 726.054918,718.857286 694.041295,723.540143 L689.829036,724.105999 L684.404141,724.771225 L684.072658,719.270165 C680.73439,663.870656 661.24242,617.033308 624.299474,575.103968 L620.784907,571.18736 L611.247289,560.7492 L627.482766,562.80732 L644.22673,564.774748 L650.253205,565.564186 L655.522651,566.374749 C695.664026,573.183629 735.295438,566.115596 777.198457,546.447685 Z M134.992219,537.804376 L139.874204,540.234755 C192.387091,566.377041 243.930721,573.462793 299.666813,560.625938 L304.745424,559.404044 L321.860724,555.111051 L309.71867,568.011161 C269.912468,610.302558 248.82967,657.578579 244.149843,714.126238 L243.769527,719.292595 L243.417035,724.751648 L238.030125,724.107885 C191.531701,718.551081 157.49697,696.653476 135.55472,657.999128 C116.019159,623.653235 115.210697,587.093032 131.303928,546.659352 L132.862129,542.857296 L134.992219,537.804376 Z M140.293276,551.962202 L139.348433,554.431133 C125.941777,590.469823 127.237759,622.521464 144.482469,652.839766 C162.910065,685.302556 190.284889,704.809391 227.602167,711.998014 L231.498082,712.697749 L233.908916,713.064813 L234.358156,708.214433 C239.184196,660.179031 255.697146,618.439719 285.106361,580.809258 L288.427184,576.644893 L291.500336,572.923701 L286.788098,573.779991 C239.533366,581.803935 194.806931,575.802912 149.939813,556.349886 L144.953863,554.13311 L140.293276,551.962202 Z M788.345132,558.579357 L787.543834,556.731341 C786.367882,554.138014 785.821953,553.920913 783.310628,555.033561 L781.547222,555.852348 C739.422534,575.624309 699.15058,583.244411 658.363544,577.323886 L650.509932,576.085632 L642.936017,575.069912 L637.27523,574.386856 L639.007226,576.47944 C669.548994,613.885267 687.296092,655.269943 692.917707,702.629993 L693.492466,707.916912 L693.940578,713.054436 L696.706558,712.611314 C721.856742,708.274265 742.415203,698.522502 759.932284,682.361665 L762.823903,679.608678 L765.520225,676.882476 C794.307588,646.785337 804.280358,595.913773 788.345132,558.579357 Z M772.637455,585.264748 L773.70973,590.176244 C781.588307,626.263628 756.358028,671.193702 721.626229,684.083318 L719.347883,684.878099 L714.596971,686.430091 L684.666984,601.915239 L772.637455,585.264748 Z M154.025487,588.780082 L154.96942,583.418134 L167.825673,586.403309 L182.84268,589.942861 L191.93731,591.97106 L198.068436,593.229386 L201.567742,593.901765 L211.678365,595.691106 L236.122431,599.597142 L242.146529,600.585873 L213.85819,683.465894 L209.711961,682.943218 C179.114104,679.086042 147.827828,632.788288 153.640491,591.219495 L154.025487,588.780082 Z M764.476434,597.361489 L698.406305,609.865749 L720.837839,673.206834 L722.382995,672.526076 C748.090542,660.34868 767.130663,627.239615 764.656329,598.993712 L764.476434,597.361489 Z M163.455378,596.022858 L163.33804,597.648234 C161.443692,630.002032 184.02448,664.60457 206.148784,671.572416 L206.949917,671.795565 L228.434799,608.859182 L208.223059,605.629749 L203.416919,604.78641 L196.09454,603.413641 L191.933485,602.571254 L183.086329,600.639653 L175.051211,598.775991 L163.455378,596.022858 Z M681.172804,153.635936 C742.937515,143.320283 826.11567,191.763914 858.125139,265.995234 C897.492449,357.322066 866.664112,459.049024 783.407966,511.626851 C705.338507,560.957725 607.317051,547.975924 541.842455,479.661483 L539.016402,476.656445 L535.99582,473.383214 L538.75994,469.887093 C589.702173,405.454206 690.239632,384.462261 764.533525,423.326204 L767.842327,425.106437 L772.98558,427.951522 L769.517554,432.72291 C755.414591,452.12608 743.968178,457.243708 723.70675,452.2317 L721.418622,451.633336 C683.315928,441.06465 645.933728,446.559657 607.72889,466.6857 L604.672823,468.669667 L601.6921,470.764814 L600.592469,471.582117 L602.355537,473.06549 C634.54782,499.091994 692.061849,506.862125 739.86456,486.411647 L743.183436,484.938956 L746.326086,483.443912 C807.087008,453.571409 840.426695,394.190652 831.60648,325.053884 C822.457758,253.336265 768.077672,202.419713 691.442366,192.767824 L687.655575,192.3265 L683.961226,191.930438 L675.819134,154.530081 L681.172804,153.635936 Z M848.689071,270.133509 C820.003051,203.609408 747.474749,158.918316 691.412755,162.866696 L688.229797,163.13677 L692.438282,182.437952 L692.567546,182.452054 C771.235597,192.305984 828.345253,243.718538 840.744816,316.555069 L841.318482,320.154377 L841.812061,323.729765 C851.206752,397.36953 815.489584,460.984776 750.835691,492.77122 C695.923634,519.777124 626.737363,510.133076 591.065167,476.95316 L589.044678,475.012915 L585.017351,471.019014 L589.335366,467.346953 C593.426884,463.867505 597.766543,460.69615 602.640598,457.673996 C642.005639,436.921184 680.718392,430.731714 720.064138,440.5519 L724.136698,441.62495 C738.823774,445.664495 746.442787,444.136327 755.808319,433.450485 L757.53089,431.381697 L756.338418,430.785057 C690.059016,398.238112 602.679467,415.004215 553.835438,468.118238 L551.425625,470.804169 L549.648192,472.868862 L552.196271,475.470538 C612.368516,535.728568 699.627015,548.067876 771.180019,506.914008 L774.575263,504.913845 L777.945737,502.832681 C855.791684,453.671496 885.224775,359.393947 850.186103,273.698429 L848.689071,270.133509 Z M80.709502,237.807029 C136.040464,152.47027 246.329628,123.469121 335.767227,170.148385 L339.029894,171.889964 L342.299992,173.728148 C421.300785,219.232095 459.553521,321.535203 430.782941,401.077487 L429.54531,404.378364 L428.105981,408.084793 L424.183355,407.642723 C344.32198,398.64255 271.276684,314.098457 270.684149,230.643101 L270.697224,227.433978 L270.786568,221.593419 L276.527034,222.371793 C299.605921,225.50116 313.17142,237.023485 319.765577,259.918504 L320.469701,262.509347 C330.347272,300.822272 353.838875,330.038872 389.862662,350.306723 L393.633921,352.371481 L394.973504,353.066631 L395.275071,350.519013 C400.686126,298.056515 371.405284,241.888961 322.510715,212.363054 L319.492791,210.588891 L316.487202,208.91564 C262.56572,179.041058 195.945844,185.892588 149.112342,226.130706 C94.0549846,273.390103 78.9362938,342.972562 108.809903,411.567226 L110.395239,415.114225 L111.84477,418.276221 L84.7652922,447.619986 L81.0152382,444.374916 C40.788015,409.564711 41.6008448,297.368973 80.709502,237.807029 Z M334.132546,181.016248 C248.837267,134.465253 142.398317,161.625877 89.3051564,243.511125 C55.2219901,295.419453 52.2583562,391.498046 81.001502,429.274218 L82.6309673,431.312262 L84.1527024,433.042014 L99.628403,416.272815 L99.4287714,415.831656 C68.7625999,345.503902 82.827021,273.524811 136.67661,223.383165 L139.547508,220.764422 L142.441206,218.23011 C192.526299,175.19831 263.774274,167.870802 321.398359,199.797041 C379.687171,231.361595 414.253555,297.760243 404.596424,358.575409 L404.036656,361.827793 L402.80805,368.45027 L396.772981,365.560669 C353.005461,344.604706 323.937299,312.380233 311.585822,269.079558 L310.509068,265.112626 C306.065725,247.765589 298.025489,238.485124 283.719257,234.401944 L281.632595,233.853678 L281.035717,233.710609 L281.039429,233.933829 C283.40732,307.871775 346.169293,382.509324 416.110168,395.925813 L419.294058,396.493275 L421.356281,396.795224 L422.273704,394.192723 C446.688213,321.068298 411.889545,228.06123 340.606798,184.756207 L337.341626,182.822269 L334.132546,181.016248 Z M685.385641,217.075554 L690.741565,217.653477 C736.242544,222.563192 769.758215,244.681558 790.959549,284.149115 C809.950434,319.480831 811.024931,356.406101 794.986034,395.243257 L793.380485,399.007671 L791.190566,403.98494 L786.366604,401.538804 C735.852933,375.924314 685.608322,369.104199 630.887189,381.449571 L625.743824,382.66311 L609.398995,386.687566 L620.716669,374.132519 C659.679223,330.910148 680.296273,283.407991 684.694007,227.740593 L685.058842,222.497734 L685.385641,217.075554 Z M237.793918,217.641002 L238.16885,222.47234 L243.339682,222.282729 C247.584993,278.47509 266.421791,324.992292 302.746107,366.504455 L306.202833,370.3817 L309.762555,374.230473 L322.254208,387.494945 L304.717155,382.819682 C249.639262,368.136277 198.389727,374.060842 144.69859,399.110542 L139.810676,401.440432 L134.941388,403.810418 L132.835785,398.788301 C114.313498,354.610407 115.68671,314.302748 138.725415,277.642439 C160.780355,242.697328 192.709685,222.41674 233.904753,218.007804 L237.793918,217.641002 Z M694.938678,228.636266 L694.501119,233.677354 C689.75997,282.485135 672.740237,325.383873 642.233835,364.549685 L638.437966,369.306604 L638.846608,369.225245 C686.873277,360.326577 731.911564,365.840318 776.624795,385.471844 L781.414376,387.62923 L786.053923,389.821893 L786.945452,387.599424 C799.360465,355.342636 798.91879,324.968615 785.18397,295.602676 L783.603152,292.343898 L781.912793,289.093151 C764.123035,255.976449 737.281524,236.319316 700.860935,229.599809 L697.186926,228.970964 L694.938678,228.636266 Z M233.528197,228.501366 L231.031795,228.806791 C194.901706,233.711075 167.073538,252.051898 147.411297,283.20586 C128.212154,313.756489 125.432382,346.896235 138.062725,383.621076 L139.377088,387.305547 L140.293276,389.7285 L145.189203,387.49506 C191.061148,366.990665 235.622381,359.973646 282.189479,367.4133 L287.186638,368.265769 L291.335701,369.057557 L288.505443,365.638161 C258.215979,328.394629 240.850193,287.057096 234.691435,238.972672 L234.053161,233.602058 L233.528197,228.501366 Z M370.296936,27.6499633 C486.068786,-40.5030414 632.277142,23.2069158 659.414386,154.417828 C674.957354,229.452891 652.240065,294.59321 592.901956,345.194445 C573.051614,362.109833 550.017071,374.259052 522.267245,383.305032 C510.520346,387.138662 502.174548,382.883081 499.348405,370.314065 C483.047431,297.659469 501.351637,234.209384 553.525303,180.614017 C556.382992,177.682255 559.505662,174.931831 563.448665,171.807028 L567.342296,168.811441 L581.13042,158.374649 L588.144471,152.810172 L593.031255,172.115892 C593.139661,172.573914 593.238599,173.008416 593.329822,173.428126 L593.849609,176.144191 C596.275922,190.853685 594.320686,200.48501 584.902985,210.367644 L583.263743,212.01799 C551.056976,243.259662 535.592006,280.838022 537.622689,323.985033 L537.864345,328.046356 L537.979678,329.542018 L540.425313,328.462248 C585.629192,307.754464 617.817085,259.037522 621.151141,203.947386 L621.327509,200.345737 L621.418897,196.875351 C622.456743,128.115065 579.019324,68.0003292 509.855485,48.0595323 C450.623733,30.9823525 382.168667,53.8678585 343.926226,110.778229 L341.870475,113.916139 L339.735736,117.259076 L298.463479,103.967156 L301.543463,98.4222855 C317.828952,69.1036453 341.553501,44.6805622 370.296936,27.6499633 Z M649.341464,156.536619 C623.650497,32.3185772 485.234031,-27.9960818 375.496784,36.6044264 C352.492877,50.2343514 332.884347,68.8829686 318.068744,91.1115789 L315.347327,95.3210452 L313.715787,97.979714 L335.396173,104.963421 L337.512466,101.897509 C377.215881,45.5051092 445.279534,21.8230171 505.972359,36.3147126 L509.336373,37.159115 L512.683859,38.0822724 C586.356415,59.3229885 632.815484,123.619504 631.707388,197.034077 C630.724585,261.50324 592.518005,319.214571 538.330362,340.617193 L535.303631,341.768685 L529.22073,343.995146 L528.441021,337.51665 C522.398492,287.310122 537.732603,243.379883 573.13781,207.506001 L576.134677,204.535198 C583.758428,197.156267 585.546719,191.024916 584.022207,179.971205 L583.657495,177.595861 L583.147096,175.24065 L582.02986,170.691211 L572.15085,178.138872 C567.356389,181.820451 563.891558,184.781748 560.865645,187.886093 C511.128308,238.978743 493.860926,298.83476 509.383872,368.021633 C510.817536,374.397721 512.894822,375.456944 519.1008,373.431608 C545.650495,364.77685 567.50764,353.248632 586.259396,337.269399 C641.645398,290.038367 663.271955,230.171507 650.153544,160.639442 L649.341464,156.536619 Z M714.593541,256.076758 L719.122554,257.132244 C753.518934,265.148314 784.603693,320.150071 774.002093,352.637287 L773.34394,354.486076 L771.78504,358.517 L685.714902,341.714476 L714.593541,256.076758 Z M209.512821,258.211369 L213.637678,257.712052 L241.934168,340.459845 L156.269283,357.266744 L154.743167,353.153148 C142.244557,319.46356 175.511723,264.229278 207.724599,258.479443 L209.512821,258.211369 Z M722.232876,269.008384 L721.218558,268.618769 L699.23977,333.786202 L764.980629,346.622526 L765.218963,345.535648 C770.036851,320.188486 747.418318,279.48456 722.232876,269.008384 Z M206.733833,269.355535 L205.893367,269.605497 C182.604489,277.176484 158.06513,317.467048 162.923805,344.147147 L163.167266,345.335781 L228.342191,332.551342 L206.733833,269.355535 Z M457.480235,77.6046489 C501.390941,75.1120352 536.887163,92.1833205 565.851879,128.838964 L568.390687,132.12411 L571.718074,136.525488 L567.148207,139.590249 C519.844135,171.314518 489.12504,211.900315 471.639911,266.2287 L470.086718,271.205638 L465.223599,287.283502 L460.254801,271.238535 C442.944917,215.342421 412.903474,173.481125 367.78444,142.789761 L363.510286,139.945082 L359.065327,137.050585 L362.058888,132.650777 C385.59573,98.0573271 417.122989,80.0085227 457.480235,77.6046489 Z M555.310455,132.220154 C528.872071,100.267639 497.282832,85.7386386 458.072718,87.964402 C424.62616,89.9566582 398.096805,103.428719 377.27443,129.400289 L374.984256,132.337509 L373.581229,134.216127 L377.665719,137.052983 C416.872222,164.846727 444.848582,201.192306 462.929591,247.623866 L465.118352,253.447625 L465.17087,253.299691 C482.082441,206.463825 509.269492,169.651528 548.664808,140.026722 L552.932538,136.880009 L556.830399,134.101981 L555.310455,132.220154 Z M517.075539,123.733288 L519.888803,125.509444 L524.897411,128.772425 L464.953001,197.620123 L406.419118,130.009106 L410.49586,126.613232 C438.306198,103.447582 478.997716,101.905946 514.158658,122.008014 L517.075539,123.733288 Z M421.263674,131.372835 L464.974296,181.867219 L509.178823,131.092656 L508.789239,130.86694 C480.066547,114.566053 447.699817,114.291077 423.810836,129.6522 L421.263674,131.372835 Z" id="Combined-Shape"></path>
        </g>
    </g>
</svg>