<?xml version="1.0" encoding="UTF-8"?>
<svg width="1080px" height="1080px" viewBox="0 0 1080 1080" version="1.1" xmlns="http://www.w3.org/2000/svg" xmlns:xlink="http://www.w3.org/1999/xlink">
    <title>my-rituals-phase-logo-purpose-01</title>
    <defs>
        <linearGradient x1="84.8797596%" y1="9.72005483%" x2="6.7033179%" y2="100%" id="linearGradient-1">
            <stop stop-color="#9E8449" offset="0%"></stop>
            <stop stop-color="#9E8449" offset="16.3338047%"></stop>
            <stop stop-color="#C6BE83" offset="23.5528382%"></stop>
            <stop stop-color="#9E8449" offset="26.8400461%"></stop>
            <stop stop-color="#9E8449" offset="40.2796164%"></stop>
            <stop stop-color="#C7C085" offset="43.0372295%"></stop>
            <stop stop-color="#9E8449" offset="62.9949277%"></stop>
            <stop stop-color="#9E8449" offset="100%"></stop>
        </linearGradient>
    </defs>
    <g id="my-rituals-phase-logo-purpose-01" stroke="none" stroke-width="1" fill="none" fill-rule="evenodd">
        <g id="brand-/-logo-/-myrituals_crm_tier_logo_01" transform="translate(80.000000, 80.000000)" fill="url(#linearGradient-1)">
            <path d="M457.764501,637.610829 L462.903617,654.584073 C477.56248,702.998718 503.213498,747.399162 537.869932,784.345287 C555.827867,803.508423 575.922672,820.554531 597.758673,835.154931 L603.756818,839.075974 L608.612881,842.17891 L605.160199,846.783935 C570.420843,893.117645 515.683542,920.283084 457.696047,919.997686 C401.055892,920.281666 347.558204,894.41726 312.728641,850.099735 L310.272773,846.902918 L306.821944,842.30695 L311.664285,839.198201 C330.863499,826.87244 348.794135,812.687343 365.212268,796.832964 C404.658758,759.077526 434.058101,712.176752 450.811425,660.360095 L452.620732,654.582674 L457.764501,637.610829 Z M457.755718,673.24047 L457.197567,674.839858 C439.421613,723.899899 410.522782,768.305716 372.670123,804.535584 C357.640032,819.04965 341.363902,832.217365 324.030771,843.889176 L322.363567,844.972928 L323.917136,846.887549 C354.953343,884.38454 400.525044,907.012929 449.292767,909.131196 L453.603807,909.264731 L457.695521,909.294423 C508.195832,909.542654 556.038841,887.714347 588.814902,849.966123 L591.511097,846.783718 L593.040457,844.8766 L591.773758,844.042651 C573.578832,831.876819 556.556398,818.06429 540.922476,802.784677 L535.125263,796.986404 L530.021162,791.652101 C500.033351,759.683049 476.575253,722.306503 460.855523,681.614575 L458.555753,675.486182 L457.755718,673.24047 Z M457.678386,782.209181 L462.011809,788.145118 C471.234846,800.778866 481.209,812.850801 491.876215,824.291278 C495.481353,828.148268 499.164829,831.934059 502.926673,835.648679 L508.62822,841.167233 L514.454915,846.695379 L507.09678,849.937467 C491.528787,856.796922 474.698029,860.351206 457.668801,860.374041 C442.042998,860.374041 426.574876,857.393847 412.095666,851.608382 L408.171934,849.961107 L400.802643,846.71586 L408.891029,839.060722 L414.948459,833.077947 C426.854874,821.065704 437.981861,808.313311 448.262793,794.898356 L453.332447,788.136025 L457.678386,782.209181 Z M457.648306,800.244356 L456.799258,801.394553 C448.00118,812.874443 438.59686,823.884789 428.611247,834.394102 L422.550324,840.639313 L420.011329,843.142685 L420.381039,843.286458 C431.007688,847.03619 442.150229,849.164202 453.427166,849.590804 L457.661573,849.67087 C468.956737,849.655721 480.159611,847.936324 490.894115,844.592097 L495.242319,843.131982 L489.629494,837.472111 L484.011782,831.58135 C476.702694,823.742432 469.712104,815.61738 463.056322,807.225932 L457.648306,800.244356 Z M666.794107,731.627587 L668.343998,739.825054 C670.624619,751.887395 672.168512,764.076535 672.972477,776.419626 L673.17095,781.684194 C673.305478,785.989376 673.381047,790.317421 673.367008,794.370014 L673.311101,799.063639 C673.143803,806.356439 672.556274,811.073181 670.803991,814.316192 L670.242619,815.245986 L669.865387,815.640419 L668.3896,816.716544 L667.854919,816.996123 C665.002743,818.287153 661.789201,817.492831 655.540011,814.224203 L652.150065,812.381896 L643.662047,807.46966 L638.428049,804.303107 L628.51324,798.056483 C621.119645,793.107631 613.954382,787.830153 607.039039,782.240324 L601.899728,777.989641 L595.456328,772.537135 L603.147364,769.041473 C613.819158,764.191025 624.237813,758.805597 634.357227,752.909427 C640.989203,749.033489 647.448097,744.978099 653.734084,740.743225 L659.962442,736.448522 L666.794107,731.627587 Z M261.589793,722.659998 L268.491448,727.539353 C278.147342,734.365909 288.140076,740.706603 298.413282,746.527003 C305.225438,750.350304 312.066119,753.928092 318.935369,757.260512 L325.814145,760.511148 L333.436345,764.017624 L327.046248,769.443316 C317.677009,777.398533 307.824036,784.770032 297.464026,791.566943 L293.308349,794.13706 C290.16183,796.056857 286.930137,797.977148 283.788172,799.77377 L281.259133,801.202987 L276.976083,803.539686 C270.984287,806.710403 266.847191,808.370304 263.311862,808.433927 L262.153988,808.395896 L261.645728,808.26549 L260.583089,807.869547 L260.151635,807.64319 C257.261969,805.973943 256.155896,803.001951 255.765905,796.056679 L255.632868,792.559317 L255.572967,786.12767 L255.57858,783.638453 C255.589394,780.865747 255.635774,777.967412 255.710024,775.021007 L256.111011,763.897097 C256.668301,755.060452 257.631582,746.255058 258.997506,737.508576 L260.097393,730.960193 L261.589793,722.659998 Z M659.195178,749.971538 L653.215118,753.911042 C648.817865,756.737929 644.341448,759.482574 639.785154,762.145415 C635.609818,764.578215 631.386136,766.926181 627.116747,769.187951 L620.67871,772.515788 L615.339077,775.134705 L618.84543,777.909451 L623.968146,781.7729 L629.168539,785.514746 L635.045277,789.522144 L638.914633,791.985687 L644.058437,795.18824 L651.519166,799.665719 L655.497719,801.942166 C656.122841,802.29161 656.728238,802.625586 657.312799,802.943365 L660.561245,804.649844 L662.224182,805.456803 L662.44996,801.745358 L662.61163,796.074882 L662.625926,794.333066 C662.634966,791.723498 662.605308,788.982469 662.545726,786.203211 L662.311655,778.505025 L662.248616,777.019207 C661.940426,772.292565 661.517204,767.57512 660.979475,762.871022 L660.087068,755.825405 L659.195178,749.971538 Z M269.323786,741.109309 L268.697312,745.477699 C267.856646,751.808599 267.235129,758.157552 266.834976,764.498146 L266.57644,770.934022 C266.42945,775.298673 266.335407,779.638721 266.319645,783.680049 L266.342,788.42572 L266.45094,792.566937 C266.476535,793.202986 266.505905,793.811011 266.539134,794.389596 L266.702946,796.669495 L268.422636,795.850664 L272.882629,793.567689 L277.212577,791.189527 L283.062898,787.798337 L291.636232,782.576636 C295.600819,779.975202 299.499452,777.277243 303.328665,774.485352 L309.019987,770.227391 L313.631015,766.582868 L307.181208,763.373583 L303.660437,761.554413 L300.143993,759.692848 L293.123206,755.84205 C288.88175,753.439027 284.689639,750.951991 280.549344,748.382509 L274.378074,744.466649 L269.323786,741.109309 Z M860.607465,528.525652 L862.913177,533.546224 C887.114136,586.242595 884.114524,647.370048 854.870379,697.460895 C826.246231,746.523111 776.148162,779.213862 719.741353,785.84912 L715.795949,786.269648 L710.275944,786.797203 L709.923493,781.282643 C704.883677,702.428126 672.624653,627.79923 618.713468,570.010428 L614.917162,566.006133 L602.151496,552.756142 L620.061492,557.100135 C697.341222,575.844007 778.680955,567.475357 850.412222,533.509748 L855.643505,530.9788 L860.607465,528.525652 Z M856.525735,545.88448 L855.339253,543.014928 L855.148023,543.117408 C788.301218,574.802044 713.352176,584.920443 640.711667,572.318261 L634.157566,571.110765 C682.656477,626.566267 712.584252,695.735333 719.707348,768.987924 L720.226372,774.984861 L722.711922,774.668581 C771.331016,767.715115 814.581994,740.13248 841.283863,699.059895 L843.531806,695.506517 L845.585247,692.080117 C870.884369,648.746505 875.288774,596.627397 858.098576,549.985376 L856.525735,545.88448 Z M50.4618048,515.167186 L55.4222675,517.606209 C76.089236,527.768007 97.7174617,535.860447 120.00239,541.768118 C173.948164,556.219449 230.581921,557.364094 285.017278,545.145916 L291.056356,543.733347 L309.052081,539.353255 L296.197968,552.645494 C241.172493,609.546485 207.780552,683.714406 201.652442,762.383572 L201.269205,767.879262 L200.929103,773.402123 L195.401085,772.879116 C137.322471,767.384293 85.4765324,734.293468 56.1810808,684.022224 C27.6930665,635.163295 24.1522951,575.827559 46.4414599,524.048891 L48.1615922,520.179942 L50.4618048,515.167186 Z M55.7468301,529.625255 L54.5545275,532.511928 C35.5731967,580.161382 39.4644552,634.046619 65.469093,678.646386 C90.9903068,722.441004 134.705768,752.372789 184.421811,760.659096 L188.46575,761.283372 L190.934899,761.595188 L191.406509,756.152547 C197.926115,686.431579 225.220482,620.373486 269.576604,566.396832 L273.534563,561.665753 L276.896294,557.763905 L274.868098,558.160559 C226.878827,567.137686 177.521524,566.156624 129.90078,555.254949 L123.418097,553.706869 L117.227346,552.107908 C96.8199692,546.697988 76.9364307,539.505645 57.8070412,530.617051 L55.7468301,529.625255 Z M817.517915,611.395471 L816.796341,619.099809 C815.217748,635.954644 809.98841,652.267598 801.463633,666.922596 C793.604158,680.370867 783.159558,692.124546 770.742705,701.517965 L767.307852,704.020788 L760.905113,708.512489 L758.215488,697.974002 C753.009525,678.725483 746.371783,659.894315 738.359097,641.636421 L734.841074,633.847162 L731.639942,626.95653 L739.22875,626.269375 C755.131349,624.829418 770.934249,622.45092 786.545676,619.148221 C791.799977,618.027735 797.030404,616.808787 802.236992,615.491368 L810.028999,613.441387 L817.517915,611.395471 Z M94.1636488,605.649423 L93.4267271,597.941622 L103.911284,600.791701 L112.311352,602.926304 C129.045917,606.992666 146.018387,610.006306 163.128228,611.950184 L171.69413,612.832896 L179.272815,613.534003 L176.069414,620.413923 C169.378882,634.783128 163.562384,649.540593 158.652692,664.602512 C156.996019,669.697626 155.441765,674.792212 153.989903,679.886293 L151.888902,687.527038 L149.914835,694.978132 L143.597887,690.532231 C129.711657,680.759028 118.097084,668.124332 109.535478,653.474029 C101.728379,640.04117 96.6719884,625.214509 94.6420309,609.851877 L94.1636488,605.649423 Z M804.992393,626.402987 L805.070688,625.803994 L804.880204,625.865396 C799.541676,627.216173 794.177414,628.466272 788.784925,629.616223 C775.422093,632.443223 761.928848,634.610054 748.354637,636.109274 L747.670002,636.164669 L748.200355,637.347919 C755.251586,653.414951 761.265403,669.913311 766.203279,686.735648 L767.283335,690.590318 L767.824024,690.166711 C776.470729,683.030081 783.950381,674.58437 789.982564,665.135476 L792.176235,661.545714 C798.509078,650.658867 802.840975,638.757941 804.992393,626.402987 Z M105.875761,612.328696 L105.980969,612.938053 C108.152972,625.301467 112.494546,637.208625 118.823933,648.098964 C125.189474,658.991419 133.417505,668.663552 143.115658,676.68853 L143.620149,677.08291 L143.65698,676.963605 C144.400974,674.353172 145.171171,671.742727 145.967613,669.132133 L148.435718,661.299768 C151.798428,650.983664 155.574534,640.808255 159.754432,630.797904 L163.222741,622.72148 L161.911303,622.584424 C147.279714,620.921997 132.742035,618.496278 118.33807,615.31244 L109.712056,613.311205 L105.875761,612.328696 Z M459.997835,398.94823 C493.834874,398.94823 521.265214,426.281602 521.265214,459.999026 C521.265214,493.71645 493.834874,521.049822 459.997835,521.049822 C426.160795,521.049822 398.730455,493.71645 398.730455,459.999026 C398.730455,426.281602 426.160795,398.94823 459.997835,398.94823 Z M459.997835,409.651406 C432.092967,409.651406 409.471602,432.192803 409.471602,459.999026 C409.471602,487.805249 432.092967,510.346646 459.997835,510.346646 C487.902703,510.346646 510.524068,487.805249 510.524068,459.999026 C510.524068,432.192803 487.902703,409.651406 459.997835,409.651406 Z M796.580712,420.817659 L804.51709,423.80014 C816.007766,428.11832 827.204877,433.175557 838.129054,438.989655 L842.790369,441.64983 C845.112908,442.996332 847.436079,444.371152 849.693613,445.742219 L856.11326,449.755191 L859.986849,452.32467 C864.708105,455.564337 867.688214,458.13586 869.322765,460.964118 L869.873421,462.038555 L870.021901,462.596976 L870.20094,463.998291 C870.180141,467.611342 867.63051,470.395138 860.77508,475.050555 L857.298827,477.341941 L853.172276,479.958127 C848.374297,482.965307 843.25683,485.98811 838.604794,488.643926 L834.596664,490.905882 C826.718365,495.160551 818.645206,499.044052 810.403947,502.543894 L804.191902,505.096646 L796.049654,508.331808 L796.854876,499.634062 C798.015233,487.100258 798.602234,474.501412 798.602239,461.909454 C798.59074,453.590951 798.337853,445.386185 797.843692,437.295056 L797.269111,429.241804 L796.580712,420.817659 Z M123.957171,411.661812 L123.140188,420.370488 C121.975761,432.782757 121.393436,445.357752 121.393431,458.088547 C121.404929,466.349558 121.657847,474.544987 122.152126,482.674962 L122.726857,490.783123 L123.410048,499.215199 L115.471106,496.218306 C103.987232,491.883226 92.7937616,486.819734 81.8666158,481.008397 L77.2048411,478.347593 L70.3010518,474.253442 L65.3845114,471.201743 L63.8603466,470.224305 C56.8515196,465.687698 52.7095422,462.550305 50.6700884,459.009023 L50.1205636,457.932719 L49.9720844,457.371517 L49.7947312,455.976316 C49.8151705,452.452811 52.1809463,449.79934 58.5682633,445.403592 L61.8079126,443.24156 L67.168449,439.823364 L68.7365346,438.850636 C71.161623,437.355982 73.6977544,435.835106 76.2705094,434.324477 L84.3682766,429.667903 L85.3990051,429.09217 C93.2773042,424.837501 101.350463,420.954 109.591722,417.454157 L115.803768,414.901406 L123.957171,411.661812 Z M808.572302,436.914345 L808.98948,444.984701 C809.217562,450.572562 809.335516,456.211392 809.34338,461.902082 C809.34338,467.07369 809.247014,472.244958 809.055184,477.411694 L808.695954,485.157875 L808.260809,491.778825 L812.107023,490.104421 L817.952308,487.377098 L823.722476,484.51883 L829.957519,481.227792 L836.736857,477.355419 L843.910001,473.086799 C845.104424,472.35909 846.289817,471.627433 847.453461,470.898108 L851.238726,468.47611 L854.482297,466.291979 L857.713047,463.918458 L855.857639,462.543815 L853.133356,460.636801 L850.266604,458.733823 L847.315972,456.859764 C845.215101,455.546996 843.009371,454.209456 840.768267,452.881524 L832.978111,448.381261 C828.809058,446.16283 824.583932,444.053255 820.307084,442.054502 L813.853566,439.139736 L808.572302,436.914345 Z M111.718944,428.212663 L107.887902,429.894046 C103.966512,431.668385 100.090709,433.532361 96.2672401,435.482538 L89.8808588,438.857827 L85.5204568,441.338805 C82.9873545,442.796873 80.4548385,444.282104 78.0003078,445.755942 L71.4183724,449.807156 L67.2704414,452.50383 C66.0096687,453.348702 64.8752361,454.137015 63.8805516,454.86115 L62.2774472,456.062327 L62.9941466,456.60849 L65.422908,458.359578 L68.3977996,460.387908 L72.6809946,463.136198 C74.7816642,464.449671 76.9872068,465.787732 79.2281297,467.116019 L87.0160761,471.616003 C91.1879735,473.834276 95.4151854,475.945144 99.693478,477.946691 L106.148698,480.866782 L111.418192,483.077143 L111.006132,474.959728 L110.855747,470.760781 L110.746646,466.550561 L110.652289,458.09597 C110.652289,452.868337 110.747924,447.666574 110.939208,442.490713 L111.297873,434.746353 L111.718944,428.212663 Z M719.066566,146.595929 L724.594585,147.118936 C782.673198,152.613759 834.519137,185.704584 863.814747,235.976099 C892.298324,284.834024 895.847204,344.163555 873.576851,395.947072 L871.858149,399.816406 L869.559647,404.830076 L864.598272,402.392619 C843.920966,392.234138 822.284698,384.141563 799.993279,378.229934 C746.047505,363.778603 689.413749,362.633957 634.978391,374.852136 L628.939313,376.264705 L610.943589,380.644797 L623.797702,367.352558 C678.823176,310.451567 712.215118,236.283646 718.343228,157.614479 L718.726464,152.11879 L719.066566,146.595929 Z M209.721486,137.679903 L210.072285,143.196251 C215.087165,222.055731 247.348701,296.691714 301.279615,354.46655 L305.077325,358.469837 L317.858124,371.727098 L299.933444,367.376883 C222.656739,348.622278 141.31603,356.983075 69.5833063,390.944652 L64.3519157,393.475312 L59.3880849,395.928076 L57.0824923,390.907764 C32.8815337,338.211394 35.881146,277.08394 65.125914,226.992026 C93.7583131,177.941717 143.853921,145.261431 200.25481,138.627959 L204.199796,138.207541 L209.721486,137.679903 Z M729.044854,158.385598 L728.589161,163.845505 C722.069555,233.566473 694.775188,299.624566 650.419065,353.60122 L646.461106,358.332299 L643.072717,362.238287 L645.127572,361.837493 C693.116847,352.860368 742.474191,353.84144 790.095279,364.743206 L796.57801,366.291299 L802.768812,367.890273 C823.181075,373.303539 843.070406,380.495877 862.207401,389.381484 L864.265146,390.35553 L865.460879,387.4869 C883.356962,342.518812 880.89453,292.006403 858.712965,248.979969 L856.642154,245.08946 L854.526577,241.351666 C829.005363,197.557047 785.289902,167.625263 735.573859,159.338956 L731.52992,158.71468 L729.044854,158.385598 Z M199.75338,149.480555 L197.28444,149.808375 C145.965053,157.146729 100.624578,187.466267 74.4104222,232.373872 C49.1113003,275.707484 44.7068955,327.826592 61.8970932,374.468613 L63.4699345,378.569508 L64.6512405,381.429081 L64.848025,381.336737 C131.69646,349.655728 206.646759,339.54426 279.285433,352.155972 L285.822187,353.354651 C237.317354,297.924102 207.387159,228.747948 200.284748,155.488631 L199.75338,149.480555 Z M770.08031,225.04511 L776.396689,229.48826 C790.280293,239.254445 801.894674,251.880642 810.458367,266.520886 C818.280079,279.957887 823.339129,294.796348 825.357613,310.171222 L825.832514,314.377019 L826.572203,322.194303 L817.52986,319.611604 L816.025703,319.214296 C796.605555,314.046581 776.83304,310.314664 756.86944,308.04724 L748.302384,307.165234 L740.722797,306.465245 L743.926121,299.584418 C750.613059,285.220693 756.429749,270.470389 761.342978,255.418748 C762.999651,250.323634 764.553905,245.229048 766.005766,240.134967 L768.106768,232.494222 L770.08031,225.04511 Z M152.661769,220.435137 L159.065987,215.9364 L161.486847,225.490074 L161.755911,226.476365 C166.975827,245.72278 173.615613,264.55451 181.619362,282.818173 L185.132886,290.610231 L188.328412,297.501462 L180.741076,298.184845 C164.83895,299.617131 149.036072,301.987979 133.414857,305.285072 C128.155554,306.394271 122.927015,307.608592 117.729195,308.928043 L109.955499,310.986067 L102.444089,313.056976 L103.176574,305.325289 C104.77204,288.484466 109.999458,272.185795 118.510445,257.528488 C126.376837,244.087804 136.819425,232.337567 149.229022,222.939447 L152.661769,220.435137 Z M776.880025,243.329891 L776.370345,242.929984 L776.338664,243.057733 C774.850626,248.278753 773.257673,253.500135 771.559267,258.723591 C768.193978,269.033137 764.417173,279.202465 760.238377,289.207419 L756.757011,297.270009 L758.08576,297.412896 C775.646634,299.407344 793.060196,302.50518 810.202791,306.682785 L814.114733,307.673496 L814.020641,307.074043 C812.096667,296.079093 808.450985,285.4451 803.211919,275.568435 L801.172831,271.900959 C794.805193,261.015046 786.576897,251.349277 776.880025,243.329891 Z M152.685677,233.853691 L152.153174,234.289179 C142.428008,242.322347 134.176671,252.006396 127.798221,262.904701 C121.476172,273.792345 117.146267,285.688279 114.986536,298.037419 L114.898324,298.597203 L115.077318,298.556198 C117.747169,297.878461 120.424837,297.227741 123.110285,296.604044 L131.189936,294.814034 C144.55317,291.993521 158.0465,289.833221 171.620476,288.340552 L172.29901,288.268638 L171.775842,287.101514 C164.733988,271.032839 158.720972,254.536601 153.774302,237.71696 L152.685677,233.853691 Z M462.331446,0 L466.339464,0.0250989441 C521.467947,0.935795262 573.258762,26.5854236 607.275103,69.8197135 L609.792776,73.0951446 L613.243584,77.6911095 L608.401256,80.7998506 C589.202042,93.1256117 571.271405,107.310709 554.853656,123.164721 C515.413743,160.921357 486.021913,207.822274 469.27671,259.63744 L467.468307,265.414689 L462.339005,282.347024 L457.187466,265.421394 C442.46151,217.038566 416.764634,172.679254 382.075005,135.76437 C364.123394,116.564407 344.028867,99.4827712 322.187784,84.849395 L316.188119,80.9194227 L311.339394,77.814908 L314.788885,73.2141238 C348.730179,27.944674 401.760584,0.973735223 458.309974,0.0260534182 L462.331446,0 Z M462.356219,10.7033862 C411.785312,10.4421679 363.922747,32.2707712 331.136516,70.0292143 L328.439494,73.2124938 L326.88559,75.125592 L328.181045,75.9672589 C346.380167,88.1605278 363.402847,102.001849 379.029664,117.307693 L384.823861,123.115676 L389.924625,128.458474 C419.93378,160.392621 443.428012,197.732687 459.199385,238.393467 L461.507019,244.517228 L462.309964,246.772425 L462.888389,245.159283 C479.261443,199.952628 505.079649,158.696727 538.646279,124.147294 L543.068337,119.679105 L547.395418,115.462468 C562.425508,100.948402 578.701639,87.7806873 596.03477,76.1088754 L597.680633,75.007857 L596.146157,73.1077436 C565.095947,35.5950575 519.500769,12.9648946 470.754786,10.863721 L466.445782,10.7317429 L462.356219,10.7033862 Z M665.115673,111.44325 L666.785171,111.602156 L667.293431,111.732562 L668.678699,112.303235 C671.558616,113.992512 672.673785,117.039893 673.076216,123.976817 L673.215176,127.463872 L673.28435,133.851116 C673.28435,134.643682 673.28435,135.465024 673.281381,136.316294 C673.27342,139.123726 673.228406,142.058526 673.154425,145.040197 L672.757671,156.110419 C672.184834,164.943511 671.21372,173.745347 669.847571,182.489291 L668.748942,189.035978 L667.252917,197.373474 L660.338632,192.447402 C650.846872,185.685013 640.909372,179.355113 630.552538,173.472939 C623.727908,169.649086 616.879107,166.070805 610.006096,162.737953 L603.125014,159.486904 L595.497966,155.978197 L601.89527,150.552733 C611.267378,142.604381 621.118349,135.234379 631.475133,128.431109 L635.63081,125.860992 L640.392606,122.996446 L646.428805,119.497798 L647.680026,118.795065 C654.522389,114.976967 659.492378,112.567956 663.197936,111.714617 L664.387126,111.487989 L665.115673,111.44325 Z M261.941396,102.715678 C264.581534,101.873523 267.680839,102.751705 273.21717,105.624587 L276.490563,107.391083 L282.463015,110.804303 C287.298163,113.614535 292.308837,116.69539 296.757536,119.516468 L300.542371,121.941569 C307.935966,126.89042 315.101228,132.167899 322.016572,137.757728 L327.155882,142.008411 L333.599282,147.460917 L325.908246,150.956579 C315.236452,155.807027 304.817798,161.192455 294.701884,167.086577 C288.079688,170.963506 281.621858,175.020032 275.32823,179.256194 L269.08933,183.552236 L262.284051,188.345641 L260.71483,180.189869 C258.39443,168.129965 256.810948,155.940807 255.966682,143.578426 L255.768209,138.313858 C255.63368,134.008676 255.558111,129.680631 255.572151,125.628038 L255.628058,120.934413 C255.795356,113.641613 256.382885,108.92487 258.135168,105.68186 L258.69654,104.752066 L260.105585,103.278766 L261.386079,102.92174 L261.941396,102.715678 Z M662.127511,123.375509 L658.552258,125.120101 L654.923988,127.034396 L650.497038,129.507569 L645.876261,132.199715 L640.191391,135.630441 L637.305515,137.419716 C633.341817,140.023837 629.443506,142.723565 625.613985,145.516356 L619.921721,149.775022 L615.296113,153.408621 L621.763109,156.624188 L625.287719,158.443672 L628.809216,160.305816 L635.844142,164.15878 C640.124762,166.58992 644.332727,169.092977 648.467991,171.667947 L654.616356,175.584337 L659.517413,178.85007 L660.150022,174.517603 L660.922301,168.180925 L661.550568,161.839615 L662.034312,155.499906 L662.28759,149.180194 C662.435591,144.768576 662.52868,140.375635 662.540278,136.286048 L662.536863,133.843699 L662.465333,129.394205 C662.426779,128.013419 662.373292,126.738787 662.304209,125.58164 L662.127511,123.375509 Z M266.702946,114.470467 L266.464486,118.825463 L266.337563,123.243101 C266.324503,124.030432 266.316092,124.839581 266.313233,125.664986 C266.304193,128.274554 266.333851,131.015583 266.393433,133.794841 L266.62726,141.489383 L266.689415,142.961974 C267.012723,147.68955 267.451126,152.407558 268.004086,157.111844 L268.919376,164.157464 L269.82862,170.041356 L275.852777,166.086624 L279.164341,163.982209 L282.504403,161.90845 L289.270456,157.852637 C293.445793,155.419837 297.669474,153.07187 301.938864,150.810101 L308.3769,147.482264 L313.706203,144.856783 L310.21084,142.089029 L305.089693,138.226597 L299.892353,134.48673 L294.135622,130.557215 L287.644865,126.443207 C285.357168,125.01796 282.977288,123.56156 280.601018,122.142279 L275.061701,118.904655 L271.419696,116.879566 C270.852275,116.572881 270.305348,116.282069 269.779975,116.00782 L266.702946,114.470467 Z M462.329538,59.6240116 C477.95684,59.6317508 493.424885,62.6194763 507.902644,68.4119527 L511.825947,70.0611267 L519.232485,73.3267482 L511.104641,80.9373299 L505.047211,86.9201046 C493.140795,98.9323476 482.013809,111.684741 471.732876,125.099696 L466.663223,131.862027 L462.317283,137.788871 L457.98386,131.852934 C448.760824,119.219186 438.78667,107.147251 428.124624,95.7122955 C424.506941,91.8528188 420.81775,88.0646527 417.057023,84.3477706 L411.36228,78.8259069 L405.551341,73.2980084 L412.898889,70.0605853 C427.169549,63.772751 442.501284,60.2621788 458.068744,59.7031642 L462.329538,59.6240116 Z M462.331446,70.319866 L458.103471,70.4125944 C448.245532,70.7975683 438.494246,72.4797567 429.101555,75.4059545 L424.737434,76.8595065 L430.35553,82.5257018 L435.983888,88.4167023 C445.120248,98.2153496 453.758955,108.461082 461.868153,119.115346 L462.331446,119.747132 L463.196412,118.603499 C471.99449,107.123609 481.398809,96.1132632 491.384422,85.6039503 L497.445346,79.3587385 L499.968423,76.8595065 L499.613009,76.7299613 C488.986826,72.9750081 477.843233,70.8415237 466.560856,70.4093475 L462.331446,70.319866 Z" id="Combined-Shape"></path>
        </g>
    </g>
</svg>