<svg xmlns="http://www.w3.org/2000/svg" width="1622" height="72" viewBox="0 0 1622 72"><path fill="#DECA87" d="M546.480551,0.499400072 C563.17792,0.528404561 577.94717,3.03796362 592.059328,7.82820647 C592.961519,8.13444705 593.852764,8.44589312 594.736354,8.76384657 L596.056408,9.24582002 C596.494786,9.40821317 596.931662,9.5723959 597.367446,9.73853095 L598.671936,10.2429558 C598.888942,10.328057 599.105778,10.413687 599.322496,10.4998661 L600.621791,11.0236926 C601.054688,11.2006063 601.487523,11.3798792 601.920706,11.5616741 L603.22171,12.1147869 C603.438856,12.2082876 603.656191,12.3024594 603.873767,12.3973227 L605.182531,12.9749634 L606.499553,13.5701766 C606.940211,13.7716182 607.382657,13.9761513 607.827301,14.1839386 L609.168243,14.8172259 C609.392969,14.9244551 609.618349,15.0325386 609.844432,15.1414967 L611.20979,15.8059027 L612.594511,16.492275 L614.001062,17.2015901 L615.431911,17.9348243 L616.889526,18.6929541 L618.376374,19.476956 L619.894923,20.2878063 L621.447641,21.1264814 L623.036996,21.9939578 L624.665454,22.8912119 L628.949525,25.2829694 L634.07397,28.1620031 L637.499453,30.0691883 L639.75544,31.3066546 L641.370697,32.1797297 C641.637241,32.3227439 641.902477,32.4645154 642.166439,32.6050535 L643.735217,33.4335587 C643.994228,33.5692015 644.252037,33.7036301 644.508679,33.8368539 L646.034814,34.6218145 C657.380089,40.4017246 666.506605,43.7803251 676.651846,45.6228534 C687.747947,47.6380722 698.896073,47.4480888 710.870399,45.3758962 L711.936821,45.1874311 L712.997062,44.992127 L714.053278,44.7895007 L715.107622,44.5790691 L716.162251,44.3603491 L717.219319,44.1328574 L718.280981,43.896111 L719.349392,43.6496266 L720.426708,43.3929212 L721.515083,43.1255115 L723.173095,42.7032697 L724.868113,42.2542256 L726.022275,41.9391675 L727.795131,41.4418294 L729.007919,41.0930654 L731.517318,40.3520706 L733.481195,39.7563886 L735.523292,39.124664 L737.650883,38.4552663 L740.633232,37.5013148 L752.635694,33.6168786 L755.973555,32.5578209 L757.426555,32.107918 L759.390608,31.5198036 L761.31447,30.974665 L762.925432,30.5408296 L764.71972,30.0714449 C772.788713,27.9764982 779.614906,26.911274 786.00943,26.911274 C793.755426,26.911274 800.473406,27.8553634 808.39979,30.0327926 L809.696095,30.3967457 C810.567831,30.6466493 811.455102,30.9111501 812.360736,31.1906136 L813.73331,31.6210766 C813.964486,31.694706 814.196897,31.769282 814.430588,31.8448103 L815.84845,32.3094532 L817.299152,32.7972255 C817.54379,32.8804635 817.789885,32.9646767 818.037481,33.0498707 L819.541418,33.5728508 L821.083494,34.1196455 L822.665828,34.6905287 L829.917165,37.3720745 L831.514897,37.9569974 L833.069213,38.5192635 L834.58217,39.0592087 L836.055829,39.5771691 L837.492247,40.0734806 L838.893485,40.5484791 C839.124207,40.6258881 839.353549,40.702423 839.581554,40.778091 L840.933881,41.22175 L842.256174,41.6449361 C842.474167,41.7137797 842.690995,41.7817842 842.906701,41.8489567 L844.187804,42.2420633 C844.39919,42.3059356 844.609539,42.3689899 844.818894,42.4312331 L846.063439,42.795016 L847.286187,43.1396698 L848.489196,43.4655305 C856.05009,45.4705124 862.547236,46.3649884 870.334355,46.5330325 C876.734321,46.6711422 884.104457,45.2158642 893.140175,42.2123011 L894.58081,41.7251942 C894.823257,41.6418675 895.066882,41.5574702 895.311699,41.4720031 L896.638901,41.0024432 L897.831085,40.5706475 L899.044359,40.1220791 L900.281865,39.6556429 L901.546745,39.170244 L902.84214,38.6647873 L904.171193,38.1381776 L905.537045,37.58932 L906.942837,37.0171194 L909.133289,36.1126548 L911.92212,34.942244 L916.102265,33.1591195 L926.916577,28.4954132 L929.374411,27.4457848 L931.742291,26.4437522 L934.025766,25.4875363 L935.503934,24.8746343 L937.659073,23.9908264 L939.056823,23.424549 L940.425285,22.8759991 L941.766103,22.3446495 L943.080921,21.8299731 L944.371386,21.3314427 L945.639141,20.8485312 L946.885831,20.3807116 L948.113102,19.9274567 L949.322597,19.4882394 L950.515963,19.0625325 L951.694843,18.649809 L952.860882,18.2495417 C953.054244,18.1838392 953.247138,18.1186338 953.439601,18.0539144 L954.589463,17.6713431 L955.730597,17.2999103 L956.864648,16.9390887 L957.993259,16.5883514 L959.118076,16.2471711 L960.240744,15.9150208 L961.362907,15.5913734 L962.48621,15.2757016 C962.673614,15.223725 962.861134,15.1720588 963.048804,15.1206919 C977.753894,11.0957846 990.654804,9.9798089 1002.50017,12.2308124 C1011.36108,13.9146736 1019.02575,17.1012973 1026.26978,21.8155283 L1026.66913,22.0769544 L1027.45825,22.6028815 L1028.23669,23.134491 L1029.00699,23.6736819 C1029.13483,23.7642843 1029.26245,23.8552818 1029.38988,23.9467138 L1030.15273,24.5008377 C1030.27965,24.5941663 1030.4065,24.6880087 1030.53332,24.7824044 L1031.29443,25.3557341 C1031.42138,25.4525011 1031.54841,25.5499006 1031.67558,25.647972 L1032.44065,26.2447806 C1032.56858,26.3456981 1032.69674,26.4473668 1032.82521,26.5498261 L1033.59995,27.1743865 L1034.38432,27.819822 L1035.18084,28.4880317 L1035.99206,29.1809146 L1036.8205,29.9003698 L1037.66872,30.6482964 L1038.53924,31.4265935 L1039.4346,32.2371603 L1040.35733,33.0818957 L1041.79832,34.4172194 L1047.89546,40.1733688 L1049.39988,41.57628 L1050.36813,42.4683247 L1051.3106,43.3270617 L1052.22899,44.1535847 L1053.12499,44.9489873 L1054.0003,45.7143631 C1054.14455,45.8394843 1054.28801,45.9633999 1054.43072,46.0861327 L1055.27816,46.8085189 C1055.41799,46.9266118 1055.55712,47.0435676 1055.69561,47.1594089 L1056.51901,47.8412661 L1057.32849,48.497471 C1057.86388,48.9266332 1058.39113,49.339423 1058.91249,49.7372985 L1059.6904,50.3231083 L1060.46118,50.8876403 C1060.58914,50.9800166 1060.71688,51.0715519 1060.84443,51.1622689 L1061.60768,51.6969348 C1061.98845,51.9595407 1062.36812,52.2151927 1062.74767,52.4645059 L1063.50687,52.954863 C1063.63346,53.0352413 1063.76012,53.1149609 1063.88686,53.1940446 L1064.64871,53.6610973 C1064.77596,53.7377282 1064.90337,53.8137688 1065.03098,53.8892418 L1065.79929,54.3354507 C1066.05637,54.4820382 1066.31452,54.6265374 1066.57403,54.7691309 L1067.35688,55.1913758 C1067.61938,55.3303398 1067.88351,55.4675802 1068.14956,55.6032793 L1068.95375,56.0059347 C1069.22392,56.1387334 1069.49629,56.2701731 1069.77114,56.4004359 C1079.47181,60.9979058 1090.45524,62.5881286 1104.16038,60.8380865 C1115.82706,59.3483393 1126.42099,56.3813732 1138.83964,51.3230891 L1140.54468,50.6203027 C1141.97542,50.0237489 1143.43143,49.3998291 1144.91695,48.747642 L1146.71401,47.9513916 L1148.54104,47.1276586 C1149.15523,46.848462 1149.77468,46.5646273 1150.39967,46.2760969 L1152.29154,45.3963606 L1155.49737,43.8801095 L1158.42253,42.4760302 L1169.24196,37.2225793 L1171.07639,36.3379455 L1173.74769,35.0608479 L1175.47817,34.2415791 L1178.0037,33.0589749 L1179.64376,32.3003321 L1181.25146,31.5646129 L1182.82895,30.8510589 L1184.3784,30.1589119 L1185.90198,29.4874136 L1187.40186,28.8358059 L1188.8802,28.2033304 L1190.33917,27.589229 L1191.78094,26.9927433 L1193.20767,26.4131151 L1194.62153,25.8495862 L1196.0247,25.3013984 C1196.49087,25.1211417 1196.95563,24.9433155 1197.41932,24.7677934 L1198.80758,24.2480129 L1200.19164,23.7412987 L1201.57367,23.2468926 L1202.95583,22.7640364 C1203.41681,22.604925 1203.87817,22.4476122 1204.34028,22.2919717 L1205.72921,21.8299403 L1207.12477,21.377184 L1208.52913,20.9329446 L1209.94446,20.4964637 C1210.4183,20.352179 1210.89434,20.2090609 1211.37292,20.0669832 C1228.54433,14.9692937 1246.28708,12.3900772 1266.14839,12.5604397 C1284.28593,12.7160165 1298.82865,15.4960358 1311.51636,20.7354284 L1312.05594,20.9598261 L1313.1198,21.4118691 C1313.82262,21.7148769 1314.51312,22.0214465 1315.19437,22.3331979 L1316.20972,22.8049138 L1317.21351,23.2856174 C1317.54644,23.4474849 1317.87782,23.6110529 1318.20806,23.7765238 L1319.19568,24.278848 C1320.83722,25.1262449 1322.45951,26.0262786 1324.11068,27.0042624 L1325.10523,27.6006092 L1326.10902,28.216879 C1326.27721,28.3213184 1326.44589,28.4266386 1326.6151,28.5328648 L1327.63708,29.1812975 L1328.67407,29.8526908 L1329.7284,30.5482598 L1330.80235,31.2692196 L1331.89825,32.0167851 C1332.08286,32.143664 1332.26848,32.2717021 1332.45516,32.4009247 L1333.58831,33.1906771 L1334.74918,34.0100728 L1335.94008,34.8603269 L1337.16333,35.7426545 L1339.06389,37.1289415 L1343.7619,40.5995967 L1345.55169,41.9127609 L1347.2599,43.1522204 L1348.35699,43.9395646 L1349.42323,44.6971284 L1350.46081,45.4261028 L1351.47187,46.1276787 L1352.4586,46.803047 L1353.42315,47.4533987 L1354.3677,48.0799246 L1355.2944,48.6838157 L1356.20543,49.2662629 L1357.10296,49.8284572 L1357.98915,50.3715894 C1358.13602,50.4605891 1358.28251,50.5488441 1358.42866,50.6363794 L1359.30191,51.1531515 L1360.16923,51.6538388 C1360.31341,51.7360125 1360.45743,51.8175655 1360.60135,51.8985228 L1361.46385,52.377316 L1362.32585,52.8430018 L1363.18951,53.296771 C1363.33371,53.3714723 1363.47807,53.4457267 1363.62264,53.5195591 L1364.49286,53.9576864 C1364.63843,54.0299297 1364.78429,54.1018004 1364.93049,54.1733235 L1365.81214,54.5984886 C1365.95989,54.6687204 1366.10806,54.738654 1366.25671,54.8083145 L1367.15467,55.2231969 L1368.06622,55.6327129 L1368.99351,56.0380534 C1379.88837,60.7370073 1392.06403,63.2361803 1407.08619,63.4318818 C1423.91091,63.6510662 1438.81571,61.2426889 1452.83233,56.4696274 C1463.72496,52.7603751 1473.33665,48.0040918 1485.3204,40.8583157 L1487.08311,39.7991595 L1491.58659,37.0506778 L1498.33152,32.9106784 L1500.09889,31.8383246 L1502.29589,30.5227355 L1503.84268,29.6115539 L1504.83381,29.0357061 L1505.79785,28.4824365 L1507.20249,27.6897901 L1508.11751,27.1828141 L1509.46861,26.4487315 C1509.61775,26.3686838 1509.76665,26.2890935 1509.91539,26.2099121 C1519.66625,21.0193717 1528.00654,18.1092028 1536.79566,17.2487025 C1562.35893,14.7459256 1590.51679,23.1915848 1621.26653,42.5648939 C1621.50003,42.7120934 1621.57024,43.0208236 1621.42304,43.254462 C1621.27584,43.4881004 1620.96711,43.5581729 1620.73347,43.4109733 C1590.1576,24.1472021 1562.21171,15.7651211 1536.8931,18.2439439 C1528.25114,19.090036 1520.02981,21.958698 1510.38528,27.0926375 L1509.04779,27.8134784 L1508.14425,28.310275 L1507.22625,28.8227561 L1505.81284,29.6259406 L1504.84011,30.1877419 L1503.3247,31.0757379 L1501.72898,32.0250187 L1500.03862,33.0433825 L1487.3683,40.7955118 L1486.78628,41.1464986 C1485.50572,41.915445 1484.25248,42.6574807 1483.02228,43.3741731 L1481.19371,44.4304 C1471.22577,50.1372616 1462.68022,54.1725263 1453.15468,57.4162475 C1439.03094,62.2257847 1424.01279,64.6524783 1407.07316,64.431797 C1391.9217,64.2344109 1379.61585,61.708516 1368.59748,56.9562888 L1367.66044,56.5467012 C1367.50566,56.4781251 1367.35155,56.4093766 1367.19807,56.340431 L1366.28428,55.9241905 L1365.38326,55.5020204 C1365.23403,55.4310982 1365.08525,55.3598791 1364.93686,55.2883383 L1364.05091,54.8550324 C1363.90392,54.7821048 1363.75724,54.7088056 1363.61082,54.6351099 L1362.73503,54.1879786 C1362.4439,54.037216 1362.15344,53.8846682 1361.8633,53.7301359 L1360.99344,53.2603865 L1360.12327,52.7775349 L1359.25061,52.2803857 C1359.10484,52.1962696 1358.95888,52.1115079 1358.81267,52.0260759 L1357.93219,51.5052387 L1357.04377,50.9671153 C1356.89492,50.8759211 1356.74565,50.7839569 1356.5959,50.6911977 L1355.69149,50.1249035 C1355.5397,50.0288648 1355.38735,49.9319812 1355.2344,49.834228 L1354.30908,49.2370733 L1353.3671,48.6178505 L1352.40629,47.9753643 L1351.42445,47.3084192 C1351.25894,47.195157 1351.09246,47.0808259 1350.92497,46.965401 L1349.90751,46.2595261 L1348.86358,45.5262038 L1347.24329,44.3721412 L1344.96991,42.7261675 L1343.17059,41.4060394 L1339.12516,38.4151238 L1337.83705,37.4699311 L1335.97344,36.1163318 L1334.7734,35.2549585 L1333.60457,34.4249928 L1332.46464,33.6252232 L1331.35133,32.854438 L1330.26233,32.1114258 C1329.90312,31.8682493 1329.54759,31.6294997 1329.19534,31.3949751 L1328.14808,30.7038742 L1327.11823,30.0369117 L1326.1035,29.3928761 L1325.1016,28.7705558 L1324.11023,28.1687392 L1323.12708,27.5862149 C1322.63718,27.2995739 1322.14951,27.0197132 1321.66276,26.7459512 L1320.69013,26.206357 C1320.20406,25.9404239 1319.71805,25.6801352 1319.23082,25.4248095 L1318.25434,24.9205734 L1317.27231,24.4283603 L1316.28242,23.9469588 C1316.11665,23.8675589 1315.95047,23.7885589 1315.78381,23.7099338 L1314.77782,23.2424779 C1314.44035,23.0880237 1314.10062,22.9348666 1313.75823,22.7828047 L1312.72275,22.3297026 L1311.66906,21.8819602 C1311.4918,21.8077158 1311.31369,21.7336442 1311.13468,21.6597203 C1298.56906,16.470744 1284.15286,13.7149118 1266.13982,13.5604029 C1246.37925,13.3909045 1228.73515,15.9557787 1211.65751,21.0256312 L1210.94488,21.238538 L1209.52988,21.669416 L1208.12679,22.1076773 C1207.89381,22.1813782 1207.66124,22.2554183 1207.42903,22.3298134 L1206.03974,22.7805693 L1204.65696,23.2406013 L1203.27852,23.7106664 C1203.04902,23.7898887 1202.81961,23.8695606 1202.59025,23.9496979 L1201.21426,24.4362322 C1200.9849,24.518294 1200.7555,24.6008527 1200.52601,24.6839241 L1199.14762,25.1886309 C1198.9176,25.2738162 1198.68739,25.3595456 1198.45695,25.445835 L1197.07131,25.9704178 C1196.8398,26.0590103 1196.60797,26.1481944 1196.37579,26.2379857 L1194.97801,26.7841478 C1194.74421,26.8764315 1194.50996,26.9693541 1194.27522,27.0629313 L1192.86046,27.6323761 L1191.43167,28.2182891 L1189.98669,28.8214274 L1188.52337,29.4425479 L1187.03954,30.0824078 L1185.53303,30.741764 C1185.27994,30.8533235 1185.02581,30.9657269 1184.77061,31.0789899 L1182.44337,32.1219941 L1180.8559,32.844382 C1180.58877,32.966636 1180.32033,33.0898286 1180.05055,33.2139754 L1177.58484,34.3574889 L1175.89694,35.149722 L1173.29354,36.3848005 L1170.59781,37.6782248 L1158.85636,43.3770218 L1155.01469,45.2173495 L1153.67685,45.8503519 L1151.7591,46.7483472 C1151.44235,46.8956357 1151.12702,47.0417402 1150.81308,47.186668 L1148.94574,48.0421711 C1148.6372,48.1824206 1148.32996,48.3215078 1148.02401,48.4594397 L1146.2034,49.2732265 C1130.55323,56.2069017 1118.18175,60.0557831 1104.28704,61.8300322 C1090.39687,63.6037022 1079.22087,61.9855986 1069.34287,57.3040866 L1068.51244,56.903324 L1067.69564,56.4944495 C1067.29036,56.2878008 1066.88955,56.0776976 1066.49225,55.8635209 L1065.70204,55.4295529 C1065.17798,55.1363756 1064.659,54.8352232 1064.14283,54.5246287 L1063.3704,54.0514721 C1061.44317,52.8499597 1059.53937,51.5053541 1057.53854,49.9402975 L1056.73275,49.3023341 C1056.5975,49.1939862 1056.46174,49.0846127 1056.32544,48.9741906 L1055.50091,48.2988922 L1054.66175,47.5973286 L1053.80625,46.8683995 L1052.93269,46.1110047 L1052.03935,45.3240441 L1051.12453,44.5064175 L1050.18652,43.6570246 L1049.22359,42.7747652 L1047.72874,41.387345 L1046.69603,40.4181062 L1042.11923,36.0876422 L1040.63729,34.7027172 L1039.69042,33.8271987 L1038.77348,32.9876894 L1037.44868,31.7918126 L1036.59556,31.0340661 L1035.76356,30.3057207 L1034.95017,29.6048883 L1034.15286,28.929681 L1033.36912,28.2782107 L1032.59644,27.6485893 L1031.83229,27.0389288 L1031.07416,26.4473413 L1030.31954,25.8719386 L1029.56589,25.3108328 L1028.81072,24.7621357 C1028.55845,24.5810951 1028.30552,24.4018079 1028.05149,24.2239595 L1027.28569,23.6944159 L1026.51082,23.1716171 L1025.72434,22.653675 C1018.58626,18.008393 1011.04245,14.8720194 1002.31348,13.213231 C990.865012,11.0376512 978.382216,12.0553817 964.167753,15.8539663 L962.75316,16.2394135 L961.635642,16.5534742 L960.519114,16.8755244 C960.333017,16.9298945 960.146894,16.9846193 959.960709,17.0397099 L958.842595,17.3747301 L957.15909,17.8948686 L955.463072,18.4377138 L954.322711,18.8131013 L953.172695,19.1998944 L952.011385,19.5986188 L950.837143,20.0097999 L949.648331,20.4339633 L948.443313,20.8716346 L946.601813,21.5546183 L944.714634,22.2709508 L943.428408,22.7679089 L941.452814,23.5437644 L939.4168,24.3576985 L937.314839,25.2114851 L935.141403,26.1068977 L932.890964,27.0457102 L930.557996,28.0296961 L928.13697,29.0606293 L915.012498,34.7142475 L912.31129,35.8634105 L910.271914,36.7211837 L908.772389,37.3451924 L907.319041,37.9436637 L905.908713,38.5176971 L904.538246,39.068392 L902.550378,39.8530795 L901.26575,40.3502379 L900.009932,40.8279056 L898.779765,41.2871822 L897.572093,41.7291669 C897.372514,41.8014511 897.17374,41.8730606 896.975706,41.9440183 L895.638281,42.4171796 L894.168648,42.9222186 C884.707405,46.1208189 877.014584,47.6774231 870.31278,47.5327998 C869.48464,47.5149287 868.670984,47.4889373 867.869055,47.454379 L866.674611,47.3960606 L865.495687,47.3245569 C859.636418,46.9335174 854.281559,46.0354724 848.267215,44.4420368 L847.055209,44.114022 L845.823547,43.7671285 L844.57016,43.4010215 L843.29298,43.015366 C843.078019,42.9494424 842.86198,42.8826904 842.644821,42.8151029 L841.328071,42.3994968 C841.106256,42.3285396 840.883234,42.2567329 840.658962,42.18407 L839.297986,41.7377596 L837.90494,41.2705611 L836.477755,40.7821397 L835.014361,40.2721603 L833.512689,39.7402881 L831.97067,39.1861881 L830.386236,38.6095256 L823.944395,36.2239562 L822.330043,35.6324898 L820.758055,35.065291 C820.49947,34.9727648 820.242562,34.8812382 819.987288,34.7907055 L818.474893,34.2593895 L816.999592,33.7516495 C816.756683,33.6689755 816.515232,33.5872723 816.275195,33.5065341 L814.851586,33.0336396 C814.147914,32.8029366 813.456177,32.5808152 812.77519,32.3671199 L811.427198,31.9509181 L810.105765,31.5569093 L808.808784,31.1848168 C800.667553,28.8970492 793.870726,27.911274 786.00943,27.911274 C779.935659,27.911274 773.445773,28.8901671 765.822723,30.8209118 L763.543781,31.4119354 L762.253969,31.7552714 L760.801325,32.1556115 L759.312839,32.5849327 L757.254782,33.2069599 L754.719237,34.0017908 L749.32992,35.7328168 L741.713068,38.203341 L738.677154,39.1784462 L736.512284,39.8630018 L734.435354,40.5092821 L732.439059,41.1189218 L730.516094,41.6935554 L729.271249,42.0580039 L728.053585,42.4081048 L726.860936,42.7443425 L725.691138,43.0672014 L724.542027,43.3771658 L723.411439,43.6747199 L722.297208,43.960348 L721.197172,44.2345346 L720.109164,44.4977638 L719.031021,44.7505201 L717.960579,44.9932877 L716.895672,45.2265509 L715.834137,45.450794 L714.773809,45.6665015 L713.712523,45.8741574 L712.648116,46.0742463 L711.578423,46.2672524 C711.39958,46.2988567 711.220426,46.3301861 711.040917,46.3612507 C698.957114,48.4523888 687.692484,48.6443576 676.473154,46.6067585 C667.133288,44.9104983 658.660181,41.9308155 648.590761,37.0150978 L647.105506,36.2818281 C646.107358,35.7836669 645.092872,35.2667752 644.059762,34.7305471 L642.495842,33.9116268 C642.232765,33.7726978 641.968453,33.6325413 641.702869,33.4911478 L640.093827,32.6278682 L637.786636,31.3693117 L634.955701,29.8005203 L625.8483,24.6925189 L624.184206,23.7678041 L622.561685,22.8738042 L620.978278,22.0095447 L618.671128,20.766787 L617.174751,19.9726153 L615.708883,19.2047734 L614.271066,18.4622868 L612.858842,17.7441811 C612.625468,17.6264745 612.393057,17.5097431 612.16156,17.3939666 L610.783116,16.7106053 L609.42412,16.0491886 L608.082112,15.4087423 L606.754635,14.7882919 L605.43923,14.1868629 C604.565771,13.7920342 603.698721,13.4092367 602.834802,13.0371713 L601.540863,12.4869599 L600.249163,11.951872 L598.957243,11.4309333 C598.741768,11.3452351 598.526182,11.2600859 598.310433,11.1754653 L597.013574,10.6739232 C595.280731,10.0132256 593.530914,9.38376278 591.7379,8.77514046 C577.727524,4.0194466 563.06614,1.52821586 546.478853,1.49999928 C531.575676,1.47474031 516.371506,3.82036829 499.085442,8.45020267 L497.073958,8.99593113 L495.465912,9.43878091 L493.913164,9.87223659 L491.653556,10.5158081 L490.335155,10.8994719 L488.015117,11.5907963 L485.840714,12.2578887 L483.283006,13.0649286 L480.859421,13.8489777 L477.208678,15.0577509 L473.080565,16.4528946 L463.961668,19.592632 L446.875895,25.5430542 L443.381122,26.7483529 L439.223823,28.1671258 L436.05203,29.2360728 L433.003933,30.250031 L430.067319,31.2124541 L427.93067,31.902529 L425.844705,32.567015 L423.80427,33.2073691 L421.804214,33.8250482 L419.839382,34.4215093 L417.90462,34.9982094 L415.994777,35.5566054 L414.104697,36.0981544 L412.229229,36.6243134 L410.363219,37.1365392 L409.121922,37.4710019 L407.260223,37.9632436 L405.363075,38.4533972 L404.093175,38.7751526 L402.176612,39.2513992 C383.402459,43.8626903 365.80777,46.3122705 348.020572,46.4370179 C329.977306,46.5635612 314.45786,44.6608921 299.867948,40.8854659 L298.624401,40.559381 L297.397209,40.2288461 L296.18387,39.8930661 L294.981878,39.5512458 L293.788728,39.2025902 L292.601915,38.8463043 L291.418934,38.4815928 L290.23728,38.1076608 L289.054448,37.7237132 L287.867934,37.3289549 C287.669735,37.2622168 287.471279,37.1949951 287.272512,37.1272733 L286.075777,36.7148081 L284.869096,36.2895444 L283.649965,35.8506873 L282.415879,35.3974416 L281.164332,34.9290122 L279.892821,34.444604 L278.598839,33.943422 L277.279883,33.424671 L275.933446,32.8875561 L274.557025,32.331282 L273.148113,31.7550538 L271.704207,31.1580763 L270.222801,30.5395544 L267.9249,29.5696368 L258.191174,25.3875549 L256.24371,24.5579222 C255.922199,24.421825 255.602197,24.2868116 255.283667,24.1528771 L253.38985,23.3621731 C253.077058,23.2325328 252.765665,23.1039608 252.455632,22.9764519 L250.611471,22.2241151 C250.306734,22.1008381 250.003284,21.9786139 249.701084,21.8574371 L247.902588,21.1429059 C247.60524,21.0258986 247.309069,20.9099284 247.014036,20.7949902 L245.257217,20.1177029 L243.525964,19.4649328 C242.093414,18.9311039 240.685648,18.4225539 239.29805,17.9386326 L237.642316,17.3697073 C222.273629,12.1692983 209.202926,10.0257095 191.941855,10.0257095 C172.79942,10.0257095 157.120116,14.8936934 137.248117,25.570641 L135.913612,26.2937836 L134.295794,27.1918974 L130.430702,29.3778419 L124.186862,32.9539417 L110.965718,40.5902394 C94.396314,49.9920766 81.1162205,56.234915 65.6860509,61.2068405 C46.3627911,67.4332016 25.3195613,70.8693308 1.0078267,71.2501211 C0.731718158,71.2542613 0.49999873,71.0339352 0.49999873,70.7578267 C0.49999873,70.4817182 0.716064759,70.2543838 0.9921733,70.2500613 C25.2056591,69.8709915 46.1507942,66.45088 65.3793582,60.2550319 C80.3936256,55.4171188 93.3684307,49.36713 109.376022,40.3405788 L112.581635,38.5010511 L122.763594,32.6191602 L129.186893,28.9357891 L133.202172,26.658917 L134.407949,25.9839284 L135.878609,25.1736352 C156.310053,14.0883737 172.323639,9.02570945 191.941855,9.02570945 C213.349278,9.02570945 228.365577,12.3046405 249.148632,20.5602635 L250.970685,21.2907288 C251.583078,21.538426 252.200613,21.7903458 252.823585,22.0465294 L254.709107,22.8279135 L256.629029,23.635129 L266.729194,27.9731288 L269.08463,28.9750152 L272.077907,30.2304466 L274.223313,31.11518 L275.610862,31.679424 L276.967147,32.2241314 L278.294667,32.7500959 L279.595918,33.2581115 L281.504006,33.9882167 L282.750515,34.4548325 L283.979497,34.9062776 L285.193451,35.3433456 L286.394875,35.7668304 L287.586266,36.1775259 C287.784133,36.2449534 287.981687,36.3118811 288.178979,36.3783256 L289.360004,36.7713253 L290.53724,37.15352 L291.713185,37.5257035 C291.909207,37.5869439 292.105279,37.6478003 292.301454,37.7082892 L293.480146,38.0669443 C293.676938,38.1260292 293.873937,38.1847797 294.071193,38.2432123 L295.258252,38.5901251 L296.454012,38.9302018 L297.660968,39.2642364 L298.881621,39.5930225 L300.118466,39.9173539 C314.623918,43.6709245 330.056786,45.5629792 348.013559,45.4370425 C365.717362,45.31288 383.235674,42.8739333 401.938082,38.2802639 C403.858019,37.8086908 405.749911,37.3276307 407.638083,36.8302031 L408.896581,36.4960843 L409.759077,36.2641172 L411.486832,35.7921315 L413.221709,35.308439 L414.967829,34.811874 L416.729313,34.3012706 L418.510285,33.7754628 L420.314864,33.2332849 L422.147174,32.673571 L424.011336,32.0951552 L425.911471,31.4968717 L427.851703,30.8775546 L429.836152,30.2360381 L431.86894,29.5711563 L433.954189,28.8817434 L436.401069,28.0642526 L438.211803,27.454003 L441.010331,26.5030655 L444.907544,25.1653779 L449.011011,23.7432217 L463.671793,18.6347237 L470.742965,16.19484 L475.509521,14.5736308 L479.328992,13.2989471 L481.847693,12.4759861 L484.200475,11.7238477 L486.706876,10.943725 L489.394899,10.1339488 L490.860655,9.70421743 L492.486003,9.23681744 L494.144441,8.76871202 L495.856031,8.29344291 L497.640835,7.80455185 C515.497516,2.94155798 531.139884,0.474000267 546.480551,0.499400072 Z"/></svg>