<?xml version="1.0" encoding="UTF-8"?>
<svg width="34px" height="34px" viewBox="0 0 34 34" version="1.1" xmlns="http://www.w3.org/2000/svg" xmlns:xlink="http://www.w3.org/1999/xlink">
    <defs>
        <path d="M28.7343562,25.2051721 C30.4435918,22.4643043 31.2837532,18.8307743 30.9051344,15.5561523 C30.8907896,17.2180496 30.8907896,17.6833971 30.3479004,20.0413036 C29.6281738,22.7068471 27.830805,25.2432384 25.6584525,26.9868087 C23.0809745,29.0555394 20.1184902,29.88112 16.8076722,29.418399 C13.8877997,29.0102036 10.9490404,27.6205643 9.12622608,25.2253024 L8.84323564,24.8464554 C7.97040223,23.6502827 7.77383103,23.0566218 7.40096525,21.1455534 C6.91533954,18.174 7.86372975,14.7754721 7.85270465,14.6853789 L7.81359045,14.7446425 C7.62567053,15.0638912 6.60727313,15.8333333 6.60727313,21 C5.51690075,11.8539038 11,9.42391548 14.0004883,8.81877676 C12.6163466,9.27933333 11.3639307,10.4830327 10.3764648,11.8544077 C12.4011523,10.1560059 15.9165155,9.04701869 17.9647494,8.77933333 C19.2731895,8.4579257 20.2352144,6.386649 20.4908447,6.09692086 L20.611107,5.89172131 C20.7620889,5.62909705 20.6876337,5.70881296 20.7153223,5.3128479 C21.4040246,4.71942916 21.0342812,4.23309039 20.831163,3.65624861 C20.6280448,3.07940684 20.8703151,3.09634803 20.2367339,2.22310868 C18.7600586,1.4979733 18.5068685,0.871167772 17.0806487,0.737981077 C14.8644563,0.531153715 12.7412091,1.14900849 10.7478956,2.03434852 C9.41856791,2.62474321 7.92047413,3.44281958 7.14962461,4.17306802 C6.37877509,4.90331646 5.02129046,5.87849298 4.17993386,6.95941814 C3.18825667,8.23346631 1.54121301,11.7325159 1.4926848,11.8885506 C0.293446245,15.7445205 0.854461931,19.8208204 2.49037547,23.5994757 C2.84069585,24.4086544 4.8631026,27.1611394 7.15782924,28.9959303 L7.63028605,29.3645021 C9.39209027,30.7646195 4.3550164,27.6273541 4.81579517,28.1854603 C6.67458964,30.4368762 9.30764969,31.7291341 12.2324951,32.7818694 C16.0614066,34.1600697 19.861716,34.0420533 23.5408111,32.4704679 C26.5492816,31.1853755 28.9303151,29.12531 30.5556013,26.2576446 C32.9590507,22.0168635 33.3140843,17.5422368 31.6154154,12.8882312 L31.3140719,12.1097897 C31.3903377,12.3797484 32.3264588,15.3068669 32.2469121,18.4195512 C32.1462962,22.3596681 30.7552601,25.7791631 27.9863645,28.4594298 C23.8908936,32.4236048 19.0026114,33.4717412 13.5108201,31.9356771 L13.1438086,31.829448 C17.3169278,33.0937365 21.295397,32.734485 24.9810563,30.5212281 C28.6658611,28.3085905 31.2198301,25.0510039 31.6521129,20.679815 C31.9954208,18.5698867 31.7618091,16.1368206 30.9512778,13.3806166 C30.9446772,13.3581714 30.9207229,13.3464198 30.9051344,13.3302052 C31.5155102,15.6927754 31.7521393,17.8307517 31.3438125,20.0413036 C30.7062572,23.4928258 29.0924931,26.4578692 26.4110842,28.6123251 C23.3038358,31.10899 19.7141296,32.029996 15.710847,31.3802794 L15.0009687,31.2598461 C13.8525555,31.0528687 12.8601271,30.7958523 11.7596669,30.2073588 C11.704197,30.1777929 11.0215371,29.5489122 10.9672628,29.5168887 C17.3039509,32.1829025 25.2145065,30.8490345 28.7343562,25.2051721 Z" id="path-1"></path>
        <linearGradient x1="76.6224254%" y1="36.6213964%" x2="37.2403232%" y2="65.2619165%" id="linearGradient-3">
            <stop stop-color="#C80F4C" offset="0%"></stop>
            <stop stop-color="#D02344" offset="47.2893792%"></stop>
            <stop stop-color="#E65C2F" offset="100%"></stop>
        </linearGradient>
        <linearGradient x1="70.0820313%" y1="66.5136719%" x2="23.0898437%" y2="50%" id="linearGradient-4">
            <stop stop-color="#A30049" offset="0%"></stop>
            <stop stop-color="#B60051" stop-opacity="0" offset="100%"></stop>
        </linearGradient>
        <linearGradient x1="42.4493963%" y1="0%" x2="70.0474456%" y2="84.0756663%" id="linearGradient-5">
            <stop stop-color="#E65C2F" offset="0%"></stop>
            <stop stop-color="#E6AA6B" offset="34.601441%"></stop>
            <stop stop-color="#ACBA84" offset="76.4599881%"></stop>
            <stop stop-color="#3EA78E" offset="100%"></stop>
        </linearGradient>
        <linearGradient x1="69.46396%" y1="40.0967685%" x2="25.7510855%" y2="89.0469638%" id="linearGradient-6">
            <stop stop-color="#075A75" offset="0%"></stop>
            <stop stop-color="#1082B2" offset="53.6752738%"></stop>
            <stop stop-color="#3EA78E" offset="100%"></stop>
        </linearGradient>
    </defs>
    <g id="ic-configure-white-pencil" stroke="none" stroke-width="1" fill="none" fill-rule="evenodd">
        <g id="circle">
            <mask id="mask-2" fill="white">
                <use xlink:href="#path-1"></use>
            </mask>
            <use id="Fill-1" fill="#FFFFFF" xlink:href="#path-1"></use>
            <rect id="Rectangle" fill="url(#linearGradient-3)" mask="url(#mask-2)" x="0" y="0" width="22" height="13"></rect>
            <rect id="Rectangle-Copy-3" fill="url(#linearGradient-4)" mask="url(#mask-2)" x="14" y="0" width="8" height="10"></rect>
            <rect id="Rectangle-Copy" fill="url(#linearGradient-5)" mask="url(#mask-2)" x="0" y="12" width="18" height="22"></rect>
            <rect id="Rectangle-Copy-2" fill="url(#linearGradient-6)" mask="url(#mask-2)" x="17" y="12" width="17" height="22"></rect>
        </g>
        <path d="M32.0618863,3.82571837 C32.9934876,4.68566688 33.225185,6.23977249 32.5733574,7.05044696 L32.474209,7.16104501 L31.548,8.087 L31.4984567,8.14708997 L21.8633655,17.772555 C21.8102251,17.8246587 21.7505477,17.8630609 21.6838783,17.8877536 L21.6781571,17.8896959 L17.0114904,19.5563626 C16.8732554,19.6057322 16.5360919,19.7427796 16,19.9675046 C16.2030731,19.3940216 16.3272235,19.0439612 16.3724513,18.9173234 L16.3724513,18.9173234 L18.0391179,14.2506568 C18.0645176,14.1803295 18.1032688,14.1195645 18.1525399,14.0692085 L18.1566111,14.065096 L26.662,5.567 L26.7097688,5.51127156 L28.7683885,3.45265657 C29.5207509,2.70573915 31.0804624,2.91977936 32.0618863,3.82571837 Z M18.8364917,14.9513921 L17.364485,18.5451353 L20.972374,17.0916403 C20.8673143,16.4140648 20.5916019,15.916539 20.1473406,15.5743644 C19.7028291,15.2319971 19.2672006,15.0268095 18.8364917,14.9513921 Z M28.3343222,5.31049162 L19.5326593,14.1024731 C19.9483739,14.2463152 20.3571195,14.4737086 20.7575387,14.7821156 C21.2786363,15.1834703 21.6379051,15.7220521 21.836417,16.3852764 L29.662,8.567 L29.7097688,8.51127156 L30.656,7.564 L30.6580419,7.33378924 C30.6449739,6.84566739 30.5321828,6.46639741 30.3262433,6.18367776 L30.2322998,6.06838757 L30.1380935,5.97455678 C29.7867616,5.65726882 29.2739207,5.44334247 28.5919299,5.34254414 L28.5919299,5.34254414 L28.3343222,5.31049162 Z M29.5456119,4.1044296 L29.474209,4.16104501 L29.1960102,4.43995597 C29.8521854,4.59327556 30.3910688,4.85558049 30.8083285,5.23240778 C31.208347,5.59366461 31.4646324,6.06598039 31.5827975,6.63885328 L31.7670488,6.45399162 C32.0999157,6.12102416 31.9728615,5.10445544 31.3836024,4.56051834 C30.7975445,4.01953626 29.9166173,3.86794226 29.5456119,4.1044296 Z" id="pen" fill="#FFFFFF" fill-rule="nonzero"></path>
    </g>
</svg>