<?xml version="1.0" encoding="UTF-8"?>
<svg width="39px" height="38px" viewBox="0 0 39 38" version="1.1" xmlns="http://www.w3.org/2000/svg" xmlns:xlink="http://www.w3.org/1999/xlink">
    <title>privateCollectionSeal</title>
    <defs>
        <linearGradient x1="15.9902749%" y1="84.0503925%" x2="83.7995435%" y2="16.5657353%" id="linearGradient-1">
            <stop stop-color="#8C6828" offset="11%"></stop>
            <stop stop-color="#937030" offset="19%"></stop>
            <stop stop-color="#A48546" offset="31%"></stop>
            <stop stop-color="#C2A769" offset="45%"></stop>
            <stop stop-color="#E6D295" offset="60%"></stop>
            <stop stop-color="#E5D194" offset="65%"></stop>
            <stop stop-color="#AE9052" offset="86%"></stop>
            <stop stop-color="#8C6828" offset="100%"></stop>
        </linearGradient>
    </defs>
    <g id="Symbols" stroke="none" stroke-width="1" fill="none" fill-rule="evenodd">
        <g id="fragrencePicker/card/selected" transform="translate(-67.000000, -32.000000)" fill="url(#linearGradient-1)" fill-rule="nonzero">
            <g id="Private-Collection-Seal-Gold" transform="translate(67.000000, 32.000000)">
                <path d="M34.3031893,18.8985509 C34.3031893,27.174861 27.6563856,33.9081302 19.4871155,33.9081302 C11.3178455,33.9081302 4.67104181,27.174861 4.67104181,18.8985509 C4.67104181,10.6222408 11.3178455,3.88769638 19.4871155,3.88769638 C27.6563856,3.88769638 34.3031893,10.6222408 34.3031893,18.8985509 M33.6155185,18.8985509 C33.6241496,13.0995446 30.1869244,7.86669117 24.9075742,5.64154616 C19.628224,3.41640115 13.5472113,4.63749956 9.50182755,8.73509875 C5.4564438,12.8326979 4.24395942,18.9992368 6.43009788,24.3575189 C8.61623635,29.715801 13.7701502,33.2098078 19.4871155,33.2093013 C27.2841671,33.2142305 33.6092555,26.8075015 33.6155185,18.8985509 M26.7424029,26.0807047 L26.3539288,25.6853802 C25.6599558,24.9831478 24.9567632,24.2894171 24.2443513,23.6041879 C23.5319393,22.9189588 22.8069553,22.2311791 22.0693994,21.540849 L20.8876337,20.4313898 C20.6839677,20.2401038 20.4765301,20.0488177 20.2766356,19.8562564 C20.1001414,19.6743353 19.9124417,19.5039607 19.7146683,19.3461603 C19.6669675,19.3078601 19.6155816,19.2745354 19.5612902,19.2466915 C19.4883727,19.2275629 19.3890541,19.3359584 19.3236799,19.3971699 C19.165273,19.5476483 19.0181808,19.6598694 18.8560023,19.8065221 C18.0526531,20.5372348 17.2669046,21.2960028 16.4673269,22.0407432 C16.188229,22.2957913 15.870158,22.5954728 15.6199757,22.8505209 L15.5910602,22.8811266 C14.9331268,23.5519031 14.2575926,24.2035509 13.5644576,24.8360701 C13.465139,24.9278874 13.2011275,25.0821915 13.2187283,25.2352204 C13.2363624,25.3066443 13.2817009,25.3678098 13.3444481,25.4048273 L13.7153214,25.6866555 C13.7325671,25.7016528 13.752098,25.7137118 13.7731524,25.7223622 C13.9089298,25.7720966 14.0472215,25.5718838 14.1377397,25.487718 L14.4294096,25.2135413 L15.1208683,24.5618934 C15.6614632,24.0517973 16.2012201,23.5417011 16.7401388,23.031605 L18.3028354,21.5548766 L19.368939,20.5499872 L19.4343132,20.4900509 L19.5110023,20.416087 L19.5198027,20.4071603 L19.5273459,20.3995088 C19.5566817,20.4354527 19.5886193,20.4691274 19.6228929,20.5002528 C20.0126241,20.8624211 20.4036126,21.2207636 20.7920867,21.5791062 L21.1001001,21.8622096 C23.632096,24.1946242 26.0245431,26.3956891 28.3164143,28.7319295 L28.3641878,28.7816639 L28.4144757,28.73448 C28.5716254,28.5878273 28.7300323,28.432248 28.8859248,28.2715677 L28.9374699,28.2192829 L28.8834104,28.1682732 C28.2623548,27.5740112 27.5080362,26.8624271 26.7424029,26.0807047 Z M26.0723166,24.8284187 C26.1054765,24.8095918 26.1366498,24.7873719 26.1653492,24.7621062 C26.2382667,24.7008946 26.4746198,24.4917552 26.4859346,24.3463778 C26.4895719,24.310616 26.4781585,24.2749582 26.4545046,24.2481843 C26.4268463,24.2150281 22.0203687,19.9225689 21.1340444,19.0439283 L21.0975857,19.0069463 C21.0661557,18.9763406 21.0246682,18.9355329 21.0070674,18.9164043 C21.0196394,18.9011014 21.0460406,18.8743213 21.0648985,18.856468 L22.2076912,17.7176783 C24.7422015,15.1837757 27.130877,12.7901495 29.6679017,10.4883406 L29.7181896,10.4424319 L29.6754449,10.3888718 C29.5396676,10.2218154 29.396347,10.0560341 29.2379401,9.87877569 L29.1889094,9.82394036 L29.1361071,9.87494997 C28.2988135,10.6885533 27.62747,11.3185221 26.9686985,11.9153346 C25.9679692,12.8182048 24.9802309,13.7359528 24.0054837,14.6685786 C22.9896681,15.6377613 21.9851672,16.6196963 20.9882095,17.6016314 C20.6437373,17.9408454 20.272864,18.3297937 19.9698794,18.6741086 C19.9189853,18.7247442 19.8821296,18.7880781 19.8630176,18.8577432 C19.8630176,18.9036519 19.9472499,18.9941939 19.9786798,19.0362769 C20.1585929,19.2489718 20.3544623,19.4472259 20.5645339,19.6292636 C20.7920867,19.8562564 21.0221538,20.0806987 21.2534782,20.305141 C21.7722817,20.8075858 22.2973712,21.3045044 22.8287468,21.7958971 L22.8287468,21.7958971 C23.9954261,22.8760257 24.90438,23.7495653 25.8321918,24.7570052 L25.846021,24.7723081 C25.8767416,24.8174053 25.9265477,24.8452626 25.9805412,24.8476638 C26.0121949,24.8486361 26.0436507,24.8420798 26.0723166,24.8284187 L26.0723166,24.8284187 Z M15.7054652,9.86219757 C15.736283,9.89151143 15.7764091,9.9086967 15.8186129,9.9106567 C15.8454862,9.90985386 15.8719534,9.90379163 15.8965592,9.89280334 L15.9129028,9.88515189 C16.315206,9.73977449 16.5741887,9.46687305 16.8734017,9.15188867 C16.8734017,9.15188867 17.4403978,8.58058098 17.4781138,8.5589019 C17.5038378,8.5466368 17.5211101,8.52132996 17.5233729,8.4925894 C17.5309161,8.4390293 17.2920485,8.13297161 17.2543326,8.0883382 C17.2166167,8.04370478 17.1474708,7.94041031 17.0644958,7.94806175 C17.005045,7.95089013 16.9481175,7.97327171 16.9023173,8.01182377 C16.6681871,8.24760536 16.4093424,8.45671217 16.1303979,8.63541632 C15.7532387,8.86368435 15.4427109,9.07537425 15.4213385,9.35592714 C15.4087665,9.5127817 15.5043135,9.68238867 15.7029508,9.86602329 L15.7054652,9.86219757 Z M13.7278933,11.6245798 C13.7442114,11.6258906 13.760606,11.6258906 13.776924,11.6245798 C13.9743041,11.6245798 14.2106572,11.434569 14.3942081,11.2687877 C14.4826997,11.1895697 14.5796945,11.1206989 14.6833635,11.063474 L14.6833635,11.063474 C14.7474806,11.0277673 14.8090833,10.9920605 14.7939969,10.9168214 C14.7273654,10.5610293 14.3766073,10.242218 14.2395728,10.242218 C14.2093508,10.2420771 14.1805171,10.255076 14.1603693,10.2779259 C14.1402541,10.3021555 13.9340737,10.464111 13.7756668,10.5827084 C13.5367993,10.7574163 13.1860412,11.0813274 13.3042177,11.2445581 L13.3042177,11.2445581 C13.4274231,11.4549728 13.5896016,11.6003502 13.7278933,11.6245798 L13.7278933,11.6245798 Z M14.4998127,8.20564602 C14.4147386,8.20517193 14.3300442,8.21719931 14.2483731,8.24136704 C14.2192374,8.2516473 14.1952875,8.27319067 14.1817417,8.30130334 C14.0958808,8.6052193 14.0902448,8.92668355 14.1653981,9.23350406 C14.5425574,10.3582661 15.373565,11.1157589 16.1869718,11.795462 L16.2045726,11.8094896 L16.2045726,11.8094896 C16.7404652,12.234523 17.2408528,12.7037044 17.7006378,13.212254 C17.7274953,13.2530174 17.7707636,13.2796311 17.8188143,13.2849632 C17.8458983,13.2855066 17.8719452,13.274382 17.8904746,13.254337 C17.9228051,13.2144943 17.9365587,13.1624107 17.9281905,13.1115101 C17.9340685,11.9780994 17.8258068,10.8470434 17.6050907,9.73594877 L17.5975475,9.6989668 C17.5643252,9.50337188 17.5037901,9.31357814 17.4177683,9.13531055 C17.3968732,9.10015961 17.3588956,9.07919162 17.3184497,9.08047521 C17.2249649,9.09941711 17.139675,9.14757949 17.0745533,9.21820117 C17.0369009,9.2558228 16.9946501,9.28839424 16.9488336,9.31511944 C16.9036515,9.33229386 16.8746534,9.37718936 16.8771733,9.42606536 C16.9108907,9.69110688 16.9583105,9.95416885 17.0192367,10.2141639 L17.0494094,10.3544404 C17.1740486,10.8072222 17.2074004,11.2808483 17.1474708,11.7470029 C16.9752347,11.5646435 16.8029987,11.3861098 16.6823077,11.2636867 L16.5704171,11.1476399 C15.7343807,10.3021555 15.074352,9.63520478 15.06178,8.46963507 C15.06178,8.34211103 14.7638242,8.20564602 14.4998127,8.20564602 L14.4998127,8.20564602 Z M13.0502638,10.5827084 C13.082203,10.6276483 13.1316766,10.6564575 13.1860412,10.6617733 C13.2060682,10.6612123 13.2257616,10.6564354 13.2438723,10.6477456 L13.2501582,10.6477456 C13.3929914,10.6170609 13.5281647,10.5571823 13.6474327,10.4717625 C13.7228645,10.400349 13.8058396,10.262623 13.7304077,10.1822829 C13.2727878,9.70024204 12.6102447,9.11363146 12.0771929,8.64306776 L11.6434597,8.26049565 L11.600715,8.22223844 L11.5541987,8.25666993 C11.4108782,8.36761584 11.2864156,8.46708459 11.1770394,8.56145238 L11.1141795,8.61373723 L11.1732678,8.66857257 C11.8383253,9.29088988 12.4354942,9.90173002 13.0502638,10.5827084 Z M12.9358588,7.80523483 C14.1804845,7.80523483 15.0567512,8.04498002 15.691636,8.5589019 C15.7104481,8.57344528 15.7333601,8.58149017 15.7570103,8.58185622 C15.8035266,8.58185622 15.8349565,8.55380094 15.88273,8.51299324 C15.9250519,8.47467901 15.9695491,8.43891108 16.015993,8.40587305 C16.3541791,8.1674031 16.3830947,7.9620894 16.3843519,7.90342834 C16.3875175,7.86371926 16.3710277,7.82500939 16.3403499,7.80013387 C15.6627204,7.29003772 14.7902253,7.02861344 13.592116,6.96867714 L13.573258,6.96867714 L13.5569145,6.97760382 C13.1395701,7.19284847 12.7337644,7.43037625 12.3412044,7.68918796 L12.1211948,7.83201488 L12.3801775,7.82053772 C12.6001871,7.80906055 12.771166,7.80523483 12.9320873,7.80523483 L12.9358588,7.80523483 Z M17.4366263,14.6099175 L17.568632,14.7234139 C17.8074995,14.9287276 18.0501387,15.1416927 18.2990638,15.3610341 C18.3820389,15.434998 18.516559,15.5701735 18.6334784,15.6913213 C18.7503977,15.8124692 18.9037759,15.9642228 18.9942941,16.0432877 C19.0605514,16.1159896 19.1492238,16.1636605 19.2457336,16.1785559 C19.283589,16.1799271 19.320077,16.1639981 19.3450522,16.135105 C19.3822692,16.0831185 19.4064342,16.0227144 19.4154553,15.9591218 C19.3928257,15.1455185 19.3463094,14.2120425 19.3664246,13.2964199 C19.4192269,10.8734632 19.2834495,8.5780305 17.6252059,6.98398003 C17.5659087,6.92132136 17.4832424,6.88703903 17.3976531,6.88961224 C17.1229405,6.88017559 16.8525906,6.96114719 16.626991,7.12043075 C16.5957594,7.14097244 16.5764859,7.17578132 16.5754459,7.2135233 C16.5782751,7.25604836 16.6018616,7.29432836 16.6383058,7.31554253 C18.2726627,8.44923122 18.3480945,10.395248 18.4247836,12.2762276 C18.4247836,12.4101278 18.4348412,12.5465786 18.4386127,12.6855798 L18.4386127,12.7289379 C18.4406382,13.3556938 18.4885435,13.9814319 18.5819333,14.6009908 L18.5970196,14.681331 C18.5970196,14.7030101 18.60582,14.7259644 18.6095916,14.7489187 C18.5693613,14.708111 18.5203306,14.6609271 18.4624995,14.607367 C18.3455801,14.4989716 18.2248892,14.3829247 18.1016838,14.2630521 C17.8236554,13.9791975 17.5271261,13.714626 17.2141023,13.4711278 C16.6357914,13.0400966 15.8575861,12.3234115 14.9008587,11.3478526 C14.8820726,11.3302225 14.8573022,11.320629 14.8317128,11.3210726 C14.7849313,11.3255105 14.7408245,11.345196 14.7059931,11.3771831 C14.7059931,11.3771831 14.3124902,11.6156531 14.2772887,11.6985437 C14.253818,11.7624677 14.2760751,11.8343976 14.3313482,11.8732516 C15.3710506,12.8373334 16.4195534,13.7389283 17.4328547,14.6099175 L17.4366263,14.6099175 Z M15.4251101,7.05284301 C15.5231715,7.06049445 15.6866072,7.08344878 15.7570103,7.09620118 C15.7691058,7.09789543 15.7813735,7.09789543 15.793469,7.09620118 C15.8384222,7.09344254 15.8796523,7.06994712 15.9053596,7.03243916 L15.91416,7.02223724 C16.3478931,6.5440221 16.9463192,6.53126969 17.5246301,6.51979253 L17.6000619,6.51979253 C18.4398699,6.50193916 18.4549563,6.50193916 18.6473075,6.34253411 C18.7244711,6.27664163 18.8059574,6.21614104 18.8912039,6.16144998 C19.0030945,6.09003652 19.0533824,6.01734782 19.0433248,5.93955815 C19.0338028,5.8827445 18.9933773,5.83630432 18.9389774,5.81968556 C18.6047704,5.71565338 18.2586634,5.65606936 17.9093326,5.64242715 C17.1238755,5.7381821 16.3484436,5.90505415 15.5923174,6.14104613 L15.5784882,6.14869758 C15.3244832,6.32508528 15.0837004,6.5203055 14.858114,6.73275767 C14.8259587,6.76011522 14.813931,6.80484999 14.8279412,6.84497883 C14.8832579,7.00565911 15.4213385,7.05284301 15.4263673,7.05284301 L15.4251101,7.05284301 Z M21.6985261,7.81798724 L21.678411,7.80395959 C21.6419522,7.77973002 21.6004647,7.75294998 21.5728064,7.73127089 L21.538862,7.70449084 C21.1516452,7.40353411 20.7845435,7.12043075 20.3017796,7.0337144 C20.2816644,7.0337144 19.8869044,7.10767834 19.8227873,7.25305575 C19.8021242,7.29979454 19.8110366,7.35453834 19.8454169,7.39205695 C20.2301193,7.82691392 21.3364532,8.56655334 21.4320002,8.56655334 L21.4420578,8.56655334 C21.4973745,8.56017714 21.5313188,8.51299324 21.5954359,8.4262769 C21.6180655,8.39567113 21.6419522,8.36379012 21.6608102,8.34211103 C21.710795,8.28503003 21.7573933,8.22498802 21.8003591,8.16230214 L21.850647,8.08706296 C21.8759572,8.06848582 21.8905527,8.03839833 21.8896202,8.00672281 C21.8908774,7.94551127 21.8380751,7.91107978 21.6997833,7.81926248 L21.6985261,7.81798724 Z M24.0004549,6.74551008 C23.9279439,6.75062349 23.8560108,6.76214434 23.7854741,6.77994157 L23.7050135,6.79651969 C23.6072777,6.78603385 23.512959,6.83638772 23.466146,6.92404373 C23.4492543,6.96397205 23.4588015,7.0103541 23.4900327,7.0400906 C23.8433052,7.36272642 23.9929117,7.89960262 24.0205701,8.26177089 C24.0333387,8.43529569 24.020628,8.60978194 23.9828542,8.77951848 C23.9199943,9.07027329 23.9954261,9.1085305 24.4568177,9.28961464 C24.4767821,9.29787716 24.4981159,9.30220515 24.5196775,9.30236704 C24.611453,9.30236704 24.6365969,9.21437545 24.6453973,9.18632017 C24.8968368,8.32553291 24.6667697,7.33849685 24.0884588,6.78376729 C24.0653529,6.76051446 24.034257,6.74725759 24.0017121,6.74678532 L24.0004549,6.74551008 Z M23.141789,8.85220719 L23.1216738,8.85220719 L23.1078446,8.85220719 C22.9632669,8.85220719 22.7005126,9.26155935 22.6979982,9.26538507 C22.6498764,9.32829573 22.6298256,9.40872528 22.6426815,9.4872769 C22.6609502,9.54367319 22.7014685,9.58985275 22.7545721,9.61480093 C23.2360788,9.8915281 23.733929,10.1797324 24.0670864,10.6451952 C24.1217568,10.7076963 24.2025871,10.7399237 24.2845816,10.7319115 C24.3756192,10.7367941 24.4652077,10.7072599 24.5360211,10.6490209 C24.5687082,10.6145894 24.6001382,10.5852589 24.6303109,10.5584788 L24.6428829,10.5457264 C24.7916543,10.4422188 24.8845639,10.2744664 24.8943224,10.0917408 C24.8943224,10.0139512 24.8302053,9.9642168 24.5749942,9.78313266 L24.5624223,9.77293074 C24.484476,9.7180954 24.4052726,9.66070959 24.3348695,9.60459901 L24.3197831,9.62372762 L24.3348695,9.60459901 C23.962739,9.30874324 23.5830653,9.01288747 23.141789,8.85220719 Z M23.141789,7.53360863 C23.0160692,7.60757257 22.9154934,7.66113267 22.8098888,7.71214228 C22.5345625,7.84731776 22.2969522,7.96719036 21.856933,8.46198363 C20.9630655,9.47452449 21.0309542,11.0443454 21.0912997,12.3132096 L21.0912997,12.3374391 C21.1013573,12.5465786 21.1038717,12.7021579 21.1063861,12.8475353 C21.1063861,13.1025834 21.112672,13.2135293 21.2321058,13.2135293 C21.2887486,13.2045371 21.3413605,13.1782983 21.3829695,13.1382901 L21.4382862,13.0974824 C22.359111,12.4544949 23.1577101,11.6478909 23.7955317,10.7166086 C23.8287084,10.6737227 23.8399005,10.6174322 23.8257045,10.564855 C23.7993033,10.4806892 23.7138139,10.4475329 23.6031805,10.4041747 C23.524161,10.3748534 23.4472808,10.33991 23.3731133,10.299605 C23.3550763,10.2893482 23.3347018,10.2840716 23.314025,10.2843021 C23.1896106,10.3105067 23.0788134,10.3816551 23.00224,10.4845149 C22.7612828,10.9289669 22.4157909,11.306139 21.996482,11.5824968 L21.9637948,11.6016254 C21.8066451,10.5814331 21.9801384,9.73722401 22.4779886,9.10470478 C22.7677842,8.7302558 23.1535812,8.44392479 23.5931229,8.27707377 C23.6936987,8.24136704 23.6836411,8.16995358 23.6735836,8.09343916 L23.6735836,8.08196199 C23.6650224,7.88745341 23.5914177,7.70170019 23.4648888,7.55528772 C23.4204656,7.51761819 23.3627445,7.50009944 23.3052247,7.50682858 C23.2514398,7.50364368 23.1975721,7.5114495 23.1468178,7.52978291 L23.141789,7.53360863 Z M18.3216934,6.93934661 L18.2626051,6.98015431 C18.2123172,7.01841152 18.1695725,7.10767834 18.3883248,7.44306656 C18.5555321,7.68536224 18.6158776,7.7045029 18.6661655,7.7045029 C18.6992767,7.7050002 18.7306134,7.6893442 18.7503977,7.66240791 C19.1992173,7.05666873 20.2816644,6.4840858 20.9781519,6.4840858 C21.0133534,6.4840858 21.0472978,6.4840858 21.0812421,6.4840858 C21.2344132,6.48698148 21.3848227,6.44250097 21.5124609,6.35656176 L21.5187469,6.35656176 L21.5413764,6.3450846 C21.6821826,6.28004734 21.8041307,6.21756056 21.9185357,6.14359662 C22.0052823,6.09513748 22.0907718,6.04667835 22.187576,5.99566873 C22.2143513,5.98279736 22.2396478,5.96697401 22.2630078,5.94848484 L22.3887276,5.85411705 L22.2366067,5.82223604 C21.888363,5.74699686 21.5137181,5.68451008 21.118958,5.63732618 C20.4362997,5.67048243 19.8793612,5.84136465 19.4619716,6.14742234 C18.8836607,6.56442594 18.5014726,6.81947402 18.3518661,6.91256657 L18.3216934,6.93934661 Z M24.7095144,7.46347041 L24.7095144,7.46347041 C24.7617127,7.56022022 24.8010287,7.6635658 24.8264338,7.77080334 C24.85065,7.85498756 24.926058,7.9133889 25.012499,7.9149055 C25.0829021,7.9149055 25.1633627,7.92383219 25.2513665,7.92383219 C25.6266612,7.91574167 26.000949,7.88122717 26.3715296,7.82053772 L26.602854,7.78610623 L26.7914336,7.75932618 L26.6305123,7.65475647 C26.3250133,7.45581897 26.0471726,7.28748724 25.7806467,7.14466031 L25.7643032,7.13573363 L24.7874606,7.14338507 C24.7342436,7.137149 24.6814565,7.15818442 24.6466545,7.19949565 C24.6241968,7.23895173 24.6241968,7.28756361 24.6466545,7.32701969 C24.6680269,7.37037786 24.6906564,7.418837 24.7095144,7.45964469 L24.7095144,7.46347041 Z M23.0625855,12.4075774 L22.817432,12.6422216 C22.6229854,12.8284067 22.4297961,13.0137416 22.2378639,13.1982264 L22.2240347,13.2109788 C21.6608102,13.752956 21.1931327,14.2031158 20.724198,14.6634776 L20.5984782,14.7910016 L20.5771059,14.8126807 C20.5771059,14.7884512 20.5771059,14.7629464 20.5833919,14.739992 L20.5896778,14.6775052 C20.6340969,13.9714828 20.6408118,13.2635392 20.609793,12.5567805 C20.5733343,11.2815401 20.5356183,9.95018915 21.0636413,8.78972041 C21.1026145,8.70045358 21.0498122,8.60226007 20.6638525,8.3663406 C20.6094175,8.32725682 20.5455431,8.30389676 20.4790444,8.29875286 C20.3972882,8.30336 20.3275118,8.36029001 20.3055512,8.44030454 C19.8856472,9.40566151 19.6945531,10.5992865 19.769985,12.3514668 C19.7425368,12.5713431 19.7345427,12.7932699 19.7460982,13.0145918 C19.7753771,13.3687201 19.7825155,13.7243739 19.7674706,14.0794175 C19.7674706,14.3025846 19.776271,14.671129 19.7775282,14.936379 C19.7970297,15.2850339 19.834799,15.6323899 19.890676,15.9769752 C19.9014586,16.0841016 19.9849597,16.168801 20.0905704,16.1797384 C20.1552638,16.1728707 20.2156471,16.1435969 20.2615493,16.0968478 C22.0693994,14.5665593 23.85462,12.750617 25.5807523,10.9895101 L25.5908099,10.9793081 C25.852307,10.7127829 26.0660306,10.5036435 26.2546102,10.3212841 L26.2734682,10.3021555 C26.6506275,9.94126247 26.9649269,9.62882858 27.4577483,9.06134661 C27.5721533,8.93382257 27.6953587,8.79354613 27.8349076,8.64689348 L27.8877099,8.59078291 L27.8286216,8.54104853 C27.6651859,8.40587305 27.4904355,8.26942233 27.309399,8.13424685 L27.2565967,8.08706296 L27.213852,8.13807257 C26.0132283,9.58674564 24.5133916,11.0201158 23.0625855,12.4037516 L23.0625855,12.4075774 Z M21.2962229,7.00310863 C21.3125665,7.13063267 21.5652632,7.27090911 21.6608102,7.31554253 C21.6809254,7.32446921 21.7022977,7.33594637 21.7299561,7.35124926 C21.7899322,7.39295284 21.8598207,7.41761075 21.9323649,7.4226698 C21.9771104,7.42302215 22.0209233,7.40968963 22.0580846,7.38440551 C22.7107535,6.97583001 23.4310417,6.69066572 24.1840058,6.54274685 L24.4203589,6.49301248 L24.1953206,6.40629613 C23.8181613,6.25964349 23.4196296,6.12829373 23.0198408,6.01607258 L22.9997256,6.01607258 L22.9796105,6.02244878 C22.3795441,6.2107671 21.8205247,6.51376677 21.3326816,6.91511705 C21.3086747,6.93618756 21.2952863,6.96709509 21.2962229,6.99928291 L21.2962229,7.00310863 Z M26.4507331,11.0277673 L26.4507331,11.0277673 C26.4917557,11.1403748 26.5664889,11.2371385 26.6644566,11.3044944 C26.7059163,11.3377661 26.7449882,11.3739895 26.781376,11.4128899 C26.8417215,11.4766519 26.883209,11.5187348 26.9397829,11.5187348 C26.9648712,11.5184853 26.9890087,11.5089638 27.0076716,11.4919548 C27.1748789,11.3389259 27.9669134,10.5992865 28.9450131,9.67601247 L28.9978154,9.62500286 L28.9475275,9.572718 C28.760205,9.37888146 28.587969,9.20799925 28.4207617,9.05241993 L28.3704738,9.00523603 L28.3227003,9.05497041 C27.7205026,9.67091151 27.0215008,10.2906783 26.5186217,10.8403069 C26.4716232,10.8876816 26.4465149,10.9529738 26.4494759,11.0201158 L26.4507331,11.0277673 Z M8.67647337,20.8101362 C8.62367107,20.7999343 8.57464036,20.8318153 8.40743308,20.9644403 C8.35714518,21.0026975 8.22639663,21.105992 8.20502427,21.1136435 C8.15417581,21.1231362 8.11658966,21.1670865 8.11450604,21.2194884 C8.11303211,21.2910734 8.13614318,21.3609509 8.17988032,21.4171507 C8.35463078,21.6262901 8.63624305,21.8902648 8.82985148,22.1593406 C9.081291,22.5087564 9.28621421,22.8199151 9.57662685,22.8415942 L9.603028,22.8415942 C9.75389171,22.8415942 9.9185846,22.7497769 10.0920779,22.569968 C10.1491207,22.5217737 10.1639471,22.439058 10.1272794,22.3735809 L10.1197362,22.3570028 C9.96761531,21.9744307 9.68348865,21.7193826 9.35536007,21.4324535 L9.24472669,21.33426 C9.06862479,21.1824777 8.9007528,21.0211363 8.74184765,20.8509439 C8.72722945,20.8280462 8.70321261,20.8130545 8.67647337,20.8101362 L8.67647337,20.8101362 Z M11.2185269,23.4307552 L11.2034405,23.4307552 C10.837596,23.4945172 10.5371258,23.8133273 10.5082103,23.9408514 C10.4959612,23.9821653 10.5093406,24.0269009 10.5421546,24.0543478 C10.5710702,24.0773021 10.748335,24.2864415 10.8602256,24.4254427 C11.1041219,24.7340509 11.3945346,24.8896302 11.4888244,24.8909055 C11.5063648,24.8909055 11.5236355,24.8865258 11.5391123,24.8781531 C11.7566075,24.7621062 11.9074712,24.6065269 11.9326152,24.4726266 C11.9715883,24.2673129 11.7566075,24.0160906 11.5655135,23.8209788 C11.4840292,23.7373703 11.4123149,23.6445154 11.3517899,23.5442516 L11.3316747,23.557004 L11.3505327,23.5429764 C11.3115595,23.4792144 11.282644,23.4307552 11.2185269,23.4307552 L11.2185269,23.4307552 Z M9.44210671,24.0479716 C10.6113005,23.6819776 11.3455039,22.9002552 12.0935365,22.1567901 C12.6077303,21.6466939 13.0125479,21.238617 13.5820584,20.6469055 C13.6084596,20.6201254 13.6801198,20.5691158 13.6537187,20.4926014 C13.6273175,20.416087 13.5393137,20.416087 13.4852542,20.416087 C12.3049093,20.4105693 11.1265644,20.5151542 9.96510091,20.7285209 L9.92864218,20.7348971 C9.72663769,20.7660914 9.52962384,20.8244142 9.3427881,20.9083297 C9.31178304,20.9254029 9.29108326,20.9568982 9.2874714,20.9924956 C9.27364223,21.0983406 9.41319116,21.2245894 9.43330633,21.2475437 C9.47158392,21.2831342 9.50536655,21.3233985 9.53388213,21.3674163 C9.55478599,21.4073389 9.59496361,21.4330529 9.63948673,21.435004 L9.63948673,21.435004 C9.92235619,21.4043983 10.2177976,21.3457372 10.4591796,21.2972781 L10.6037573,21.2679475 C10.930449,21.1908093 11.2641166,21.1480749 11.5994578,21.1404235 C11.751627,21.1401511 11.9036517,21.1499488 12.0545633,21.169754 C11.8710125,21.3304343 11.6887188,21.4923898 11.5617419,21.6084367 L11.4435653,21.7155569 C10.563527,22.5215088 9.8657823,23.1578538 8.64378623,23.1667805 C8.60104151,23.1667805 8.56332559,23.1948358 8.51806647,23.2585978 C8.37920771,23.4643542 8.3412018,23.7234005 8.41497627,23.9612552 C8.451435,24.0773021 8.80470753,24.0887793 9.01088793,24.0887793 C9.15579536,24.0954291 9.30091271,24.0816962 9.44210671,24.0479716 L9.44210671,24.0479716 Z M10.9130279,24.9278874 L10.9130279,24.9278874 C10.8802414,24.7880089 10.8171054,24.6573108 10.7282199,24.5453153 C10.6553024,24.4751771 10.5170107,24.3973874 10.4403216,24.4649752 C9.93744256,24.9011074 9.33901651,25.5323514 8.85248103,26.039897 L8.56835438,26.3344776 L8.60104151,26.3829367 C8.69533133,26.5232131 8.79339275,26.6622143 8.88642537,26.7897384 L8.93419888,26.8560509 L8.99202997,26.7999403 C9.60679959,26.2031278 10.1951681,25.6726278 10.8463964,25.1332011 C10.9042275,25.079641 10.9570298,25.0171543 10.9130279,24.9278874 L10.9130279,24.9278874 Z M8.68778815,22.3888838 L8.68778815,22.3888838 C8.6482891,22.3487915 8.61133711,22.306198 8.57715476,22.2613598 C8.32571524,21.9348983 8.11702044,21.9106687 8.05918935,21.9106687 C8.02176909,21.9070748 7.98489508,21.921752 7.95987074,21.9502011 C7.57388689,22.4410825 7.31463093,23.0218227 7.20555218,23.6398946 L7.20555218,23.6602985 L7.21309536,23.6807023 C7.39093752,24.147412 7.59407523,24.603794 7.821579,25.04776 L7.94729876,25.2938814 L7.95358475,25.015879 C7.9812431,23.9344752 8.22891102,23.1616795 8.73556166,22.5839956 C8.80219313,22.5113069 8.73556166,22.4398934 8.68778815,22.3888838 L8.68778815,22.3888838 Z M7.34132952,21.732135 C7.38227703,21.7303792 7.41981049,21.7084877 7.44190533,21.673474 C8.62367107,20.1023778 10.652788,20.0271386 12.6165307,19.9531747 L13.0904941,19.9378718 C13.7643521,19.917468 14.8757147,19.8371278 14.8367416,19.8957889 C14.724851,20.0653959 14.1176246,20.7884572 13.8674423,21.100891 C13.4173655,21.6581711 12.6743617,22.4067372 11.6585461,23.323635 C11.5856286,23.3912228 11.6497457,23.4728382 11.6874616,23.5225725 L11.7767227,23.6500966 C11.7767227,23.6500966 12.0168474,23.9663562 12.0721641,23.9701819 C12.1205348,23.9659008 12.165485,23.9431031 12.1978839,23.9064199 C13.4047935,22.7944103 14.0673367,21.9718802 14.9260026,21.047331 C14.9260026,21.047331 16.30892,19.6037588 16.4258394,19.4800605 C16.5427588,19.3563622 16.6169334,19.2441411 16.5968183,19.1625257 C16.5691599,19.0490293 16.4270966,19.0503045 16.3604651,19.0490293 C15.9543903,19.0401026 15.48797,19.0273502 14.9612042,19.0388274 C14.5488434,19.0464788 12.9069433,19.0809103 12.4744673,19.0809103 C10.5119819,19.0809103 8.49795131,19.381867 7.10749076,20.7119427 C7.0421743,20.767986 7.00522968,20.8508991 7.00691496,20.9376603 C6.99941051,21.2074461 7.08525541,21.4713839 7.24955409,21.6836759 C7.27092092,21.7135815 7.30492339,21.7315354 7.34132952,21.732135 L7.34132952,21.732135 Z M7.6656865,18.490474 C8.08810489,18.15126 8.76070561,17.1527468 8.74687644,17.0405257 C8.73933325,16.9818646 8.69030254,16.9474331 8.59852712,16.8862216 L8.58469795,16.8772949 C8.5582968,16.8581663 8.53063845,16.8403129 8.51178048,16.8237348 C8.45897819,16.7803766 8.38606072,16.7319175 8.32194365,16.6885593 L8.24776899,16.638825 C8.22975011,16.6168806 8.20300622,16.6042521 8.17485153,16.6043923 C8.11199165,16.6043923 8.07176132,16.6592288 7.97369991,16.7956795 C7.94478437,16.8364872 7.91335443,16.8798454 7.88821047,16.9091759 L7.86432372,16.9372312 C7.54876712,17.3121519 7.22441014,17.6539163 7.13640631,18.1091771 C7.12509153,18.161462 7.49847922,18.6256495 7.6656865,18.490474 L7.6656865,18.490474 Z M7.07857522,15.1008867 C7.10533328,15.1010381 7.13107551,15.0905018 7.15023548,15.0715545 C7.48716444,14.7297901 8.04913177,14.5818622 8.42880544,14.5614584 C8.47909335,14.5614584 8.52812405,14.5614584 8.57338317,14.5614584 C8.70733021,14.5609532 8.84094238,14.575062 8.97191481,14.6035413 C9.25855586,14.6596519 9.30004338,14.6035413 9.49113742,14.14573 C9.50933798,14.108353 9.50933798,14.0645097 9.49113742,14.0271327 C9.4678651,13.9874912 9.42807769,13.9607421 9.38301842,13.954444 C9.14012081,13.8895558 8.88993691,13.8569767 8.63875744,13.8575257 C8.11591482,13.8507866 7.60221459,13.9968817 7.15903587,14.278355 L7.1401779,14.2923827 L7.13137752,14.3140617 C7.05846006,14.516825 6.99057139,14.7234139 6.92771151,14.9274524 L6.92016832,14.9504067 L6.9289687,14.9720858 C6.94781266,15.0422493 7.00726125,15.0934298 7.07857522,15.1008867 L7.07857522,15.1008867 Z M9.47605104,15.8366988 C9.52899958,15.8707919 9.5894938,15.8909539 9.65205871,15.8953598 C9.72533819,15.8938313 9.79191632,15.8517451 9.82555198,15.7856891 C10.1147074,15.3215016 10.4151777,14.840736 10.9017131,14.5193754 C10.9370674,14.5039651 10.9641288,14.4738054 10.9759353,14.4366556 C10.9877418,14.3995057 10.9831408,14.3589925 10.9633158,14.3255389 C10.9556813,14.3103426 10.9505834,14.2939675 10.9482294,14.2770798 C10.9155423,14.1049223 10.8011373,13.7044948 10.4277496,13.7044948 C10.3876026,13.7043884 10.3475607,13.7086639 10.3083159,13.7172492 C10.2529992,13.7287264 10.20774,13.7810113 10.0216748,14.0169307 C9.95630053,14.0998214 9.89595504,14.1801615 9.83058077,14.2528502 C9.53136774,14.6060918 9.22209713,14.9720858 9.04986106,15.4005665 C8.99077277,15.5472192 9.38804721,15.7831387 9.46347907,15.832873 L9.47605104,15.8366988 Z M8.43760583,14.9567829 C8.42227052,14.905411 8.37483218,14.8708907 8.32194365,14.872617 C8.30101381,14.8711947 8.2800136,14.8711947 8.25908377,14.872617 L8.23519701,14.872617 L8.23519701,14.872617 C8.04016876,14.8793542 7.85224964,14.9485473 7.69837364,15.0702793 C7.61665579,15.1416927 7.64557134,15.3457312 7.67700128,15.3929151 C7.74411516,15.4957975 7.80580442,15.6022169 7.86180932,15.7117252 C8.00387265,15.9782504 8.12707802,16.2077937 8.64504343,16.6311735 C9.31764415,17.1795269 10.1348226,17.456254 11.390763,17.456254 L11.5805998,17.456254 C11.9087284,17.456254 12.2418858,17.4690064 12.6064731,17.4651807 C12.7611084,17.4651807 13.1093521,17.4511531 13.1608972,17.4498778 C13.3809068,17.4498778 13.573258,17.3759139 13.5720008,17.264968 C13.5754889,17.1921889 13.5501391,17.1210173 13.5015978,17.0673057 L13.458853,17.0124704 C12.7723438,16.1118466 11.9317232,15.3438255 10.977145,14.745093 C10.9457456,14.7241274 10.9091257,14.7126301 10.8715404,14.7119367 C10.7583926,14.7119367 10.7156479,14.813956 10.66536,14.9325533 C10.6337514,15.0088766 10.5972134,15.0830015 10.5559838,15.1544451 C10.5379735,15.1862164 10.5343094,15.2243117 10.5459262,15.2590149 C10.58735,15.3643672 10.658119,15.4552057 10.7495922,15.5204391 C11.2039502,15.7445228 11.5968802,16.0787077 11.893642,16.4934475 C11.8985267,16.500236 11.9027379,16.5074977 11.906214,16.5151266 C11.6647781,16.5513731 11.4211029,16.5701241 11.1770394,16.5712372 C10.4352928,16.5712372 9.80292242,16.3850521 9.29878618,16.0177829 C8.91989491,15.75458 8.62150294,15.3887196 8.43760583,14.9618839 L8.43760583,14.9567829 Z M7.08234681,20.0577444 L7.15903587,20.1597636 C7.18152005,20.1856014 7.21436012,20.1996766 7.2482969,20.1980209 C7.3823407,20.1673337 7.51000994,20.1129431 7.62545618,20.0373406 C7.8768957,19.875385 7.89952525,19.816724 7.89952525,19.7669896 C7.8974421,19.7317561 7.88105548,19.6989742 7.85426614,19.6764475 C7.22566734,18.9533862 6.75421824,18.1652877 6.6184409,17.4026939 C6.59078255,17.2496651 6.43111845,17.3096014 6.43111845,17.3096014 C6.36941877,17.8322593 6.33793497,18.3581328 6.33682863,18.8845233 C6.33682863,18.9189548 6.33682863,18.952111 6.33682863,18.9865425 C6.33682863,19.020974 6.33682863,19.0375521 6.33682863,19.0630569 L6.33682863,19.0872865 L6.35191501,19.1064151 C6.70015874,19.5540245 6.94531227,19.8843117 7.06348885,20.0437168 L7.08234681,20.0577444 Z M10.7709646,13.6981206 C11.371905,14.2872817 11.9929606,14.8942961 12.6932197,15.5000353 L12.9069433,15.6836699 C13.1370105,15.8800569 14.6205036,17.5021627 14.9310314,17.7839908 C14.9649758,17.8158718 14.4281524,17.8133213 13.98059,17.8133213 C13.592116,17.8133213 12.8717418,17.83245 12.8717418,17.83245 C12.5599568,17.8401014 12.2066842,17.8490281 11.8659837,17.8490281 C10.9683446,17.8490281 9.92235619,17.795468 8.9744292,17.3937673 C8.89145416,17.3593358 8.78710676,17.4116206 8.54446762,17.7763394 C8.48850727,17.8387983 8.464349,17.9240945 8.47909335,18.0071579 C8.50348173,18.0698781 8.55570945,18.1171793 8.61989948,18.1346819 C9.75137732,18.5886675 11.0286901,18.6447781 12.3148032,18.6447781 L12.7422504,18.6345761 C12.8880853,18.6345761 16.0637665,18.5708141 16.4396686,18.5287312 C16.4786417,18.5287312 16.5980755,18.5108778 16.6320198,18.4177853 C16.6659641,18.3246927 16.5880179,18.2405269 16.5503019,18.1997192 C14.9511466,16.4488141 13.089237,14.6991843 11.2537285,13.0388214 C10.9809166,12.7837733 10.7634214,12.5848358 10.569813,12.4012012 L10.5584982,12.389724 C10.1813389,12.0301062 9.85195313,11.7189476 9.25604146,11.2420077 C9.16426604,11.1680437 9.07249061,11.0928045 8.9756864,11.0111892 L8.91659811,10.9614548 L8.8725962,11.0239416 C8.74687644,11.196099 8.62115668,11.3759079 8.50926609,11.5557168 L8.47280736,11.6105521 L8.52560966,11.6513598 C9.31021697,12.2916655 10.0597836,12.9749355 10.7709646,13.6981206 L10.7709646,13.6981206 Z M7.37653105,13.976123 C7.39867493,13.9752535 7.42044531,13.9700576 7.44064813,13.9608202 C7.49219323,13.9416915 7.54122394,13.9200125 7.58774025,13.8983334 C7.69044542,13.8496732 7.79789363,13.8120608 7.90832564,13.7861122 C7.99357227,13.7674043 8.05528358,13.6921827 8.05793215,13.6037528 C8.07694887,13.2807397 8.06092829,12.956585 8.01015864,12.6371206 L7.9812431,12.4165041 L7.87815289,12.6128911 C7.66314338,13.0217473 7.46968182,13.4418925 7.2985848,13.8715533 L7.26841206,13.9378658 L7.35641589,13.9735726 L7.37653105,13.976123 Z M7.01948693,17.1489211 L7.01948693,17.1489211 C7.03966629,17.171577 7.06859968,17.184155 7.09869038,17.1833526 C7.22441014,17.1833526 7.38658863,16.9283045 7.43184774,16.8339367 C7.44292204,16.8113991 7.45552426,16.7896679 7.46956367,16.7688995 C7.55120532,16.678442 7.56546165,16.5446784 7.50476521,16.4386122 C7.27410832,16.1064366 7.08136185,15.748781 6.9302259,15.3725113 L6.85102245,15.1761242 L6.79696296,15.3814379 C6.70141594,15.7385052 6.6184409,16.1121507 6.54552344,16.4921723 L6.54552344,16.5202276 L6.56060981,16.5444572 C6.69789581,16.7602435 6.85309477,16.9637458 7.02451572,17.1527468 L7.01948693,17.1489211 Z M11.168239,12.0938682 L11.168239,12.0938682 C11.2135693,12.1350481 11.2720843,12.1581557 11.3329319,12.1589055 C11.433866,12.1527989 11.5264971,12.1001811 11.5843714,12.0160786 C11.6195826,11.9765556 11.6573845,11.9394893 11.6975192,11.9051327 C11.7641507,11.8451964 11.8081526,11.8069391 11.8094098,11.7508286 C11.811602,11.7218349 11.8010126,11.6933467 11.7804942,11.6730389 C11.6183158,11.5098081 9.84315274,9.79716031 9.84315274,9.79716031 C9.84315274,9.79716031 9.47730824,10.2154392 9.33021612,10.3977985 L9.28621421,10.4500834 L9.33775931,10.4972673 C9.95881492,11.0558226 10.6251297,11.6360569 11.1770394,12.097694 L11.168239,12.0938682 Z M12.2959453,13.0605004 C12.3361756,13.0094908 12.3688627,12.9533803 12.4116074,12.8985449 C12.4543522,12.8437096 12.5310412,12.7799476 12.5901295,12.718736 C12.6541584,12.6669235 12.6927759,12.5894016 12.6959146,12.5063798 C12.6990533,12.423358 12.6664021,12.3430638 12.6064731,12.2864295 C12.548642,12.2099151 12.3009741,11.922986 12.1576535,11.922986 C12.1157523,11.9262547 12.0760372,11.9432639 12.0445057,11.9714452 C12.0194849,11.9975786 11.9930425,12.0222718 11.9653023,12.0454091 C11.9653023,12.0454091 11.7616363,12.2022637 11.6987764,12.257099 C11.4536229,12.4751651 11.3869914,12.5402024 11.3216171,12.7365894 C11.2839012,12.8488105 11.3857342,12.947004 11.5039108,13.0605004 L11.5554559,13.1115101 C11.8182102,13.3665581 11.8810701,13.3665581 11.918786,13.3665581 C11.9526416,13.3672644 11.9848237,13.3516521 12.0055326,13.3244752 C12.06761,13.2569959 12.1372249,13.197081 12.2129702,13.1459415 C12.2437605,13.1207755 12.271601,13.0921075 12.2959453,13.0605004 Z M13.7568089,26.1954764 C13.7568089,26.1954764 13.7568089,26.1865497 13.7568089,26.1814487 C13.7545063,26.1487495 13.7379035,26.1188097 13.7115498,26.0998333 C13.6738338,26.0730533 13.6260603,26.0641266 13.58583,26.0347961 C13.5254845,25.9888874 13.4676534,25.9340521 13.4085651,25.885593 C13.274045,25.7759223 13.1382677,25.6700773 13.0024903,25.5629571 C12.9691168,25.5319514 12.9290881,25.5092485 12.8855709,25.4966446 C12.7724232,25.4736903 12.6341314,25.6394716 12.5662427,25.7070593 C12.4717576,25.7817568 12.3952381,25.8772528 12.3424616,25.9863369 C12.3229109,26.033943 12.335569,26.0888974 12.3738915,26.1227877 C12.3826919,26.1227877 12.4266938,26.1865497 12.446809,26.2107793 L12.446809,26.2107793 C12.4862076,26.2557573 12.5281871,26.2983392 12.5725287,26.3383033 L12.6215594,26.3893129 C12.8139107,26.5908009 12.9195153,26.7004716 13.1080949,26.7604079 C13.1226991,26.7623592 13.1374926,26.7623592 13.1520968,26.7604079 C13.2463867,26.7604079 13.3318761,26.6775172 13.4311947,26.5818742 L13.4852542,26.5308646 C13.7341793,26.3230004 13.7568089,26.2439355 13.7568089,26.1954764 Z M26.1150613,12.3246867 C26.2691938,12.2207257 26.4154374,12.1052062 26.5525661,11.9790966 C26.602854,11.928087 26.6896006,11.8515726 26.6896006,11.7686819 C26.6896006,11.6539103 26.5261649,11.5136339 26.4545046,11.4396699 C26.2307235,11.2063009 26.1050037,11.0813274 25.9000805,11.0175654 C25.8857552,11.0134779 25.8709592,11.0113339 25.8560786,11.0111892 C25.7617888,11.0111892 25.6762993,11.0940798 25.5769807,11.1897228 L25.5618944,11.2037504 L25.5241784,11.2394572 C25.2651957,11.4817529 25.247595,11.5493406 25.2513665,11.6016254 C25.2522509,11.6351169 25.2685324,11.6662596 25.2953685,11.6857913 C25.4093424,11.7778025 25.5126725,11.8826155 25.6033819,11.9982252 C25.6674989,12.0670882 26.0710594,12.3616687 26.1150613,12.3297877 L26.1150613,12.3246867 Z M23.3228254,27.9361795 C23.2716703,27.8846104 23.1938276,27.8717922 23.129217,27.9042985 L23.1128734,27.9106747 C22.7118274,28.0573273 22.4528447,28.3289535 22.1536317,28.6439379 L22.0530558,28.7497829 C21.8945275,28.9219611 21.7266396,29.0850209 21.5501768,29.2381999 L21.5099465,29.2777324 L21.5099465,29.3032372 C21.4998889,29.3631735 21.538862,29.4090821 21.6670962,29.5582853 C21.7241555,29.6213311 21.7774709,29.6877607 21.8267603,29.7572228 C21.8330463,29.790379 21.8607046,29.8452143 21.9675664,29.8452143 C22.0252977,29.8450994 22.0812316,29.8248363 22.1259733,29.7878285 C22.2416355,29.6934607 22.3396969,29.6067444 22.4251863,29.5327804 C22.5720759,29.3940646 22.7316177,29.2698087 22.9016642,29.1616855 C23.2788235,28.9334175 23.5893513,28.7217276 23.6119809,28.4411747 C23.6245528,28.2843201 23.5290058,28.1147131 23.3303686,27.9374547 L23.3228254,27.9361795 Z M25.7177869,26.5512684 C25.5996103,26.3446795 25.4361746,26.1954764 25.3016544,26.1686963 C25.2841061,26.1667479 25.2664005,26.1667479 25.2488521,26.1686963 C25.0527293,26.1686963 24.8163762,26.3587071 24.6328253,26.5244884 C24.5430683,26.6036076 24.4452993,26.6728571 24.3411555,26.7310773 C24.2770384,26.7680593 24.2154357,26.8024908 24.2292649,26.8790052 C24.2958964,27.2347973 24.6466545,27.5536117 24.783689,27.5536117 C24.8135782,27.5538857 24.8420786,27.5408298 24.8616353,27.5179006 C24.8842648,27.4911206 25.10176,27.3215136 25.247595,27.2143934 C25.4864625,27.0384103 25.7944759,26.6851687 25.7177869,26.5512684 L25.7177869,26.5512684 Z M24.5259635,29.5914418 C24.611099,29.5915158 24.6957946,29.5790587 24.777403,29.5544595 C24.8070715,29.5458606 24.8314669,29.5243834 24.8440345,29.4957985 C24.9310133,29.1916185 24.936654,28.8694435 24.8603781,28.5623225 C24.4832188,27.4388357 23.6534684,26.681343 22.8400615,26.0016398 L22.8212036,25.9863369 L22.8212036,25.9863369 C22.2849665,25.5617145 21.7845466,25.0925028 21.3251384,24.5835725 C21.2981428,24.5431619 21.2548485,24.5169994 21.2069619,24.5121552 C21.1805583,24.5119226 21.1551764,24.5224969 21.1365588,24.5414896 C21.1049133,24.5817174 21.0908356,24.6333089 21.0975857,24.6843165 C21.1089004,25.9850617 21.2233054,27.1837877 21.4219427,28.0624283 L21.4294858,28.0968598 C21.4619322,28.2922404 21.5225056,28.4817246 21.6092651,28.6592408 C21.6293113,28.6955788 21.6675454,28.7176703 21.7085837,28.7166266 C21.8116739,28.7166266 21.9373937,28.5891026 21.95248,28.5776254 C21.9902813,28.5401784 22.0325093,28.5076245 22.0781998,28.4807071 C22.1221272,28.4621717 22.1501607,28.4179947 22.1486029,28.3697612 C22.1184301,28.1147131 22.066885,27.8596651 22.0065395,27.5816627 C21.996482,27.535754 21.9864244,27.4885701 21.9751096,27.4426615 C21.8516801,26.9892321 21.818347,26.515437 21.8770482,26.0488237 C21.98391,26.1610449 22.1863188,26.37401 22.3434685,26.5334151 L22.4553591,26.6469115 C23.2913955,27.4911206 23.9514242,28.1580713 23.9639962,29.3249163 C23.9589674,29.4524403 24.261952,29.5914418 24.5259635,29.5914418 L24.5259635,29.5914418 Z M25.9805412,27.2156687 L25.9805412,27.2156687 C25.9488843,27.1710432 25.8999322,27.1422714 25.846021,27.1366038 C25.8251706,27.1370344 25.8046301,27.1418091 25.7856755,27.1506314 L25.7793895,27.1506314 C25.6366697,27.1797425 25.5016808,27.2392946 25.3833723,27.3253393 C25.2941113,27.4120557 25.2299942,27.540855 25.3003973,27.6148189 C25.7592744,28.0968598 26.4193031,28.6809199 26.9523549,29.1527588 L26.9661841,29.164236 C27.1220766,29.3019619 27.2628827,29.4282107 27.3810593,29.5353309 L27.4250612,29.5735881 L27.4715775,29.5378814 C27.6136408,29.4282107 27.7381034,29.328742 27.8487368,29.2343742 L27.9115967,29.1820893 L27.8512512,29.1259788 C27.1874508,28.5036615 26.5927964,27.8953718 25.9805412,27.2156687 Z M26.0949461,29.991867 C24.8490633,29.991867 23.9727966,29.7521218 23.3353974,29.2369247 C23.317736,29.2232387 23.2960151,29.2160444 23.2737947,29.2165208 C23.2250211,29.221337 23.179973,29.2450983 23.148075,29.2828333 C23.148075,29.2828333 23.0650999,29.3542468 23.0097832,29.392504 C22.6728543,29.630974 22.6426815,29.8362877 22.6426815,29.8936735 C22.6382712,29.9332993 22.6544546,29.972407 22.6854262,29.9969679 C23.3605414,30.5070641 24.2267505,30.7621122 25.413545,30.8284247 L25.432403,30.8284247 L25.4500038,30.8207732 C25.8674821,30.6054836 26.2736824,30.3683961 26.666971,30.1104643 L26.8844662,29.9676374 L26.6242263,29.9791146 C26.4117599,29.986766 26.2508386,29.9905917 26.0949461,29.9905917 L26.0949461,29.991867 Z M24.5775086,25.6955821 L24.5699654,25.6892059 C23.4762035,24.6690136 22.4792458,23.7661434 21.5225185,22.9436134 L21.3967987,22.8326675 C21.1591884,22.6273538 20.909006,22.4067372 20.6726529,22.1950473 C20.4991596,22.0420184 20.2954936,21.8660353 20.1169715,21.7155569 C19.9384495,21.5650785 19.8378737,21.5433995 19.7649562,21.6224644 C19.7374211,21.6558313 19.7242812,21.6990338 19.7284975,21.742337 C19.7284975,22.4462696 19.8102153,23.5276735 19.7901002,24.3859103 C19.7385551,26.7387288 19.7460982,29.2063189 21.4081135,30.8105713 C21.4708969,30.8750309 21.5577556,30.9093455 21.646981,30.9049391 L21.6809254,30.9049391 C21.9399723,30.9041578 22.1926119,30.8231851 22.4050712,30.6728453 C22.4372087,30.6519673 22.4566391,30.6159137 22.4566163,30.5772023 C22.4536535,30.535392 22.4306232,30.4977287 22.3950136,30.4764583 C20.7606567,29.3427696 20.6839677,27.398028 20.6085358,25.5170485 C20.6085358,25.3703958 20.597221,25.2199175 20.5921922,25.0643382 C20.5921922,24.9368141 20.5921922,24.8092901 20.5821347,24.681766 C20.5842942,24.1822343 20.5472999,23.6833189 20.4715013,23.1897348 C20.4715013,23.1527528 20.4652153,23.1119451 20.4639581,23.0800641 L20.4752729,23.0928165 C20.5020104,23.1258635 20.5309969,23.1569705 20.5620195,23.1859091 C20.6877393,23.296855 20.800887,23.4129019 20.9228352,23.5314992 L20.9316356,23.5404259 C21.2074142,23.8210671 21.5014187,24.082652 21.8116739,24.3234235 C22.5383341,24.8654007 23.4699175,25.7759223 24.1236603,26.4454235 C24.1427758,26.463486 24.1679389,26.4735134 24.1940634,26.4734788 C24.240996,26.4686849 24.2851201,26.4485441 24.3197831,26.416093 L24.3373839,26.4046158 C24.3600134,26.3893129 24.3864146,26.3701843 24.4165873,26.3523309 L24.4832188,26.3127985 C24.5809506,26.2573475 24.6692456,26.1863005 24.7447159,26.1023838 C24.7722249,26.0719175 24.7862991,26.0313914 24.783689,25.9901627 C24.7536276,25.8689663 24.6801174,25.7634838 24.5775086,25.6943069 L24.5775086,25.6955821 Z M24.2003493,30.9508478 C24.1488042,30.7914427 23.6069521,30.7455341 23.6019233,30.7455341 C23.5038619,30.7378826 23.3404262,30.7149283 23.2700231,30.7009006 L23.2348216,30.7009006 C23.1895242,30.7036486 23.1479046,30.7271024 23.1216738,30.7646627 L23.1141306,30.7735893 C22.6816546,31.2518045 22.0832286,31.2645569 21.5036605,31.2773093 L21.4269714,31.2773093 C20.5884206,31.2938874 20.5720771,31.2951627 20.3797258,31.4545677 C20.3025623,31.5204602 20.221076,31.5809608 20.1358295,31.6356518 C20.0239389,31.7083405 19.973651,31.779754 19.9849658,31.8562684 C19.9935556,31.9133752 20.0336163,31.9604531 20.088056,31.9774163 C20.4245334,32.0829665 20.7732756,32.1429963 21.125244,32.1559499 C21.9091766,32.0602938 22.6829848,31.8929821 23.4372304,31.6560557 L23.4510596,31.6496795 C23.7043733,31.4718819 23.945088,31.2762907 24.1714338,31.0643441 C24.2014355,31.0361598 24.2126999,30.9929398 24.2003493,30.9533982 L24.2003493,30.9508478 Z M17.3247357,29.9778393 C17.371252,30.0084451 17.4177683,30.0390509 17.4504554,30.0645557 L17.479371,30.0887853 C17.867845,30.389742 18.2336895,30.6753958 18.7063958,30.7608369 L18.720225,30.7608369 C18.7415974,30.7608369 19.1363574,30.6881482 19.2004745,30.5414956 C19.2211376,30.4947568 19.2122252,30.440013 19.1778449,30.4024944 C18.7918853,29.9689127 17.6842942,29.2292732 17.58749,29.2292732 L17.581204,29.2292732 C17.5246301,29.2369247 17.4906858,29.2828333 17.4278259,29.3682744 L17.4177683,29.3810268 C17.4003745,29.4063929 17.381482,29.4306669 17.3611944,29.4537155 C17.3171925,29.5034499 17.2681618,29.5710377 17.2216455,29.6335244 L17.2141023,29.6450016 L17.1688432,29.7074884 C17.1442354,29.7253871 17.1300807,29.7545814 17.1311272,29.785278 C17.1348988,29.8503153 17.1864439,29.8847468 17.3247357,29.9778393 Z M15.0240641,31.0503326 C15.0961485,31.0450916 15.1676545,31.0335718 15.2377877,31.015885 L15.2453308,31.015885 L15.3182483,31.0018574 C15.4167838,31.0130712 15.5122049,30.9626594 15.5596302,30.8743333 C15.5757081,30.8342675 15.5651277,30.7882723 15.5332291,30.7595617 C15.1812138,30.4382011 15.03035,29.9000497 15.0039489,29.5378814 C14.9903124,29.364358 15.0030327,29.1897395 15.0416648,29.0201338 C15.1032675,28.7281038 15.0290928,28.6911218 14.5664441,28.5100377 C14.529779,28.492725 14.4874471,28.492725 14.450782,28.5100377 C14.4130927,28.5323754 14.3865721,28.5699443 14.3778645,28.6133321 C14.126425,29.4728442 14.3577493,30.4611554 14.9360602,31.0146098 C14.95999,31.0380141 14.9920838,31.0508525 15.0253213,31.0503326 L15.0240641,31.0503326 Z M14.4608395,28.0267216 C14.540043,28.0841074 14.623018,28.1440437 14.6959355,28.2014295 L14.7147934,28.2154571 C15.0756092,28.4972853 15.4489968,28.7867648 15.8814728,28.9474451 L15.9041024,28.9538213 L15.9204459,28.9538213 C16.0650237,28.9538213 16.327778,28.5431939 16.3290352,28.5393682 C16.3777638,28.4777307 16.3983353,28.3979734 16.3856091,28.3200268 C16.3670764,28.2637852 16.3266401,28.2176991 16.2737185,28.1925028 C15.7922118,27.9145004 15.2931043,27.6262961 14.9612042,27.1621086 C14.8882867,27.0600893 14.6745631,26.9593454 14.546329,27.0243826 C14.2950289,27.161037 14.1377136,27.4263394 14.1364826,27.7155629 C14.1364826,27.7933526 14.2056284,27.8430869 14.4520391,28.0216206 L14.4608395,28.0267216 Z M15.8777012,30.2673189 C16.003421,30.1908045 16.1140544,30.1397949 16.2108586,30.0887853 C16.4861849,29.9536098 16.7237952,29.8337372 17.1625572,29.3389439 C18.0639679,28.3187516 17.988536,26.7361783 17.9269333,25.4634884 C17.9168757,25.2466975 17.9143613,25.0809163 17.9131041,24.9776218 L17.9131041,24.9597684 C17.9131041,24.6983442 17.9131041,24.5899487 17.7873844,24.5899487 C17.7306185,24.5985432 17.6778944,24.6248379 17.6365207,24.6651879 L17.5799468,24.7059956 C16.6577125,25.349068 15.8578183,26.1561216 15.2189297,27.0881446 C15.1860252,27.1306825 15.1752679,27.186664 15.1900141,27.238623 C15.2151581,27.3215136 15.3019047,27.3559451 15.4213385,27.403129 C15.4974521,27.4311052 15.5714113,27.4647792 15.6426053,27.503873 C15.6601817,27.5141394 15.6801556,27.5194247 15.7004364,27.5191759 C15.8248946,27.4930811 15.9357271,27.42191 16.0122214,27.3189631 C16.2536447,26.8745099 16.5990197,26.4970276 17.0179795,26.2197059 L17.0506666,26.2018526 C17.2078163,27.2220449 17.0355802,28.066254 16.53773,28.6987732 C16.2482254,29.073232 15.8622993,29.3592174 15.4225957,29.525129 C15.3207627,29.562111 15.3308203,29.6360749 15.3433922,29.721516 C15.3510007,29.9159981 15.4242319,30.1019287 15.5508299,30.2481903 C15.59571,30.285929 15.6538401,30.3034341 15.7117511,30.2966494 C15.7689291,30.2993651 15.8260001,30.289354 15.8789584,30.2673189 L15.8777012,30.2673189 Z M20.7191692,30.8475533 L20.8172306,30.7812408 C20.8712901,30.7391578 20.9052344,30.6537167 20.6915108,30.3183285 C20.5243036,30.0773081 20.4627009,30.0568922 20.4136702,30.0568922 C20.380559,30.0563949 20.3492223,30.0720509 20.3294379,30.0989872 C19.8667892,30.7225797 18.9792077,31.1255557 18.1331137,31.2632816 C17.9147085,31.2689933 17.7010221,31.3289836 17.5108009,31.4379896 L17.4919429,31.4481915 L17.4806282,31.4545677 C17.3360504,31.5221554 17.2153595,31.5897432 17.0896397,31.6611566 L17.0745533,31.6688081 C16.9978643,31.7121663 16.9174036,31.7580749 16.8231138,31.8027083 C16.7979699,31.8154607 16.7791119,31.8282131 16.7615111,31.8384151 L16.620705,31.9340581 L16.7866551,31.9684896 C17.1537568,32.0475545 17.5409737,32.1113165 17.9545917,32.1585004 C18.6095916,32.1176927 19.2796779,31.9034523 19.6832384,31.6126975 C20.2414341,31.2084463 20.5217892,30.9750773 20.699054,30.8577552 L20.7191692,30.8475533 Z M14.3187762,30.3540353 L14.3099758,30.3361819 C14.2597634,30.2390979 14.2209444,30.1363776 14.1943136,30.0301242 C14.1713134,29.9456408 14.0959073,29.8868437 14.0095056,29.886022 C13.9340737,29.8796458 13.8536131,29.8770954 13.7681237,29.8770954 C13.3915517,29.8856557 13.0160128,29.9205955 12.644189,29.9816651 L12.434237,30.0122708 L12.2456574,30.0403261 L12.4053215,30.1436206 C12.7095633,30.3412828 12.9899183,30.5096146 13.261473,30.6537167 L13.2778166,30.6626434 L14.2332868,30.654992 C14.2870131,30.6624002 14.3407094,30.6411919 14.3753501,30.5988814 C14.3978078,30.5594253 14.3978078,30.5108134 14.3753501,30.4713574 C14.3601008,30.4314056 14.3428977,30.3922496 14.323805,30.3540353 L14.3187762,30.3540353 Z M15.9631907,25.386974 L15.9883346,25.3640196 L16.7841407,24.5988754 C17.3310217,24.0734764 17.8213287,23.6003622 18.2927778,23.1336242 L18.3971252,23.0290545 L18.4360983,22.9895221 C18.4360983,23.0137516 18.4360983,23.0379812 18.4298124,23.0609355 L18.4235264,23.1246975 C18.3784699,23.8311217 18.3717547,24.5395251 18.4034112,25.2466975 C18.4398699,26.5283141 18.4763287,27.8545641 17.9495629,29.0124824 C17.9093326,29.1017492 17.9621349,29.1986675 18.3480945,29.4358622 C18.402768,29.475398 18.4671727,29.4987929 18.5341598,29.5034499 C18.6157716,29.4984625 18.6853571,29.4416882 18.707653,29.3618982 C19.1866453,28.2600905 19.2469908,26.8305461 19.241962,25.4520112 C19.241962,25.3091843 19.1891597,23.5225725 19.1715589,22.9334115 C19.1602442,22.5725184 19.1828737,22.1223586 19.140129,21.7678418 C19.1187566,21.5982348 19.0307528,21.57273 18.9804649,21.57273 C18.9156273,21.5790754 18.8550781,21.6084297 18.809486,21.6556206 C16.9953499,23.1859091 15.1497838,25.0592372 13.4211371,26.8228946 C13.1696976,27.0779427 12.9572312,27.2870821 12.7849951,27.4541386 L12.7472792,27.4923958 C12.3701199,27.8558393 12.0495345,28.1708237 11.5554559,28.7408562 C11.4385365,28.8760317 11.3165883,29.0086567 11.1845826,29.1489331 L11.1317803,29.2050437 L11.1921258,29.2535028 C11.3568187,29.3899535 11.5315691,29.5276795 11.7100912,29.6603045 L11.7641507,29.6998369 L11.8068954,29.6488273 C13.0200911,28.2014295 14.5865593,26.7055725 15.9682195,25.386974 L15.9631907,25.386974 Z M12.5071545,26.7208754 C12.4909187,26.6279268 12.4365373,26.5463428 12.3575479,26.4964331 C12.316559,26.4630698 12.2779113,26.4268503 12.2418858,26.3880377 C12.1802831,26.3242756 12.1400528,26.2821835 12.0834789,26.2821835 C12.0585128,26.2818518 12.0343142,26.2909429 12.0155902,26.3076975 C11.8609549,26.4492492 11.0563484,27.1927143 10.0757343,28.1108874 L10.022932,28.1606218 L10.0732199,28.2141819 C10.2630567,28.4105689 10.4378072,28.5840016 10.6075289,28.7421314 L10.6578168,28.7880401 L10.7055903,28.7395809 C11.3115595,28.1198141 11.9275864,27.4643405 12.4380086,26.90451 C12.4885867,26.8576473 12.5158047,26.7902635 12.5121833,26.7208754 L12.5071545,26.7208754 Z M17.7245245,30.8016446 C17.7094381,30.6741206 17.4504554,30.5312937 17.3611944,30.490486 L17.2933057,30.453504 C17.2329862,30.4113568 17.1626879,30.3862672 17.0896397,30.3808153 C17.0449706,30.3809876 17.001306,30.3942749 16.96392,30.4190725 C16.3178688,30.8258137 15.6043509,31.1101317 14.858114,31.2581807 L14.6217608,31.3079151 L14.8467992,31.3946314 C15.2239585,31.5400088 15.6212329,31.6700833 16.0210218,31.7772035 L16.0411369,31.7835797 L16.0612521,31.7772035 C16.6544379,31.5903932 17.2070167,31.290445 17.689323,30.8934619 C17.7185173,30.871083 17.7338282,30.834683 17.7295533,30.7978189 L17.7245245,30.8016446 Z M30.369418,16.9895161 C30.4159343,16.9895161 30.4574218,16.9601855 30.6133143,16.8377625 C30.7692068,16.7153394 30.9012126,16.6592288 30.9112701,16.5827144 C30.9162672,16.5106292 30.8927407,16.4394956 30.8458959,16.3850521 C30.6091384,16.1569216 30.3921052,15.9086151 30.1971819,15.6428622 C30.0358961,15.3967867 29.8292868,15.1846142 29.5886983,15.0179944 C29.4629785,14.9274524 28.8519805,15.2730425 28.90604,15.4439247 C28.9600995,15.6148069 29.3435447,16.0815449 29.6716733,16.368474 L29.7810495,16.4666675 C29.9577291,16.6168907 30.1256394,16.7774174 30.2839285,16.9474331 C30.3026809,16.9762783 30.3354752,16.9924216 30.369418,16.9895161 L30.369418,16.9895161 Z M27.9027963,14.3459427 L27.9191399,14.3459427 C28.1857266,14.3037347 28.4122226,14.1255245 28.5188231,13.8741038 C28.5352878,13.8283379 28.5211217,13.7770187 28.4836216,13.7465798 C28.4572204,13.7249007 28.2912703,13.5310641 28.1668078,13.3754848 C27.9254258,13.0707024 27.6299844,12.9112973 27.538209,12.9112973 C27.5207373,12.9105058 27.5033748,12.9144685 27.4879211,12.9227745 C27.2704259,13.0388214 27.118305,13.1944007 27.093161,13.3283009 C27.0541879,13.5323394 27.2578539,13.7720846 27.4615199,13.9799488 C27.7896485,14.3140617 27.8424508,14.3459427 27.9027963,14.3459427 Z M29.5836695,13.7491302 C28.4144757,14.1163995 27.6262128,14.9108742 26.9184106,15.6925966 C26.4682353,16.2197643 25.9749131,16.7073685 25.4437178,17.1501963 C25.4148022,17.1731507 25.3469136,17.2267108 25.3720575,17.3032252 C25.3972015,17.3797396 25.4877197,17.3810149 25.5417792,17.3810149 C26.7220636,17.3864156 27.9003598,17.2822619 29.0619325,17.0698562 L29.0983912,17.0622048 C29.2999927,17.0310188 29.4965921,16.9726935 29.6829881,16.8887721 C29.7151174,16.8725134 29.7369014,16.8408096 29.7408192,16.8046062 C29.7546484,16.702587 29.6327002,16.5814391 29.5949843,16.5495581 C29.5559437,16.5138855 29.5217049,16.4731527 29.4931513,16.4284103 C29.4728134,16.3883069 29.4320066,16.3631757 29.3875467,16.363373 L29.3875467,16.363373 C29.1185064,16.3901531 28.8368941,16.4462637 28.5841974,16.4908971 L28.4207617,16.5240533 C28.0950478,16.6019037 27.7621399,16.6446487 27.4275756,16.6515774 C27.2754064,16.6518497 27.1233817,16.6420521 26.9724701,16.6222468 C27.0881322,16.5202276 27.3018558,16.3327673 27.4640343,16.1835641 L27.5834681,16.0764439 C28.4635064,15.270492 29.1599939,14.6341471 30.3857615,14.6252204 C30.4259919,14.6252204 30.4624506,14.5971651 30.5114813,14.5334031 C30.6509468,14.3279264 30.6894313,14.0687785 30.6158287,13.8307456 C30.5781128,13.710873 30.1858671,13.7032216 30.019917,13.7032216 C29.8731044,13.6978819 29.7262748,13.7133336 29.5836695,13.7491302 L29.5836695,13.7491302 Z M30.2889573,15.2131062 C30.2248403,15.2870701 30.2889573,15.3597589 30.3392452,15.408218 C30.3782296,15.4487969 30.415155,15.4913598 30.4498786,15.535742 C30.7013181,15.8622036 30.9087557,15.8877084 30.9665868,15.8877084 C31.0044664,15.8902051 31.0414301,15.8752074 31.0671626,15.8469007 C31.4548818,15.3541947 31.7142703,14.7705264 31.8214812,14.1495557 L31.8214812,14.1291519 L31.813938,14.1100233 C31.6360579,13.6406393 31.4324945,13.1816895 31.2041972,12.7353141 L31.0784774,12.4879175 L31.0784774,12.7671952 C31.0520763,13.8537 30.8044083,14.6290461 30.2965005,15.2080052 L30.2889573,15.2131062 Z M28.1140055,12.8679391 L28.1341206,12.8577372 L28.1341206,12.8577372 L28.1152627,12.8704896 C28.1486025,13.0099223 28.2112108,13.140416 28.2988135,13.2530617 C28.3559756,13.3121673 28.4314353,13.3495381 28.5125371,13.3589067 C28.5400924,13.3598256 28.566993,13.3502753 28.587969,13.3321266 C29.0996484,12.883242 30.5165101,11.5467901 30.5165101,11.5467901 L30.4310207,11.4116146 C30.3405024,11.2751639 30.248727,11.1463646 30.1456368,11.0048129 L30.0991205,10.9385004 L30.0400322,10.994611 C29.4302914,11.588873 28.8394085,12.1206483 28.1818942,12.6664512 C28.1240631,12.7174608 28.0700036,12.7786723 28.1140055,12.8679391 Z M27.0064144,13.8626266 C26.920925,13.8281952 26.7838904,13.9353153 26.7625181,13.9557192 C25.7027005,15.0001411 24.8226622,15.8685798 23.9602246,16.79823 L23.7955317,16.9754884 C23.5730077,17.2152336 23.332883,17.466456 23.1216738,17.6883478 C22.9670385,17.8503033 22.811146,18.0122588 22.6590251,18.1742144 C22.5671913,18.2639675 22.5428237,18.4035169 22.5986796,18.5198045 C22.623299,18.5737748 22.6785492,18.6063818 22.7369713,18.6014199 L22.7508005,18.6014199 C23.1065874,18.5759151 23.5164339,18.5631627 24.0079981,18.5631627 C24.4065298,18.5631627 24.8163762,18.5720894 25.2513665,18.5810161 L25.2702245,18.5810161 C25.6473838,18.5886675 26.1138041,18.5988694 26.5550805,18.5988694 C28.5200803,18.5988694 30.5303393,18.4152348 31.9207998,17.0851591 C31.9850705,17.0284348 32.0214098,16.945848 32.0201184,16.8594415 C32.0281083,16.5888034 31.9422425,16.3238988 31.7774793,16.1108754 C31.7563776,16.0823314 31.7233893,16.0653649 31.6882183,16.0649668 C31.6472707,16.0667227 31.6097373,16.0886141 31.5876425,16.1236278 C30.4046195,17.694724 28.3755026,17.7699632 26.4130171,17.8439271 L25.9453396,17.8579548 C25.7353876,17.864331 25.5317216,17.8668814 25.3293128,17.8681567 C24.9408387,17.8681567 24.5209347,17.8770834 24.0846872,17.9115149 L23.9526814,17.922992 L23.975311,17.8987624 C24.0846872,17.790367 24.1940634,17.6857973 24.3373839,17.5493466 C24.5071056,17.3886663 24.6717984,17.2126831 24.8314625,17.0392504 C24.9383243,16.9244788 25.0489577,16.8071567 25.1595911,16.6949355 C25.3406276,16.5113009 25.515378,16.3340425 25.6939001,16.1504079 C26.1603204,15.673468 26.6430843,15.1812252 27.3710017,14.4683658 C27.4414048,14.3995028 27.3810593,14.3217132 27.3395718,14.2681531 C27.3166357,14.2395861 27.2952324,14.2097874 27.2754547,14.1788863 L27.2364816,14.1176747 C27.1547637,13.9965269 27.093161,13.8970581 27.0051572,13.8626266 L27.0064144,13.8626266 Z M31.6869611,19.2186362 C31.6140436,19.1268189 31.4757519,19.0681579 31.4267212,19.1076903 C30.999274,19.455831 30.2650706,20.6379788 30.2801569,20.7565761 C30.2801569,20.813962 30.3329592,20.845843 30.4259919,20.909605 C30.4549074,20.9287336 30.4901089,20.9529632 30.5152529,20.973367 C30.5680552,21.0167252 30.6409727,21.0664596 30.7038325,21.1085425 C30.7308018,21.1248711 30.7568266,21.1427537 30.7817788,21.1621026 C30.7997129,21.1814934 30.824713,21.1925591 30.8509247,21.1927084 C30.9150417,21.1927084 30.9552721,21.137873 31.0508191,21.0026975 C31.0847634,20.9567889 31.113679,20.9172564 31.1388229,20.8879259 C31.4656943,20.4989776 31.807652,20.0909007 31.8931415,19.6318141 C31.9082278,19.5731531 31.7674217,19.318105 31.6869611,19.2186362 Z M31.9698305,22.6949415 L31.9698305,22.6949415 C31.9367614,22.6880907 31.9024805,22.6980938 31.8780551,22.7217216 C31.5411261,23.0622108 30.9779016,23.2101386 30.5982279,23.2318177 C30.5504544,23.2318177 30.5026809,23.2318177 30.4536502,23.2318177 C30.3202248,23.2314972 30.1871558,23.2178285 30.0563758,23.19101 C29.7709919,23.1348995 29.7244756,23.19101 29.535896,23.6475461 C29.5192159,23.6843782 29.5192159,23.7267608 29.535896,23.763593 C29.5585701,23.8048094 29.5991334,23.8327126 29.6452722,23.8388321 C29.8882291,23.903411 30.1383732,23.9359849 30.3895331,23.9357504 C30.9087805,23.9417959 31.4188402,23.7966286 31.8591971,23.5174716 L31.8793123,23.5047192 L31.8868555,23.4817648 C31.9597729,23.2802769 32.030176,23.0698622 32.0942931,22.8607228 L32.1018363,22.8364932 L32.0930359,22.8122636 C32.0728536,22.7554033 32.0270481,22.7117851 31.9698305,22.6949415 L31.9698305,22.6949415 Z M29.5509823,21.9540269 C29.3812607,21.8634848 29.2806849,21.8775124 29.2014814,22.0050365 L29.1775947,22.0445689 C28.8796388,22.5215088 28.6231705,22.9372372 28.1542358,23.2432949 C28.0257248,23.3104228 27.9707038,23.4672507 28.028516,23.6016374 C28.1655506,23.8452083 28.3214431,24.1206603 28.6395141,24.1359632 C28.7074027,24.1359632 28.7652338,24.0747516 29.0091302,23.7661434 C29.0707329,23.6870785 29.1348499,23.6054632 29.192681,23.5391507 C29.4906369,23.1859091 29.7999075,22.8199151 29.9721435,22.3914343 C30.0362606,22.235855 29.5949843,21.9782564 29.5497251,21.9540269 L29.5509823,21.9540269 Z M30.5894276,22.835218 C30.6047629,22.8865899 30.6522012,22.9211101 30.7050897,22.9193838 C30.7320303,22.9183679 30.7588931,22.9158134 30.7855504,22.9117324 C30.9827732,22.905355 31.1729226,22.8357045 31.3286597,22.7127949 C31.4091204,22.6426567 31.3802048,22.437343 31.3487749,22.3888838 C31.2708287,22.2702865 31.215512,22.166992 31.1639669,22.071349 L31.1526521,22.0496699 L31.1526521,22.0496699 C31.0156175,21.7946218 30.8861262,21.5638033 30.3807328,21.1570016 C29.5509823,20.4785737 28.3692166,20.3918574 27.4414048,20.3918574 C27.0893894,20.3918574 26.7248021,20.405885 26.3514144,20.4224632 C26.1138041,20.4326651 25.9340248,20.4352156 25.8246487,20.4364908 C25.5543512,20.4364908 25.4902341,20.4364908 25.4537754,20.5206567 C25.4173166,20.6048225 25.4701189,20.6481807 25.5254356,20.7170437 L25.5681803,20.771879 C26.2539404,21.6730905 27.094182,22.4415864 28.0486312,23.0405317 C28.0806711,23.0611152 28.1175837,23.0725682 28.155493,23.0736879 C28.2673836,23.0736879 28.3113855,22.9716687 28.3616734,22.8517961 C28.3927378,22.7749946 28.4297305,22.7008002 28.4723068,22.6299043 C28.4891138,22.5981056 28.4918546,22.5605733 28.47985,22.5266098 C28.4392843,22.4211212 28.3688596,22.330163 28.2774412,22.2651855 C27.8227988,22.0415472 27.4297705,21.7072787 27.1333914,21.2921771 L27.1195622,21.270498 C27.3609123,21.2333298 27.604623,21.2141498 27.8487368,21.2131122 C28.5904834,21.2131122 29.2228538,21.3992973 29.7345332,21.7678418 C30.1123318,22.0354995 30.4085204,22.405305 30.5894276,22.835218 L30.5894276,22.835218 Z M32.685176,18.8131098 L32.685176,18.7990822 C32.685176,18.7748526 32.685176,18.7493478 32.685176,18.7251182 L32.685176,18.7008886 L32.6700896,18.68176 C32.3193315,18.2290497 32.0955503,17.9166158 31.9987461,17.7890918 L31.9748593,17.7559355 C31.9601473,17.7337743 31.9441967,17.7124855 31.9270858,17.6921735 C31.9051042,17.666383 31.8726533,17.6522759 31.839082,17.6539163 C31.7049572,17.6843465 31.5772447,17.7387555 31.4619227,17.8145966 C31.2104832,17.9752769 31.1878536,18.0352132 31.1865964,18.087498 C31.1914785,18.1214445 31.2079384,18.1525807 31.2331127,18.1754896 C31.6869611,18.755724 32.1785253,19.2415906 32.3922489,20.1597636 C32.3922489,20.177617 32.4890531,20.4581699 32.5946577,20.4977023 C32.7002623,20.5372348 32.6914619,19.4035461 32.6914619,18.8960004 C32.6864332,18.8653947 32.685176,18.8398899 32.685176,18.8131098 Z M31.6681031,23.8197035 L31.6454735,23.8197035 C31.6233078,23.8204077 31.6015061,23.8256111 31.5813565,23.8350064 C31.527297,23.8554103 31.4770091,23.8770894 31.4279784,23.8987684 C31.3270589,23.9469099 31.2212415,23.9836863 31.1124218,24.0084391 C31.0274671,24.0284796 30.9662119,24.1036673 30.9628152,24.1920737 C30.9445758,24.512078 30.9601701,24.8331434 31.0093316,25.1497793 L31.0395043,25.3703958 L31.1425945,25.1740088 C31.3557928,24.7680458 31.5475763,24.3508792 31.7171338,23.9242733 L31.7586213,23.8528598 L31.6844467,23.8299055 L31.6681031,23.8197035 Z M26.2621534,22.2970665 C25.9905987,22.034367 25.7203012,21.7716675 25.4500038,21.5127937 L25.426117,21.4898394 C24.9584395,21.0409547 24.4291593,20.5321338 23.9237659,20.0564692 C23.8709636,20.0067348 23.8257045,19.9659271 23.7791882,19.9289451 C23.8504294,19.9289451 23.905746,19.9314956 23.9451382,19.9365966 L24.0117697,19.9365966 C24.3222975,19.9608261 24.6931708,19.9735786 25.1432476,19.9735786 C25.3154836,19.9735786 25.4889769,19.98123 25.6624702,19.9901567 C25.858593,20.0003586 26.0396294,20.0092853 26.2168943,20.0054596 C26.3338137,20.0054596 26.4457043,19.9978081 26.5563377,19.9939824 L26.5852532,19.9939824 C26.787662,19.986331 26.9800132,19.9786795 27.194994,19.9786795 C28.1768654,19.9786795 29.1335927,20.0105605 30.0601474,20.3995088 C30.1431224,20.4352156 30.2474698,20.3829307 30.4901089,20.0169367 C30.5475373,19.9548005 30.5718809,19.8683751 30.5554832,19.784843 C30.5302821,19.7227019 30.4783915,19.6757061 30.4146771,19.6573189 C29.1893604,19.1393361 27.8677707,18.8974181 26.5412513,18.9482853 L26.3224989,18.9546615 L25.9239673,18.9674139 C25.0326142,18.9967444 23.5352918,19.0439283 23.4736891,19.0490293 C23.2411076,19.0656074 23.0965299,19.0707084 22.9884109,19.0745341 C22.8438331,19.0745341 22.7369713,19.0834608 22.5307909,19.1076903 C22.4603879,19.1153418 22.3359253,19.1408466 22.3057526,19.222462 C22.2755798,19.3040774 22.4314723,19.5769788 22.4591307,19.6050341 C24.0934876,21.3903706 26.0647734,23.2024872 27.7821053,24.7570052 C28.066232,25.0120533 28.2937847,25.2313946 28.4848788,25.413754 C28.8620381,25.7708213 29.1889094,26.0807047 29.7797923,26.5538189 C29.8740821,26.6303333 29.9671147,26.7055725 30.0551186,26.7808117 L30.1129497,26.8292708 L30.1569516,26.7680593 C30.2826713,26.5959019 30.4083911,26.4173682 30.5215389,26.2362841 L30.5567404,26.1814487 L30.5051953,26.140641 C29.0657041,25.0146038 27.633756,23.6322432 26.2571246,22.2970665 L26.2621534,22.2970665 Z M27.5306658,25.2951567 C27.5877034,25.2441042 27.6309719,25.1791478 27.6563856,25.1064211 C27.6953587,24.9929247 27.5935257,24.8960064 27.4766063,24.7837853 L27.4225468,24.7315004 C27.1610497,24.4764478 27.0969326,24.4764478 27.0592167,24.4764478 C27.0254469,24.4761435 26.9934301,24.4916756 26.9724701,24.5185353 C26.9523549,24.5453153 26.8140632,24.6116278 26.7499461,24.6690136 C26.5437657,24.8551987 26.3162129,25.0605124 26.247067,25.2199175 C26.2106083,25.2989824 26.3489,25.3920749 26.4356467,25.5055713 C26.5089051,25.6109941 26.5932104,25.7080539 26.6870862,25.7950509 C26.8404643,25.9225749 26.9385257,25.8843177 27.0642455,25.7440413 C27.1107618,25.6955821 27.1535065,25.6432973 27.1987656,25.5935629 C27.2663196,25.5205629 27.3399263,25.4535795 27.4187752,25.3933502 C27.4560016,25.3624633 27.4916676,25.3296905 27.525637,25.2951567 L27.5306658,25.2951567 Z M27.7821053,25.7121603 L27.7494182,25.7351146 C27.6308981,25.8366319 27.5230438,25.9503076 27.4275756,26.0743285 C27.4067233,26.0968099 27.389726,26.1226717 27.3772877,26.150843 C27.3244854,26.2923946 27.5796965,26.4645521 27.6664431,26.548718 L28.1152627,26.9937768 L29.090848,27.9565833 L29.1423931,28.007593 L29.192681,27.9540329 C29.3774891,27.7499944 29.5371532,27.5650845 29.6817309,27.3878261 L29.7244756,27.334266 L29.6741877,27.2883574 C29.3611455,27.0065293 29.0569037,26.7157744 28.7514047,26.4262949 L28.2485256,25.9531807 C28.1140055,25.8269319 27.9681706,25.6012144 27.7821053,25.7121603 L27.7821053,25.7121603 Z M32.0012605,20.6430798 L32.0012605,20.6430798 C31.9810912,20.6211617 31.9528727,20.6086966 31.9233142,20.6086483 C31.7975945,20.6086483 31.635416,20.8636963 31.5888997,20.9606146 C31.5800993,20.9797432 31.5687845,20.9975966 31.5562125,21.0192757 L31.5562125,21.0269271 C31.4742158,21.1163187 31.4603765,21.2499387 31.5222682,21.3546639 C31.7516092,21.6854245 31.9434936,22.0413344 32.0942931,22.4156639 L32.1734965,22.6107757 L32.227556,22.4080124 C32.3231031,22.0509451 32.4060781,21.6785749 32.4789956,21.2985533 L32.4789956,21.270498 L32.4639092,21.2462685 C32.3268678,21.0322377 32.1720914,20.8304445 32.0012605,20.6430798 L32.0012605,20.6430798 Z M19.0332672,19.2517925 C19.0596684,19.2199115 19.0873267,19.1867552 19.1124707,19.153599 C19.1318348,19.1316699 19.1467828,19.1061102 19.1564726,19.0783598 C19.1627586,19.0515798 19.1853881,19.015873 19.1803593,18.989093 C19.1555778,18.907925 19.1125391,18.8337093 19.0546396,18.7723021 C19.0181029,18.7267577 18.9781744,18.6841245 18.9352058,18.6447781 C18.7843421,18.5019512 18.6661655,18.3438213 18.5253594,18.1984439 C18.3480945,18.0148093 18.1620293,17.8375509 17.9797356,17.6590173 C17.6289775,17.3147024 17.2744478,16.9742132 16.9098605,16.638825 C16.6370486,16.3927036 16.4069814,16.1873899 16.1970294,15.9897276 L15.9066168,15.7193766 C15.3961945,15.2390361 14.8933155,14.750619 14.3979797,14.2541254 C14.1532452,14.0109796 13.910187,13.7652833 13.668805,13.5170365 L13.3255901,13.1625197 C13.2577014,13.0911062 13.1495824,12.9508298 13.0364347,12.9737841 C12.9995616,12.9852496 12.9656453,13.0048463 12.937116,13.0311699 C12.8491122,13.1013081 12.4028071,13.4711278 12.517212,13.5999271 C12.53607,13.6216062 13.3972504,14.4683658 15.0793808,16.130004 C16.1781715,17.2126831 17.4227971,18.4407396 17.8351579,18.8500918 C17.8735319,18.8864221 17.9100388,18.9247299 17.9445341,18.9648634 L17.9319621,18.9763406 L17.8892174,19.0171483 L16.6747645,20.2324523 L16.6747645,20.2324523 C14.3087186,22.6031242 11.7880374,24.8437216 9.38301842,27.3087612 L9.33147332,27.3546699 L9.37547524,27.40823 C9.50873818,27.572736 9.65331591,27.7397925 9.80417962,27.906849 L9.85321032,27.9604091 L9.90475543,27.9093994 C10.7081047,27.1353285 11.3631046,26.5206627 12.0306766,25.9187492 C12.4656669,25.5259752 12.898562,25.1310757 13.3293617,24.7340509 C14.2747743,23.8626366 15.2092912,22.9801703 16.1329123,22.0866519 C16.6357914,21.604611 17.1336416,21.1208698 17.6264631,20.6354283 C17.8942462,20.3727288 18.1632865,20.1113045 18.4298124,19.8473298 C18.6284496,19.6560437 18.8459448,19.4698586 19.0332672,19.2517925 Z M25.6725277,12.6345702 C25.6533041,12.5881764 25.6270001,12.5451416 25.5945815,12.5070461 C25.5519104,12.4489364 25.5057243,12.3935695 25.4562898,12.3412649 C25.4003626,12.2883088 25.3402332,12.240112 25.2765105,12.1971627 C25.2456434,12.1736077 25.209235,12.1586595 25.1709059,12.1538045 C25.0451861,12.1538045 24.7384299,12.5287252 24.6479117,12.6128911 L24.166405,13.0605004 L23.0739003,14.0806927 L20.844889,16.1504079 L19.5625474,17.3453081 C19.5424322,17.365712 19.5160311,17.3899415 19.4959159,17.4077949 L19.4732864,17.3822901 L19.4632288,17.365712 C19.4264186,17.3042226 19.3811189,17.2483958 19.3287086,17.1999307 C18.5517605,16.4883466 17.7622404,15.7729367 16.9953499,15.0779307 C14.8820007,13.1421158 12.7070489,11.1450894 10.6666172,9.08430093 L10.6188437,9.0358418 L10.5685558,9.08302569 C10.4151777,9.22712786 10.2655711,9.3737805 10.124765,9.5191579 L10.0644195,9.59312185 C10.0644195,9.59312185 11.5189971,10.9295738 12.2833733,11.7125714 C13.1407821,12.5899367 14.005734,13.4592256 14.8782291,14.3204379 C15.806041,15.2335101 16.722538,16.0751687 17.6666934,16.9716627 C17.9269333,17.2165088 19.158987,18.5338322 19.4820868,18.5771903 C19.5739755,18.5709856 19.6617585,18.5362589 19.7335263,18.4777216 C19.9386299,18.3015242 20.1341995,18.114216 20.3193804,17.9166158 C21.1717603,17.1310677 22.0367123,16.2779319 22.817432,15.5076867 L23.0122976,15.3164007 L23.4460308,14.8866447 C23.9426238,14.3944019 24.4392169,13.9034343 24.9471247,13.4226687 C25.0728445,13.3078971 25.3418848,13.1242625 25.4852053,12.9419031 C25.5895527,12.8590125 25.7102437,12.7467913 25.6725277,12.6345702 L25.6725277,12.6345702 Z M19.2444764,0.638383889 C20.3445243,0.160168747 22.3497545,-0.76438053 25.7404164,1.21096682 C27.0177292,1.95188148 27.6412992,2.77823725 28.1642934,3.45666513 C28.6872876,4.13509301 29.3686887,5.20501969 31.2067116,5.96378772 C34.6313178,7.37547882 39.5331313,12.3476411 37.9603771,17.9905798 C37.6611641,19.0605064 37.2500604,19.3538117 37.6460777,20.745099 C38.0785537,22.2588093 37.6460777,23.6475461 37.4172677,24.3884608 C37.1884578,25.1293754 36.8666152,26.0271446 35.5503293,27.0664656 C34.2340434,28.1057865 31.2896866,30.5096146 29.8552242,33.4796494 C28.760205,35.7457516 28.047374,37.5017576 25.8246487,36.8271554 C24.6617409,36.4739138 23.9099367,36.6154655 22.7331997,36.9750833 C21.2899369,37.4175917 19.7046107,37.4418213 17.657893,36.6575485 C15.6111753,35.8732756 14.9423462,35.7457516 13.7517801,35.7457516 C12.561214,35.7457516 11.5768282,36.060736 9.20952515,34.3429872 C6.84222207,32.6252384 5.80754844,31.2530797 5.33358495,30.490486 C4.85962145,29.7278922 2.77141624,26.9593454 1.68771191,24.2749644 C0.604007573,21.5905834 -1.37607865,17.1846278 2.82924733,11.8732516 C5.47564828,8.53212185 5.84652157,7.25943195 6.70015874,5.54550888 C7.73106077,3.48344518 10.4315212,0.0619752372 14.3024326,0.77228413 C16.9073461,1.24029735 17.58749,1.3588947 19.2444764,0.638383889 Z M35.0021911,18.8960004 C34.999414,10.2197406 28.063669,3.18826243 19.5101653,3.19013988 C10.9566615,3.19201809 4.02391775,10.2265409 4.02484315,18.9028012 C4.02576856,27.5790614 10.9600127,34.6120629 19.5135167,34.6120629 C28.0659026,34.6029209 34.9959548,27.5711292 35.0021911,18.8960004 L35.0021911,18.8960004 Z" id="privateCollectionSeal"></path>
            </g>
        </g>
    </g>
</svg>