<?xml version="1.0" encoding="UTF-8"?>
<svg width="76px" height="175px" viewBox="0 0 76 175" version="1.1" xmlns="http://www.w3.org/2000/svg" xmlns:xlink="http://www.w3.org/1999/xlink">
    <title>8E867361-EC95-4760-AC8F-3195296B17AA</title>
    <defs>
        <polygon id="path-1" points="0 0.53 37.3930007 0.53 37.3930007 25.5361988 0 25.5361988"></polygon>
        <polygon id="path-3" points="0.7872 0.0692 16.2107149 0.0692 16.2107149 37 0.7872 37"></polygon>
    </defs>
    <g id="LP" stroke="none" stroke-width="1" fill="none" fill-rule="evenodd">
        <g id="Easter_Egg_LP_02_1" transform="translate(-140.000000, -1707.000000)">
            <g id="Easter-Egg-Animations" transform="translate(109.000000, 1172.000000)">
                <g id="ribbon3" transform="translate(31.000000, 535.000000)">
                    <path d="M32.1551,147.8384 C48.8921,146.9814 60.4551,148.4594 66.2461,152.1084 C69.8601,152.3344 72.9421,142.2404 72.0151,137.5394 C71.0891,132.8384 63.7311,126.9624 55.6761,125.1684 C47.6211,123.3744 32.1551,147.8384 32.1551,147.8384" id="Fill-1" fill="#F7F7F7"></path>
                    <path d="M44.9397,73.56 C55.8117,76.301 58.5087,81.405 59.8297,87.156 C61.1507,92.906 59.8197,106.109 55.1227,103.299 C40.0027,94.257 19.7967,94.67 19.1197,91.235 C18.5137,88.162 44.9397,73.56 44.9397,73.56" id="Fill-3" fill="#F7F7F7"></path>
                    <path d="M36.2273,35.0776 C43.4163,36.2896 50.3513,38.1166 50.8123,41.4066 C51.2733,44.6976 45.3943,52.9946 45.3943,52.9946 L31.3923,58.1966 C25.9673,59.2656 12.5963,58.1436 12.0263,55.2516 C10.9553,49.8136 36.2273,35.0776 36.2273,35.0776" id="Fill-5" fill="#F7F7F7"></path>
                    <g id="Group-9" transform="translate(0.000000, 0.470000)">
                        <mask id="mask-2" fill="white">
                            <use xlink:href="#path-1"></use>
                        </mask>
                        <g id="Clip-8"></g>
                        <path d="M10.0789,1.0647 C19.5889,-0.2473 37.4419,0.7427 37.3930007,5.2607 C37.3449,9.7787 21.9459,23.1457 15.1099,24.6807 C8.2739,26.2157 -0.0001,25.2167 -0.0001,25.2167 L10.0789,1.0647 Z" id="Fill-7" fill="#F7F7F7" mask="url(#mask-2)"></path>
                    </g>
                    <g id="Group-12" transform="translate(59.000000, 137.470000)">
                        <mask id="mask-4" fill="white">
                            <use xlink:href="#path-3"></use>
                        </mask>
                        <g id="Clip-11"></g>
                        <path d="M9.5872,37.0002 L0.7872,17.1322 C7.8822,13.1042 12.6632,9.7192 13.0152,0.0692 C14.6142,10.0862 16.4132,25.8862 16.1922,27.6202 C15.9702,29.3542 13.3162,34.9502 9.5872,37.0002" id="Fill-10" fill="#FFFFFF" mask="url(#mask-4)"></path>
                    </g>
                    <path d="M24.9236,122.5893 C44.5426,112.5233 58.7826,99.9473 59.8296,87.1553 C61.9356,96.8843 65.9756,112.6183 66.1536,113.5233 C66.3326,114.4273 64.3676,132.0963 32.1546,147.8383 L24.9236,122.5893 Z" id="Fill-13" fill="#FFFFFF"></path>
                    <path d="M17.0633,63.6509 L19.1193,91.2349 C20.3933,88.1669 24.1943,87.1169 31.5353,84.6549 C41.0503,81.4639 52.4503,76.3999 54.2383,70.2239 C54.2893,64.7659 50.8123,41.4069 50.8123,41.4069 C50.8213,50.9859 17.9443,58.5929 17.0633,63.6509" id="Fill-15" fill="#FFFFFF"></path>
                    <path d="M8.2742,26.686 L12.0262,55.251 C12.8392,48.892 42.9022,39.397 42.5972,32.131 C41.5632,26.887 37.3572,5.55 37.3572,5.55 C36.9372,13.898 8.3282,20.289 8.2742,26.686" id="Fill-17" fill="#FFFFFF"></path>
                </g>
            </g>
        </g>
    </g>
</svg>