<?xml version="1.0" encoding="UTF-8"?>
<svg width="99px" height="544px" viewBox="0 0 99 544" version="1.1" xmlns="http://www.w3.org/2000/svg" xmlns:xlink="http://www.w3.org/1999/xlink">
    <title>D338585D-9B74-4465-B1D2-2B9CC10ED083</title>
    <g id="LP" stroke="none" stroke-width="1" fill="none" fill-rule="evenodd">
        <g id="Easter_Egg_LP_02_1" transform="translate(-1209.000000, -1172.000000)" fill-rule="nonzero">
            <g id="Easter-Egg-Animations" transform="translate(109.000000, 1172.000000)">
                <g id="ribbon6" transform="translate(1100.000000, 0.000000)">
                    <path d="M29.8171,0 C4.93055,27.2426 0.446141,37.5699 0.00151114,101.619 C-0.265267,140.016 14.9284,221.337 27.4796,263.828 C53.9033,353.327 78.7899,453.725 78.7899,474.736 C92.7767,458.393 99.0015,449.885 99.0015,443.602 C99.0015,435.131 82.6772,343.203 57.7526,254.442 C40.1198,191.678 32.4849,133.479 29.8171,122.185 C23.5923,95.7179 15.0427,48.2532 29.8171,0 Z" id="Path" fill="#FFFFFF"></path>
                    <path d="M21.1779,453.726 L7.26733,484.071 C4.15492,491.855 27.4789,522.989 39.9159,522.989 C41.4657,519.873 53.1277,497.311 53.1277,497.311 C45.3531,497.311 32.1285,479.404 27.4789,471.633 C21.4828,461.611 21.1779,453.726 21.1779,453.726 Z" id="Path" fill="#FFFFFF"></path>
                    <path d="M53.1274,497.298 C53.1274,497.298 45.467,487.276 34.7578,482.112 C40.5888,489.603 48.0332,497.298 53.1274,497.298 Z" id="Path" fill="#F7F7F7"></path>
                    <path d="M75.4226,450.317 C64.04,455.01 38.7343,448.27 35.2534,448.27 C31.9505,448.27 23.6295,447.71 21.1777,453.726 C21.1777,453.726 21.4826,461.611 27.4788,471.62 C27.4788,471.62 40.6906,480.18 57.7898,480.956 C68.7658,481.452 71.7766,480.956 78.7763992,474.724 C78.789,470.107 77.5822,461.649 75.4226,450.317 Z" id="Path" fill="#F7F7F7"></path>
                    <path d="M9.03231,492.859 C9.03231,492.859 1.04167,522.976 1.8166,526.868 C2.59153,530.76 12.7037,542.435 17.3659,543.987 L32.6993,522.976 L28.1895,517.24 C20.5292,510.932 12.6656,500.643 9.03231,492.859 Z" id="Path" fill="#FFFFFF"></path>
                </g>
            </g>
        </g>
    </g>
</svg>