<?xml version="1.0" encoding="UTF-8"?>
<svg width="79px" height="142px" viewBox="0 0 79 142" version="1.1" xmlns="http://www.w3.org/2000/svg" xmlns:xlink="http://www.w3.org/1999/xlink">
    <title>2988B625-1B62-44A0-969A-14A7BC368BDF</title>
    <defs>
        <polygon id="path-1" points="0.533865228 0.653088568 40.372 0.653088568 40.372 31 0.533865228 31"></polygon>
        <polygon id="path-3" points="0.1984 0.7958 55.372 0.7958 55.372 38.7627807 0.1984 38.7627807"></polygon>
        <polygon id="path-5" points="0 0.3941 47.4669 0.3941 47.4669 29.6981 0 29.6981"></polygon>
    </defs>
    <g id="LP" stroke="none" stroke-width="1" fill="none" fill-rule="evenodd">
        <g id="Easter_Egg_LP_02_1" transform="translate(-779.000000, -1740.000000)">
            <g id="Easter-Egg-Animations" transform="translate(109.000000, 1172.000000)">
                <g id="ribbon7" transform="translate(670.000000, 568.000000)">
                    <g id="Group-3" transform="translate(38.000000, 110.607000)">
                        <mask id="mask-2" fill="white">
                            <use xlink:href="#path-1"></use>
                        </mask>
                        <g id="Clip-2"></g>
                        <path d="M40.3729,9.2669 C25.6259,17.2309 16.5149,24.4999 13.4619,30.6269 C10.4919,32.6989 2.6139,25.6749 0.9639,21.1769 C-0.6881,16.6779 2.5459,7.8349 8.4969,2.1179 C14.4479,-3.6001 40.3729,9.2669 40.3729,9.2669" id="Fill-1" fill="#F7F7F7" mask="url(#mask-2)"></path>
                    </g>
                    <path d="M28.8563,63.0497 C20.9913,71.0407 21.3383,76.8027 23.1983,82.4037 C25.0563,88.0027 33.0533,98.5917 35.6073,93.7507 C43.8293,78.1687 61.3083,68.0247 60.1023,64.7367 C59.0223,61.7957 28.8563,63.0497 28.8563,63.0497" id="Fill-4" fill="#F7F7F7"></path>
                    <path d="M16.3065,25.6424 C10.7935,30.4134 5.8185,35.5784 7.1335,38.6284 C8.4505,41.6794 17.7835,45.7144 17.7835,45.7144 L32.4505,42.8834 C37.6405,40.9794 48.4825,33.0744 47.4665,30.3054 C45.5575,25.1034 16.3065,25.6424 16.3065,25.6424" id="Fill-6" fill="#F7F7F7"></path>
                    <g id="Group-10" transform="translate(23.000000, 81.607000)">
                        <mask id="mask-4" fill="white">
                            <use xlink:href="#path-3"></use>
                        </mask>
                        <g id="Clip-9"></g>
                        <path d="M48.4324,12.9358 C26.4404,14.5278 7.7394,11.1818 0.1984,0.7958 C3.4534,10.2028 8.1754,25.7458 8.4934,26.6108 C8.8104,27.4758 19.6694,41.5518 55.3724,38.2668 L48.4324,12.9358 Z" id="Fill-8" fill="#FFFFFF" mask="url(#mask-4)"></path>
                    </g>
                    <path d="M47.5272,40.0995 L60.1022,64.7375 C57.4202,62.7765 53.6262,63.8545 46.0742,65.5655 C36.2872,67.7835 23.9152,69.3785 19.1782,65.0315 C16.2982,60.3945 7.1332,38.6285 7.1332,38.6285 C12.1022,46.8175 44.1462,36.2365 47.5272,40.0995" id="Fill-11" fill="#FFFFFF"></path>
                    <g id="Group-15" transform="translate(0.000000, 0.607000)">
                        <mask id="mask-6" fill="white">
                            <use xlink:href="#path-5"></use>
                        </mask>
                        <g id="Clip-14"></g>
                        <path d="M35.8309,3.3421 L47.4669,29.6981 C43.4679,24.6881 12.8489,32.1951 9.3339,25.8271 C7.4919,20.8101 -0.0001,0.3941 -0.0001,0.3941 C4.6969,7.3081 32.4619,-2.0949 35.8309,3.3421" id="Fill-13" fill="#FFFFFF" mask="url(#mask-6)"></path>
                    </g>
                </g>
            </g>
        </g>
    </g>
</svg>