<?xml version="1.0" encoding="UTF-8"?>
<svg width="76px" height="127px" viewBox="0 0 76 127" version="1.1" xmlns="http://www.w3.org/2000/svg" xmlns:xlink="http://www.w3.org/1999/xlink">
    <title>FD1B0897-AD6F-4458-9584-1D9A02F73B89</title>
    <defs>
        <path d="M0.334,4.742 C1.199,3.213 1.823,1.638 2.081,0.081 L2.081,0.081 C1.688,1.043 1.077,2.682 0.334,4.742" id="path-1"></path>
    </defs>
    <g id="LP" stroke="none" stroke-width="1" fill="none" fill-rule="evenodd">
        <g id="Easter_Egg_LP_02_1" transform="translate(-1232.000000, -1755.000000)">
            <g id="Easter-Egg-Animations" transform="translate(109.000000, 1172.000000)">
                <g id="ribbon8" transform="translate(1123.000000, 583.000000)">
                    <g id="Group-7" transform="translate(0.000000, 0.907000)">
                        <path d="M20.2428,75.5043 C25.6258,69.7133 50.2668,72.6553 60.1418,63.6313 C63.9048,58.7263 74.5798,29.0773 74.5798,29.0773 C60.5758,42.9553 46.1188,35.0603 33.2678,43.5093 C30.8618,49.3553 20.2428,75.5043 20.2428,75.5043" id="Fill-1" fill="#FFFFFF"></path>
                        <path d="M64.942,0.0931 L39.399,14.8491 C42.912,18.2231 50.432,30.6911 54.797,38.1671 C61.349,37.3051 68.014,35.5841 74.58,29.0771 C80.385,15.6631 64.942,0.0931 64.942,0.0931" id="Fill-3" fill="#F7F7F7"></path>
                        <path d="M46.9411,120.7406 C32.5781,126.7336 12.0581,127.2926 0.0001,123.9936 C0.5251,119.8166 7.9081,93.3516 7.9081,93.3516 C29.7811,97.3886 51.4481,98.7106 59.0811,86.0816 C56.7791,91.7186 46.9411,120.7406 46.9411,120.7406" id="Fill-5" fill="#FFFFFF"></path>
                    </g>
                    <g id="Group-10" transform="translate(57.000000, 86.907000)">
                        <mask id="mask-2" fill="white">
                            <use xlink:href="#path-1"></use>
                        </mask>
                        <g id="Clip-9"></g>
                        <path d="M0.334,4.742 C1.199,3.213 1.823,1.638 2.081,0.081 L2.081,0.081 C1.688,1.043 1.077,2.682 0.334,4.742" id="Fill-8" mask="url(#mask-2)"></path>
                    </g>
                    <path d="M23.983,74.2804 C21.735,75.5434 20.243,76.4114 20.243,76.4114 C21.796,82.7254 34.065,90.6264 38.96,96.8624 C48.006,96.1024 55.282,93.2734 59.081,86.9884 C60.155,80.5054 54.875,73.7804 50.361,69.4254 C41.369,71.9694 30.214,72.1524 23.983,74.2804" id="Fill-11" fill="#F7F7F7"></path>
                </g>
            </g>
        </g>
    </g>
</svg>