<?xml version="1.0" encoding="UTF-8"?>
<svg width="92px" height="358px" viewBox="0 0 92 358" version="1.1" xmlns="http://www.w3.org/2000/svg" xmlns:xlink="http://www.w3.org/1999/xlink">
    <title>7925CFA6-A99A-436F-AB97-B434B3217117</title>
    <g id="LP" stroke="none" stroke-width="1" fill="none" fill-rule="evenodd">
        <g id="Easter_Egg_LP_02_1" transform="translate(-764.000000, -1265.000000)">
            <g id="Easter-Egg-Animations" transform="translate(109.000000, 1172.000000)">
                <g id="ribbon5" transform="translate(655.000000, 93.000000)">
                    <path d="M21.1418503,156.794492 C10.9708404,154.569267 2.58474455,150.119316 -0.000364356436,140.335403 C-0.000364356436,130.152183 19.3059723,112.0509 39.7463683,90.5555127 C57.1307248,72.2718191 86.9851802,46.0981948 91.4075564,0.302293064 C91.6443881,4.26177861 91.8365861,8.32018324 91.9823287,12.4902121 C91.9823287,40.7738075 84.0338931,74.7157555 69.2710812,95.0803798 C54.5082693,115.445004 23.6044673,145.772322 21.4547644,155.499062 C21.3937347,155.775854 21.2302068,156.555816 21.1418503,156.794492 Z" id="Fill-9" fill="#F7F7F7"></path>
                    <path d="M9.07736966,177.105937 C26.0964708,196.508894 65.8074034,183.953824 80.5585045,204.497486 C72.6159539,182.812204 70.7028978,171.007838 57.8657629,164.551782 C39.7117517,155.420655 5.67354944,162.268542 -9.10112358e-05,140.583261 L9.07736966,177.105937 Z" id="Fill-3" fill="#FFFFFF"></path>
                    <path d="M48.8893833,354.554895 C55.7469667,358.000553 71.74555,358.000553 71.74555,358.000553 C71.74555,358.000553 84.3167167,338.478842 84.3167167,332.737921 C84.3167167,326.997 79.7453,323.551342 79.7453,323.551342 C74.0317167,332.737921 46.4937437,343.334211 30.4942437,333 C36.6636701,344.307737 42.7953833,351.492702 48.8893833,354.554895 Z" id="Fill-6" fill="#FFFFFF"></path>
                    <path d="M68.6775647,195 C73.5572776,196.999145 77.776414,199.841707 80.8727524,204.151398 C92.1425871,224.565009 70.5237212,242.59635 54.5779879,260.648573 C40.16996,276.95858 28.3532844,297.905114 30.4942437,333 C-12.483261,297.75713 41.0561879,235.69921 50.172325,224.413393 C58.2238968,214.445814 66.2690993,203.599409 68.6775647,195" id="Fill-15" fill="#F7F7F7"></path>
                </g>
            </g>
        </g>
    </g>
</svg>