<?xml version="1.0" encoding="UTF-8"?>
<svg width="80px" height="381px" viewBox="0 0 80 381" version="1.1" xmlns="http://www.w3.org/2000/svg" xmlns:xlink="http://www.w3.org/1999/xlink">
    <title>EC1B00A6-934F-483D-BEF1-43848577679D</title>
    <g id="LP" stroke="none" stroke-width="1" fill="none" fill-rule="evenodd">
        <g id="Easter_Egg_LP_02_1" transform="translate(-575.000000, -1174.000000)">
            <g id="Easter-Egg-Animations" transform="translate(109.000000, 1172.000000)">
                <g id="ribbon2" transform="translate(466.000000, 2.000000)">
                    <path d="M59.2597073,274.431084 C59.2597073,274.431084 27.0840976,231.134478 26.292878,218.492294 C24.3416585,199.978228 39.0245854,170.78934 39.0245854,170.78934 C39.0245854,170.78934 73.1709268,211.715171 70.2440976,238.024634 C67.3172683,264.334097 59.2597073,274.431084 59.2597073,274.431084" id="Fill-3" fill="#F7F7F7"></path>
                    <path d="M11.7073171,380.290327 L0,338.390071 C0,338.390071 26.3560976,322.008045 40.9756098,305.259636 C54.3268293,289.964094 70.324878,232.056966 70.324878,232.056966 C70.324878,232.056966 84.8780488,314.029457 43.902439,354.955288 C17.3990244,381.426506 11.7073171,380.290327 11.7073171,380.290327" id="Fill-1" fill="#FFFFFF"></path>
                    <path d="M27.3780488,223.143417 C27.3780488,223.143417 19.1887805,196.45198 17.2970732,169.768338 C15.6678049,146.768021 20.1692683,123.769653 21.5243902,117.905566 C24.4512195,105.238047 50.8434146,13.211443 63.4756098,0.00019488491 C70.304878,11.6932895 79.0853659,28.2585069 79.0853659,28.2585069 C79.0853659,28.2585069 74.7273171,76.579246 63.4756098,112.059018 C48.2521951,160.06307 25.1341463,205.214006 27.3780488,223.143417" id="Fill-5" fill="#FFFFFF"></path>
                </g>
            </g>
        </g>
    </g>
</svg>