<?xml version="1.0" encoding="UTF-8"?>
<svg width="114px" height="380px" viewBox="0 0 114 380" version="1.1" xmlns="http://www.w3.org/2000/svg" xmlns:xlink="http://www.w3.org/1999/xlink">
    <title>5E83EB6E-24A3-4189-92A0-D43BEC360433</title>
    <g id="LP" stroke="none" stroke-width="1" fill="none" fill-rule="evenodd">
        <g id="Easter_Egg_LP_02_1" transform="translate(-109.000000, -1243.000000)">
            <g id="Easter-Egg-Animations" transform="translate(109.000000, 1172.000000)">
                <g id="ribbon1" transform="translate(0.000000, 71.000000)">
                    <path d="M33.8068382,380 C55.0681512,376.800093 64.0891345,372.319997 63.4452652,367.839902 L63.4452652,367.839902 C60.3281203,363.712845 42.1385294,363.328225 30.4773414,363 L30.4773414,363 L33.8068382,380 Z" id="Fill-1"></path>
                    <path d="M90.8858368,292.588833 C91.3455138,290.487255 91.4670244,286.140782 91.3099777,280 C78.9285028,300.910304 38.9205541,313.489965 21.2911956,318.610341 C7.80695441,322.525721 0.47734139,325.765798 0.47734139,328.368407 C6.98159917,336.825168 49.909242,336.173942 55.1571257,335.826546 C76.6381421,325.973318 87.0914954,306.295527 91.4773414,291.523713 C91.2778805,291.876842 91.0887366,292.237997 90.8858368,292.588833" id="Fill-7" fill="#F7F7F7"></path>
                    <path d="M63.4452605,367.840709 C60.3280086,363.713926 42.1389294,363.329331 30.4773414,363 L33.8058168,380 C55.0689947,376.800305 64.0891518,372.320507 63.4452605,367.840709" id="Fill-9" fill="#F7F7F7"></path>
                    <path d="M63.4773414,0 C66.7584683,30.0846207 95.6328474,272.071017 91.0390385,293 C114.662689,252.451464 114.662689,194.896472 112.694245,136.035508 C110.724643,77.1733919 102.850864,0 102.850864,0 L63.4773414,0 Z" id="Fill-12" fill="#FFFFFF"></path>
                    <path d="M2.42670365,356.949771 L0.47734139,329 C6.97330781,337.449771 51.8761749,336.754406 55.7302576,336.451974 C59.5809062,336.150687 61.5291238,338.75 61.5291238,340.699771 L63.4773414,368 C59.5809062,362.800229 32.3024259,363.449771 23.2092175,362.800229 C14.1171539,362.150687 2.42670365,360.849313 2.42670365,356.949771" id="Fill-15" fill="#FFFFFF"></path>
                </g>
            </g>
        </g>
    </g>
</svg>