<svg xmlns="http://www.w3.org/2000/svg" width="32" height="40" viewBox="0 0 32 40">
  <path fill="#FFF" fill-rule="evenodd" d="M20,7.99360578e-14 C24.6770976,7.99360578e-14 28.4686343,3.83095475 28.4686343,8.55667692 L28.4686343,8.55667692 L28.4676667,10.003 L29.5527778,10.0038592 C33.0214328,10.0038592 35.8333333,12.8449931 35.8333333,16.3497094 L35.8333333,33.6541498 C35.8333333,37.1588661 33.0214328,40 29.5527778,40 L10.4472222,40 C6.97856717,40 4.16666667,37.1588661 4.16666667,33.6541498 L4.16666667,16.3497094 C4.16666667,12.8449931 6.97856717,10.0038592 10.4472222,10.0038592 L11.5306667,10.003 L11.5313657,8.55667692 C11.5313657,3.91687697 15.1862818,0.139603236 19.7457813,0.00378164596 Z M29.5527778,12.1191426 L10.4472222,12.1191426 C8.25649271,12.1191426 6.45872438,13.8191008 6.27555411,15.9846799 L6.26018519,16.3497094 L6.26018519,33.6541498 C6.26018519,35.8676548 7.94265197,37.6841133 10.0859486,37.8691879 L10.4472222,37.8847166 L29.5527778,37.8847166 C31.7435073,37.8847166 33.5412756,36.1847583 33.7244459,34.0191793 L33.7398148,33.6541498 L33.7398148,16.3497094 C33.7398148,14.1362044 32.057348,12.3197458 29.9140514,12.1346713 L29.5527778,12.1191426 Z M20,20.1947703 C22.6276034,20.1947703 24.7576968,22.3470088 24.7576968,25.0019296 C24.7576968,27.6568504 22.6276034,29.8090889 20,29.8090889 C17.3723966,29.8090889 15.2423032,27.6568504 15.2423032,25.0019296 C15.2423032,22.3470088 17.3723966,20.1947703 20,20.1947703 Z M20,22.3100537 C18.528615,22.3100537 17.3358218,23.5152476 17.3358218,25.0019296 C17.3358218,26.4886116 18.528615,27.6938055 20,27.6938055 C21.471385,27.6938055 22.6641782,26.4886116 22.6641782,25.0019296 C22.6641782,23.5152476 21.471385,22.3100537 20,22.3100537 Z M20,2.11528341 C16.4791208,2.11528341 13.6248843,4.99919352 13.6248843,8.55667692 L13.6248843,8.55667692 L13.6247377,9.95245836 L26.3727701,9.95245836 L26.3751157,8.55667692 C26.3751157,5.14149285 23.7446513,2.34707394 20.4191656,2.12898472 L20.4191656,2.12898472 Z" transform="translate(-4)"/>
</svg>
